%TF.GenerationSoftware,KiCad,Pcbnew,6.0.5+dfsg-1*%
%TF.CreationDate,2022-06-06T15:17:49+08:00*%
%TF.ProjectId,pcb-backbox,7063622d-6261-4636-9b62-6f782e6b6963,rev?*%
%TF.SameCoordinates,Original*%
%TF.FileFunction,Copper,L1,Top*%
%TF.FilePolarity,Positive*%
%FSLAX46Y46*%
G04 Gerber Fmt 4.6, Leading zero omitted, Abs format (unit mm)*
G04 Created by KiCad (PCBNEW 6.0.5+dfsg-1) date 2022-06-06 15:17:49*
%MOMM*%
%LPD*%
G01*
G04 APERTURE LIST*
G04 Aperture macros list*
%AMRoundRect*
0 Rectangle with rounded corners*
0 $1 Rounding radius*
0 $2 $3 $4 $5 $6 $7 $8 $9 X,Y pos of 4 corners*
0 Add a 4 corners polygon primitive as box body*
4,1,4,$2,$3,$4,$5,$6,$7,$8,$9,$2,$3,0*
0 Add four circle primitives for the rounded corners*
1,1,$1+$1,$2,$3*
1,1,$1+$1,$4,$5*
1,1,$1+$1,$6,$7*
1,1,$1+$1,$8,$9*
0 Add four rect primitives between the rounded corners*
20,1,$1+$1,$2,$3,$4,$5,0*
20,1,$1+$1,$4,$5,$6,$7,0*
20,1,$1+$1,$6,$7,$8,$9,0*
20,1,$1+$1,$8,$9,$2,$3,0*%
G04 Aperture macros list end*
%TA.AperFunction,ComponentPad*%
%ADD10R,1.700000X1.700000*%
%TD*%
%TA.AperFunction,ComponentPad*%
%ADD11O,1.700000X1.700000*%
%TD*%
%TA.AperFunction,SMDPad,CuDef*%
%ADD12RoundRect,0.250000X0.250000X0.475000X-0.250000X0.475000X-0.250000X-0.475000X0.250000X-0.475000X0*%
%TD*%
%TA.AperFunction,SMDPad,CuDef*%
%ADD13RoundRect,0.250000X0.475000X-0.250000X0.475000X0.250000X-0.475000X0.250000X-0.475000X-0.250000X0*%
%TD*%
%TA.AperFunction,SMDPad,CuDef*%
%ADD14RoundRect,0.150000X-0.512500X-0.150000X0.512500X-0.150000X0.512500X0.150000X-0.512500X0.150000X0*%
%TD*%
%TA.AperFunction,SMDPad,CuDef*%
%ADD15RoundRect,0.250000X0.375000X0.850000X-0.375000X0.850000X-0.375000X-0.850000X0.375000X-0.850000X0*%
%TD*%
%TA.AperFunction,SMDPad,CuDef*%
%ADD16RoundRect,0.200000X0.200000X0.275000X-0.200000X0.275000X-0.200000X-0.275000X0.200000X-0.275000X0*%
%TD*%
%TA.AperFunction,SMDPad,CuDef*%
%ADD17R,0.900000X1.200000*%
%TD*%
%TA.AperFunction,ViaPad*%
%ADD18C,0.800000*%
%TD*%
%TA.AperFunction,Conductor*%
%ADD19C,0.250000*%
%TD*%
G04 APERTURE END LIST*
D10*
%TO.P,J1,1,Pin_1*%
%TO.N,+3V3*%
X135630000Y-115590000D03*
D11*
%TO.P,J1,2,Pin_2*%
X135630000Y-113050000D03*
%TO.P,J1,3,Pin_3*%
%TO.N,SPI_SCK*%
X133090000Y-115590000D03*
%TO.P,J1,4,Pin_4*%
%TO.N,SPI_MOSI*%
X133090000Y-113050000D03*
%TO.P,J1,5,Pin_5*%
%TO.N,SPI_DC*%
X130550000Y-115590000D03*
%TO.P,J1,6,Pin_6*%
%TO.N,SPI_CS_LCD0*%
X130550000Y-113050000D03*
%TO.P,J1,7,Pin_7*%
%TO.N,LCD_RESET*%
X128010000Y-115590000D03*
%TO.P,J1,8,Pin_8*%
%TO.N,VBAT*%
X128010000Y-113050000D03*
%TO.P,J1,9,Pin_9*%
%TO.N,GND*%
X125470000Y-115590000D03*
%TO.P,J1,10,Pin_10*%
X125470000Y-113050000D03*
%TD*%
D12*
%TO.P,C1,1*%
%TO.N,VBAT*%
X125050000Y-98500000D03*
%TO.P,C1,2*%
%TO.N,GND*%
X123150000Y-98500000D03*
%TD*%
D13*
%TO.P,C3,1*%
%TO.N,+3V3*%
X141950000Y-96900000D03*
%TO.P,C3,2*%
%TO.N,GND*%
X141950000Y-95000000D03*
%TD*%
%TO.P,C2,1*%
%TO.N,BLCD_A*%
X130900000Y-94250000D03*
%TO.P,C2,2*%
%TO.N,GND*%
X130900000Y-92350000D03*
%TD*%
D14*
%TO.P,U1,1,SW*%
%TO.N,Net-(D1-Pad2)*%
X123112500Y-94550000D03*
%TO.P,U1,2,GND*%
%TO.N,GND*%
X123112500Y-95500000D03*
%TO.P,U1,3,FB*%
%TO.N,BLCD_K*%
X123112500Y-96450000D03*
%TO.P,U1,4,EN*%
%TO.N,VBAT*%
X125387500Y-96450000D03*
%TO.P,U1,5,IN*%
X125387500Y-94550000D03*
%TD*%
D15*
%TO.P,L1,1,1*%
%TO.N,VBAT*%
X125325000Y-91900000D03*
%TO.P,L1,2,2*%
%TO.N,Net-(D1-Pad2)*%
X123175000Y-91900000D03*
%TD*%
D16*
%TO.P,R1,1*%
%TO.N,BLCD_K*%
X131325000Y-98200000D03*
%TO.P,R1,2*%
%TO.N,GND*%
X129675000Y-98200000D03*
%TD*%
D17*
%TO.P,D1,1,K*%
%TO.N,BLCD_A*%
X126200000Y-89200000D03*
%TO.P,D1,2,A*%
%TO.N,Net-(D1-Pad2)*%
X122900000Y-89200000D03*
%TD*%
D18*
%TO.N,GND*%
X122050000Y-98450000D03*
X129250000Y-92300000D03*
X142050000Y-93700000D03*
X128600000Y-98250000D03*
X121750000Y-95450000D03*
%TO.N,BLCD_A*%
X130750000Y-96050000D03*
%TO.N,+3V3*%
X140350000Y-97000000D03*
X140350000Y-82050000D03*
%TO.N,SPI_CS_LCD0*%
X130550000Y-84200000D03*
%TO.N,LCD_RESET*%
X129400000Y-85200000D03*
%TO.N,SPI_DC*%
X131000000Y-85900000D03*
%TO.N,SPI_MOSI*%
X132250000Y-87950000D03*
%TO.N,SPI_SCK*%
X140350000Y-88600000D03*
%TO.N,BLCD_K*%
X132450000Y-96850000D03*
X121700000Y-96900000D03*
%TD*%
D19*
%TO.N,VBAT*%
X125325000Y-94487500D02*
X125387500Y-94550000D01*
X125050000Y-98500000D02*
X125050000Y-96787500D01*
X128010000Y-101460000D02*
X125050000Y-98500000D01*
X125387500Y-94550000D02*
X125387500Y-96450000D01*
X125050000Y-96787500D02*
X125387500Y-96450000D01*
X125325000Y-91900000D02*
X125325000Y-94487500D01*
X128010000Y-113050000D02*
X128010000Y-101460000D01*
%TO.N,GND*%
X129675000Y-98200000D02*
X128650000Y-98200000D01*
X121800000Y-95500000D02*
X121750000Y-95450000D01*
X123112500Y-95500000D02*
X121800000Y-95500000D01*
X123150000Y-98500000D02*
X122100000Y-98500000D01*
X141950000Y-93800000D02*
X142050000Y-93700000D01*
X129300000Y-92350000D02*
X129250000Y-92300000D01*
X128650000Y-98200000D02*
X128600000Y-98250000D01*
X122100000Y-98500000D02*
X122050000Y-98450000D01*
X141950000Y-95000000D02*
X141950000Y-93800000D01*
X130900000Y-92350000D02*
X129300000Y-92350000D01*
%TO.N,BLCD_A*%
X130750000Y-96050000D02*
X130750000Y-94400000D01*
X128450000Y-91450000D02*
X128450000Y-93100000D01*
X126200000Y-89200000D02*
X128450000Y-91450000D01*
X128450000Y-93100000D02*
X129600000Y-94250000D01*
X129600000Y-94250000D02*
X130900000Y-94250000D01*
X130750000Y-94400000D02*
X130900000Y-94250000D01*
%TO.N,+3V3*%
X140350000Y-86950000D02*
X140350000Y-82050000D01*
X141450000Y-89400000D02*
X141450000Y-88050000D01*
X140350000Y-97000000D02*
X140350000Y-90500000D01*
X141450000Y-88050000D02*
X140350000Y-86950000D01*
X135630000Y-101720000D02*
X140350000Y-97000000D01*
X140450000Y-96900000D02*
X140350000Y-97000000D01*
X135630000Y-113050000D02*
X135630000Y-101720000D01*
X140350000Y-90500000D02*
X141450000Y-89400000D01*
X141950000Y-96900000D02*
X140450000Y-96900000D01*
%TO.N,SPI_CS_LCD0*%
X130275499Y-87775499D02*
X130275499Y-84474501D01*
X130275499Y-84474501D02*
X130550000Y-84200000D01*
X130550000Y-102200000D02*
X134250489Y-98499511D01*
X130550000Y-113050000D02*
X130550000Y-102200000D01*
X134250489Y-91750489D02*
X130275499Y-87775499D01*
X134250489Y-98499511D02*
X134250489Y-91750489D01*
%TO.N,LCD_RESET*%
X133800978Y-98199022D02*
X133800978Y-92250978D01*
X133800978Y-92250978D02*
X129400000Y-87850000D01*
X129250000Y-114350000D02*
X129250000Y-102750000D01*
X128010000Y-115590000D02*
X129250000Y-114350000D01*
X129400000Y-87850000D02*
X129400000Y-85200000D01*
X129250000Y-102750000D02*
X133800978Y-98199022D01*
%TO.N,SPI_DC*%
X131800000Y-101650000D02*
X134700000Y-98750000D01*
X134700000Y-91500000D02*
X131200000Y-88000000D01*
X134700000Y-98750000D02*
X134700000Y-91500000D01*
X131200000Y-88000000D02*
X131000000Y-87800000D01*
X131800000Y-114340000D02*
X131800000Y-113000000D01*
X131800000Y-113000000D02*
X131800000Y-101650000D01*
X131000000Y-87800000D02*
X131000000Y-85900000D01*
X130550000Y-115590000D02*
X131800000Y-114340000D01*
%TO.N,SPI_MOSI*%
X135150000Y-90850000D02*
X132250000Y-87950000D01*
X133090000Y-101010000D02*
X134950000Y-99150000D01*
X135150000Y-91750000D02*
X135150000Y-90850000D01*
X133090000Y-113050000D02*
X133090000Y-101010000D01*
X134950000Y-99150000D02*
X135150000Y-98950000D01*
X135150000Y-98950000D02*
X135150000Y-91750000D01*
%TO.N,SPI_SCK*%
X134350000Y-100550000D02*
X135600000Y-99300000D01*
X136700000Y-88600000D02*
X140350000Y-88600000D01*
X133090000Y-115590000D02*
X134350000Y-114330000D01*
X134350000Y-112750000D02*
X134350000Y-100550000D01*
X135700000Y-89600000D02*
X136700000Y-88600000D01*
X134350000Y-114330000D02*
X134350000Y-112750000D01*
X135600000Y-99300000D02*
X135700000Y-99200000D01*
X135700000Y-99200000D02*
X135700000Y-89600000D01*
%TO.N,BLCD_K*%
X132450000Y-97075000D02*
X131325000Y-98200000D01*
X123112500Y-96450000D02*
X122150000Y-96450000D01*
X132450000Y-96850000D02*
X132450000Y-97075000D01*
X122150000Y-96450000D02*
X121700000Y-96900000D01*
%TO.N,Net-(D1-Pad2)*%
X122900000Y-91625000D02*
X122900000Y-89200000D01*
X123112500Y-94550000D02*
X123112500Y-91962500D01*
X123112500Y-91962500D02*
X123175000Y-91900000D01*
X123175000Y-91900000D02*
X122900000Y-91625000D01*
%TD*%
M02*
