%TF.GenerationSoftware,KiCad,Pcbnew,6.0.5+dfsg-1*%
%TF.CreationDate,2022-06-06T15:17:50+08:00*%
%TF.ProjectId,pcb-backbox,7063622d-6261-4636-9b62-6f782e6b6963,rev?*%
%TF.SameCoordinates,Original*%
%TF.FileFunction,Legend,Top*%
%TF.FilePolarity,Positive*%
%FSLAX46Y46*%
G04 Gerber Fmt 4.6, Leading zero omitted, Abs format (unit mm)*
G04 Created by KiCad (PCBNEW 6.0.5+dfsg-1) date 2022-06-06 15:17:50*
%MOMM*%
%LPD*%
G01*
G04 APERTURE LIST*
%ADD10C,0.150000*%
%ADD11C,0.120000*%
G04 APERTURE END LIST*
D10*
%TO.C,J1*%
X125752380Y-110233333D02*
X126466666Y-110233333D01*
X126609523Y-110280952D01*
X126704761Y-110376190D01*
X126752380Y-110519047D01*
X126752380Y-110614285D01*
X126752380Y-109233333D02*
X126752380Y-109804761D01*
X126752380Y-109519047D02*
X125752380Y-109519047D01*
X125895238Y-109614285D01*
X125990476Y-109709523D01*
X126038095Y-109804761D01*
%TO.C,C1*%
X119883333Y-98907142D02*
X119835714Y-98954761D01*
X119692857Y-99002380D01*
X119597619Y-99002380D01*
X119454761Y-98954761D01*
X119359523Y-98859523D01*
X119311904Y-98764285D01*
X119264285Y-98573809D01*
X119264285Y-98430952D01*
X119311904Y-98240476D01*
X119359523Y-98145238D01*
X119454761Y-98050000D01*
X119597619Y-98002380D01*
X119692857Y-98002380D01*
X119835714Y-98050000D01*
X119883333Y-98097619D01*
X120835714Y-99002380D02*
X120264285Y-99002380D01*
X120550000Y-99002380D02*
X120550000Y-98002380D01*
X120454761Y-98145238D01*
X120359523Y-98240476D01*
X120264285Y-98288095D01*
%TO.C,C3*%
X141783333Y-98957142D02*
X141735714Y-99004761D01*
X141592857Y-99052380D01*
X141497619Y-99052380D01*
X141354761Y-99004761D01*
X141259523Y-98909523D01*
X141211904Y-98814285D01*
X141164285Y-98623809D01*
X141164285Y-98480952D01*
X141211904Y-98290476D01*
X141259523Y-98195238D01*
X141354761Y-98100000D01*
X141497619Y-98052380D01*
X141592857Y-98052380D01*
X141735714Y-98100000D01*
X141783333Y-98147619D01*
X142116666Y-98052380D02*
X142735714Y-98052380D01*
X142402380Y-98433333D01*
X142545238Y-98433333D01*
X142640476Y-98480952D01*
X142688095Y-98528571D01*
X142735714Y-98623809D01*
X142735714Y-98861904D01*
X142688095Y-98957142D01*
X142640476Y-99004761D01*
X142545238Y-99052380D01*
X142259523Y-99052380D01*
X142164285Y-99004761D01*
X142116666Y-98957142D01*
%TO.C,C2*%
X128533333Y-94257142D02*
X128485714Y-94304761D01*
X128342857Y-94352380D01*
X128247619Y-94352380D01*
X128104761Y-94304761D01*
X128009523Y-94209523D01*
X127961904Y-94114285D01*
X127914285Y-93923809D01*
X127914285Y-93780952D01*
X127961904Y-93590476D01*
X128009523Y-93495238D01*
X128104761Y-93400000D01*
X128247619Y-93352380D01*
X128342857Y-93352380D01*
X128485714Y-93400000D01*
X128533333Y-93447619D01*
X128914285Y-93447619D02*
X128961904Y-93400000D01*
X129057142Y-93352380D01*
X129295238Y-93352380D01*
X129390476Y-93400000D01*
X129438095Y-93447619D01*
X129485714Y-93542857D01*
X129485714Y-93638095D01*
X129438095Y-93780952D01*
X128866666Y-94352380D01*
X129485714Y-94352380D01*
%TO.C,U1*%
X119188095Y-95052380D02*
X119188095Y-95861904D01*
X119235714Y-95957142D01*
X119283333Y-96004761D01*
X119378571Y-96052380D01*
X119569047Y-96052380D01*
X119664285Y-96004761D01*
X119711904Y-95957142D01*
X119759523Y-95861904D01*
X119759523Y-95052380D01*
X120759523Y-96052380D02*
X120188095Y-96052380D01*
X120473809Y-96052380D02*
X120473809Y-95052380D01*
X120378571Y-95195238D01*
X120283333Y-95290476D01*
X120188095Y-95338095D01*
%TO.C,L1*%
X120133333Y-92152380D02*
X119657142Y-92152380D01*
X119657142Y-91152380D01*
X120990476Y-92152380D02*
X120419047Y-92152380D01*
X120704761Y-92152380D02*
X120704761Y-91152380D01*
X120609523Y-91295238D01*
X120514285Y-91390476D01*
X120419047Y-91438095D01*
%TO.C,R1*%
X129683333Y-100452380D02*
X129350000Y-99976190D01*
X129111904Y-100452380D02*
X129111904Y-99452380D01*
X129492857Y-99452380D01*
X129588095Y-99500000D01*
X129635714Y-99547619D01*
X129683333Y-99642857D01*
X129683333Y-99785714D01*
X129635714Y-99880952D01*
X129588095Y-99928571D01*
X129492857Y-99976190D01*
X129111904Y-99976190D01*
X130635714Y-100452380D02*
X130064285Y-100452380D01*
X130350000Y-100452380D02*
X130350000Y-99452380D01*
X130254761Y-99595238D01*
X130159523Y-99690476D01*
X130064285Y-99738095D01*
%TO.C,D1*%
X119461904Y-89602380D02*
X119461904Y-88602380D01*
X119700000Y-88602380D01*
X119842857Y-88650000D01*
X119938095Y-88745238D01*
X119985714Y-88840476D01*
X120033333Y-89030952D01*
X120033333Y-89173809D01*
X119985714Y-89364285D01*
X119938095Y-89459523D01*
X119842857Y-89554761D01*
X119700000Y-89602380D01*
X119461904Y-89602380D01*
X120985714Y-89602380D02*
X120414285Y-89602380D01*
X120700000Y-89602380D02*
X120700000Y-88602380D01*
X120604761Y-88745238D01*
X120509523Y-88840476D01*
X120414285Y-88888095D01*
D11*
%TO.C,J1*%
X136960000Y-115590000D02*
X136960000Y-116920000D01*
X136960000Y-111720000D02*
X136960000Y-114320000D01*
X134360000Y-116920000D02*
X124140000Y-116920000D01*
X136960000Y-116920000D02*
X135630000Y-116920000D01*
X136960000Y-114320000D02*
X134360000Y-114320000D01*
X124140000Y-111720000D02*
X124140000Y-116920000D01*
X134360000Y-114320000D02*
X134360000Y-116920000D01*
X136960000Y-111720000D02*
X124140000Y-111720000D01*
%TO.C,C1*%
X124361252Y-99235000D02*
X123838748Y-99235000D01*
X124361252Y-97765000D02*
X123838748Y-97765000D01*
%TO.C,C3*%
X142685000Y-96211252D02*
X142685000Y-95688748D01*
X141215000Y-96211252D02*
X141215000Y-95688748D01*
%TO.C,C2*%
X131635000Y-93561252D02*
X131635000Y-93038748D01*
X130165000Y-93561252D02*
X130165000Y-93038748D01*
%TO.C,U1*%
X124250000Y-93940000D02*
X125050000Y-93940000D01*
X124250000Y-97060000D02*
X123450000Y-97060000D01*
X124250000Y-93940000D02*
X122450000Y-93940000D01*
X124250000Y-97060000D02*
X125050000Y-97060000D01*
%TO.C,L1*%
X124511252Y-90790000D02*
X123988748Y-90790000D01*
X124511252Y-93010000D02*
X123988748Y-93010000D01*
%TO.C,R1*%
X130737258Y-98722500D02*
X130262742Y-98722500D01*
X130737258Y-97677500D02*
X130262742Y-97677500D01*
%TO.C,D1*%
X126800000Y-90200000D02*
X122900000Y-90200000D01*
X126800000Y-90200000D02*
X126800000Y-88200000D01*
X126800000Y-88200000D02*
X122900000Y-88200000D01*
%TD*%
M02*
