%FSLAX45Y45*%
G04 Gerber Fmt 4.5, Leading zero omitted, Abs format (unit mm)*
G04 Created by KiCad (PCBNEW 6.0.5+dfsg-1) date 2022-06-06 15:17:56*
%MOMM*%
%LPD*%
G01*
G04 APERTURE LIST*
%TA.AperFunction,Profile*%
%ADD10C,0.100000*%
%TD*%
%ADD11C,0.200000*%
%ADD12C,0.040000*%
%ADD13C,0.100000*%
G04 APERTURE END LIST*
D10*
X12415000Y-11690000D02*
X12415000Y-10740000D01*
X11480000Y-7350000D02*
X14630000Y-7350000D01*
X14630000Y-7350000D02*
X14630000Y-10745000D01*
X13695000Y-11690000D02*
X13695000Y-10745000D01*
X12415000Y-11690000D02*
X13695000Y-11690000D01*
X11480000Y-10740000D02*
X11480000Y-7350000D01*
X12415000Y-10740000D02*
X11480000Y-10740000D01*
X13695000Y-10745000D02*
X14630000Y-10745000D01*
D11*
D12*
X12150000Y-9670000D02*
X12190000Y-9710000D01*
X12190000Y-9670000D02*
X12150000Y-9710000D01*
X12155000Y-9525000D02*
X12195000Y-9565000D01*
X12195000Y-9525000D02*
X12155000Y-9565000D01*
X12185000Y-9825000D02*
X12225000Y-9865000D01*
X12225000Y-9825000D02*
X12185000Y-9865000D01*
X12840000Y-9805000D02*
X12880000Y-9845000D01*
X12880000Y-9805000D02*
X12840000Y-9845000D01*
X12905000Y-9210000D02*
X12945000Y-9250000D01*
X12945000Y-9210000D02*
X12905000Y-9250000D01*
X12920000Y-8500000D02*
X12960000Y-8540000D01*
X12960000Y-8500000D02*
X12920000Y-8540000D01*
X13035000Y-8400000D02*
X13075000Y-8440000D01*
X13075000Y-8400000D02*
X13035000Y-8440000D01*
X13055000Y-9585000D02*
X13095000Y-9625000D01*
X13095000Y-9585000D02*
X13055000Y-9625000D01*
X13080000Y-8570000D02*
X13120000Y-8610000D01*
X13120000Y-8570000D02*
X13080000Y-8610000D01*
X13205000Y-8775000D02*
X13245000Y-8815000D01*
X13245000Y-8775000D02*
X13205000Y-8815000D01*
X13225000Y-9665000D02*
X13265000Y-9705000D01*
X13265000Y-9665000D02*
X13225000Y-9705000D01*
X14015000Y-8185000D02*
X14055000Y-8225000D01*
X14055000Y-8185000D02*
X14015000Y-8225000D01*
X14015000Y-8840000D02*
X14055000Y-8880000D01*
X14055000Y-8840000D02*
X14015000Y-8880000D01*
X14015000Y-9680000D02*
X14055000Y-9720000D01*
X14055000Y-9680000D02*
X14015000Y-9720000D01*
X14185000Y-9350000D02*
X14225000Y-9390000D01*
X14225000Y-9350000D02*
X14185000Y-9390000D01*
D13*
X12597000Y-11305000D02*
G75*
G03*
X12597000Y-11305000I-50000J0D01*
G01*
X12597000Y-11559000D02*
G75*
G03*
X12597000Y-11559000I-50000J0D01*
G01*
X12851000Y-11305000D02*
G75*
G03*
X12851000Y-11305000I-50000J0D01*
G01*
X12851000Y-11559000D02*
G75*
G03*
X12851000Y-11559000I-50000J0D01*
G01*
X13105000Y-11305000D02*
G75*
G03*
X13105000Y-11305000I-50000J0D01*
G01*
X13105000Y-11559000D02*
G75*
G03*
X13105000Y-11559000I-50000J0D01*
G01*
X13359000Y-11305000D02*
G75*
G03*
X13359000Y-11305000I-50000J0D01*
G01*
X13359000Y-11559000D02*
G75*
G03*
X13359000Y-11559000I-50000J0D01*
G01*
X13613000Y-11305000D02*
G75*
G03*
X13613000Y-11305000I-50000J0D01*
G01*
X13613000Y-11559000D02*
G75*
G03*
X13613000Y-11559000I-50000J0D01*
G01*
D11*
X11732619Y-12005476D02*
X11732619Y-11805476D01*
X11780238Y-11805476D01*
X11808809Y-11815000D01*
X11827857Y-11834048D01*
X11837381Y-11853095D01*
X11846905Y-11891190D01*
X11846905Y-11919762D01*
X11837381Y-11957857D01*
X11827857Y-11976905D01*
X11808809Y-11995952D01*
X11780238Y-12005476D01*
X11732619Y-12005476D01*
X11932619Y-12005476D02*
X11932619Y-11872143D01*
X11932619Y-11910238D02*
X11942143Y-11891190D01*
X11951667Y-11881667D01*
X11970714Y-11872143D01*
X11989762Y-11872143D01*
X12056428Y-12005476D02*
X12056428Y-11872143D01*
X12056428Y-11805476D02*
X12046905Y-11815000D01*
X12056428Y-11824524D01*
X12065952Y-11815000D01*
X12056428Y-11805476D01*
X12056428Y-11824524D01*
X12180238Y-12005476D02*
X12161190Y-11995952D01*
X12151667Y-11976905D01*
X12151667Y-11805476D01*
X12285000Y-12005476D02*
X12265952Y-11995952D01*
X12256428Y-11976905D01*
X12256428Y-11805476D01*
X12513571Y-12005476D02*
X12513571Y-11805476D01*
X12580238Y-11948333D01*
X12646905Y-11805476D01*
X12646905Y-12005476D01*
X12827857Y-12005476D02*
X12827857Y-11900714D01*
X12818333Y-11881667D01*
X12799286Y-11872143D01*
X12761190Y-11872143D01*
X12742143Y-11881667D01*
X12827857Y-11995952D02*
X12808809Y-12005476D01*
X12761190Y-12005476D01*
X12742143Y-11995952D01*
X12732619Y-11976905D01*
X12732619Y-11957857D01*
X12742143Y-11938809D01*
X12761190Y-11929286D01*
X12808809Y-11929286D01*
X12827857Y-11919762D01*
X12923095Y-11872143D02*
X12923095Y-12072143D01*
X12923095Y-11881667D02*
X12942143Y-11872143D01*
X12980238Y-11872143D01*
X12999286Y-11881667D01*
X13008809Y-11891190D01*
X13018333Y-11910238D01*
X13018333Y-11967381D01*
X13008809Y-11986428D01*
X12999286Y-11995952D01*
X12980238Y-12005476D01*
X12942143Y-12005476D01*
X12923095Y-11995952D01*
X13104048Y-11986428D02*
X13113571Y-11995952D01*
X13104048Y-12005476D01*
X13094524Y-11995952D01*
X13104048Y-11986428D01*
X13104048Y-12005476D01*
X13104048Y-11881667D02*
X13113571Y-11891190D01*
X13104048Y-11900714D01*
X13094524Y-11891190D01*
X13104048Y-11881667D01*
X13104048Y-11900714D01*
D12*
X11435000Y-12315000D02*
X11475000Y-12355000D01*
X11475000Y-12315000D02*
X11435000Y-12355000D01*
D11*
X11770714Y-12225476D02*
X11789762Y-12225476D01*
X11808809Y-12235000D01*
X11818333Y-12244524D01*
X11827857Y-12263571D01*
X11837381Y-12301667D01*
X11837381Y-12349286D01*
X11827857Y-12387381D01*
X11818333Y-12406428D01*
X11808809Y-12415952D01*
X11789762Y-12425476D01*
X11770714Y-12425476D01*
X11751667Y-12415952D01*
X11742143Y-12406428D01*
X11732619Y-12387381D01*
X11723095Y-12349286D01*
X11723095Y-12301667D01*
X11732619Y-12263571D01*
X11742143Y-12244524D01*
X11751667Y-12235000D01*
X11770714Y-12225476D01*
X11923095Y-12406428D02*
X11932619Y-12415952D01*
X11923095Y-12425476D01*
X11913571Y-12415952D01*
X11923095Y-12406428D01*
X11923095Y-12425476D01*
X12104048Y-12292143D02*
X12104048Y-12425476D01*
X12056428Y-12215952D02*
X12008809Y-12358809D01*
X12132619Y-12358809D01*
X12246905Y-12225476D02*
X12265952Y-12225476D01*
X12285000Y-12235000D01*
X12294524Y-12244524D01*
X12304048Y-12263571D01*
X12313571Y-12301667D01*
X12313571Y-12349286D01*
X12304048Y-12387381D01*
X12294524Y-12406428D01*
X12285000Y-12415952D01*
X12265952Y-12425476D01*
X12246905Y-12425476D01*
X12227857Y-12415952D01*
X12218333Y-12406428D01*
X12208809Y-12387381D01*
X12199286Y-12349286D01*
X12199286Y-12301667D01*
X12208809Y-12263571D01*
X12218333Y-12244524D01*
X12227857Y-12235000D01*
X12246905Y-12225476D01*
X12437381Y-12225476D02*
X12456428Y-12225476D01*
X12475476Y-12235000D01*
X12485000Y-12244524D01*
X12494524Y-12263571D01*
X12504048Y-12301667D01*
X12504048Y-12349286D01*
X12494524Y-12387381D01*
X12485000Y-12406428D01*
X12475476Y-12415952D01*
X12456428Y-12425476D01*
X12437381Y-12425476D01*
X12418333Y-12415952D01*
X12408809Y-12406428D01*
X12399286Y-12387381D01*
X12389762Y-12349286D01*
X12389762Y-12301667D01*
X12399286Y-12263571D01*
X12408809Y-12244524D01*
X12418333Y-12235000D01*
X12437381Y-12225476D01*
X12589762Y-12425476D02*
X12589762Y-12292143D01*
X12589762Y-12311190D02*
X12599286Y-12301667D01*
X12618333Y-12292143D01*
X12646905Y-12292143D01*
X12665952Y-12301667D01*
X12675476Y-12320714D01*
X12675476Y-12425476D01*
X12675476Y-12320714D02*
X12685000Y-12301667D01*
X12704048Y-12292143D01*
X12732619Y-12292143D01*
X12751667Y-12301667D01*
X12761190Y-12320714D01*
X12761190Y-12425476D01*
X12856428Y-12425476D02*
X12856428Y-12292143D01*
X12856428Y-12311190D02*
X12865952Y-12301667D01*
X12885000Y-12292143D01*
X12913571Y-12292143D01*
X12932619Y-12301667D01*
X12942143Y-12320714D01*
X12942143Y-12425476D01*
X12942143Y-12320714D02*
X12951667Y-12301667D01*
X12970714Y-12292143D01*
X12999286Y-12292143D01*
X13018333Y-12301667D01*
X13027857Y-12320714D01*
X13027857Y-12425476D01*
X13418333Y-12215952D02*
X13246905Y-12473095D01*
X13675476Y-12225476D02*
X13694524Y-12225476D01*
X13713571Y-12235000D01*
X13723095Y-12244524D01*
X13732619Y-12263571D01*
X13742143Y-12301667D01*
X13742143Y-12349286D01*
X13732619Y-12387381D01*
X13723095Y-12406428D01*
X13713571Y-12415952D01*
X13694524Y-12425476D01*
X13675476Y-12425476D01*
X13656428Y-12415952D01*
X13646905Y-12406428D01*
X13637381Y-12387381D01*
X13627857Y-12349286D01*
X13627857Y-12301667D01*
X13637381Y-12263571D01*
X13646905Y-12244524D01*
X13656428Y-12235000D01*
X13675476Y-12225476D01*
X13827857Y-12406428D02*
X13837381Y-12415952D01*
X13827857Y-12425476D01*
X13818333Y-12415952D01*
X13827857Y-12406428D01*
X13827857Y-12425476D01*
X13961190Y-12225476D02*
X13980238Y-12225476D01*
X13999286Y-12235000D01*
X14008809Y-12244524D01*
X14018333Y-12263571D01*
X14027857Y-12301667D01*
X14027857Y-12349286D01*
X14018333Y-12387381D01*
X14008809Y-12406428D01*
X13999286Y-12415952D01*
X13980238Y-12425476D01*
X13961190Y-12425476D01*
X13942143Y-12415952D01*
X13932619Y-12406428D01*
X13923095Y-12387381D01*
X13913571Y-12349286D01*
X13913571Y-12301667D01*
X13923095Y-12263571D01*
X13932619Y-12244524D01*
X13942143Y-12235000D01*
X13961190Y-12225476D01*
X14218333Y-12425476D02*
X14104048Y-12425476D01*
X14161190Y-12425476D02*
X14161190Y-12225476D01*
X14142143Y-12254048D01*
X14123095Y-12273095D01*
X14104048Y-12282619D01*
X14399286Y-12225476D02*
X14304048Y-12225476D01*
X14294524Y-12320714D01*
X14304048Y-12311190D01*
X14323095Y-12301667D01*
X14370714Y-12301667D01*
X14389762Y-12311190D01*
X14399286Y-12320714D01*
X14408809Y-12339762D01*
X14408809Y-12387381D01*
X14399286Y-12406428D01*
X14389762Y-12415952D01*
X14370714Y-12425476D01*
X14323095Y-12425476D01*
X14304048Y-12415952D01*
X14294524Y-12406428D01*
X14475476Y-12225476D02*
X14608809Y-12225476D01*
X14523095Y-12425476D01*
X14675476Y-12225476D02*
X14675476Y-12263571D01*
X14751667Y-12225476D02*
X14751667Y-12263571D01*
X15046905Y-12501667D02*
X15037381Y-12492143D01*
X15018333Y-12463571D01*
X15008809Y-12444524D01*
X14999286Y-12415952D01*
X14989762Y-12368333D01*
X14989762Y-12330238D01*
X14999286Y-12282619D01*
X15008809Y-12254048D01*
X15018333Y-12235000D01*
X15037381Y-12206428D01*
X15046905Y-12196905D01*
X15227857Y-12425476D02*
X15113571Y-12425476D01*
X15170714Y-12425476D02*
X15170714Y-12225476D01*
X15151667Y-12254048D01*
X15132619Y-12273095D01*
X15113571Y-12282619D01*
X15408809Y-12225476D02*
X15313571Y-12225476D01*
X15304048Y-12320714D01*
X15313571Y-12311190D01*
X15332619Y-12301667D01*
X15380238Y-12301667D01*
X15399286Y-12311190D01*
X15408809Y-12320714D01*
X15418333Y-12339762D01*
X15418333Y-12387381D01*
X15408809Y-12406428D01*
X15399286Y-12415952D01*
X15380238Y-12425476D01*
X15332619Y-12425476D01*
X15313571Y-12415952D01*
X15304048Y-12406428D01*
X15656428Y-12425476D02*
X15656428Y-12225476D01*
X15742143Y-12425476D02*
X15742143Y-12320714D01*
X15732619Y-12301667D01*
X15713571Y-12292143D01*
X15685000Y-12292143D01*
X15665952Y-12301667D01*
X15656428Y-12311190D01*
X15865952Y-12425476D02*
X15846905Y-12415952D01*
X15837381Y-12406428D01*
X15827857Y-12387381D01*
X15827857Y-12330238D01*
X15837381Y-12311190D01*
X15846905Y-12301667D01*
X15865952Y-12292143D01*
X15894524Y-12292143D01*
X15913571Y-12301667D01*
X15923095Y-12311190D01*
X15932619Y-12330238D01*
X15932619Y-12387381D01*
X15923095Y-12406428D01*
X15913571Y-12415952D01*
X15894524Y-12425476D01*
X15865952Y-12425476D01*
X16046905Y-12425476D02*
X16027857Y-12415952D01*
X16018333Y-12396905D01*
X16018333Y-12225476D01*
X16199286Y-12415952D02*
X16180238Y-12425476D01*
X16142143Y-12425476D01*
X16123095Y-12415952D01*
X16113571Y-12396905D01*
X16113571Y-12320714D01*
X16123095Y-12301667D01*
X16142143Y-12292143D01*
X16180238Y-12292143D01*
X16199286Y-12301667D01*
X16208809Y-12320714D01*
X16208809Y-12339762D01*
X16113571Y-12358809D01*
X16285000Y-12415952D02*
X16304048Y-12425476D01*
X16342143Y-12425476D01*
X16361190Y-12415952D01*
X16370714Y-12396905D01*
X16370714Y-12387381D01*
X16361190Y-12368333D01*
X16342143Y-12358809D01*
X16313571Y-12358809D01*
X16294524Y-12349286D01*
X16285000Y-12330238D01*
X16285000Y-12320714D01*
X16294524Y-12301667D01*
X16313571Y-12292143D01*
X16342143Y-12292143D01*
X16361190Y-12301667D01*
X16437381Y-12501667D02*
X16446905Y-12492143D01*
X16465952Y-12463571D01*
X16475476Y-12444524D01*
X16485000Y-12415952D01*
X16494524Y-12368333D01*
X16494524Y-12330238D01*
X16485000Y-12282619D01*
X16475476Y-12254048D01*
X16465952Y-12235000D01*
X16446905Y-12206428D01*
X16437381Y-12196905D01*
D13*
X11475000Y-12599000D02*
G75*
G03*
X11475000Y-12599000I-50000J0D01*
G01*
D11*
X11837381Y-12689476D02*
X11723095Y-12689476D01*
X11780238Y-12689476D02*
X11780238Y-12489476D01*
X11761190Y-12518048D01*
X11742143Y-12537095D01*
X11723095Y-12546619D01*
X11923095Y-12670428D02*
X11932619Y-12679952D01*
X11923095Y-12689476D01*
X11913571Y-12679952D01*
X11923095Y-12670428D01*
X11923095Y-12689476D01*
X12056428Y-12489476D02*
X12075476Y-12489476D01*
X12094524Y-12499000D01*
X12104048Y-12508524D01*
X12113571Y-12527571D01*
X12123095Y-12565667D01*
X12123095Y-12613286D01*
X12113571Y-12651381D01*
X12104048Y-12670428D01*
X12094524Y-12679952D01*
X12075476Y-12689476D01*
X12056428Y-12689476D01*
X12037381Y-12679952D01*
X12027857Y-12670428D01*
X12018333Y-12651381D01*
X12008809Y-12613286D01*
X12008809Y-12565667D01*
X12018333Y-12527571D01*
X12027857Y-12508524D01*
X12037381Y-12499000D01*
X12056428Y-12489476D01*
X12246905Y-12489476D02*
X12265952Y-12489476D01*
X12285000Y-12499000D01*
X12294524Y-12508524D01*
X12304048Y-12527571D01*
X12313571Y-12565667D01*
X12313571Y-12613286D01*
X12304048Y-12651381D01*
X12294524Y-12670428D01*
X12285000Y-12679952D01*
X12265952Y-12689476D01*
X12246905Y-12689476D01*
X12227857Y-12679952D01*
X12218333Y-12670428D01*
X12208809Y-12651381D01*
X12199286Y-12613286D01*
X12199286Y-12565667D01*
X12208809Y-12527571D01*
X12218333Y-12508524D01*
X12227857Y-12499000D01*
X12246905Y-12489476D01*
X12437381Y-12489476D02*
X12456428Y-12489476D01*
X12475476Y-12499000D01*
X12485000Y-12508524D01*
X12494524Y-12527571D01*
X12504048Y-12565667D01*
X12504048Y-12613286D01*
X12494524Y-12651381D01*
X12485000Y-12670428D01*
X12475476Y-12679952D01*
X12456428Y-12689476D01*
X12437381Y-12689476D01*
X12418333Y-12679952D01*
X12408809Y-12670428D01*
X12399286Y-12651381D01*
X12389762Y-12613286D01*
X12389762Y-12565667D01*
X12399286Y-12527571D01*
X12408809Y-12508524D01*
X12418333Y-12499000D01*
X12437381Y-12489476D01*
X12589762Y-12689476D02*
X12589762Y-12556143D01*
X12589762Y-12575190D02*
X12599286Y-12565667D01*
X12618333Y-12556143D01*
X12646905Y-12556143D01*
X12665952Y-12565667D01*
X12675476Y-12584714D01*
X12675476Y-12689476D01*
X12675476Y-12584714D02*
X12685000Y-12565667D01*
X12704048Y-12556143D01*
X12732619Y-12556143D01*
X12751667Y-12565667D01*
X12761190Y-12584714D01*
X12761190Y-12689476D01*
X12856428Y-12689476D02*
X12856428Y-12556143D01*
X12856428Y-12575190D02*
X12865952Y-12565667D01*
X12885000Y-12556143D01*
X12913571Y-12556143D01*
X12932619Y-12565667D01*
X12942143Y-12584714D01*
X12942143Y-12689476D01*
X12942143Y-12584714D02*
X12951667Y-12565667D01*
X12970714Y-12556143D01*
X12999286Y-12556143D01*
X13018333Y-12565667D01*
X13027857Y-12584714D01*
X13027857Y-12689476D01*
X13418333Y-12479952D02*
X13246905Y-12737095D01*
X13675476Y-12489476D02*
X13694524Y-12489476D01*
X13713571Y-12499000D01*
X13723095Y-12508524D01*
X13732619Y-12527571D01*
X13742143Y-12565667D01*
X13742143Y-12613286D01*
X13732619Y-12651381D01*
X13723095Y-12670428D01*
X13713571Y-12679952D01*
X13694524Y-12689476D01*
X13675476Y-12689476D01*
X13656428Y-12679952D01*
X13646905Y-12670428D01*
X13637381Y-12651381D01*
X13627857Y-12613286D01*
X13627857Y-12565667D01*
X13637381Y-12527571D01*
X13646905Y-12508524D01*
X13656428Y-12499000D01*
X13675476Y-12489476D01*
X13827857Y-12670428D02*
X13837381Y-12679952D01*
X13827857Y-12689476D01*
X13818333Y-12679952D01*
X13827857Y-12670428D01*
X13827857Y-12689476D01*
X13961190Y-12489476D02*
X13980238Y-12489476D01*
X13999286Y-12499000D01*
X14008809Y-12508524D01*
X14018333Y-12527571D01*
X14027857Y-12565667D01*
X14027857Y-12613286D01*
X14018333Y-12651381D01*
X14008809Y-12670428D01*
X13999286Y-12679952D01*
X13980238Y-12689476D01*
X13961190Y-12689476D01*
X13942143Y-12679952D01*
X13932619Y-12670428D01*
X13923095Y-12651381D01*
X13913571Y-12613286D01*
X13913571Y-12565667D01*
X13923095Y-12527571D01*
X13932619Y-12508524D01*
X13942143Y-12499000D01*
X13961190Y-12489476D01*
X14094524Y-12489476D02*
X14218333Y-12489476D01*
X14151667Y-12565667D01*
X14180238Y-12565667D01*
X14199286Y-12575190D01*
X14208809Y-12584714D01*
X14218333Y-12603762D01*
X14218333Y-12651381D01*
X14208809Y-12670428D01*
X14199286Y-12679952D01*
X14180238Y-12689476D01*
X14123095Y-12689476D01*
X14104048Y-12679952D01*
X14094524Y-12670428D01*
X14313571Y-12689476D02*
X14351667Y-12689476D01*
X14370714Y-12679952D01*
X14380238Y-12670428D01*
X14399286Y-12641857D01*
X14408809Y-12603762D01*
X14408809Y-12527571D01*
X14399286Y-12508524D01*
X14389762Y-12499000D01*
X14370714Y-12489476D01*
X14332619Y-12489476D01*
X14313571Y-12499000D01*
X14304048Y-12508524D01*
X14294524Y-12527571D01*
X14294524Y-12575190D01*
X14304048Y-12594238D01*
X14313571Y-12603762D01*
X14332619Y-12613286D01*
X14370714Y-12613286D01*
X14389762Y-12603762D01*
X14399286Y-12594238D01*
X14408809Y-12575190D01*
X14580238Y-12556143D02*
X14580238Y-12689476D01*
X14532619Y-12479952D02*
X14485000Y-12622809D01*
X14608809Y-12622809D01*
X14675476Y-12489476D02*
X14675476Y-12527571D01*
X14751667Y-12489476D02*
X14751667Y-12527571D01*
X15046905Y-12765667D02*
X15037381Y-12756143D01*
X15018333Y-12727571D01*
X15008809Y-12708524D01*
X14999286Y-12679952D01*
X14989762Y-12632333D01*
X14989762Y-12594238D01*
X14999286Y-12546619D01*
X15008809Y-12518048D01*
X15018333Y-12499000D01*
X15037381Y-12470428D01*
X15046905Y-12460905D01*
X15227857Y-12689476D02*
X15113571Y-12689476D01*
X15170714Y-12689476D02*
X15170714Y-12489476D01*
X15151667Y-12518048D01*
X15132619Y-12537095D01*
X15113571Y-12546619D01*
X15351667Y-12489476D02*
X15370714Y-12489476D01*
X15389762Y-12499000D01*
X15399286Y-12508524D01*
X15408809Y-12527571D01*
X15418333Y-12565667D01*
X15418333Y-12613286D01*
X15408809Y-12651381D01*
X15399286Y-12670428D01*
X15389762Y-12679952D01*
X15370714Y-12689476D01*
X15351667Y-12689476D01*
X15332619Y-12679952D01*
X15323095Y-12670428D01*
X15313571Y-12651381D01*
X15304048Y-12613286D01*
X15304048Y-12565667D01*
X15313571Y-12527571D01*
X15323095Y-12508524D01*
X15332619Y-12499000D01*
X15351667Y-12489476D01*
X15656428Y-12689476D02*
X15656428Y-12489476D01*
X15742143Y-12689476D02*
X15742143Y-12584714D01*
X15732619Y-12565667D01*
X15713571Y-12556143D01*
X15685000Y-12556143D01*
X15665952Y-12565667D01*
X15656428Y-12575190D01*
X15865952Y-12689476D02*
X15846905Y-12679952D01*
X15837381Y-12670428D01*
X15827857Y-12651381D01*
X15827857Y-12594238D01*
X15837381Y-12575190D01*
X15846905Y-12565667D01*
X15865952Y-12556143D01*
X15894524Y-12556143D01*
X15913571Y-12565667D01*
X15923095Y-12575190D01*
X15932619Y-12594238D01*
X15932619Y-12651381D01*
X15923095Y-12670428D01*
X15913571Y-12679952D01*
X15894524Y-12689476D01*
X15865952Y-12689476D01*
X16046905Y-12689476D02*
X16027857Y-12679952D01*
X16018333Y-12660905D01*
X16018333Y-12489476D01*
X16199286Y-12679952D02*
X16180238Y-12689476D01*
X16142143Y-12689476D01*
X16123095Y-12679952D01*
X16113571Y-12660905D01*
X16113571Y-12584714D01*
X16123095Y-12565667D01*
X16142143Y-12556143D01*
X16180238Y-12556143D01*
X16199286Y-12565667D01*
X16208809Y-12584714D01*
X16208809Y-12603762D01*
X16113571Y-12622809D01*
X16285000Y-12679952D02*
X16304048Y-12689476D01*
X16342143Y-12689476D01*
X16361190Y-12679952D01*
X16370714Y-12660905D01*
X16370714Y-12651381D01*
X16361190Y-12632333D01*
X16342143Y-12622809D01*
X16313571Y-12622809D01*
X16294524Y-12613286D01*
X16285000Y-12594238D01*
X16285000Y-12584714D01*
X16294524Y-12565667D01*
X16313571Y-12556143D01*
X16342143Y-12556143D01*
X16361190Y-12565667D01*
X16437381Y-12765667D02*
X16446905Y-12756143D01*
X16465952Y-12727571D01*
X16475476Y-12708524D01*
X16485000Y-12679952D01*
X16494524Y-12632333D01*
X16494524Y-12594238D01*
X16485000Y-12546619D01*
X16475476Y-12518048D01*
X16465952Y-12499000D01*
X16446905Y-12470428D01*
X16437381Y-12460905D01*
M02*
