M48
; DRILL file {KiCad 6.0.5+dfsg-1} date Mon 06 Jun 2022 03:17:55 PM CST
; FORMAT={-:-/ absolute / inch / decimal}
; #@! TF.CreationDate,2022-06-06T15:17:55+08:00
; #@! TF.GenerationSoftware,Kicad,Pcbnew,6.0.5+dfsg-1
; #@! TF.FileFunction,Plated,1,2,PTH
FMAT,2
INCH
; #@! TA.AperFunction,Plated,PTH,ViaDrill
T1C0.0157
; #@! TA.AperFunction,Plated,PTH,ComponentDrill
T2C0.0394
%
G90
G05
T1
X4.7913Y-3.815
X4.7933Y-3.7579
X4.8051Y-3.876
X5.063Y-3.8681
X5.0886Y-3.6339
X5.0945Y-3.3543
X5.1398Y-3.315
X5.1476Y-3.7815
X5.1575Y-3.3819
X5.2067Y-3.4626
X5.2146Y-3.813
X5.5256Y-3.2303
X5.5256Y-3.4882
X5.5256Y-3.8189
X5.5925Y-3.689
T2
X4.9398Y-4.4508
X4.9398Y-4.5508
X5.0398Y-4.4508
X5.0398Y-4.5508
X5.1398Y-4.4508
X5.1398Y-4.5508
X5.2398Y-4.4508
X5.2398Y-4.5508
X5.3398Y-4.4508
X5.3398Y-4.5508
T0
M30
