M48
; DRILL file {KiCad 6.0.5+dfsg-1} date Sun 12 Jun 2022 07:52:07 PM CST
; FORMAT={-:-/ absolute / inch / decimal}
; #@! TF.CreationDate,2022-06-12T19:52:07+08:00
; #@! TF.GenerationSoftware,Kicad,Pcbnew,6.0.5+dfsg-1
; #@! TF.FileFunction,Plated,1,2,PTH
FMAT,2
INCH
; #@! TA.AperFunction,Plated,PTH,ViaDrill
T1C0.0157
; #@! TA.AperFunction,Plated,PTH,ComponentDrill
T2C0.0394
%
G90
G05
T1
X4.6378Y-2.7057
X4.7628Y-3.2067
X4.7697Y-2.7805
X4.9055Y-2.7638
X5.2402Y-2.7569
X5.439Y-4.1142
X5.5325Y-2.938
X5.5659Y-2.5571
X5.7756Y-2.6575
X5.8573Y-2.8947
X6.0492Y-2.8169
T2
X4.9398Y-4.4508
X4.9398Y-4.5508
X5.0398Y-4.4508
X5.0398Y-4.5508
X5.1398Y-4.4508
X5.1398Y-4.5508
X5.2398Y-4.4508
X5.2398Y-4.5508
X5.3398Y-4.4508
X5.3398Y-4.5508
T0
M30
