%TF.GenerationSoftware,KiCad,Pcbnew,6.0.5+dfsg-1*%
%TF.CreationDate,2022-06-12T19:51:58+08:00*%
%TF.ProjectId,pcb-backbox,7063622d-6261-4636-9b62-6f782e6b6963,rev?*%
%TF.SameCoordinates,Original*%
%TF.FileFunction,Legend,Top*%
%TF.FilePolarity,Positive*%
%FSLAX46Y46*%
G04 Gerber Fmt 4.6, Leading zero omitted, Abs format (unit mm)*
G04 Created by KiCad (PCBNEW 6.0.5+dfsg-1) date 2022-06-12 19:51:58*
%MOMM*%
%LPD*%
G01*
G04 APERTURE LIST*
%ADD10C,0.150000*%
%ADD11C,0.300000*%
%ADD12C,0.120000*%
G04 APERTURE END LIST*
D10*
X156625000Y-105850000D02*
X104475000Y-105850000D01*
D11*
X106142857Y-62238571D02*
X106142857Y-60738571D01*
X106714285Y-60738571D01*
X106857142Y-60810000D01*
X106928571Y-60881428D01*
X107000000Y-61024285D01*
X107000000Y-61238571D01*
X106928571Y-61381428D01*
X106857142Y-61452857D01*
X106714285Y-61524285D01*
X106142857Y-61524285D01*
X108142857Y-61452857D02*
X108357142Y-61524285D01*
X108428571Y-61595714D01*
X108500000Y-61738571D01*
X108500000Y-61952857D01*
X108428571Y-62095714D01*
X108357142Y-62167142D01*
X108214285Y-62238571D01*
X107642857Y-62238571D01*
X107642857Y-60738571D01*
X108142857Y-60738571D01*
X108285714Y-60810000D01*
X108357142Y-60881428D01*
X108428571Y-61024285D01*
X108428571Y-61167142D01*
X108357142Y-61310000D01*
X108285714Y-61381428D01*
X108142857Y-61452857D01*
X107642857Y-61452857D01*
X109642857Y-61452857D02*
X109142857Y-61452857D01*
X109142857Y-62238571D02*
X109142857Y-60738571D01*
X109857142Y-60738571D01*
X110357142Y-61810000D02*
X111071428Y-61810000D01*
X110214285Y-62238571D02*
X110714285Y-60738571D01*
X111214285Y-62238571D01*
X111714285Y-62238571D02*
X111714285Y-60738571D01*
X112571428Y-62238571D01*
X112571428Y-60738571D01*
X113071428Y-60738571D02*
X113928571Y-60738571D01*
X113500000Y-62238571D02*
X113500000Y-60738571D01*
X114357142Y-61810000D02*
X115071428Y-61810000D01*
X114214285Y-62238571D02*
X114714285Y-60738571D01*
X115214285Y-62238571D01*
X115642857Y-62167142D02*
X115857142Y-62238571D01*
X116214285Y-62238571D01*
X116357142Y-62167142D01*
X116428571Y-62095714D01*
X116500000Y-61952857D01*
X116500000Y-61810000D01*
X116428571Y-61667142D01*
X116357142Y-61595714D01*
X116214285Y-61524285D01*
X115928571Y-61452857D01*
X115785714Y-61381428D01*
X115714285Y-61310000D01*
X115642857Y-61167142D01*
X115642857Y-61024285D01*
X115714285Y-60881428D01*
X115785714Y-60810000D01*
X115928571Y-60738571D01*
X116285714Y-60738571D01*
X116500000Y-60810000D01*
X117142857Y-62238571D02*
X117142857Y-60738571D01*
X117857142Y-61452857D02*
X118357142Y-61452857D01*
X118571428Y-62238571D02*
X117857142Y-62238571D01*
X117857142Y-60738571D01*
X118571428Y-60738571D01*
X119142857Y-62167142D02*
X119357142Y-62238571D01*
X119714285Y-62238571D01*
X119857142Y-62167142D01*
X119928571Y-62095714D01*
X120000000Y-61952857D01*
X120000000Y-61810000D01*
X119928571Y-61667142D01*
X119857142Y-61595714D01*
X119714285Y-61524285D01*
X119428571Y-61452857D01*
X119285714Y-61381428D01*
X119214285Y-61310000D01*
X119142857Y-61167142D01*
X119142857Y-61024285D01*
X119214285Y-60881428D01*
X119285714Y-60810000D01*
X119428571Y-60738571D01*
X119785714Y-60738571D01*
X120000000Y-60810000D01*
X122285714Y-61452857D02*
X122500000Y-61524285D01*
X122571428Y-61595714D01*
X122642857Y-61738571D01*
X122642857Y-61952857D01*
X122571428Y-62095714D01*
X122500000Y-62167142D01*
X122357142Y-62238571D01*
X121785714Y-62238571D01*
X121785714Y-60738571D01*
X122285714Y-60738571D01*
X122428571Y-60810000D01*
X122500000Y-60881428D01*
X122571428Y-61024285D01*
X122571428Y-61167142D01*
X122500000Y-61310000D01*
X122428571Y-61381428D01*
X122285714Y-61452857D01*
X121785714Y-61452857D01*
X123214285Y-61810000D02*
X123928571Y-61810000D01*
X123071428Y-62238571D02*
X123571428Y-60738571D01*
X124071428Y-62238571D01*
X125428571Y-62095714D02*
X125357142Y-62167142D01*
X125142857Y-62238571D01*
X125000000Y-62238571D01*
X124785714Y-62167142D01*
X124642857Y-62024285D01*
X124571428Y-61881428D01*
X124500000Y-61595714D01*
X124500000Y-61381428D01*
X124571428Y-61095714D01*
X124642857Y-60952857D01*
X124785714Y-60810000D01*
X125000000Y-60738571D01*
X125142857Y-60738571D01*
X125357142Y-60810000D01*
X125428571Y-60881428D01*
X126071428Y-62238571D02*
X126071428Y-60738571D01*
X126928571Y-62238571D02*
X126285714Y-61381428D01*
X126928571Y-60738571D02*
X126071428Y-61595714D01*
X128071428Y-61452857D02*
X128285714Y-61524285D01*
X128357142Y-61595714D01*
X128428571Y-61738571D01*
X128428571Y-61952857D01*
X128357142Y-62095714D01*
X128285714Y-62167142D01*
X128142857Y-62238571D01*
X127571428Y-62238571D01*
X127571428Y-60738571D01*
X128071428Y-60738571D01*
X128214285Y-60810000D01*
X128285714Y-60881428D01*
X128357142Y-61024285D01*
X128357142Y-61167142D01*
X128285714Y-61310000D01*
X128214285Y-61381428D01*
X128071428Y-61452857D01*
X127571428Y-61452857D01*
X129357142Y-60738571D02*
X129642857Y-60738571D01*
X129785714Y-60810000D01*
X129928571Y-60952857D01*
X130000000Y-61238571D01*
X130000000Y-61738571D01*
X129928571Y-62024285D01*
X129785714Y-62167142D01*
X129642857Y-62238571D01*
X129357142Y-62238571D01*
X129214285Y-62167142D01*
X129071428Y-62024285D01*
X129000000Y-61738571D01*
X129000000Y-61238571D01*
X129071428Y-60952857D01*
X129214285Y-60810000D01*
X129357142Y-60738571D01*
X130500000Y-60738571D02*
X131500000Y-62238571D01*
X131500000Y-60738571D02*
X130500000Y-62238571D01*
X106500000Y-64653571D02*
X105785714Y-64653571D01*
X105785714Y-63153571D01*
X107857142Y-64510714D02*
X107785714Y-64582142D01*
X107571428Y-64653571D01*
X107428571Y-64653571D01*
X107214285Y-64582142D01*
X107071428Y-64439285D01*
X107000000Y-64296428D01*
X106928571Y-64010714D01*
X106928571Y-63796428D01*
X107000000Y-63510714D01*
X107071428Y-63367857D01*
X107214285Y-63225000D01*
X107428571Y-63153571D01*
X107571428Y-63153571D01*
X107785714Y-63225000D01*
X107857142Y-63296428D01*
X108500000Y-64653571D02*
X108500000Y-63153571D01*
X108857142Y-63153571D01*
X109071428Y-63225000D01*
X109214285Y-63367857D01*
X109285714Y-63510714D01*
X109357142Y-63796428D01*
X109357142Y-64010714D01*
X109285714Y-64296428D01*
X109214285Y-64439285D01*
X109071428Y-64582142D01*
X108857142Y-64653571D01*
X108500000Y-64653571D01*
X111000000Y-63153571D02*
X111928571Y-63153571D01*
X111428571Y-63725000D01*
X111642857Y-63725000D01*
X111785714Y-63796428D01*
X111857142Y-63867857D01*
X111928571Y-64010714D01*
X111928571Y-64367857D01*
X111857142Y-64510714D01*
X111785714Y-64582142D01*
X111642857Y-64653571D01*
X111214285Y-64653571D01*
X111071428Y-64582142D01*
X111000000Y-64510714D01*
X112500000Y-63296428D02*
X112571428Y-63225000D01*
X112714285Y-63153571D01*
X113071428Y-63153571D01*
X113214285Y-63225000D01*
X113285714Y-63296428D01*
X113357142Y-63439285D01*
X113357142Y-63582142D01*
X113285714Y-63796428D01*
X112428571Y-64653571D01*
X113357142Y-64653571D01*
X114285714Y-63153571D02*
X114428571Y-63153571D01*
X114571428Y-63225000D01*
X114642857Y-63296428D01*
X114714285Y-63439285D01*
X114785714Y-63725000D01*
X114785714Y-64082142D01*
X114714285Y-64367857D01*
X114642857Y-64510714D01*
X114571428Y-64582142D01*
X114428571Y-64653571D01*
X114285714Y-64653571D01*
X114142857Y-64582142D01*
X114071428Y-64510714D01*
X114000000Y-64367857D01*
X113928571Y-64082142D01*
X113928571Y-63725000D01*
X114000000Y-63439285D01*
X114071428Y-63296428D01*
X114142857Y-63225000D01*
X114285714Y-63153571D01*
X115285714Y-64653571D02*
X116071428Y-63653571D01*
X115285714Y-63653571D02*
X116071428Y-64653571D01*
X116571428Y-63296428D02*
X116642857Y-63225000D01*
X116785714Y-63153571D01*
X117142857Y-63153571D01*
X117285714Y-63225000D01*
X117357142Y-63296428D01*
X117428571Y-63439285D01*
X117428571Y-63582142D01*
X117357142Y-63796428D01*
X116500000Y-64653571D01*
X117428571Y-64653571D01*
X118714285Y-63653571D02*
X118714285Y-64653571D01*
X118357142Y-63082142D02*
X118000000Y-64153571D01*
X118928571Y-64153571D01*
X119785714Y-63153571D02*
X119928571Y-63153571D01*
X120071428Y-63225000D01*
X120142857Y-63296428D01*
X120214285Y-63439285D01*
X120285714Y-63725000D01*
X120285714Y-64082142D01*
X120214285Y-64367857D01*
X120142857Y-64510714D01*
X120071428Y-64582142D01*
X119928571Y-64653571D01*
X119785714Y-64653571D01*
X119642857Y-64582142D01*
X119571428Y-64510714D01*
X119500000Y-64367857D01*
X119428571Y-64082142D01*
X119428571Y-63725000D01*
X119500000Y-63439285D01*
X119571428Y-63296428D01*
X119642857Y-63225000D01*
X119785714Y-63153571D01*
X122500000Y-65225000D02*
X122428571Y-65153571D01*
X122285714Y-64939285D01*
X122214285Y-64796428D01*
X122142857Y-64582142D01*
X122071428Y-64225000D01*
X122071428Y-63939285D01*
X122142857Y-63582142D01*
X122214285Y-63367857D01*
X122285714Y-63225000D01*
X122428571Y-63010714D01*
X122500000Y-62939285D01*
X123928571Y-64510714D02*
X123857142Y-64582142D01*
X123642857Y-64653571D01*
X123500000Y-64653571D01*
X123285714Y-64582142D01*
X123142857Y-64439285D01*
X123071428Y-64296428D01*
X123000000Y-64010714D01*
X123000000Y-63796428D01*
X123071428Y-63510714D01*
X123142857Y-63367857D01*
X123285714Y-63225000D01*
X123500000Y-63153571D01*
X123642857Y-63153571D01*
X123857142Y-63225000D01*
X123928571Y-63296428D01*
X124428571Y-65225000D02*
X124500000Y-65153571D01*
X124642857Y-64939285D01*
X124714285Y-64796428D01*
X124785714Y-64582142D01*
X124857142Y-64225000D01*
X124857142Y-63939285D01*
X124785714Y-63582142D01*
X124714285Y-63367857D01*
X124642857Y-63225000D01*
X124500000Y-63010714D01*
X124428571Y-62939285D01*
X126642857Y-63296428D02*
X126714285Y-63225000D01*
X126857142Y-63153571D01*
X127214285Y-63153571D01*
X127357142Y-63225000D01*
X127428571Y-63296428D01*
X127500000Y-63439285D01*
X127500000Y-63582142D01*
X127428571Y-63796428D01*
X126571428Y-64653571D01*
X127500000Y-64653571D01*
X128428571Y-63153571D02*
X128571428Y-63153571D01*
X128714285Y-63225000D01*
X128785714Y-63296428D01*
X128857142Y-63439285D01*
X128928571Y-63725000D01*
X128928571Y-64082142D01*
X128857142Y-64367857D01*
X128785714Y-64510714D01*
X128714285Y-64582142D01*
X128571428Y-64653571D01*
X128428571Y-64653571D01*
X128285714Y-64582142D01*
X128214285Y-64510714D01*
X128142857Y-64367857D01*
X128071428Y-64082142D01*
X128071428Y-63725000D01*
X128142857Y-63439285D01*
X128214285Y-63296428D01*
X128285714Y-63225000D01*
X128428571Y-63153571D01*
X129500000Y-63296428D02*
X129571428Y-63225000D01*
X129714285Y-63153571D01*
X130071428Y-63153571D01*
X130214285Y-63225000D01*
X130285714Y-63296428D01*
X130357142Y-63439285D01*
X130357142Y-63582142D01*
X130285714Y-63796428D01*
X129428571Y-64653571D01*
X130357142Y-64653571D01*
X130928571Y-63296428D02*
X131000000Y-63225000D01*
X131142857Y-63153571D01*
X131500000Y-63153571D01*
X131642857Y-63225000D01*
X131714285Y-63296428D01*
X131785714Y-63439285D01*
X131785714Y-63582142D01*
X131714285Y-63796428D01*
X130857142Y-64653571D01*
X131785714Y-64653571D01*
X108642857Y-66997142D02*
X108857142Y-67068571D01*
X109214285Y-67068571D01*
X109357142Y-66997142D01*
X109428571Y-66925714D01*
X109500000Y-66782857D01*
X109500000Y-66640000D01*
X109428571Y-66497142D01*
X109357142Y-66425714D01*
X109214285Y-66354285D01*
X108928571Y-66282857D01*
X108785714Y-66211428D01*
X108714285Y-66140000D01*
X108642857Y-65997142D01*
X108642857Y-65854285D01*
X108714285Y-65711428D01*
X108785714Y-65640000D01*
X108928571Y-65568571D01*
X109285714Y-65568571D01*
X109500000Y-65640000D01*
X110142857Y-67068571D02*
X110142857Y-65568571D01*
X110714285Y-65568571D01*
X110857142Y-65640000D01*
X110928571Y-65711428D01*
X111000000Y-65854285D01*
X111000000Y-66068571D01*
X110928571Y-66211428D01*
X110857142Y-66282857D01*
X110714285Y-66354285D01*
X110142857Y-66354285D01*
X112500000Y-67068571D02*
X112000000Y-66354285D01*
X111642857Y-67068571D02*
X111642857Y-65568571D01*
X112214285Y-65568571D01*
X112357142Y-65640000D01*
X112428571Y-65711428D01*
X112500000Y-65854285D01*
X112500000Y-66068571D01*
X112428571Y-66211428D01*
X112357142Y-66282857D01*
X112214285Y-66354285D01*
X111642857Y-66354285D01*
X113142857Y-67068571D02*
X113142857Y-65568571D01*
X113642857Y-65568571D02*
X114500000Y-65568571D01*
X114071428Y-67068571D02*
X114071428Y-65568571D01*
X115000000Y-66282857D02*
X115500000Y-66282857D01*
X115714285Y-67068571D02*
X115000000Y-67068571D01*
X115000000Y-65568571D01*
X115714285Y-65568571D01*
X116285714Y-66997142D02*
X116500000Y-67068571D01*
X116857142Y-67068571D01*
X117000000Y-66997142D01*
X117071428Y-66925714D01*
X117142857Y-66782857D01*
X117142857Y-66640000D01*
X117071428Y-66497142D01*
X117000000Y-66425714D01*
X116857142Y-66354285D01*
X116571428Y-66282857D01*
X116428571Y-66211428D01*
X116357142Y-66140000D01*
X116285714Y-65997142D01*
X116285714Y-65854285D01*
X116357142Y-65711428D01*
X116428571Y-65640000D01*
X116571428Y-65568571D01*
X116928571Y-65568571D01*
X117142857Y-65640000D01*
X117785714Y-67068571D02*
X117785714Y-65568571D01*
X118285714Y-66640000D01*
X118785714Y-65568571D01*
X118785714Y-67068571D01*
X119785714Y-65568571D02*
X120071428Y-65568571D01*
X120214285Y-65640000D01*
X120357142Y-65782857D01*
X120428571Y-66068571D01*
X120428571Y-66568571D01*
X120357142Y-66854285D01*
X120214285Y-66997142D01*
X120071428Y-67068571D01*
X119785714Y-67068571D01*
X119642857Y-66997142D01*
X119500000Y-66854285D01*
X119428571Y-66568571D01*
X119428571Y-66068571D01*
X119500000Y-65782857D01*
X119642857Y-65640000D01*
X119785714Y-65568571D01*
X121071428Y-67068571D02*
X121071428Y-65568571D01*
X121428571Y-65568571D01*
X121642857Y-65640000D01*
X121785714Y-65782857D01*
X121857142Y-65925714D01*
X121928571Y-66211428D01*
X121928571Y-66425714D01*
X121857142Y-66711428D01*
X121785714Y-66854285D01*
X121642857Y-66997142D01*
X121428571Y-67068571D01*
X121071428Y-67068571D01*
X122500000Y-66997142D02*
X122714285Y-67068571D01*
X123071428Y-67068571D01*
X123214285Y-66997142D01*
X123285714Y-66925714D01*
X123357142Y-66782857D01*
X123357142Y-66640000D01*
X123285714Y-66497142D01*
X123214285Y-66425714D01*
X123071428Y-66354285D01*
X122785714Y-66282857D01*
X122642857Y-66211428D01*
X122571428Y-66140000D01*
X122500000Y-65997142D01*
X122500000Y-65854285D01*
X122571428Y-65711428D01*
X122642857Y-65640000D01*
X122785714Y-65568571D01*
X123142857Y-65568571D01*
X123357142Y-65640000D01*
X124000000Y-66925714D02*
X124071428Y-66997142D01*
X124000000Y-67068571D01*
X123928571Y-66997142D01*
X124000000Y-66925714D01*
X124000000Y-67068571D01*
X125571428Y-66925714D02*
X125500000Y-66997142D01*
X125285714Y-67068571D01*
X125142857Y-67068571D01*
X124928571Y-66997142D01*
X124785714Y-66854285D01*
X124714285Y-66711428D01*
X124642857Y-66425714D01*
X124642857Y-66211428D01*
X124714285Y-65925714D01*
X124785714Y-65782857D01*
X124928571Y-65640000D01*
X125142857Y-65568571D01*
X125285714Y-65568571D01*
X125500000Y-65640000D01*
X125571428Y-65711428D01*
X126500000Y-65568571D02*
X126785714Y-65568571D01*
X126928571Y-65640000D01*
X127071428Y-65782857D01*
X127142857Y-66068571D01*
X127142857Y-66568571D01*
X127071428Y-66854285D01*
X126928571Y-66997142D01*
X126785714Y-67068571D01*
X126500000Y-67068571D01*
X126357142Y-66997142D01*
X126214285Y-66854285D01*
X126142857Y-66568571D01*
X126142857Y-66068571D01*
X126214285Y-65782857D01*
X126357142Y-65640000D01*
X126500000Y-65568571D01*
X127785714Y-67068571D02*
X127785714Y-65568571D01*
X128285714Y-66640000D01*
X128785714Y-65568571D01*
X128785714Y-67068571D01*
D10*
%TO.C,J1*%
X125752380Y-110233333D02*
X126466666Y-110233333D01*
X126609523Y-110280952D01*
X126704761Y-110376190D01*
X126752380Y-110519047D01*
X126752380Y-110614285D01*
X126752380Y-109233333D02*
X126752380Y-109804761D01*
X126752380Y-109519047D02*
X125752380Y-109519047D01*
X125895238Y-109614285D01*
X125990476Y-109709523D01*
X126038095Y-109804761D01*
%TO.C,R5*%
X137527380Y-63441666D02*
X137051190Y-63775000D01*
X137527380Y-64013095D02*
X136527380Y-64013095D01*
X136527380Y-63632142D01*
X136575000Y-63536904D01*
X136622619Y-63489285D01*
X136717857Y-63441666D01*
X136860714Y-63441666D01*
X136955952Y-63489285D01*
X137003571Y-63536904D01*
X137051190Y-63632142D01*
X137051190Y-64013095D01*
X136527380Y-62536904D02*
X136527380Y-63013095D01*
X137003571Y-63060714D01*
X136955952Y-63013095D01*
X136908333Y-62917857D01*
X136908333Y-62679761D01*
X136955952Y-62584523D01*
X137003571Y-62536904D01*
X137098809Y-62489285D01*
X137336904Y-62489285D01*
X137432142Y-62536904D01*
X137479761Y-62584523D01*
X137527380Y-62679761D01*
X137527380Y-62917857D01*
X137479761Y-63013095D01*
X137432142Y-63060714D01*
%TO.C,LCD1*%
X128808333Y-70027380D02*
X128332142Y-70027380D01*
X128332142Y-69027380D01*
X129713095Y-69932142D02*
X129665476Y-69979761D01*
X129522619Y-70027380D01*
X129427380Y-70027380D01*
X129284523Y-69979761D01*
X129189285Y-69884523D01*
X129141666Y-69789285D01*
X129094047Y-69598809D01*
X129094047Y-69455952D01*
X129141666Y-69265476D01*
X129189285Y-69170238D01*
X129284523Y-69075000D01*
X129427380Y-69027380D01*
X129522619Y-69027380D01*
X129665476Y-69075000D01*
X129713095Y-69122619D01*
X130141666Y-70027380D02*
X130141666Y-69027380D01*
X130379761Y-69027380D01*
X130522619Y-69075000D01*
X130617857Y-69170238D01*
X130665476Y-69265476D01*
X130713095Y-69455952D01*
X130713095Y-69598809D01*
X130665476Y-69789285D01*
X130617857Y-69884523D01*
X130522619Y-69979761D01*
X130379761Y-70027380D01*
X130141666Y-70027380D01*
X131665476Y-70027380D02*
X131094047Y-70027380D01*
X131379761Y-70027380D02*
X131379761Y-69027380D01*
X131284523Y-69170238D01*
X131189285Y-69265476D01*
X131094047Y-69313095D01*
%TO.C,R2*%
X147652380Y-74416666D02*
X147176190Y-74750000D01*
X147652380Y-74988095D02*
X146652380Y-74988095D01*
X146652380Y-74607142D01*
X146700000Y-74511904D01*
X146747619Y-74464285D01*
X146842857Y-74416666D01*
X146985714Y-74416666D01*
X147080952Y-74464285D01*
X147128571Y-74511904D01*
X147176190Y-74607142D01*
X147176190Y-74988095D01*
X146747619Y-74035714D02*
X146700000Y-73988095D01*
X146652380Y-73892857D01*
X146652380Y-73654761D01*
X146700000Y-73559523D01*
X146747619Y-73511904D01*
X146842857Y-73464285D01*
X146938095Y-73464285D01*
X147080952Y-73511904D01*
X147652380Y-74083333D01*
X147652380Y-73464285D01*
%TO.C,R6*%
X136002380Y-63516666D02*
X135526190Y-63850000D01*
X136002380Y-64088095D02*
X135002380Y-64088095D01*
X135002380Y-63707142D01*
X135050000Y-63611904D01*
X135097619Y-63564285D01*
X135192857Y-63516666D01*
X135335714Y-63516666D01*
X135430952Y-63564285D01*
X135478571Y-63611904D01*
X135526190Y-63707142D01*
X135526190Y-64088095D01*
X135002380Y-62659523D02*
X135002380Y-62850000D01*
X135050000Y-62945238D01*
X135097619Y-62992857D01*
X135240476Y-63088095D01*
X135430952Y-63135714D01*
X135811904Y-63135714D01*
X135907142Y-63088095D01*
X135954761Y-63040476D01*
X136002380Y-62945238D01*
X136002380Y-62754761D01*
X135954761Y-62659523D01*
X135907142Y-62611904D01*
X135811904Y-62564285D01*
X135573809Y-62564285D01*
X135478571Y-62611904D01*
X135430952Y-62659523D01*
X135383333Y-62754761D01*
X135383333Y-62945238D01*
X135430952Y-63040476D01*
X135478571Y-63088095D01*
X135573809Y-63135714D01*
%TO.C,R4*%
X139052380Y-63316666D02*
X138576190Y-63650000D01*
X139052380Y-63888095D02*
X138052380Y-63888095D01*
X138052380Y-63507142D01*
X138100000Y-63411904D01*
X138147619Y-63364285D01*
X138242857Y-63316666D01*
X138385714Y-63316666D01*
X138480952Y-63364285D01*
X138528571Y-63411904D01*
X138576190Y-63507142D01*
X138576190Y-63888095D01*
X138385714Y-62459523D02*
X139052380Y-62459523D01*
X138004761Y-62697619D02*
X138719047Y-62935714D01*
X138719047Y-62316666D01*
%TO.C,C3*%
X116733333Y-70207142D02*
X116685714Y-70254761D01*
X116542857Y-70302380D01*
X116447619Y-70302380D01*
X116304761Y-70254761D01*
X116209523Y-70159523D01*
X116161904Y-70064285D01*
X116114285Y-69873809D01*
X116114285Y-69730952D01*
X116161904Y-69540476D01*
X116209523Y-69445238D01*
X116304761Y-69350000D01*
X116447619Y-69302380D01*
X116542857Y-69302380D01*
X116685714Y-69350000D01*
X116733333Y-69397619D01*
X117066666Y-69302380D02*
X117685714Y-69302380D01*
X117352380Y-69683333D01*
X117495238Y-69683333D01*
X117590476Y-69730952D01*
X117638095Y-69778571D01*
X117685714Y-69873809D01*
X117685714Y-70111904D01*
X117638095Y-70207142D01*
X117590476Y-70254761D01*
X117495238Y-70302380D01*
X117209523Y-70302380D01*
X117114285Y-70254761D01*
X117066666Y-70207142D01*
%TO.C,U1*%
X152288095Y-67102380D02*
X152288095Y-67911904D01*
X152335714Y-68007142D01*
X152383333Y-68054761D01*
X152478571Y-68102380D01*
X152669047Y-68102380D01*
X152764285Y-68054761D01*
X152811904Y-68007142D01*
X152859523Y-67911904D01*
X152859523Y-67102380D01*
X153859523Y-68102380D02*
X153288095Y-68102380D01*
X153573809Y-68102380D02*
X153573809Y-67102380D01*
X153478571Y-67245238D01*
X153383333Y-67340476D01*
X153288095Y-67388095D01*
%TO.C,C2*%
X144058333Y-69432142D02*
X144010714Y-69479761D01*
X143867857Y-69527380D01*
X143772619Y-69527380D01*
X143629761Y-69479761D01*
X143534523Y-69384523D01*
X143486904Y-69289285D01*
X143439285Y-69098809D01*
X143439285Y-68955952D01*
X143486904Y-68765476D01*
X143534523Y-68670238D01*
X143629761Y-68575000D01*
X143772619Y-68527380D01*
X143867857Y-68527380D01*
X144010714Y-68575000D01*
X144058333Y-68622619D01*
X144439285Y-68622619D02*
X144486904Y-68575000D01*
X144582142Y-68527380D01*
X144820238Y-68527380D01*
X144915476Y-68575000D01*
X144963095Y-68622619D01*
X145010714Y-68717857D01*
X145010714Y-68813095D01*
X144963095Y-68955952D01*
X144391666Y-69527380D01*
X145010714Y-69527380D01*
%TO.C,R3*%
X140777380Y-63216666D02*
X140301190Y-63550000D01*
X140777380Y-63788095D02*
X139777380Y-63788095D01*
X139777380Y-63407142D01*
X139825000Y-63311904D01*
X139872619Y-63264285D01*
X139967857Y-63216666D01*
X140110714Y-63216666D01*
X140205952Y-63264285D01*
X140253571Y-63311904D01*
X140301190Y-63407142D01*
X140301190Y-63788095D01*
X139777380Y-62883333D02*
X139777380Y-62264285D01*
X140158333Y-62597619D01*
X140158333Y-62454761D01*
X140205952Y-62359523D01*
X140253571Y-62311904D01*
X140348809Y-62264285D01*
X140586904Y-62264285D01*
X140682142Y-62311904D01*
X140729761Y-62359523D01*
X140777380Y-62454761D01*
X140777380Y-62740476D01*
X140729761Y-62835714D01*
X140682142Y-62883333D01*
%TO.C,C1*%
X152308333Y-73907142D02*
X152260714Y-73954761D01*
X152117857Y-74002380D01*
X152022619Y-74002380D01*
X151879761Y-73954761D01*
X151784523Y-73859523D01*
X151736904Y-73764285D01*
X151689285Y-73573809D01*
X151689285Y-73430952D01*
X151736904Y-73240476D01*
X151784523Y-73145238D01*
X151879761Y-73050000D01*
X152022619Y-73002380D01*
X152117857Y-73002380D01*
X152260714Y-73050000D01*
X152308333Y-73097619D01*
X153260714Y-74002380D02*
X152689285Y-74002380D01*
X152975000Y-74002380D02*
X152975000Y-73002380D01*
X152879761Y-73145238D01*
X152784523Y-73240476D01*
X152689285Y-73288095D01*
%TO.C,L1*%
X149433333Y-62827380D02*
X148957142Y-62827380D01*
X148957142Y-61827380D01*
X150290476Y-62827380D02*
X149719047Y-62827380D01*
X150004761Y-62827380D02*
X150004761Y-61827380D01*
X149909523Y-61970238D01*
X149814285Y-62065476D01*
X149719047Y-62113095D01*
%TO.C,R1*%
X149402380Y-75116666D02*
X148926190Y-75450000D01*
X149402380Y-75688095D02*
X148402380Y-75688095D01*
X148402380Y-75307142D01*
X148450000Y-75211904D01*
X148497619Y-75164285D01*
X148592857Y-75116666D01*
X148735714Y-75116666D01*
X148830952Y-75164285D01*
X148878571Y-75211904D01*
X148926190Y-75307142D01*
X148926190Y-75688095D01*
X149402380Y-74164285D02*
X149402380Y-74735714D01*
X149402380Y-74450000D02*
X148402380Y-74450000D01*
X148545238Y-74545238D01*
X148640476Y-74640476D01*
X148688095Y-74735714D01*
%TO.C,D1*%
X144261904Y-62977380D02*
X144261904Y-61977380D01*
X144500000Y-61977380D01*
X144642857Y-62025000D01*
X144738095Y-62120238D01*
X144785714Y-62215476D01*
X144833333Y-62405952D01*
X144833333Y-62548809D01*
X144785714Y-62739285D01*
X144738095Y-62834523D01*
X144642857Y-62929761D01*
X144500000Y-62977380D01*
X144261904Y-62977380D01*
X145785714Y-62977380D02*
X145214285Y-62977380D01*
X145500000Y-62977380D02*
X145500000Y-61977380D01*
X145404761Y-62120238D01*
X145309523Y-62215476D01*
X145214285Y-62263095D01*
D12*
%TO.C,J1*%
X136960000Y-115590000D02*
X136960000Y-116920000D01*
X136960000Y-111720000D02*
X136960000Y-114320000D01*
X134360000Y-116920000D02*
X124140000Y-116920000D01*
X136960000Y-116920000D02*
X135630000Y-116920000D01*
X136960000Y-114320000D02*
X134360000Y-114320000D01*
X124140000Y-111720000D02*
X124140000Y-116920000D01*
X134360000Y-114320000D02*
X134360000Y-116920000D01*
X136960000Y-111720000D02*
X124140000Y-111720000D01*
%TO.C,R5*%
X137572500Y-65612742D02*
X137572500Y-66087258D01*
X136527500Y-65612742D02*
X136527500Y-66087258D01*
%TO.C,LCD1*%
X144625000Y-75790000D02*
X144625000Y-76390000D01*
X116585000Y-75790000D02*
X116475000Y-75790000D01*
X119550000Y-73600000D02*
X119750000Y-73200000D01*
X119750000Y-73200000D02*
X119350000Y-73200000D01*
X144515000Y-75790000D02*
X144625000Y-75790000D01*
X119350000Y-73200000D02*
X119550000Y-73600000D01*
X116475000Y-75790000D02*
X116475000Y-76390000D01*
%TO.C,R2*%
X146727500Y-71737258D02*
X146727500Y-71262742D01*
X147772500Y-71737258D02*
X147772500Y-71262742D01*
%TO.C,R6*%
X134927500Y-65612742D02*
X134927500Y-66087258D01*
X135972500Y-65612742D02*
X135972500Y-66087258D01*
%TO.C,R4*%
X138127500Y-65637742D02*
X138127500Y-66112258D01*
X139172500Y-65637742D02*
X139172500Y-66112258D01*
%TO.C,C3*%
X120261252Y-67865000D02*
X119738748Y-67865000D01*
X120261252Y-69335000D02*
X119738748Y-69335000D01*
%TO.C,U1*%
X149650000Y-66190000D02*
X147850000Y-66190000D01*
X149650000Y-69310000D02*
X148850000Y-69310000D01*
X149650000Y-66190000D02*
X150450000Y-66190000D01*
X149650000Y-69310000D02*
X150450000Y-69310000D01*
%TO.C,C2*%
X144038748Y-67860000D02*
X144561252Y-67860000D01*
X144038748Y-66390000D02*
X144561252Y-66390000D01*
%TO.C,R3*%
X140772500Y-65612742D02*
X140772500Y-66087258D01*
X139727500Y-65612742D02*
X139727500Y-66087258D01*
%TO.C,C1*%
X151438748Y-72285000D02*
X151961252Y-72285000D01*
X151438748Y-70815000D02*
X151961252Y-70815000D01*
%TO.C,L1*%
X149861252Y-65710000D02*
X149338748Y-65710000D01*
X149861252Y-63490000D02*
X149338748Y-63490000D01*
%TO.C,R1*%
X149347500Y-71262742D02*
X149347500Y-71737258D01*
X148302500Y-71262742D02*
X148302500Y-71737258D01*
%TO.C,D1*%
X142750000Y-63525000D02*
X142750000Y-65525000D01*
X142750000Y-63525000D02*
X146650000Y-63525000D01*
X142750000Y-65525000D02*
X146650000Y-65525000D01*
%TD*%
M02*
