%TF.GenerationSoftware,KiCad,Pcbnew,6.0.5+dfsg-1*%
%TF.CreationDate,2022-06-12T19:51:58+08:00*%
%TF.ProjectId,pcb-backbox,7063622d-6261-4636-9b62-6f782e6b6963,rev?*%
%TF.SameCoordinates,Original*%
%TF.FileFunction,Paste,Top*%
%TF.FilePolarity,Positive*%
%FSLAX46Y46*%
G04 Gerber Fmt 4.6, Leading zero omitted, Abs format (unit mm)*
G04 Created by KiCad (PCBNEW 6.0.5+dfsg-1) date 2022-06-12 19:51:58*
%MOMM*%
%LPD*%
G01*
G04 APERTURE LIST*
G04 Aperture macros list*
%AMRoundRect*
0 Rectangle with rounded corners*
0 $1 Rounding radius*
0 $2 $3 $4 $5 $6 $7 $8 $9 X,Y pos of 4 corners*
0 Add a 4 corners polygon primitive as box body*
4,1,4,$2,$3,$4,$5,$6,$7,$8,$9,$2,$3,0*
0 Add four circle primitives for the rounded corners*
1,1,$1+$1,$2,$3*
1,1,$1+$1,$4,$5*
1,1,$1+$1,$6,$7*
1,1,$1+$1,$8,$9*
0 Add four rect primitives between the rounded corners*
20,1,$1+$1,$2,$3,$4,$5,0*
20,1,$1+$1,$4,$5,$6,$7,0*
20,1,$1+$1,$6,$7,$8,$9,0*
20,1,$1+$1,$8,$9,$2,$3,0*%
G04 Aperture macros list end*
%ADD10RoundRect,0.200000X-0.275000X0.200000X-0.275000X-0.200000X0.275000X-0.200000X0.275000X0.200000X0*%
%ADD11R,0.300000X1.100000*%
%ADD12R,2.300000X3.100000*%
%ADD13RoundRect,0.200000X0.275000X-0.200000X0.275000X0.200000X-0.275000X0.200000X-0.275000X-0.200000X0*%
%ADD14RoundRect,0.250000X0.250000X0.475000X-0.250000X0.475000X-0.250000X-0.475000X0.250000X-0.475000X0*%
%ADD15RoundRect,0.150000X-0.512500X-0.150000X0.512500X-0.150000X0.512500X0.150000X-0.512500X0.150000X0*%
%ADD16RoundRect,0.250000X-0.250000X-0.475000X0.250000X-0.475000X0.250000X0.475000X-0.250000X0.475000X0*%
%ADD17RoundRect,0.250000X0.375000X0.850000X-0.375000X0.850000X-0.375000X-0.850000X0.375000X-0.850000X0*%
%ADD18R,0.900000X1.200000*%
G04 APERTURE END LIST*
D10*
%TO.C,R5*%
X137050000Y-65025000D03*
X137050000Y-66675000D03*
%TD*%
D11*
%TO.C,LCD1*%
X119550000Y-72400000D03*
X120050000Y-72400000D03*
X120550000Y-72400000D03*
X121050000Y-72400000D03*
X121550000Y-72400000D03*
X122050000Y-72400000D03*
X122550000Y-72400000D03*
X123050000Y-72400000D03*
X123550000Y-72400000D03*
X124050000Y-72400000D03*
X124550000Y-72400000D03*
X125050000Y-72400000D03*
X125550000Y-72400000D03*
X126050000Y-72400000D03*
X126550000Y-72400000D03*
X127050000Y-72400000D03*
X127550000Y-72400000D03*
X128050000Y-72400000D03*
X128550000Y-72400000D03*
X129050000Y-72400000D03*
X129550000Y-72400000D03*
X130050000Y-72400000D03*
X130550000Y-72400000D03*
X131050000Y-72400000D03*
X131550000Y-72400000D03*
X132050000Y-72400000D03*
X132550000Y-72400000D03*
X133050000Y-72400000D03*
X133550000Y-72400000D03*
X134050000Y-72400000D03*
X134550000Y-72400000D03*
X135050000Y-72400000D03*
X135550000Y-72400000D03*
X136050000Y-72400000D03*
X136550000Y-72400000D03*
X137050000Y-72400000D03*
X137550000Y-72400000D03*
X138050000Y-72400000D03*
X138550000Y-72400000D03*
X139050000Y-72400000D03*
X139550000Y-72400000D03*
X140050000Y-72400000D03*
X140550000Y-72400000D03*
X141050000Y-72400000D03*
X141550000Y-72400000D03*
D12*
X143220000Y-74100000D03*
X117880000Y-74100000D03*
%TD*%
D13*
%TO.C,R2*%
X147250000Y-72325000D03*
X147250000Y-70675000D03*
%TD*%
D10*
%TO.C,R6*%
X135450000Y-65025000D03*
X135450000Y-66675000D03*
%TD*%
%TO.C,R4*%
X138650000Y-65050000D03*
X138650000Y-66700000D03*
%TD*%
D14*
%TO.C,C3*%
X120950000Y-68600000D03*
X119050000Y-68600000D03*
%TD*%
D15*
%TO.C,U1*%
X148512500Y-66800000D03*
X148512500Y-67750000D03*
X148512500Y-68700000D03*
X150787500Y-68700000D03*
X150787500Y-66800000D03*
%TD*%
D16*
%TO.C,C2*%
X143350000Y-67125000D03*
X145250000Y-67125000D03*
%TD*%
D10*
%TO.C,R3*%
X140250000Y-65025000D03*
X140250000Y-66675000D03*
%TD*%
D16*
%TO.C,C1*%
X150750000Y-71550000D03*
X152650000Y-71550000D03*
%TD*%
D17*
%TO.C,L1*%
X150675000Y-64600000D03*
X148525000Y-64600000D03*
%TD*%
D10*
%TO.C,R1*%
X148825000Y-70675000D03*
X148825000Y-72325000D03*
%TD*%
D18*
%TO.C,D1*%
X143350000Y-64525000D03*
X146650000Y-64525000D03*
%TD*%
M02*
