%FSLAX45Y45*%
G04 Gerber Fmt 4.5, Leading zero omitted, Abs format (unit mm)*
G04 Created by KiCad (PCBNEW 6.0.5+dfsg-1) date 2022-06-12 19:52:06*
%MOMM*%
%LPD*%
G01*
G04 APERTURE LIST*
%TA.AperFunction,Profile*%
%ADD10C,0.100000*%
%TD*%
%ADD11C,0.200000*%
G04 APERTURE END LIST*
D10*
X11480000Y-10740000D02*
X10435000Y-10740000D01*
X12372500Y-11735000D02*
X12372500Y-10740000D01*
X11655000Y-9200000D02*
X14495000Y-9200000D01*
X14495000Y-9200000D02*
G75*
G03*
X14495000Y-8800000I0J200000D01*
G01*
X13740000Y-11735000D02*
X13740000Y-10745000D01*
X15675000Y-10745000D02*
X15675000Y-10585000D01*
X14630000Y-10745000D02*
X15675000Y-10745000D01*
X12372500Y-11735000D02*
X13740000Y-11735000D01*
X15675000Y-10585000D02*
X15675000Y-5945000D01*
X15675000Y-5945000D02*
X10435000Y-5945000D01*
X14495000Y-8800000D02*
X11655000Y-8800000D01*
X11655000Y-8800000D02*
G75*
G03*
X11655000Y-9200000I0J-200000D01*
G01*
X10435000Y-10740000D02*
X10435000Y-10585000D01*
X12372500Y-10740000D02*
X11480000Y-10740000D01*
X13740000Y-10745000D02*
X14630000Y-10745000D01*
X10435000Y-5945000D02*
X10435000Y-10585000D01*
D11*
X10687619Y-12050476D02*
X10687619Y-11850476D01*
X10735238Y-11850476D01*
X10763810Y-11860000D01*
X10782857Y-11879048D01*
X10792381Y-11898095D01*
X10801905Y-11936190D01*
X10801905Y-11964762D01*
X10792381Y-12002857D01*
X10782857Y-12021905D01*
X10763810Y-12040952D01*
X10735238Y-12050476D01*
X10687619Y-12050476D01*
X10887619Y-12050476D02*
X10887619Y-11917143D01*
X10887619Y-11955238D02*
X10897143Y-11936190D01*
X10906667Y-11926667D01*
X10925714Y-11917143D01*
X10944762Y-11917143D01*
X11011429Y-12050476D02*
X11011429Y-11917143D01*
X11011429Y-11850476D02*
X11001905Y-11860000D01*
X11011429Y-11869524D01*
X11020952Y-11860000D01*
X11011429Y-11850476D01*
X11011429Y-11869524D01*
X11135238Y-12050476D02*
X11116190Y-12040952D01*
X11106667Y-12021905D01*
X11106667Y-11850476D01*
X11240000Y-12050476D02*
X11220952Y-12040952D01*
X11211428Y-12021905D01*
X11211428Y-11850476D01*
X11468571Y-12050476D02*
X11468571Y-11850476D01*
X11535238Y-11993333D01*
X11601905Y-11850476D01*
X11601905Y-12050476D01*
X11782857Y-12050476D02*
X11782857Y-11945714D01*
X11773333Y-11926667D01*
X11754286Y-11917143D01*
X11716190Y-11917143D01*
X11697143Y-11926667D01*
X11782857Y-12040952D02*
X11763809Y-12050476D01*
X11716190Y-12050476D01*
X11697143Y-12040952D01*
X11687619Y-12021905D01*
X11687619Y-12002857D01*
X11697143Y-11983809D01*
X11716190Y-11974286D01*
X11763809Y-11974286D01*
X11782857Y-11964762D01*
X11878095Y-11917143D02*
X11878095Y-12117143D01*
X11878095Y-11926667D02*
X11897143Y-11917143D01*
X11935238Y-11917143D01*
X11954286Y-11926667D01*
X11963809Y-11936190D01*
X11973333Y-11955238D01*
X11973333Y-12012381D01*
X11963809Y-12031428D01*
X11954286Y-12040952D01*
X11935238Y-12050476D01*
X11897143Y-12050476D01*
X11878095Y-12040952D01*
X12059048Y-12031428D02*
X12068571Y-12040952D01*
X12059048Y-12050476D01*
X12049524Y-12040952D01*
X12059048Y-12031428D01*
X12059048Y-12050476D01*
X12059048Y-11926667D02*
X12068571Y-11936190D01*
X12059048Y-11945714D01*
X12049524Y-11936190D01*
X12059048Y-11926667D01*
X12059048Y-11945714D01*
M02*
