%TF.GenerationSoftware,KiCad,Pcbnew,6.0.5+dfsg-1*%
%TF.CreationDate,2022-06-12T19:51:07+08:00*%
%TF.ProjectId,pbf-mainpcb,7062662d-6d61-4696-9e70-63622e6b6963,rev?*%
%TF.SameCoordinates,Original*%
%TF.FileFunction,Copper,L2,Bot*%
%TF.FilePolarity,Positive*%
%FSLAX46Y46*%
G04 Gerber Fmt 4.6, Leading zero omitted, Abs format (unit mm)*
G04 Created by KiCad (PCBNEW 6.0.5+dfsg-1) date 2022-06-12 19:51:07*
%MOMM*%
%LPD*%
G01*
G04 APERTURE LIST*
G04 Aperture macros list*
%AMRoundRect*
0 Rectangle with rounded corners*
0 $1 Rounding radius*
0 $2 $3 $4 $5 $6 $7 $8 $9 X,Y pos of 4 corners*
0 Add a 4 corners polygon primitive as box body*
4,1,4,$2,$3,$4,$5,$6,$7,$8,$9,$2,$3,0*
0 Add four circle primitives for the rounded corners*
1,1,$1+$1,$2,$3*
1,1,$1+$1,$4,$5*
1,1,$1+$1,$6,$7*
1,1,$1+$1,$8,$9*
0 Add four rect primitives between the rounded corners*
20,1,$1+$1,$2,$3,$4,$5,0*
20,1,$1+$1,$4,$5,$6,$7,0*
20,1,$1+$1,$6,$7,$8,$9,0*
20,1,$1+$1,$8,$9,$2,$3,0*%
G04 Aperture macros list end*
%TA.AperFunction,ComponentPad*%
%ADD10RoundRect,0.250000X0.625000X-0.350000X0.625000X0.350000X-0.625000X0.350000X-0.625000X-0.350000X0*%
%TD*%
%TA.AperFunction,ComponentPad*%
%ADD11O,1.750000X1.200000*%
%TD*%
%TA.AperFunction,ComponentPad*%
%ADD12RoundRect,0.250000X-0.625000X0.350000X-0.625000X-0.350000X0.625000X-0.350000X0.625000X0.350000X0*%
%TD*%
%TA.AperFunction,ComponentPad*%
%ADD13RoundRect,0.250000X0.600000X0.750000X-0.600000X0.750000X-0.600000X-0.750000X0.600000X-0.750000X0*%
%TD*%
%TA.AperFunction,ComponentPad*%
%ADD14O,1.700000X2.000000*%
%TD*%
%TA.AperFunction,ComponentPad*%
%ADD15R,1.700000X1.700000*%
%TD*%
%TA.AperFunction,ComponentPad*%
%ADD16O,1.700000X1.700000*%
%TD*%
%TA.AperFunction,ComponentPad*%
%ADD17O,1.050000X2.150000*%
%TD*%
%TA.AperFunction,ViaPad*%
%ADD18C,0.800000*%
%TD*%
%TA.AperFunction,Conductor*%
%ADD19C,0.250000*%
%TD*%
%TA.AperFunction,Conductor*%
%ADD20C,0.400000*%
%TD*%
G04 APERTURE END LIST*
D10*
%TO.P,J5,1,Pin_1*%
%TO.N,Net-(J5-Pad1)*%
X158950000Y-79500000D03*
D11*
%TO.P,J5,2,Pin_2*%
%TO.N,Net-(J5-Pad2)*%
X158950000Y-77500000D03*
%TO.P,J5,3,Pin_3*%
%TO.N,GND*%
X158950000Y-75500000D03*
%TO.P,J5,4,Pin_4*%
%TO.N,Net-(J5-Pad4)*%
X158950000Y-73500000D03*
%TO.P,J5,5,Pin_5*%
%TO.N,Net-(J5-Pad5)*%
X158950000Y-71500000D03*
%TD*%
D12*
%TO.P,J4,1,Pin_1*%
%TO.N,Net-(C8-Pad1)*%
X188850000Y-57750000D03*
D11*
%TO.P,J4,2,Pin_2*%
%TO.N,unconnected-(J4-Pad2)*%
X188850000Y-59750000D03*
%TO.P,J4,3,Pin_3*%
%TO.N,GND*%
X188850000Y-61750000D03*
%TD*%
D12*
%TO.P,J3,1,Pin_1*%
%TO.N,Net-(C10-Pad1)*%
X154350000Y-60550000D03*
D11*
%TO.P,J3,2,Pin_2*%
%TO.N,GND*%
X154350000Y-62550000D03*
%TD*%
D12*
%TO.P,J6,1,Pin_1*%
%TO.N,GND*%
X188950000Y-80050000D03*
D11*
%TO.P,J6,2,Pin_2*%
%TO.N,SW_START*%
X188950000Y-82050000D03*
%TO.P,J6,3,Pin_3*%
%TO.N,SW_FLIPR*%
X188950000Y-84050000D03*
%TO.P,J6,4,Pin_4*%
%TO.N,SW_FLIPL*%
X188950000Y-86050000D03*
%TD*%
D13*
%TO.P,J2,1,Pin_1*%
%TO.N,Net-(J2-Pad1)*%
X183600000Y-52300000D03*
D14*
%TO.P,J2,2,Pin_2*%
%TO.N,Net-(J2-Pad2)*%
X181100000Y-52300000D03*
%TD*%
D15*
%TO.P,J7,1,Pin_1*%
%TO.N,GND*%
X166170000Y-55100000D03*
D16*
%TO.P,J7,2,Pin_2*%
X166170000Y-52560000D03*
%TO.P,J7,3,Pin_3*%
%TO.N,LCD_RESET*%
X168710000Y-55100000D03*
%TO.P,J7,4,Pin_4*%
%TO.N,VBAT*%
X168710000Y-52560000D03*
%TO.P,J7,5,Pin_5*%
%TO.N,SPI_DC*%
X171250000Y-55100000D03*
%TO.P,J7,6,Pin_6*%
%TO.N,SPI_CS_LCD0*%
X171250000Y-52560000D03*
%TO.P,J7,7,Pin_7*%
%TO.N,SPI_SCK*%
X173790000Y-55100000D03*
%TO.P,J7,8,Pin_8*%
%TO.N,SPI_MOSI*%
X173790000Y-52560000D03*
%TO.P,J7,9,Pin_9*%
%TO.N,+3V3*%
X176330000Y-55100000D03*
%TO.P,J7,10,Pin_10*%
X176330000Y-52560000D03*
%TD*%
D17*
%TO.P,J1,6,Shield*%
%TO.N,GND*%
X160325000Y-40000000D03*
X154675000Y-40000000D03*
%TD*%
D18*
%TO.N,Net-(C1-Pad1)*%
X164000000Y-41250000D03*
X158997296Y-44672698D03*
X153427729Y-41153100D03*
%TO.N,GND*%
X190800000Y-97800000D03*
X168900000Y-93350000D03*
X152050000Y-51075000D03*
X190050000Y-112800000D03*
X153350000Y-43450000D03*
X160850000Y-43750000D03*
X155850000Y-58050000D03*
X159000000Y-66500000D03*
X161050000Y-88650000D03*
X161900000Y-51275000D03*
X171900000Y-93350000D03*
X166400000Y-93350000D03*
X155150000Y-51500000D03*
X153600000Y-88700000D03*
X155150000Y-50400000D03*
X177000000Y-93450000D03*
X161871159Y-100563985D03*
X156750000Y-50400000D03*
X181250000Y-64425000D03*
X156750000Y-51500000D03*
X186924500Y-72320032D03*
X160550000Y-63200000D03*
X164250000Y-63500000D03*
X188149520Y-66285951D03*
X172512299Y-69762299D03*
X156715112Y-84190514D03*
X155300000Y-74700000D03*
X186200000Y-45900000D03*
X153400000Y-65900000D03*
X157600000Y-98150000D03*
X189900000Y-108750000D03*
X188200000Y-108850000D03*
X184200000Y-89900000D03*
X185300000Y-103050000D03*
X152200000Y-97050000D03*
X191005247Y-102264094D03*
%TO.N,VBAT*%
X159850000Y-69700000D03*
X162700000Y-70450000D03*
X166600000Y-48450000D03*
X162850000Y-74700000D03*
X177400000Y-42350000D03*
X190550000Y-42400000D03*
X166600000Y-45050000D03*
X167950000Y-73650000D03*
%TO.N,AUDIO*%
X185329372Y-69373794D03*
X184100000Y-71000000D03*
%TO.N,+3V3*%
X186700000Y-109200000D03*
X177400000Y-59550000D03*
X188148407Y-54410861D03*
X191000000Y-107050000D03*
X184100000Y-72400000D03*
X179948522Y-59728332D03*
X172625500Y-59550000D03*
X178700000Y-98650000D03*
X183050000Y-56200000D03*
X172550000Y-62650000D03*
X186450000Y-65700000D03*
X178725000Y-94625000D03*
%TO.N,Net-(C8-Pad1)*%
X165250000Y-45900000D03*
X165250000Y-48450000D03*
%TO.N,PLUNGER_ANA*%
X181150000Y-66050000D03*
X176914013Y-65888612D03*
%TO.N,MLCD_A*%
X185150000Y-94350000D03*
X163552776Y-99839485D03*
%TO.N,USB_DM*%
X159600000Y-47500000D03*
X157662701Y-45587299D03*
%TO.N,USB_DP*%
X160750000Y-46700000D03*
X156301789Y-45183930D03*
%TO.N,LCD_RESET*%
X163200000Y-98300000D03*
X178450000Y-77250000D03*
X182384481Y-93077366D03*
X176525000Y-71044335D03*
X152100000Y-99300000D03*
X170950000Y-80800000D03*
X162750000Y-87450000D03*
%TO.N,SPI_CS_LCD0*%
X166650000Y-72350000D03*
%TO.N,SPI_DC*%
X166650000Y-73600000D03*
%TO.N,SPI_SCK*%
X165587701Y-97862299D03*
X180400000Y-93600000D03*
X173850000Y-64100000D03*
%TO.N,SPI_MOSI*%
X164680926Y-98282732D03*
X181400000Y-93250000D03*
X172650000Y-64000000D03*
%TO.N,MLCD_K*%
X184174010Y-95200000D03*
X162175898Y-98383836D03*
%TO.N,RIN_V*%
X151700000Y-86500000D03*
X169586554Y-80425998D03*
%TO.N,I2C_SDA*%
X180050000Y-98550000D03*
X179784407Y-95424500D03*
%TO.N,I2C_SCL*%
X181300000Y-98650000D03*
X181150000Y-96050000D03*
%TO.N,SW_START*%
X157000000Y-105400000D03*
X152587500Y-103537500D03*
%TO.N,FIN_H*%
X151700000Y-72900000D03*
X169500000Y-77300000D03*
%TO.N,RIN_H*%
X169500000Y-78400000D03*
X151700000Y-74600000D03*
%TO.N,FIN_V*%
X151900000Y-82600000D03*
X169482109Y-79431967D03*
%TO.N,SPI_CS_LCD1*%
X165150000Y-96400000D03*
X179450000Y-93100000D03*
%TO.N,LCD_HSYNC*%
X182700000Y-88200000D03*
X182750000Y-84150000D03*
%TD*%
D19*
%TO.N,Net-(C1-Pad1)*%
X164000000Y-41250000D02*
X163850480Y-41399520D01*
X158825479Y-44500881D02*
X158997296Y-44672698D01*
X153674149Y-41399520D02*
X153427729Y-41153100D01*
X163850480Y-41399520D02*
X158899520Y-41399520D01*
X158899520Y-41399520D02*
X158825479Y-41473561D01*
X158825479Y-41473561D02*
X158825479Y-44500881D01*
X158899520Y-41399520D02*
X153674149Y-41399520D01*
D20*
%TO.N,VBAT*%
X177400000Y-42350000D02*
X188250000Y-42350000D01*
X162700000Y-70450000D02*
X160600000Y-70450000D01*
X166600000Y-45050000D02*
X166600000Y-48450000D01*
X188250000Y-42350000D02*
X190500000Y-42350000D01*
X162850000Y-74700000D02*
X166900000Y-74700000D01*
X166900000Y-74700000D02*
X167950000Y-73650000D01*
X190500000Y-42350000D02*
X190550000Y-42400000D01*
X160600000Y-70450000D02*
X159850000Y-69700000D01*
D19*
%TO.N,AUDIO*%
X184100000Y-71000000D02*
X184100000Y-70603166D01*
X184100000Y-70603166D02*
X185329372Y-69373794D01*
D20*
%TO.N,+3V3*%
X184627881Y-67522119D02*
X184627881Y-68972119D01*
X179828332Y-59728332D02*
X179948522Y-59728332D01*
X178725000Y-94625000D02*
X178725000Y-98625000D01*
D19*
X191000000Y-109350000D02*
X190100000Y-110250000D01*
D20*
X186450000Y-65700000D02*
X184627881Y-67522119D01*
D19*
X191000000Y-107050000D02*
X191000000Y-109350000D01*
D20*
X184627881Y-68972119D02*
X182950000Y-70650000D01*
X172550000Y-59625500D02*
X172625500Y-59550000D01*
X177400000Y-59550000D02*
X179650000Y-59550000D01*
D19*
X190100000Y-110250000D02*
X187750000Y-110250000D01*
D20*
X178725000Y-98625000D02*
X178700000Y-98650000D01*
X179650000Y-59550000D02*
X179828332Y-59728332D01*
X183050000Y-56200000D02*
X186359268Y-56200000D01*
X172550000Y-62650000D02*
X172550000Y-59625500D01*
X186359268Y-56200000D02*
X188148407Y-54410861D01*
D19*
X187750000Y-110250000D02*
X186700000Y-109200000D01*
D20*
X182950000Y-71250000D02*
X184100000Y-72400000D01*
X182950000Y-70650000D02*
X182950000Y-71250000D01*
%TO.N,Net-(C8-Pad1)*%
X165250000Y-45900000D02*
X165250000Y-48450000D01*
D19*
%TO.N,PLUNGER_ANA*%
X177075401Y-66050000D02*
X176914013Y-65888612D01*
X181150000Y-66050000D02*
X177075401Y-66050000D01*
%TO.N,MLCD_A*%
X166606206Y-101299022D02*
X165012313Y-101299022D01*
X165012313Y-101299022D02*
X163552776Y-99839485D01*
X183059071Y-101698041D02*
X167005225Y-101698041D01*
X185150000Y-94350000D02*
X185150000Y-99607112D01*
X185150000Y-99607112D02*
X183059071Y-101698041D01*
X167005225Y-101698041D02*
X166606206Y-101299022D01*
%TO.N,USB_DM*%
X157662701Y-45587299D02*
X157687299Y-45587299D01*
X157687299Y-45587299D02*
X159600000Y-47500000D01*
%TO.N,USB_DP*%
X157300000Y-44700000D02*
X157800000Y-44700000D01*
X156816070Y-45183930D02*
X157300000Y-44700000D01*
X157800000Y-44700000D02*
X159800000Y-46700000D01*
X156301789Y-45183930D02*
X156816070Y-45183930D01*
X159800000Y-46700000D02*
X160750000Y-46700000D01*
%TO.N,LCD_RESET*%
X152550000Y-87450000D02*
X150950000Y-89050000D01*
X163956425Y-98492129D02*
X163956425Y-98582831D01*
X150950000Y-98150000D02*
X152100000Y-99300000D01*
X164380827Y-99007233D02*
X164471529Y-99007233D01*
X170599502Y-81150498D02*
X170950000Y-80800000D01*
X166977613Y-100399021D02*
X167377613Y-100799021D01*
X163200000Y-98300000D02*
X163764296Y-98300000D01*
X178450000Y-72969335D02*
X176525000Y-71044335D01*
X178450000Y-77250000D02*
X178450000Y-72969335D01*
X162750000Y-87450000D02*
X169049502Y-81150498D01*
X167377613Y-100799021D02*
X182686683Y-100799021D01*
X163764296Y-98300000D02*
X163956425Y-98492129D01*
X183449510Y-94142395D02*
X182384481Y-93077366D01*
X182686683Y-100799021D02*
X183449511Y-100036193D01*
X150950000Y-89050000D02*
X150950000Y-98150000D01*
X162750000Y-87450000D02*
X152550000Y-87450000D01*
X169049502Y-81150498D02*
X170599502Y-81150498D01*
X163956425Y-98582831D02*
X164380827Y-99007233D01*
X183449511Y-100036193D02*
X183449510Y-94142395D01*
X164471529Y-99007233D02*
X165863317Y-100399021D01*
X165863317Y-100399021D02*
X166977613Y-100399021D01*
%TO.N,SPI_CS_LCD0*%
X171250000Y-52560000D02*
X170075489Y-53734511D01*
X166650000Y-72350000D02*
X170075489Y-68924511D01*
X170075489Y-53734511D02*
X170075489Y-68924511D01*
%TO.N,SPI_DC*%
X166650000Y-73600000D02*
X171250000Y-69000000D01*
X171250000Y-69000000D02*
X171250000Y-55100000D01*
%TO.N,SPI_SCK*%
X181700000Y-99900000D02*
X167750000Y-99900000D01*
X167750000Y-99900000D02*
X165712299Y-97862299D01*
X182450000Y-95650000D02*
X182450000Y-99150000D01*
X165712299Y-97862299D02*
X165587701Y-97862299D01*
X174964511Y-62985489D02*
X174964511Y-56274511D01*
X173850000Y-64100000D02*
X174964511Y-62985489D01*
X182450000Y-99150000D02*
X181700000Y-99900000D01*
X180400000Y-93600000D02*
X182450000Y-95650000D01*
X174964511Y-56274511D02*
X173790000Y-55100000D01*
%TO.N,SPI_MOSI*%
X173350000Y-63300000D02*
X173350000Y-57100000D01*
X166248194Y-99850000D02*
X164680926Y-98282732D01*
X182899510Y-94749510D02*
X182899510Y-99336194D01*
X172550000Y-53800000D02*
X173790000Y-52560000D01*
X172550000Y-56300000D02*
X172550000Y-53800000D01*
X167064296Y-99850000D02*
X166248194Y-99850000D01*
X173350000Y-57100000D02*
X172550000Y-56300000D01*
X181400000Y-93250000D02*
X182899510Y-94749510D01*
X167563806Y-100349510D02*
X167064296Y-99850000D01*
X172650000Y-64000000D02*
X173350000Y-63300000D01*
X182899510Y-99336194D02*
X181886193Y-100349511D01*
X181886193Y-100349511D02*
X167563806Y-100349510D01*
%TO.N,MLCD_K*%
X184174010Y-99947398D02*
X182872876Y-101248532D01*
X167191419Y-101248531D02*
X166791420Y-100848532D01*
X162816563Y-99024501D02*
X162175898Y-98383836D01*
X184174010Y-95200000D02*
X184174010Y-99947398D01*
X182872876Y-101248532D02*
X167191419Y-101248531D01*
X164194633Y-99456743D02*
X163762391Y-99024501D01*
X166791420Y-100848532D02*
X165677123Y-100848531D01*
X164285336Y-99456744D02*
X164194633Y-99456743D01*
X165677123Y-100848531D02*
X164285336Y-99456744D01*
X163762391Y-99024501D02*
X162816563Y-99024501D01*
%TO.N,RIN_V*%
X155486194Y-86450490D02*
X155634725Y-86599021D01*
X155634725Y-86599021D02*
X162965275Y-86599021D01*
X162965275Y-86599021D02*
X169138298Y-80425998D01*
X151749510Y-86450490D02*
X155486194Y-86450490D01*
X169138298Y-80425998D02*
X169586554Y-80425998D01*
X151700000Y-86500000D02*
X151749510Y-86450490D01*
%TO.N,I2C_SDA*%
X179784407Y-95424500D02*
X180050000Y-95690093D01*
X180050000Y-95690093D02*
X180050000Y-98550000D01*
%TO.N,I2C_SCL*%
X181150000Y-96050000D02*
X181150000Y-98500000D01*
X181150000Y-98500000D02*
X181300000Y-98650000D01*
%TO.N,SW_START*%
X152587500Y-103537500D02*
X154450000Y-105400000D01*
X154450000Y-105400000D02*
X157000000Y-105400000D01*
%TO.N,FIN_H*%
X169500000Y-77300000D02*
X161600000Y-85200000D01*
X161600000Y-85200000D02*
X156700000Y-85200000D01*
X152500000Y-73300000D02*
X152100000Y-72900000D01*
X152500000Y-81000000D02*
X152500000Y-73300000D01*
X156700000Y-85200000D02*
X152500000Y-81000000D01*
X152100000Y-72900000D02*
X151700000Y-72900000D01*
%TO.N,RIN_H*%
X162189476Y-85700000D02*
X156200000Y-85700000D01*
X169489476Y-78400000D02*
X162189476Y-85700000D01*
X156200000Y-85700000D02*
X151700000Y-81200000D01*
X169500000Y-78400000D02*
X169489476Y-78400000D01*
X151700000Y-81200000D02*
X151700000Y-74600000D01*
%TO.N,FIN_V*%
X152271408Y-82600000D02*
X155820918Y-86149510D01*
X162764566Y-86149510D02*
X169482109Y-79431967D01*
X151900000Y-82600000D02*
X152271408Y-82600000D01*
X155820918Y-86149510D02*
X162764566Y-86149510D01*
%TO.N,SPI_CS_LCD1*%
X177000000Y-99450000D02*
X168500000Y-99450000D01*
X177650000Y-98800000D02*
X177000000Y-99450000D01*
X168200000Y-99450000D02*
X165150000Y-96400000D01*
X179450000Y-93100000D02*
X178700000Y-93100000D01*
X168500000Y-99450000D02*
X168200000Y-99450000D01*
X177650000Y-94150000D02*
X177650000Y-98800000D01*
X178700000Y-93100000D02*
X177650000Y-94150000D01*
%TO.N,LCD_HSYNC*%
X182700000Y-88200000D02*
X182700000Y-84200000D01*
X182700000Y-84200000D02*
X182750000Y-84150000D01*
%TD*%
%TA.AperFunction,Conductor*%
%TO.N,GND*%
G36*
X183665998Y-39028502D02*
G01*
X183712491Y-39082158D01*
X183722595Y-39152432D01*
X183693101Y-39217012D01*
X183635557Y-39254734D01*
X183620459Y-39259465D01*
X183544710Y-39301454D01*
X183455729Y-39350777D01*
X183455726Y-39350779D01*
X183450150Y-39353870D01*
X183445309Y-39358019D01*
X183445305Y-39358022D01*
X183393867Y-39402110D01*
X183302302Y-39480591D01*
X183298391Y-39485633D01*
X183298390Y-39485634D01*
X183270629Y-39521423D01*
X183182954Y-39634453D01*
X183180138Y-39640176D01*
X183180136Y-39640179D01*
X183136608Y-39728640D01*
X183096982Y-39809171D01*
X183095373Y-39815349D01*
X183095372Y-39815351D01*
X183065436Y-39930279D01*
X183047898Y-39997607D01*
X183045697Y-40039614D01*
X183038073Y-40185087D01*
X183037707Y-40192064D01*
X183050706Y-40278017D01*
X183063405Y-40361982D01*
X183066825Y-40384599D01*
X183069028Y-40390585D01*
X183069029Y-40390591D01*
X183131860Y-40561360D01*
X183131862Y-40561365D01*
X183134063Y-40567346D01*
X183137425Y-40572768D01*
X183221617Y-40708555D01*
X183236674Y-40732840D01*
X183241055Y-40737473D01*
X183241056Y-40737474D01*
X183277319Y-40775821D01*
X183370466Y-40874322D01*
X183375696Y-40877984D01*
X183375697Y-40877985D01*
X183452808Y-40931978D01*
X183529975Y-40986011D01*
X183535838Y-40988548D01*
X183702825Y-41060810D01*
X183702829Y-41060811D01*
X183708684Y-41063345D01*
X183714931Y-41064650D01*
X183714934Y-41064651D01*
X183894557Y-41102176D01*
X183894562Y-41102177D01*
X183899293Y-41103165D01*
X183905685Y-41103500D01*
X184048663Y-41103500D01*
X184117951Y-41096462D01*
X184187378Y-41089410D01*
X184187379Y-41089410D01*
X184193727Y-41088765D01*
X184274843Y-41063345D01*
X184373451Y-41032444D01*
X184373456Y-41032442D01*
X184379541Y-41030535D01*
X184501066Y-40963172D01*
X184544271Y-40939223D01*
X184544274Y-40939221D01*
X184549850Y-40936130D01*
X184554691Y-40931981D01*
X184554695Y-40931978D01*
X184692855Y-40813560D01*
X184697698Y-40809409D01*
X184719313Y-40781544D01*
X184784504Y-40697500D01*
X184817046Y-40655547D01*
X184827403Y-40634500D01*
X184900200Y-40486556D01*
X184903018Y-40480829D01*
X184907361Y-40464156D01*
X184950492Y-40298575D01*
X184950492Y-40298572D01*
X184952102Y-40292393D01*
X184957974Y-40180342D01*
X184961959Y-40104317D01*
X184961959Y-40104313D01*
X184962293Y-40097936D01*
X184933175Y-39905401D01*
X184930972Y-39899415D01*
X184930971Y-39899409D01*
X184868140Y-39728640D01*
X184868138Y-39728635D01*
X184865937Y-39722654D01*
X184763326Y-39557160D01*
X184729532Y-39521423D01*
X184633919Y-39420315D01*
X184629534Y-39415678D01*
X184590506Y-39388350D01*
X184475259Y-39307654D01*
X184470025Y-39303989D01*
X184345578Y-39250136D01*
X184291005Y-39204726D01*
X184269645Y-39137019D01*
X184288281Y-39068512D01*
X184340997Y-39020956D01*
X184395620Y-39008500D01*
X186597877Y-39008500D01*
X186665998Y-39028502D01*
X186712491Y-39082158D01*
X186722595Y-39152432D01*
X186693101Y-39217012D01*
X186635557Y-39254734D01*
X186620459Y-39259465D01*
X186544710Y-39301454D01*
X186455729Y-39350777D01*
X186455726Y-39350779D01*
X186450150Y-39353870D01*
X186445309Y-39358019D01*
X186445305Y-39358022D01*
X186393867Y-39402110D01*
X186302302Y-39480591D01*
X186298391Y-39485633D01*
X186298390Y-39485634D01*
X186270629Y-39521423D01*
X186182954Y-39634453D01*
X186180138Y-39640176D01*
X186180136Y-39640179D01*
X186136608Y-39728640D01*
X186096982Y-39809171D01*
X186095373Y-39815349D01*
X186095372Y-39815351D01*
X186065436Y-39930279D01*
X186047898Y-39997607D01*
X186045697Y-40039614D01*
X186038073Y-40185087D01*
X186037707Y-40192064D01*
X186050706Y-40278017D01*
X186063405Y-40361982D01*
X186066825Y-40384599D01*
X186069028Y-40390585D01*
X186069029Y-40390591D01*
X186131860Y-40561360D01*
X186131862Y-40561365D01*
X186134063Y-40567346D01*
X186137425Y-40572768D01*
X186221617Y-40708555D01*
X186236674Y-40732840D01*
X186241055Y-40737473D01*
X186241056Y-40737474D01*
X186277319Y-40775821D01*
X186370466Y-40874322D01*
X186375696Y-40877984D01*
X186375697Y-40877985D01*
X186452808Y-40931978D01*
X186529975Y-40986011D01*
X186535838Y-40988548D01*
X186702825Y-41060810D01*
X186702829Y-41060811D01*
X186708684Y-41063345D01*
X186714931Y-41064650D01*
X186714934Y-41064651D01*
X186894557Y-41102176D01*
X186894562Y-41102177D01*
X186899293Y-41103165D01*
X186905685Y-41103500D01*
X187048663Y-41103500D01*
X187117951Y-41096462D01*
X187187378Y-41089410D01*
X187187379Y-41089410D01*
X187193727Y-41088765D01*
X187274843Y-41063345D01*
X187373451Y-41032444D01*
X187373456Y-41032442D01*
X187379541Y-41030535D01*
X187501066Y-40963172D01*
X187544271Y-40939223D01*
X187544274Y-40939221D01*
X187549850Y-40936130D01*
X187554691Y-40931981D01*
X187554695Y-40931978D01*
X187692855Y-40813560D01*
X187697698Y-40809409D01*
X187719313Y-40781544D01*
X187784504Y-40697500D01*
X187817046Y-40655547D01*
X187827403Y-40634500D01*
X187900200Y-40486556D01*
X187903018Y-40480829D01*
X187907361Y-40464156D01*
X187950492Y-40298575D01*
X187950492Y-40298572D01*
X187952102Y-40292393D01*
X187957974Y-40180342D01*
X187961959Y-40104317D01*
X187961959Y-40104313D01*
X187962293Y-40097936D01*
X187933175Y-39905401D01*
X187930972Y-39899415D01*
X187930971Y-39899409D01*
X187868140Y-39728640D01*
X187868138Y-39728635D01*
X187865937Y-39722654D01*
X187763326Y-39557160D01*
X187729532Y-39521423D01*
X187633919Y-39420315D01*
X187629534Y-39415678D01*
X187590506Y-39388350D01*
X187475259Y-39307654D01*
X187470025Y-39303989D01*
X187345578Y-39250136D01*
X187291005Y-39204726D01*
X187269645Y-39137019D01*
X187288281Y-39068512D01*
X187340997Y-39020956D01*
X187395620Y-39008500D01*
X190115500Y-39008500D01*
X190183621Y-39028502D01*
X190230114Y-39082158D01*
X190241500Y-39134500D01*
X190241500Y-39991377D01*
X190241498Y-39992147D01*
X190241024Y-40069721D01*
X190243491Y-40078352D01*
X190249150Y-40098153D01*
X190252728Y-40114915D01*
X190256920Y-40144187D01*
X190260634Y-40152355D01*
X190260634Y-40152356D01*
X190267548Y-40167562D01*
X190273996Y-40185086D01*
X190281051Y-40209771D01*
X190285843Y-40217365D01*
X190285844Y-40217368D01*
X190296830Y-40234780D01*
X190304969Y-40249863D01*
X190317208Y-40276782D01*
X190323069Y-40283584D01*
X190333970Y-40296235D01*
X190345073Y-40311239D01*
X190358776Y-40332958D01*
X190365501Y-40338897D01*
X190365504Y-40338901D01*
X190380938Y-40352532D01*
X190392982Y-40364724D01*
X190406427Y-40380327D01*
X190406430Y-40380329D01*
X190412287Y-40387127D01*
X190419816Y-40392007D01*
X190419817Y-40392008D01*
X190433835Y-40401094D01*
X190448709Y-40412385D01*
X190461217Y-40423431D01*
X190467951Y-40429378D01*
X190494711Y-40441942D01*
X190509691Y-40450263D01*
X190526983Y-40461471D01*
X190526988Y-40461473D01*
X190534515Y-40466352D01*
X190543108Y-40468922D01*
X190543113Y-40468924D01*
X190559120Y-40473711D01*
X190576564Y-40480372D01*
X190591676Y-40487467D01*
X190591678Y-40487468D01*
X190599800Y-40491281D01*
X190608667Y-40492662D01*
X190608668Y-40492662D01*
X190611353Y-40493080D01*
X190629017Y-40495830D01*
X190645732Y-40499613D01*
X190665466Y-40505515D01*
X190665472Y-40505516D01*
X190674066Y-40508086D01*
X190683037Y-40508141D01*
X190683038Y-40508141D01*
X190693097Y-40508202D01*
X190708506Y-40508296D01*
X190709289Y-40508329D01*
X190710386Y-40508500D01*
X190741377Y-40508500D01*
X190742147Y-40508502D01*
X190815785Y-40508952D01*
X190815786Y-40508952D01*
X190819721Y-40508976D01*
X190821065Y-40508592D01*
X190822410Y-40508500D01*
X191865500Y-40508500D01*
X191933621Y-40528502D01*
X191980114Y-40582158D01*
X191991500Y-40634500D01*
X191991500Y-106480091D01*
X191971498Y-106548212D01*
X191917842Y-106594705D01*
X191847568Y-106604809D01*
X191782988Y-106575315D01*
X191756381Y-106543092D01*
X191742341Y-106518774D01*
X191739040Y-106513056D01*
X191611253Y-106371134D01*
X191456752Y-106258882D01*
X191450724Y-106256198D01*
X191450722Y-106256197D01*
X191288319Y-106183891D01*
X191288318Y-106183891D01*
X191282288Y-106181206D01*
X191188887Y-106161353D01*
X191101944Y-106142872D01*
X191101939Y-106142872D01*
X191095487Y-106141500D01*
X190904513Y-106141500D01*
X190898061Y-106142872D01*
X190898056Y-106142872D01*
X190811113Y-106161353D01*
X190717712Y-106181206D01*
X190711685Y-106183889D01*
X190711677Y-106183892D01*
X190677248Y-106199221D01*
X190606881Y-106208655D01*
X190542584Y-106178548D01*
X190504771Y-106118459D01*
X190500000Y-106084114D01*
X190500000Y-102650000D01*
X187100000Y-102650000D01*
X187100000Y-106150000D01*
X190307132Y-106150000D01*
X190375253Y-106170002D01*
X190421746Y-106223658D01*
X190431850Y-106293932D01*
X190402356Y-106358512D01*
X190393017Y-106368032D01*
X190388747Y-106371134D01*
X190260960Y-106513056D01*
X190165473Y-106678444D01*
X190106458Y-106860072D01*
X190086496Y-107050000D01*
X190106458Y-107239928D01*
X190165473Y-107421556D01*
X190260960Y-107586944D01*
X190334137Y-107668215D01*
X190364853Y-107732221D01*
X190366500Y-107752524D01*
X190366500Y-109035405D01*
X190346498Y-109103526D01*
X190329595Y-109124500D01*
X189874500Y-109579595D01*
X189812188Y-109613621D01*
X189785405Y-109616500D01*
X188064595Y-109616500D01*
X187996474Y-109596498D01*
X187975500Y-109579595D01*
X187647122Y-109251217D01*
X187613096Y-109188905D01*
X187610907Y-109175292D01*
X187594232Y-109016635D01*
X187594232Y-109016633D01*
X187593542Y-109010072D01*
X187534527Y-108828444D01*
X187439040Y-108663056D01*
X187311253Y-108521134D01*
X187156752Y-108408882D01*
X187150724Y-108406198D01*
X187150722Y-108406197D01*
X186988319Y-108333891D01*
X186988318Y-108333891D01*
X186982288Y-108331206D01*
X186888888Y-108311353D01*
X186801944Y-108292872D01*
X186801939Y-108292872D01*
X186795487Y-108291500D01*
X186604513Y-108291500D01*
X186598061Y-108292872D01*
X186598056Y-108292872D01*
X186511113Y-108311353D01*
X186417712Y-108331206D01*
X186411682Y-108333891D01*
X186411681Y-108333891D01*
X186249278Y-108406197D01*
X186249276Y-108406198D01*
X186243248Y-108408882D01*
X186088747Y-108521134D01*
X185960960Y-108663056D01*
X185865473Y-108828444D01*
X185806458Y-109010072D01*
X185786496Y-109200000D01*
X185806458Y-109389928D01*
X185865473Y-109571556D01*
X185868776Y-109577278D01*
X185868777Y-109577279D01*
X185877279Y-109592005D01*
X185960960Y-109736944D01*
X185965378Y-109741851D01*
X185965379Y-109741852D01*
X186010832Y-109792333D01*
X186088747Y-109878866D01*
X186243248Y-109991118D01*
X186249276Y-109993802D01*
X186249278Y-109993803D01*
X186411681Y-110066109D01*
X186417712Y-110068794D01*
X186511113Y-110088647D01*
X186598056Y-110107128D01*
X186598061Y-110107128D01*
X186604513Y-110108500D01*
X186660406Y-110108500D01*
X186728527Y-110128502D01*
X186749501Y-110145405D01*
X187246343Y-110642247D01*
X187253887Y-110650537D01*
X187258000Y-110657018D01*
X187263777Y-110662443D01*
X187307667Y-110703658D01*
X187310509Y-110706413D01*
X187330230Y-110726134D01*
X187333425Y-110728612D01*
X187342447Y-110736318D01*
X187374679Y-110766586D01*
X187381628Y-110770406D01*
X187392432Y-110776346D01*
X187408956Y-110787199D01*
X187424959Y-110799613D01*
X187465543Y-110817176D01*
X187476173Y-110822383D01*
X187514940Y-110843695D01*
X187522617Y-110845666D01*
X187522622Y-110845668D01*
X187534558Y-110848732D01*
X187553266Y-110855137D01*
X187571855Y-110863181D01*
X187579683Y-110864421D01*
X187579690Y-110864423D01*
X187615524Y-110870099D01*
X187627144Y-110872505D01*
X187658959Y-110880673D01*
X187669970Y-110883500D01*
X187690224Y-110883500D01*
X187709934Y-110885051D01*
X187729943Y-110888220D01*
X187737835Y-110887474D01*
X187756580Y-110885702D01*
X187773962Y-110884059D01*
X187785819Y-110883500D01*
X190021233Y-110883500D01*
X190032416Y-110884027D01*
X190039909Y-110885702D01*
X190047835Y-110885453D01*
X190047836Y-110885453D01*
X190107986Y-110883562D01*
X190111945Y-110883500D01*
X190139856Y-110883500D01*
X190143791Y-110883003D01*
X190143856Y-110882995D01*
X190155693Y-110882062D01*
X190187951Y-110881048D01*
X190191970Y-110880922D01*
X190199889Y-110880673D01*
X190219343Y-110875021D01*
X190238700Y-110871013D01*
X190250930Y-110869468D01*
X190250931Y-110869468D01*
X190258797Y-110868474D01*
X190266168Y-110865555D01*
X190266170Y-110865555D01*
X190299912Y-110852196D01*
X190311142Y-110848351D01*
X190345983Y-110838229D01*
X190345984Y-110838229D01*
X190353593Y-110836018D01*
X190360412Y-110831985D01*
X190360417Y-110831983D01*
X190371028Y-110825707D01*
X190388776Y-110817012D01*
X190407617Y-110809552D01*
X190427987Y-110794753D01*
X190443387Y-110783564D01*
X190453307Y-110777048D01*
X190484535Y-110758580D01*
X190484538Y-110758578D01*
X190491362Y-110754542D01*
X190505683Y-110740221D01*
X190520717Y-110727380D01*
X190522432Y-110726134D01*
X190537107Y-110715472D01*
X190565298Y-110681395D01*
X190573288Y-110672616D01*
X191392247Y-109853657D01*
X191400537Y-109846113D01*
X191407018Y-109842000D01*
X191453659Y-109792332D01*
X191456413Y-109789491D01*
X191476134Y-109769770D01*
X191478612Y-109766575D01*
X191486318Y-109757553D01*
X191511158Y-109731101D01*
X191516586Y-109725321D01*
X191526346Y-109707568D01*
X191537199Y-109691045D01*
X191544753Y-109681306D01*
X191549613Y-109675041D01*
X191567176Y-109634457D01*
X191572383Y-109623827D01*
X191593695Y-109585060D01*
X191595666Y-109577383D01*
X191595668Y-109577378D01*
X191598732Y-109565442D01*
X191605138Y-109546730D01*
X191610033Y-109535419D01*
X191613181Y-109528145D01*
X191614421Y-109520317D01*
X191614423Y-109520310D01*
X191620099Y-109484476D01*
X191622505Y-109472856D01*
X191631528Y-109437711D01*
X191631528Y-109437710D01*
X191633500Y-109430030D01*
X191633500Y-109409776D01*
X191635051Y-109390065D01*
X191636980Y-109377886D01*
X191638220Y-109370057D01*
X191634059Y-109326038D01*
X191633500Y-109314181D01*
X191633500Y-107752524D01*
X191653502Y-107684403D01*
X191665858Y-107668221D01*
X191739040Y-107586944D01*
X191756382Y-107556907D01*
X191807764Y-107507915D01*
X191877478Y-107494480D01*
X191943389Y-107520867D01*
X191984570Y-107578699D01*
X191991500Y-107619909D01*
X191991500Y-113865500D01*
X191971498Y-113933621D01*
X191917842Y-113980114D01*
X191865500Y-113991500D01*
X150634500Y-113991500D01*
X150566379Y-113971498D01*
X150519886Y-113917842D01*
X150508500Y-113865500D01*
X150508500Y-103537500D01*
X151673996Y-103537500D01*
X151693958Y-103727428D01*
X151752973Y-103909056D01*
X151848460Y-104074444D01*
X151976247Y-104216366D01*
X152130748Y-104328618D01*
X152136776Y-104331302D01*
X152136778Y-104331303D01*
X152299181Y-104403609D01*
X152305212Y-104406294D01*
X152398613Y-104426147D01*
X152485556Y-104444628D01*
X152485561Y-104444628D01*
X152492013Y-104446000D01*
X152547906Y-104446000D01*
X152616027Y-104466002D01*
X152637001Y-104482905D01*
X153946348Y-105792253D01*
X153953888Y-105800539D01*
X153958000Y-105807018D01*
X153963777Y-105812443D01*
X154007651Y-105853643D01*
X154010493Y-105856398D01*
X154030230Y-105876135D01*
X154033427Y-105878615D01*
X154042447Y-105886318D01*
X154074679Y-105916586D01*
X154081625Y-105920405D01*
X154081628Y-105920407D01*
X154092434Y-105926348D01*
X154108953Y-105937199D01*
X154124959Y-105949614D01*
X154132228Y-105952759D01*
X154132232Y-105952762D01*
X154165537Y-105967174D01*
X154176187Y-105972391D01*
X154214940Y-105993695D01*
X154222615Y-105995666D01*
X154222616Y-105995666D01*
X154234562Y-105998733D01*
X154253267Y-106005137D01*
X154271855Y-106013181D01*
X154279678Y-106014420D01*
X154279688Y-106014423D01*
X154315524Y-106020099D01*
X154327144Y-106022505D01*
X154362289Y-106031528D01*
X154369970Y-106033500D01*
X154390224Y-106033500D01*
X154409934Y-106035051D01*
X154429943Y-106038220D01*
X154437835Y-106037474D01*
X154473961Y-106034059D01*
X154485819Y-106033500D01*
X156291800Y-106033500D01*
X156359921Y-106053502D01*
X156379147Y-106069843D01*
X156379420Y-106069540D01*
X156384332Y-106073963D01*
X156388747Y-106078866D01*
X156543248Y-106191118D01*
X156549276Y-106193802D01*
X156549278Y-106193803D01*
X156695449Y-106258882D01*
X156717712Y-106268794D01*
X156811112Y-106288647D01*
X156898056Y-106307128D01*
X156898061Y-106307128D01*
X156904513Y-106308500D01*
X157095487Y-106308500D01*
X157101939Y-106307128D01*
X157101944Y-106307128D01*
X157188888Y-106288647D01*
X157282288Y-106268794D01*
X157304551Y-106258882D01*
X157450722Y-106193803D01*
X157450724Y-106193802D01*
X157456752Y-106191118D01*
X157611253Y-106078866D01*
X157647851Y-106038220D01*
X157734621Y-105941852D01*
X157734622Y-105941851D01*
X157739040Y-105936944D01*
X157834527Y-105771556D01*
X157893542Y-105589928D01*
X157913504Y-105400000D01*
X157893542Y-105210072D01*
X157834527Y-105028444D01*
X157739040Y-104863056D01*
X157611253Y-104721134D01*
X157456752Y-104608882D01*
X157450724Y-104606198D01*
X157450722Y-104606197D01*
X157288319Y-104533891D01*
X157288318Y-104533891D01*
X157282288Y-104531206D01*
X157188887Y-104511353D01*
X157101944Y-104492872D01*
X157101939Y-104492872D01*
X157095487Y-104491500D01*
X156904513Y-104491500D01*
X156898061Y-104492872D01*
X156898056Y-104492872D01*
X156811113Y-104511353D01*
X156717712Y-104531206D01*
X156711682Y-104533891D01*
X156711681Y-104533891D01*
X156549278Y-104606197D01*
X156549276Y-104606198D01*
X156543248Y-104608882D01*
X156388747Y-104721134D01*
X156384332Y-104726037D01*
X156379420Y-104730460D01*
X156378295Y-104729211D01*
X156324986Y-104762051D01*
X156291800Y-104766500D01*
X154764594Y-104766500D01*
X154696473Y-104746498D01*
X154675499Y-104729595D01*
X153534622Y-103588717D01*
X153500596Y-103526405D01*
X153498407Y-103512792D01*
X153481732Y-103354135D01*
X153481732Y-103354133D01*
X153481042Y-103347572D01*
X153422027Y-103165944D01*
X153326540Y-103000556D01*
X153198753Y-102858634D01*
X153044252Y-102746382D01*
X153038224Y-102743698D01*
X153038222Y-102743697D01*
X152875819Y-102671391D01*
X152875818Y-102671391D01*
X152869788Y-102668706D01*
X152776387Y-102648853D01*
X152689444Y-102630372D01*
X152689439Y-102630372D01*
X152682987Y-102629000D01*
X152492013Y-102629000D01*
X152485561Y-102630372D01*
X152485556Y-102630372D01*
X152398613Y-102648853D01*
X152305212Y-102668706D01*
X152299182Y-102671391D01*
X152299181Y-102671391D01*
X152136778Y-102743697D01*
X152136776Y-102743698D01*
X152130748Y-102746382D01*
X151976247Y-102858634D01*
X151848460Y-103000556D01*
X151752973Y-103165944D01*
X151693958Y-103347572D01*
X151673996Y-103537500D01*
X150508500Y-103537500D01*
X150508500Y-98908594D01*
X150528502Y-98840473D01*
X150582158Y-98793980D01*
X150652432Y-98783876D01*
X150717012Y-98813370D01*
X150723595Y-98819499D01*
X151152878Y-99248782D01*
X151186904Y-99311094D01*
X151189092Y-99324703D01*
X151206458Y-99489928D01*
X151265473Y-99671556D01*
X151268776Y-99677278D01*
X151268777Y-99677279D01*
X151278906Y-99694823D01*
X151360960Y-99836944D01*
X151365378Y-99841851D01*
X151365379Y-99841852D01*
X151468149Y-99955990D01*
X151488747Y-99978866D01*
X151643248Y-100091118D01*
X151649276Y-100093802D01*
X151649278Y-100093803D01*
X151687385Y-100110769D01*
X151817712Y-100168794D01*
X151911112Y-100188647D01*
X151998056Y-100207128D01*
X151998061Y-100207128D01*
X152004513Y-100208500D01*
X152195487Y-100208500D01*
X152201939Y-100207128D01*
X152201944Y-100207128D01*
X152288888Y-100188647D01*
X152382288Y-100168794D01*
X152512615Y-100110769D01*
X152550722Y-100093803D01*
X152550724Y-100093802D01*
X152556752Y-100091118D01*
X152711253Y-99978866D01*
X152731851Y-99955990D01*
X152834621Y-99841852D01*
X152834622Y-99841851D01*
X152839040Y-99836944D01*
X152921094Y-99694823D01*
X152931223Y-99677279D01*
X152931224Y-99677278D01*
X152934527Y-99671556D01*
X152993542Y-99489928D01*
X153000577Y-99422999D01*
X153012814Y-99306565D01*
X153013504Y-99300000D01*
X153008915Y-99256337D01*
X152994232Y-99116635D01*
X152994232Y-99116633D01*
X152993542Y-99110072D01*
X152934527Y-98928444D01*
X152839040Y-98763056D01*
X152711253Y-98621134D01*
X152556752Y-98508882D01*
X152550724Y-98506198D01*
X152550722Y-98506197D01*
X152388319Y-98433891D01*
X152388318Y-98433891D01*
X152382288Y-98431206D01*
X152288887Y-98411353D01*
X152201944Y-98392872D01*
X152201939Y-98392872D01*
X152195487Y-98391500D01*
X152139595Y-98391500D01*
X152113494Y-98383836D01*
X161262394Y-98383836D01*
X161263084Y-98390401D01*
X161278555Y-98537596D01*
X161282356Y-98573764D01*
X161341371Y-98755392D01*
X161436858Y-98920780D01*
X161564645Y-99062702D01*
X161719146Y-99174954D01*
X161725174Y-99177638D01*
X161725176Y-99177639D01*
X161884967Y-99248782D01*
X161893610Y-99252630D01*
X161987011Y-99272483D01*
X162073954Y-99290964D01*
X162073959Y-99290964D01*
X162080411Y-99292336D01*
X162136303Y-99292336D01*
X162204424Y-99312338D01*
X162225398Y-99329241D01*
X162312911Y-99416754D01*
X162320451Y-99425040D01*
X162324563Y-99431519D01*
X162330340Y-99436944D01*
X162374214Y-99478144D01*
X162377056Y-99480899D01*
X162396793Y-99500636D01*
X162399990Y-99503116D01*
X162409010Y-99510819D01*
X162441242Y-99541087D01*
X162448188Y-99544906D01*
X162448191Y-99544908D01*
X162458997Y-99550849D01*
X162475516Y-99561700D01*
X162491522Y-99574115D01*
X162498791Y-99577260D01*
X162498795Y-99577263D01*
X162532100Y-99591675D01*
X162542750Y-99596892D01*
X162581503Y-99618196D01*
X162581504Y-99618196D01*
X162580285Y-99620414D01*
X162626452Y-99656437D01*
X162649928Y-99723439D01*
X162649404Y-99743084D01*
X162639272Y-99839485D01*
X162659234Y-100029413D01*
X162718249Y-100211041D01*
X162813736Y-100376429D01*
X162941523Y-100518351D01*
X163096024Y-100630603D01*
X163102052Y-100633287D01*
X163102054Y-100633288D01*
X163264457Y-100705594D01*
X163270488Y-100708279D01*
X163363889Y-100728132D01*
X163450832Y-100746613D01*
X163450837Y-100746613D01*
X163457289Y-100747985D01*
X163513181Y-100747985D01*
X163581302Y-100767987D01*
X163602277Y-100784890D01*
X164508666Y-101691280D01*
X164516200Y-101699559D01*
X164520313Y-101706040D01*
X164569964Y-101752665D01*
X164572806Y-101755420D01*
X164592543Y-101775157D01*
X164595740Y-101777637D01*
X164604760Y-101785340D01*
X164636992Y-101815608D01*
X164643938Y-101819427D01*
X164643941Y-101819429D01*
X164654747Y-101825370D01*
X164671266Y-101836221D01*
X164687272Y-101848636D01*
X164694541Y-101851781D01*
X164694545Y-101851784D01*
X164727850Y-101866196D01*
X164738500Y-101871413D01*
X164777253Y-101892717D01*
X164784928Y-101894688D01*
X164784929Y-101894688D01*
X164796875Y-101897755D01*
X164815580Y-101904159D01*
X164834168Y-101912203D01*
X164841991Y-101913442D01*
X164842001Y-101913445D01*
X164877837Y-101919121D01*
X164889457Y-101921527D01*
X164924602Y-101930550D01*
X164932283Y-101932522D01*
X164952537Y-101932522D01*
X164972247Y-101934073D01*
X164992256Y-101937242D01*
X165000148Y-101936496D01*
X165036274Y-101933081D01*
X165048132Y-101932522D01*
X166291611Y-101932522D01*
X166359732Y-101952524D01*
X166380706Y-101969427D01*
X166501573Y-102090294D01*
X166509113Y-102098580D01*
X166513225Y-102105059D01*
X166519002Y-102110484D01*
X166562877Y-102151685D01*
X166565719Y-102154440D01*
X166585455Y-102174176D01*
X166588652Y-102176656D01*
X166597672Y-102184359D01*
X166629904Y-102214627D01*
X166636850Y-102218446D01*
X166636853Y-102218448D01*
X166647659Y-102224389D01*
X166664178Y-102235240D01*
X166680184Y-102247655D01*
X166687453Y-102250800D01*
X166687457Y-102250803D01*
X166720762Y-102265215D01*
X166731412Y-102270432D01*
X166770165Y-102291736D01*
X166777840Y-102293707D01*
X166777841Y-102293707D01*
X166789787Y-102296774D01*
X166808492Y-102303178D01*
X166827080Y-102311222D01*
X166834903Y-102312461D01*
X166834913Y-102312464D01*
X166870749Y-102318140D01*
X166882369Y-102320546D01*
X166914184Y-102328714D01*
X166925195Y-102331541D01*
X166945449Y-102331541D01*
X166965159Y-102333092D01*
X166985168Y-102336261D01*
X166993060Y-102335515D01*
X167011805Y-102333743D01*
X167029187Y-102332100D01*
X167041044Y-102331541D01*
X182980304Y-102331541D01*
X182991487Y-102332068D01*
X182998980Y-102333743D01*
X183006906Y-102333494D01*
X183006907Y-102333494D01*
X183067057Y-102331603D01*
X183071016Y-102331541D01*
X183098927Y-102331541D01*
X183102862Y-102331044D01*
X183102927Y-102331036D01*
X183114764Y-102330103D01*
X183147022Y-102329089D01*
X183151041Y-102328963D01*
X183158960Y-102328714D01*
X183178414Y-102323062D01*
X183197771Y-102319054D01*
X183210001Y-102317509D01*
X183210002Y-102317509D01*
X183217868Y-102316515D01*
X183225239Y-102313596D01*
X183225241Y-102313596D01*
X183258983Y-102300237D01*
X183270213Y-102296392D01*
X183305054Y-102286270D01*
X183305055Y-102286270D01*
X183312664Y-102284059D01*
X183319483Y-102280026D01*
X183319488Y-102280024D01*
X183330099Y-102273748D01*
X183347847Y-102265053D01*
X183366688Y-102257593D01*
X183402458Y-102231605D01*
X183412378Y-102225089D01*
X183443606Y-102206621D01*
X183443609Y-102206619D01*
X183450433Y-102202583D01*
X183464754Y-102188262D01*
X183479788Y-102175421D01*
X183489765Y-102168172D01*
X183496178Y-102163513D01*
X183524369Y-102129436D01*
X183532359Y-102120657D01*
X185542247Y-100110769D01*
X185550537Y-100103225D01*
X185557018Y-100099112D01*
X185603659Y-100049444D01*
X185606413Y-100046603D01*
X185626134Y-100026882D01*
X185628612Y-100023687D01*
X185636318Y-100014665D01*
X185661158Y-99988213D01*
X185666586Y-99982433D01*
X185676346Y-99964680D01*
X185687199Y-99948157D01*
X185694753Y-99938418D01*
X185699613Y-99932153D01*
X185717176Y-99891569D01*
X185722383Y-99880939D01*
X185743695Y-99842172D01*
X185745666Y-99834495D01*
X185745668Y-99834490D01*
X185748732Y-99822554D01*
X185755138Y-99803842D01*
X185760033Y-99792531D01*
X185763181Y-99785257D01*
X185764421Y-99777429D01*
X185764423Y-99777422D01*
X185770099Y-99741588D01*
X185772505Y-99729968D01*
X185781528Y-99694823D01*
X185781528Y-99694822D01*
X185783500Y-99687142D01*
X185783500Y-99666888D01*
X185785051Y-99647177D01*
X185786980Y-99634998D01*
X185788220Y-99627169D01*
X185784059Y-99583150D01*
X185783500Y-99571293D01*
X185783500Y-95052524D01*
X185803502Y-94984403D01*
X185815858Y-94968221D01*
X185889040Y-94886944D01*
X185984527Y-94721556D01*
X186043542Y-94539928D01*
X186051019Y-94468794D01*
X186062814Y-94356565D01*
X186063504Y-94350000D01*
X186062814Y-94343435D01*
X186044232Y-94166635D01*
X186044232Y-94166633D01*
X186043542Y-94160072D01*
X185984527Y-93978444D01*
X185969991Y-93953266D01*
X185919340Y-93865537D01*
X185889040Y-93813056D01*
X185867467Y-93789096D01*
X185765675Y-93676045D01*
X185765674Y-93676044D01*
X185761253Y-93671134D01*
X185606752Y-93558882D01*
X185600724Y-93556198D01*
X185600722Y-93556197D01*
X185438319Y-93483891D01*
X185438318Y-93483891D01*
X185432288Y-93481206D01*
X185338887Y-93461353D01*
X185251944Y-93442872D01*
X185251939Y-93442872D01*
X185245487Y-93441500D01*
X185054513Y-93441500D01*
X185048061Y-93442872D01*
X185048056Y-93442872D01*
X184961112Y-93461353D01*
X184867712Y-93481206D01*
X184861682Y-93483891D01*
X184861681Y-93483891D01*
X184699278Y-93556197D01*
X184699276Y-93556198D01*
X184693248Y-93558882D01*
X184538747Y-93671134D01*
X184534326Y-93676044D01*
X184534325Y-93676045D01*
X184432534Y-93789096D01*
X184410960Y-93813056D01*
X184380660Y-93865537D01*
X184330010Y-93953266D01*
X184315473Y-93978444D01*
X184313432Y-93984726D01*
X184313430Y-93984730D01*
X184309933Y-93995493D01*
X184269858Y-94054098D01*
X184204461Y-94081733D01*
X184134505Y-94069625D01*
X184082200Y-94021618D01*
X184068727Y-93989481D01*
X184067984Y-93983598D01*
X184051704Y-93942481D01*
X184047869Y-93931280D01*
X184035528Y-93888801D01*
X184031495Y-93881982D01*
X184031493Y-93881977D01*
X184025217Y-93871366D01*
X184016520Y-93853616D01*
X184009062Y-93834778D01*
X183983081Y-93799018D01*
X183976563Y-93789096D01*
X183958088Y-93757855D01*
X183958084Y-93757850D01*
X183954052Y-93751032D01*
X183939728Y-93736708D01*
X183926886Y-93721673D01*
X183914982Y-93705288D01*
X183880916Y-93677106D01*
X183872137Y-93669117D01*
X183331603Y-93128583D01*
X183297577Y-93066271D01*
X183295388Y-93052658D01*
X183278713Y-92894001D01*
X183278713Y-92893999D01*
X183278023Y-92887438D01*
X183219008Y-92705810D01*
X183123521Y-92540422D01*
X183099715Y-92513982D01*
X183000156Y-92403411D01*
X183000155Y-92403410D01*
X182995734Y-92398500D01*
X182841233Y-92286248D01*
X182835205Y-92283564D01*
X182835203Y-92283563D01*
X182672800Y-92211257D01*
X182672799Y-92211257D01*
X182666769Y-92208572D01*
X182573368Y-92188719D01*
X182486425Y-92170238D01*
X182486420Y-92170238D01*
X182479968Y-92168866D01*
X182288994Y-92168866D01*
X182282542Y-92170238D01*
X182282537Y-92170238D01*
X182195594Y-92188719D01*
X182102193Y-92208572D01*
X182096163Y-92211257D01*
X182096162Y-92211257D01*
X181933759Y-92283563D01*
X181933757Y-92283564D01*
X181927729Y-92286248D01*
X181812285Y-92370123D01*
X181745419Y-92393981D01*
X181694980Y-92384756D01*
X181694598Y-92385932D01*
X181688324Y-92383893D01*
X181682288Y-92381206D01*
X181630147Y-92370123D01*
X181501944Y-92342872D01*
X181501939Y-92342872D01*
X181495487Y-92341500D01*
X181304513Y-92341500D01*
X181298061Y-92342872D01*
X181298056Y-92342872D01*
X181211112Y-92361353D01*
X181117712Y-92381206D01*
X181111682Y-92383891D01*
X181111681Y-92383891D01*
X180949278Y-92456197D01*
X180949276Y-92456198D01*
X180943248Y-92458882D01*
X180937907Y-92462762D01*
X180937906Y-92462763D01*
X180921094Y-92474978D01*
X180788747Y-92571134D01*
X180784326Y-92576044D01*
X180784325Y-92576045D01*
X180699347Y-92670423D01*
X180638901Y-92707663D01*
X180579515Y-92709360D01*
X180501946Y-92692873D01*
X180501947Y-92692873D01*
X180495487Y-92691500D01*
X180335943Y-92691500D01*
X180267822Y-92671498D01*
X180226824Y-92628500D01*
X180189040Y-92563056D01*
X180172881Y-92545109D01*
X180065675Y-92426045D01*
X180065674Y-92426044D01*
X180061253Y-92421134D01*
X179906752Y-92308882D01*
X179900724Y-92306198D01*
X179900722Y-92306197D01*
X179738319Y-92233891D01*
X179738318Y-92233891D01*
X179732288Y-92231206D01*
X179625804Y-92208572D01*
X179551944Y-92192872D01*
X179551939Y-92192872D01*
X179545487Y-92191500D01*
X179354513Y-92191500D01*
X179348061Y-92192872D01*
X179348056Y-92192872D01*
X179274196Y-92208572D01*
X179167712Y-92231206D01*
X179161682Y-92233891D01*
X179161681Y-92233891D01*
X178999278Y-92306197D01*
X178999276Y-92306198D01*
X178993248Y-92308882D01*
X178838747Y-92421134D01*
X178834332Y-92426037D01*
X178829420Y-92430460D01*
X178827847Y-92428712D01*
X178776556Y-92460311D01*
X178747326Y-92464699D01*
X178696106Y-92466309D01*
X178692014Y-92466438D01*
X178688055Y-92466500D01*
X178660144Y-92466500D01*
X178656210Y-92466997D01*
X178656209Y-92466997D01*
X178656144Y-92467005D01*
X178644307Y-92467938D01*
X178612490Y-92468938D01*
X178608029Y-92469078D01*
X178600110Y-92469327D01*
X178582454Y-92474456D01*
X178580658Y-92474978D01*
X178561306Y-92478986D01*
X178554235Y-92479880D01*
X178541203Y-92481526D01*
X178533834Y-92484443D01*
X178533832Y-92484444D01*
X178500097Y-92497800D01*
X178488869Y-92501645D01*
X178446407Y-92513982D01*
X178439585Y-92518016D01*
X178439579Y-92518019D01*
X178428968Y-92524294D01*
X178411218Y-92532990D01*
X178399756Y-92537528D01*
X178399751Y-92537531D01*
X178392383Y-92540448D01*
X178385968Y-92545109D01*
X178356625Y-92566427D01*
X178346707Y-92572943D01*
X178328019Y-92583995D01*
X178308637Y-92595458D01*
X178294313Y-92609782D01*
X178279281Y-92622621D01*
X178262893Y-92634528D01*
X178234712Y-92668593D01*
X178226722Y-92677373D01*
X177257747Y-93646348D01*
X177249461Y-93653888D01*
X177242982Y-93658000D01*
X177237557Y-93663777D01*
X177196357Y-93707651D01*
X177193602Y-93710493D01*
X177173865Y-93730230D01*
X177171385Y-93733427D01*
X177163682Y-93742447D01*
X177133414Y-93774679D01*
X177129595Y-93781625D01*
X177129593Y-93781628D01*
X177123652Y-93792434D01*
X177112801Y-93808953D01*
X177100386Y-93824959D01*
X177097241Y-93832228D01*
X177097238Y-93832232D01*
X177082826Y-93865537D01*
X177077609Y-93876187D01*
X177056305Y-93914940D01*
X177054334Y-93922615D01*
X177054334Y-93922616D01*
X177051267Y-93934562D01*
X177044863Y-93953266D01*
X177036819Y-93971855D01*
X177035580Y-93979678D01*
X177035577Y-93979688D01*
X177029901Y-94015524D01*
X177027495Y-94027144D01*
X177020575Y-94054098D01*
X177016500Y-94069970D01*
X177016500Y-94090224D01*
X177014949Y-94109934D01*
X177011780Y-94129943D01*
X177012526Y-94137835D01*
X177015941Y-94173961D01*
X177016500Y-94185819D01*
X177016500Y-98485405D01*
X176996498Y-98553526D01*
X176979595Y-98574501D01*
X176774499Y-98779596D01*
X176712187Y-98813621D01*
X176685404Y-98816500D01*
X168514595Y-98816500D01*
X168446474Y-98796498D01*
X168425500Y-98779595D01*
X166097122Y-96451217D01*
X166063096Y-96388905D01*
X166060907Y-96375292D01*
X166044232Y-96216635D01*
X166044232Y-96216633D01*
X166043542Y-96210072D01*
X165984527Y-96028444D01*
X165889040Y-95863056D01*
X165761253Y-95721134D01*
X165606752Y-95608882D01*
X165600724Y-95606198D01*
X165600722Y-95606197D01*
X165438319Y-95533891D01*
X165438318Y-95533891D01*
X165432288Y-95531206D01*
X165338887Y-95511353D01*
X165251944Y-95492872D01*
X165251939Y-95492872D01*
X165245487Y-95491500D01*
X165054513Y-95491500D01*
X165048061Y-95492872D01*
X165048056Y-95492872D01*
X164961113Y-95511353D01*
X164867712Y-95531206D01*
X164861682Y-95533891D01*
X164861681Y-95533891D01*
X164699278Y-95606197D01*
X164699276Y-95606198D01*
X164693248Y-95608882D01*
X164538747Y-95721134D01*
X164410960Y-95863056D01*
X164315473Y-96028444D01*
X164256458Y-96210072D01*
X164236496Y-96400000D01*
X164256458Y-96589928D01*
X164315473Y-96771556D01*
X164410960Y-96936944D01*
X164538747Y-97078866D01*
X164635088Y-97148862D01*
X164678441Y-97205085D01*
X164684516Y-97275821D01*
X164651384Y-97338613D01*
X164589564Y-97373524D01*
X164585436Y-97374217D01*
X164585439Y-97374232D01*
X164398638Y-97413938D01*
X164392608Y-97416623D01*
X164392607Y-97416623D01*
X164230204Y-97488929D01*
X164230202Y-97488930D01*
X164224174Y-97491614D01*
X164218833Y-97495494D01*
X164218832Y-97495495D01*
X164085017Y-97592718D01*
X164069673Y-97603866D01*
X164065254Y-97608774D01*
X164034202Y-97643261D01*
X163973756Y-97680501D01*
X163920849Y-97683399D01*
X163914995Y-97682472D01*
X163902475Y-97680488D01*
X163838323Y-97650072D01*
X163828558Y-97640353D01*
X163811253Y-97621134D01*
X163782142Y-97599983D01*
X163662094Y-97512763D01*
X163662093Y-97512762D01*
X163656752Y-97508882D01*
X163650724Y-97506198D01*
X163650722Y-97506197D01*
X163488319Y-97433891D01*
X163488318Y-97433891D01*
X163482288Y-97431206D01*
X163388887Y-97411353D01*
X163301944Y-97392872D01*
X163301939Y-97392872D01*
X163295487Y-97391500D01*
X163104513Y-97391500D01*
X163098061Y-97392872D01*
X163098056Y-97392872D01*
X163011113Y-97411353D01*
X162917712Y-97431206D01*
X162911682Y-97433891D01*
X162911681Y-97433891D01*
X162749278Y-97506197D01*
X162749276Y-97506198D01*
X162743248Y-97508882D01*
X162688530Y-97548637D01*
X162621665Y-97572494D01*
X162563223Y-97561807D01*
X162464222Y-97517729D01*
X162464219Y-97517728D01*
X162458186Y-97515042D01*
X162416558Y-97506194D01*
X162277842Y-97476708D01*
X162277837Y-97476708D01*
X162271385Y-97475336D01*
X162080411Y-97475336D01*
X162073959Y-97476708D01*
X162073954Y-97476708D01*
X162016461Y-97488929D01*
X161893610Y-97515042D01*
X161887580Y-97517727D01*
X161887579Y-97517727D01*
X161725176Y-97590033D01*
X161725174Y-97590034D01*
X161719146Y-97592718D01*
X161713805Y-97596598D01*
X161713804Y-97596599D01*
X161703802Y-97603866D01*
X161564645Y-97704970D01*
X161436858Y-97846892D01*
X161341371Y-98012280D01*
X161282356Y-98193908D01*
X161262394Y-98383836D01*
X152113494Y-98383836D01*
X152071474Y-98371498D01*
X152050499Y-98354595D01*
X151620404Y-97924499D01*
X151586379Y-97862187D01*
X151583500Y-97835404D01*
X151583500Y-89364594D01*
X151603502Y-89296473D01*
X151620405Y-89275499D01*
X152775499Y-88120405D01*
X152837811Y-88086379D01*
X152864594Y-88083500D01*
X162041800Y-88083500D01*
X162109921Y-88103502D01*
X162129147Y-88119843D01*
X162129420Y-88119540D01*
X162134332Y-88123963D01*
X162138747Y-88128866D01*
X162293248Y-88241118D01*
X162299276Y-88243802D01*
X162299278Y-88243803D01*
X162461681Y-88316109D01*
X162467712Y-88318794D01*
X162561112Y-88338647D01*
X162648056Y-88357128D01*
X162648061Y-88357128D01*
X162654513Y-88358500D01*
X162845487Y-88358500D01*
X162851939Y-88357128D01*
X162851944Y-88357128D01*
X162938888Y-88338647D01*
X163032288Y-88318794D01*
X163038319Y-88316109D01*
X163200722Y-88243803D01*
X163200724Y-88243802D01*
X163206752Y-88241118D01*
X163263346Y-88200000D01*
X181786496Y-88200000D01*
X181787186Y-88206565D01*
X181803011Y-88357128D01*
X181806458Y-88389928D01*
X181865473Y-88571556D01*
X181960960Y-88736944D01*
X182088747Y-88878866D01*
X182243248Y-88991118D01*
X182249276Y-88993802D01*
X182249278Y-88993803D01*
X182411681Y-89066109D01*
X182417712Y-89068794D01*
X182511113Y-89088647D01*
X182598056Y-89107128D01*
X182598061Y-89107128D01*
X182604513Y-89108500D01*
X182795487Y-89108500D01*
X182801939Y-89107128D01*
X182801944Y-89107128D01*
X182888887Y-89088647D01*
X182982288Y-89068794D01*
X182988319Y-89066109D01*
X183150722Y-88993803D01*
X183150724Y-88993802D01*
X183156752Y-88991118D01*
X183311253Y-88878866D01*
X183439040Y-88736944D01*
X183534527Y-88571556D01*
X183593542Y-88389928D01*
X183596990Y-88357128D01*
X183612814Y-88206565D01*
X183613504Y-88200000D01*
X183606028Y-88128866D01*
X183594232Y-88016635D01*
X183594232Y-88016633D01*
X183593542Y-88010072D01*
X183534527Y-87828444D01*
X183439040Y-87663056D01*
X183365863Y-87581785D01*
X183335147Y-87517779D01*
X183333500Y-87497476D01*
X183333500Y-85995604D01*
X187562787Y-85995604D01*
X187572567Y-86206899D01*
X187622125Y-86412534D01*
X187624607Y-86417992D01*
X187624608Y-86417996D01*
X187668053Y-86513546D01*
X187709674Y-86605087D01*
X187832054Y-86777611D01*
X187984850Y-86923881D01*
X188162548Y-87038620D01*
X188168114Y-87040863D01*
X188353168Y-87115442D01*
X188353171Y-87115443D01*
X188358737Y-87117686D01*
X188566337Y-87158228D01*
X188571899Y-87158500D01*
X189277846Y-87158500D01*
X189435566Y-87143452D01*
X189638534Y-87083908D01*
X189722111Y-87040863D01*
X189821249Y-86989804D01*
X189821252Y-86989802D01*
X189826580Y-86987058D01*
X189992920Y-86856396D01*
X189996852Y-86851865D01*
X189996855Y-86851862D01*
X190127621Y-86701167D01*
X190131552Y-86696637D01*
X190134552Y-86691451D01*
X190134555Y-86691447D01*
X190234467Y-86518742D01*
X190237473Y-86513546D01*
X190306861Y-86313729D01*
X190337213Y-86104396D01*
X190327433Y-85893101D01*
X190277875Y-85687466D01*
X190234866Y-85592872D01*
X190192806Y-85500368D01*
X190190326Y-85494913D01*
X190067946Y-85322389D01*
X189915150Y-85176119D01*
X189909255Y-85172312D01*
X189882837Y-85155254D01*
X189836460Y-85101499D01*
X189826507Y-85031203D01*
X189856139Y-84966686D01*
X189873353Y-84950317D01*
X189880446Y-84944746D01*
X189992920Y-84856396D01*
X189996852Y-84851865D01*
X189996855Y-84851862D01*
X190127621Y-84701167D01*
X190131552Y-84696637D01*
X190134552Y-84691451D01*
X190134555Y-84691447D01*
X190234467Y-84518742D01*
X190237473Y-84513546D01*
X190306861Y-84313729D01*
X190337213Y-84104396D01*
X190327433Y-83893101D01*
X190277875Y-83687466D01*
X190246643Y-83618774D01*
X190223084Y-83566959D01*
X190190326Y-83494913D01*
X190067946Y-83322389D01*
X189915150Y-83176119D01*
X189909255Y-83172312D01*
X189882837Y-83155254D01*
X189836460Y-83101499D01*
X189826507Y-83031203D01*
X189856139Y-82966686D01*
X189873353Y-82950317D01*
X189880446Y-82944746D01*
X189992920Y-82856396D01*
X189996852Y-82851865D01*
X189996855Y-82851862D01*
X190127621Y-82701167D01*
X190131552Y-82696637D01*
X190134552Y-82691451D01*
X190134555Y-82691447D01*
X190234467Y-82518742D01*
X190237473Y-82513546D01*
X190306861Y-82313729D01*
X190337213Y-82104396D01*
X190327433Y-81893101D01*
X190277875Y-81687466D01*
X190270010Y-81670166D01*
X190192806Y-81500368D01*
X190190326Y-81494913D01*
X190067946Y-81322389D01*
X190063623Y-81318251D01*
X190063619Y-81318246D01*
X189972309Y-81230836D01*
X189936933Y-81169280D01*
X189940452Y-81098371D01*
X189981749Y-81040621D01*
X189993137Y-81032674D01*
X190042807Y-81001937D01*
X190054208Y-80992901D01*
X190168739Y-80878171D01*
X190177751Y-80866760D01*
X190262816Y-80728757D01*
X190268963Y-80715576D01*
X190320138Y-80561290D01*
X190323005Y-80547914D01*
X190332672Y-80453562D01*
X190333000Y-80447146D01*
X190333000Y-80322115D01*
X190328525Y-80306876D01*
X190327135Y-80305671D01*
X190319452Y-80304000D01*
X187585116Y-80304000D01*
X187569877Y-80308475D01*
X187568672Y-80309865D01*
X187567001Y-80317548D01*
X187567001Y-80447095D01*
X187567338Y-80453614D01*
X187577257Y-80549206D01*
X187580149Y-80562600D01*
X187631588Y-80716784D01*
X187637761Y-80729962D01*
X187723063Y-80867807D01*
X187732099Y-80879208D01*
X187846829Y-80993739D01*
X187858240Y-81002751D01*
X187903655Y-81030745D01*
X187951148Y-81083517D01*
X187962572Y-81153589D01*
X187934298Y-81218713D01*
X187915375Y-81237088D01*
X187907080Y-81243604D01*
X187903148Y-81248135D01*
X187903145Y-81248138D01*
X187813947Y-81350930D01*
X187768448Y-81403363D01*
X187765448Y-81408549D01*
X187765445Y-81408553D01*
X187712329Y-81500368D01*
X187662527Y-81586454D01*
X187593139Y-81786271D01*
X187592278Y-81792206D01*
X187592278Y-81792208D01*
X187572873Y-81926045D01*
X187562787Y-81995604D01*
X187572567Y-82206899D01*
X187573971Y-82212724D01*
X187573971Y-82212725D01*
X187620019Y-82403794D01*
X187622125Y-82412534D01*
X187624607Y-82417992D01*
X187624608Y-82417996D01*
X187668053Y-82513546D01*
X187709674Y-82605087D01*
X187832054Y-82777611D01*
X187984850Y-82923881D01*
X187989888Y-82927134D01*
X188017163Y-82944746D01*
X188063540Y-82998501D01*
X188073493Y-83068797D01*
X188043861Y-83133314D01*
X188026649Y-83149681D01*
X187907080Y-83243604D01*
X187903148Y-83248135D01*
X187903145Y-83248138D01*
X187834474Y-83327275D01*
X187768448Y-83403363D01*
X187765448Y-83408549D01*
X187765445Y-83408553D01*
X187671661Y-83570665D01*
X187662527Y-83586454D01*
X187593139Y-83786271D01*
X187562787Y-83995604D01*
X187572567Y-84206899D01*
X187622125Y-84412534D01*
X187624607Y-84417992D01*
X187624608Y-84417996D01*
X187668053Y-84513546D01*
X187709674Y-84605087D01*
X187832054Y-84777611D01*
X187984850Y-84923881D01*
X187989888Y-84927134D01*
X188017163Y-84944746D01*
X188063540Y-84998501D01*
X188073493Y-85068797D01*
X188043861Y-85133314D01*
X188026649Y-85149681D01*
X187907080Y-85243604D01*
X187903148Y-85248135D01*
X187903145Y-85248138D01*
X187834474Y-85327275D01*
X187768448Y-85403363D01*
X187765448Y-85408549D01*
X187765445Y-85408553D01*
X187718312Y-85490026D01*
X187662527Y-85586454D01*
X187593139Y-85786271D01*
X187562787Y-85995604D01*
X183333500Y-85995604D01*
X183333500Y-84908055D01*
X183353502Y-84839934D01*
X183365864Y-84823745D01*
X183484621Y-84691852D01*
X183484622Y-84691851D01*
X183489040Y-84686944D01*
X183584527Y-84521556D01*
X183643542Y-84339928D01*
X183663504Y-84150000D01*
X183643542Y-83960072D01*
X183584527Y-83778444D01*
X183489040Y-83613056D01*
X183465088Y-83586454D01*
X183365675Y-83476045D01*
X183365674Y-83476044D01*
X183361253Y-83471134D01*
X183206752Y-83358882D01*
X183200724Y-83356198D01*
X183200722Y-83356197D01*
X183038319Y-83283891D01*
X183038318Y-83283891D01*
X183032288Y-83281206D01*
X182938887Y-83261353D01*
X182851944Y-83242872D01*
X182851939Y-83242872D01*
X182845487Y-83241500D01*
X182654513Y-83241500D01*
X182648061Y-83242872D01*
X182648056Y-83242872D01*
X182561113Y-83261353D01*
X182467712Y-83281206D01*
X182461682Y-83283891D01*
X182461681Y-83283891D01*
X182299278Y-83356197D01*
X182299276Y-83356198D01*
X182293248Y-83358882D01*
X182138747Y-83471134D01*
X182134326Y-83476044D01*
X182134325Y-83476045D01*
X182034913Y-83586454D01*
X182010960Y-83613056D01*
X181915473Y-83778444D01*
X181856458Y-83960072D01*
X181836496Y-84150000D01*
X181856458Y-84339928D01*
X181915473Y-84521556D01*
X182010960Y-84686944D01*
X182015379Y-84691852D01*
X182015383Y-84691857D01*
X182034135Y-84712683D01*
X182064853Y-84776690D01*
X182066500Y-84796994D01*
X182066500Y-87497476D01*
X182046498Y-87565597D01*
X182034142Y-87581779D01*
X181960960Y-87663056D01*
X181865473Y-87828444D01*
X181806458Y-88010072D01*
X181805768Y-88016633D01*
X181805768Y-88016635D01*
X181793972Y-88128866D01*
X181786496Y-88200000D01*
X163263346Y-88200000D01*
X163361253Y-88128866D01*
X163384091Y-88103502D01*
X163484621Y-87991852D01*
X163484622Y-87991851D01*
X163489040Y-87986944D01*
X163584527Y-87821556D01*
X163643542Y-87639928D01*
X163660907Y-87474706D01*
X163687920Y-87409050D01*
X163697122Y-87398782D01*
X169275001Y-81820903D01*
X169337313Y-81786877D01*
X169364096Y-81783998D01*
X170520735Y-81783998D01*
X170531918Y-81784525D01*
X170539411Y-81786200D01*
X170547337Y-81785951D01*
X170547338Y-81785951D01*
X170607488Y-81784060D01*
X170611447Y-81783998D01*
X170639358Y-81783998D01*
X170643293Y-81783501D01*
X170643358Y-81783493D01*
X170655195Y-81782560D01*
X170687453Y-81781546D01*
X170691472Y-81781420D01*
X170699391Y-81781171D01*
X170718845Y-81775519D01*
X170738202Y-81771511D01*
X170750432Y-81769966D01*
X170750433Y-81769966D01*
X170758299Y-81768972D01*
X170765670Y-81766053D01*
X170765672Y-81766053D01*
X170799414Y-81752694D01*
X170810644Y-81748849D01*
X170845485Y-81738727D01*
X170845486Y-81738727D01*
X170853095Y-81736516D01*
X170859914Y-81732483D01*
X170859919Y-81732481D01*
X170870530Y-81726205D01*
X170888331Y-81717488D01*
X170888731Y-81717330D01*
X170935068Y-81708500D01*
X171045487Y-81708500D01*
X171051939Y-81707128D01*
X171051944Y-81707128D01*
X171138888Y-81688647D01*
X171232288Y-81668794D01*
X171238319Y-81666109D01*
X171400722Y-81593803D01*
X171400724Y-81593802D01*
X171406752Y-81591118D01*
X171413172Y-81586454D01*
X171472448Y-81543387D01*
X171561253Y-81478866D01*
X171629236Y-81403363D01*
X171684621Y-81341852D01*
X171684622Y-81341851D01*
X171689040Y-81336944D01*
X171784527Y-81171556D01*
X171843542Y-80989928D01*
X171847051Y-80956548D01*
X171862814Y-80806565D01*
X171863504Y-80800000D01*
X171843542Y-80610072D01*
X171784527Y-80428444D01*
X171689040Y-80263056D01*
X171607718Y-80172738D01*
X171565675Y-80126045D01*
X171565674Y-80126044D01*
X171561253Y-80121134D01*
X171406752Y-80008882D01*
X171400724Y-80006198D01*
X171400722Y-80006197D01*
X171238319Y-79933891D01*
X171238318Y-79933891D01*
X171232288Y-79931206D01*
X171138887Y-79911353D01*
X171051944Y-79892872D01*
X171051939Y-79892872D01*
X171045487Y-79891500D01*
X170854513Y-79891500D01*
X170848061Y-79892872D01*
X170848056Y-79892872D01*
X170761113Y-79911353D01*
X170667712Y-79931206D01*
X170661685Y-79933889D01*
X170661677Y-79933892D01*
X170518554Y-79997614D01*
X170448187Y-80007048D01*
X170383890Y-79976941D01*
X170358190Y-79945511D01*
X170330127Y-79896906D01*
X170313390Y-79827913D01*
X170319413Y-79794976D01*
X170324966Y-79777885D01*
X187567000Y-79777885D01*
X187571475Y-79793124D01*
X187572865Y-79794329D01*
X187580548Y-79796000D01*
X188677885Y-79796000D01*
X188693124Y-79791525D01*
X188694329Y-79790135D01*
X188696000Y-79782452D01*
X188696000Y-79777885D01*
X189204000Y-79777885D01*
X189208475Y-79793124D01*
X189209865Y-79794329D01*
X189217548Y-79796000D01*
X190314884Y-79796000D01*
X190330123Y-79791525D01*
X190331328Y-79790135D01*
X190332999Y-79782452D01*
X190332999Y-79652905D01*
X190332662Y-79646386D01*
X190322743Y-79550794D01*
X190319851Y-79537400D01*
X190268412Y-79383216D01*
X190262239Y-79370038D01*
X190176937Y-79232193D01*
X190167901Y-79220792D01*
X190053171Y-79106261D01*
X190041760Y-79097249D01*
X189903757Y-79012184D01*
X189890576Y-79006037D01*
X189736290Y-78954862D01*
X189722914Y-78951995D01*
X189628562Y-78942328D01*
X189622145Y-78942000D01*
X189222115Y-78942000D01*
X189206876Y-78946475D01*
X189205671Y-78947865D01*
X189204000Y-78955548D01*
X189204000Y-79777885D01*
X188696000Y-79777885D01*
X188696000Y-78960116D01*
X188691525Y-78944877D01*
X188690135Y-78943672D01*
X188682452Y-78942001D01*
X188277905Y-78942001D01*
X188271386Y-78942338D01*
X188175794Y-78952257D01*
X188162400Y-78955149D01*
X188008216Y-79006588D01*
X187995038Y-79012761D01*
X187857193Y-79098063D01*
X187845792Y-79107099D01*
X187731261Y-79221829D01*
X187722249Y-79233240D01*
X187637184Y-79371243D01*
X187631037Y-79384424D01*
X187579862Y-79538710D01*
X187576995Y-79552086D01*
X187567328Y-79646438D01*
X187567000Y-79652855D01*
X187567000Y-79777885D01*
X170324966Y-79777885D01*
X170375651Y-79621895D01*
X170395613Y-79431967D01*
X170375651Y-79242039D01*
X170316636Y-79060411D01*
X170278568Y-78994476D01*
X170261831Y-78925483D01*
X170278569Y-78868478D01*
X170331223Y-78777279D01*
X170331224Y-78777278D01*
X170334527Y-78771556D01*
X170393542Y-78589928D01*
X170397984Y-78547671D01*
X170412814Y-78406565D01*
X170413504Y-78400000D01*
X170410759Y-78373881D01*
X170394232Y-78216635D01*
X170394232Y-78216633D01*
X170393542Y-78210072D01*
X170334527Y-78028444D01*
X170267875Y-77912999D01*
X170251137Y-77844005D01*
X170267875Y-77787000D01*
X170267908Y-77786944D01*
X170334527Y-77671556D01*
X170393542Y-77489928D01*
X170409587Y-77337273D01*
X170412814Y-77306565D01*
X170413504Y-77300000D01*
X170393542Y-77110072D01*
X170334527Y-76928444D01*
X170239040Y-76763056D01*
X170199169Y-76718774D01*
X170115675Y-76626045D01*
X170115674Y-76626044D01*
X170111253Y-76621134D01*
X169956752Y-76508882D01*
X169950724Y-76506198D01*
X169950722Y-76506197D01*
X169788319Y-76433891D01*
X169788318Y-76433891D01*
X169782288Y-76431206D01*
X169666282Y-76406548D01*
X169601944Y-76392872D01*
X169601939Y-76392872D01*
X169595487Y-76391500D01*
X169404513Y-76391500D01*
X169398061Y-76392872D01*
X169398056Y-76392872D01*
X169333718Y-76406548D01*
X169217712Y-76431206D01*
X169211682Y-76433891D01*
X169211681Y-76433891D01*
X169049278Y-76506197D01*
X169049276Y-76506198D01*
X169043248Y-76508882D01*
X168888747Y-76621134D01*
X168884326Y-76626044D01*
X168884325Y-76626045D01*
X168800832Y-76718774D01*
X168760960Y-76763056D01*
X168665473Y-76928444D01*
X168606458Y-77110072D01*
X168593790Y-77230607D01*
X168589093Y-77275293D01*
X168562080Y-77340950D01*
X168552878Y-77351218D01*
X161374500Y-84529595D01*
X161312188Y-84563621D01*
X161285405Y-84566500D01*
X157014594Y-84566500D01*
X156946473Y-84546498D01*
X156925499Y-84529595D01*
X153170405Y-80774500D01*
X153136379Y-80712188D01*
X153133500Y-80685405D01*
X153133500Y-77445604D01*
X157562787Y-77445604D01*
X157572567Y-77656899D01*
X157573971Y-77662724D01*
X157573971Y-77662725D01*
X157617660Y-77844005D01*
X157622125Y-77862534D01*
X157624607Y-77867992D01*
X157624608Y-77867996D01*
X157668053Y-77963546D01*
X157709674Y-78055087D01*
X157832054Y-78227611D01*
X157836381Y-78231753D01*
X157836386Y-78231759D01*
X157927317Y-78318806D01*
X157962694Y-78380361D01*
X157959175Y-78451270D01*
X157917879Y-78509021D01*
X157906496Y-78516965D01*
X157850652Y-78551522D01*
X157725695Y-78676697D01*
X157632885Y-78827262D01*
X157630581Y-78834209D01*
X157588820Y-78960116D01*
X157577203Y-78995139D01*
X157576503Y-79001975D01*
X157576502Y-79001978D01*
X157575397Y-79012761D01*
X157566500Y-79099600D01*
X157566500Y-79900400D01*
X157566837Y-79903646D01*
X157566837Y-79903650D01*
X157576587Y-79997614D01*
X157577474Y-80006166D01*
X157633450Y-80173946D01*
X157726522Y-80324348D01*
X157851697Y-80449305D01*
X157857927Y-80453145D01*
X157857928Y-80453146D01*
X157995090Y-80537694D01*
X158002262Y-80542115D01*
X158019746Y-80547914D01*
X158163611Y-80595632D01*
X158163613Y-80595632D01*
X158170139Y-80597797D01*
X158176975Y-80598497D01*
X158176978Y-80598498D01*
X158220031Y-80602909D01*
X158274600Y-80608500D01*
X159625400Y-80608500D01*
X159628646Y-80608163D01*
X159628650Y-80608163D01*
X159724308Y-80598238D01*
X159724312Y-80598237D01*
X159731166Y-80597526D01*
X159737702Y-80595345D01*
X159737704Y-80595345D01*
X159879871Y-80547914D01*
X159898946Y-80541550D01*
X160049348Y-80448478D01*
X160174305Y-80323303D01*
X160267115Y-80172738D01*
X160322797Y-80004861D01*
X160333500Y-79900400D01*
X160333500Y-79099600D01*
X160324430Y-79012184D01*
X160323238Y-79000692D01*
X160323237Y-79000688D01*
X160322526Y-78993834D01*
X160308568Y-78951995D01*
X160268868Y-78833002D01*
X160266550Y-78826054D01*
X160173478Y-78675652D01*
X160048303Y-78550695D01*
X159996764Y-78518925D01*
X159949271Y-78466154D01*
X159937847Y-78396082D01*
X159966121Y-78330958D01*
X159985045Y-78312582D01*
X159992920Y-78306396D01*
X159996852Y-78301865D01*
X159996855Y-78301862D01*
X160127621Y-78151167D01*
X160131552Y-78146637D01*
X160134552Y-78141451D01*
X160134555Y-78141447D01*
X160234467Y-77968742D01*
X160237473Y-77963546D01*
X160306861Y-77763729D01*
X160323219Y-77650909D01*
X160336352Y-77560336D01*
X160336352Y-77560333D01*
X160337213Y-77554396D01*
X160327433Y-77343101D01*
X160277875Y-77137466D01*
X160262566Y-77103794D01*
X160192806Y-76950368D01*
X160190326Y-76944913D01*
X160067946Y-76772389D01*
X159915150Y-76626119D01*
X159910119Y-76622870D01*
X159910112Y-76622865D01*
X159882393Y-76604967D01*
X159836016Y-76551211D01*
X159826063Y-76480915D01*
X159855696Y-76416398D01*
X159872909Y-76400030D01*
X159987857Y-76309738D01*
X159996506Y-76301501D01*
X160127212Y-76150877D01*
X160134147Y-76141153D01*
X160234010Y-75968533D01*
X160238984Y-75957669D01*
X160304407Y-75769273D01*
X160304648Y-75768284D01*
X160303180Y-75757992D01*
X160289615Y-75754000D01*
X157614598Y-75754000D01*
X157601067Y-75757973D01*
X157599712Y-75767399D01*
X157621194Y-75856537D01*
X157625083Y-75867832D01*
X157707629Y-76049382D01*
X157713576Y-76059724D01*
X157828968Y-76222397D01*
X157836761Y-76231425D01*
X157980831Y-76369342D01*
X157990200Y-76376741D01*
X158017577Y-76394418D01*
X158063955Y-76448172D01*
X158073909Y-76518468D01*
X158044278Y-76582985D01*
X158027063Y-76599356D01*
X157907080Y-76693604D01*
X157903148Y-76698135D01*
X157903145Y-76698138D01*
X157834474Y-76777275D01*
X157768448Y-76853363D01*
X157765448Y-76858549D01*
X157765445Y-76858553D01*
X157757249Y-76872721D01*
X157662527Y-77036454D01*
X157593139Y-77236271D01*
X157592278Y-77242206D01*
X157592278Y-77242208D01*
X157564562Y-77433365D01*
X157562787Y-77445604D01*
X153133500Y-77445604D01*
X153133500Y-73445604D01*
X157562787Y-73445604D01*
X157572567Y-73656899D01*
X157573971Y-73662724D01*
X157573971Y-73662725D01*
X157616168Y-73837815D01*
X157622125Y-73862534D01*
X157624607Y-73867992D01*
X157624608Y-73867996D01*
X157668053Y-73963546D01*
X157709674Y-74055087D01*
X157832054Y-74227611D01*
X157984850Y-74373881D01*
X157989881Y-74377130D01*
X157989888Y-74377135D01*
X158017607Y-74395033D01*
X158063984Y-74448789D01*
X158073937Y-74519085D01*
X158044304Y-74583602D01*
X158027091Y-74599970D01*
X157912143Y-74690262D01*
X157903494Y-74698499D01*
X157772788Y-74849123D01*
X157765853Y-74858847D01*
X157665990Y-75031467D01*
X157661016Y-75042331D01*
X157595593Y-75230727D01*
X157595352Y-75231716D01*
X157596820Y-75242008D01*
X157610385Y-75246000D01*
X160285402Y-75246000D01*
X160298933Y-75242027D01*
X160300288Y-75232601D01*
X160278806Y-75143463D01*
X160274917Y-75132168D01*
X160192371Y-74950618D01*
X160186424Y-74940276D01*
X160071032Y-74777603D01*
X160063239Y-74768575D01*
X159991605Y-74700000D01*
X161936496Y-74700000D01*
X161937186Y-74706565D01*
X161946608Y-74796206D01*
X161956458Y-74889928D01*
X162015473Y-75071556D01*
X162110960Y-75236944D01*
X162115378Y-75241851D01*
X162115379Y-75241852D01*
X162218367Y-75356232D01*
X162238747Y-75378866D01*
X162393248Y-75491118D01*
X162399276Y-75493802D01*
X162399278Y-75493803D01*
X162561681Y-75566109D01*
X162567712Y-75568794D01*
X162661112Y-75588647D01*
X162748056Y-75607128D01*
X162748061Y-75607128D01*
X162754513Y-75608500D01*
X162945487Y-75608500D01*
X162951939Y-75607128D01*
X162951944Y-75607128D01*
X163038888Y-75588647D01*
X163132288Y-75568794D01*
X163138319Y-75566109D01*
X163300722Y-75493803D01*
X163300724Y-75493802D01*
X163306752Y-75491118D01*
X163387344Y-75432564D01*
X163454211Y-75408706D01*
X163461405Y-75408500D01*
X166871088Y-75408500D01*
X166879658Y-75408792D01*
X166929776Y-75412209D01*
X166929780Y-75412209D01*
X166937352Y-75412725D01*
X166944829Y-75411420D01*
X166944830Y-75411420D01*
X166971308Y-75406799D01*
X167000303Y-75401738D01*
X167006821Y-75400777D01*
X167070242Y-75393102D01*
X167077343Y-75390419D01*
X167079952Y-75389778D01*
X167096262Y-75385315D01*
X167098798Y-75384550D01*
X167106284Y-75383243D01*
X167164800Y-75357556D01*
X167170904Y-75355065D01*
X167223548Y-75335173D01*
X167223549Y-75335172D01*
X167230656Y-75332487D01*
X167236919Y-75328183D01*
X167239285Y-75326946D01*
X167254097Y-75318701D01*
X167256351Y-75317368D01*
X167263305Y-75314315D01*
X167314002Y-75275413D01*
X167319332Y-75271541D01*
X167365720Y-75239661D01*
X167365725Y-75239656D01*
X167371981Y-75235357D01*
X167413427Y-75188839D01*
X167418408Y-75183562D01*
X168016536Y-74585435D01*
X168079433Y-74551284D01*
X168232288Y-74518794D01*
X168265979Y-74503794D01*
X168400722Y-74443803D01*
X168400724Y-74443802D01*
X168406752Y-74441118D01*
X168561253Y-74328866D01*
X168581485Y-74306396D01*
X168684621Y-74191852D01*
X168684622Y-74191851D01*
X168689040Y-74186944D01*
X168784527Y-74021556D01*
X168843542Y-73839928D01*
X168850956Y-73769393D01*
X168862814Y-73656565D01*
X168863504Y-73650000D01*
X168856028Y-73578866D01*
X168844232Y-73466635D01*
X168844232Y-73466633D01*
X168843542Y-73460072D01*
X168784527Y-73278444D01*
X168777406Y-73266109D01*
X168734109Y-73191118D01*
X168689040Y-73113056D01*
X168677375Y-73100100D01*
X168565675Y-72976045D01*
X168565674Y-72976044D01*
X168561253Y-72971134D01*
X168456755Y-72895211D01*
X168413402Y-72838991D01*
X168407327Y-72768255D01*
X168441722Y-72704182D01*
X170101569Y-71044335D01*
X175611496Y-71044335D01*
X175612186Y-71050900D01*
X175620789Y-71132749D01*
X175631458Y-71234263D01*
X175690473Y-71415891D01*
X175693776Y-71421613D01*
X175693777Y-71421614D01*
X175707628Y-71445604D01*
X175785960Y-71581279D01*
X175790378Y-71586186D01*
X175790379Y-71586187D01*
X175892857Y-71700000D01*
X175913747Y-71723201D01*
X176068248Y-71835453D01*
X176074276Y-71838137D01*
X176074278Y-71838138D01*
X176236681Y-71910444D01*
X176242712Y-71913129D01*
X176336112Y-71932982D01*
X176423056Y-71951463D01*
X176423061Y-71951463D01*
X176429513Y-71952835D01*
X176485406Y-71952835D01*
X176553527Y-71972837D01*
X176574501Y-71989740D01*
X177779595Y-73194835D01*
X177813621Y-73257147D01*
X177816500Y-73283930D01*
X177816500Y-76547476D01*
X177796498Y-76615597D01*
X177784142Y-76631779D01*
X177710960Y-76713056D01*
X177678791Y-76768774D01*
X177629954Y-76853363D01*
X177615473Y-76878444D01*
X177556458Y-77060072D01*
X177555768Y-77066633D01*
X177555768Y-77066635D01*
X177538534Y-77230607D01*
X177536496Y-77250000D01*
X177556458Y-77439928D01*
X177615473Y-77621556D01*
X177710960Y-77786944D01*
X177838747Y-77928866D01*
X177993248Y-78041118D01*
X177999276Y-78043802D01*
X177999278Y-78043803D01*
X178035599Y-78059974D01*
X178167712Y-78118794D01*
X178261112Y-78138647D01*
X178348056Y-78157128D01*
X178348061Y-78157128D01*
X178354513Y-78158500D01*
X178545487Y-78158500D01*
X178551939Y-78157128D01*
X178551944Y-78157128D01*
X178638888Y-78138647D01*
X178732288Y-78118794D01*
X178864401Y-78059974D01*
X178900722Y-78043803D01*
X178900724Y-78043802D01*
X178906752Y-78041118D01*
X179061253Y-77928866D01*
X179189040Y-77786944D01*
X179284527Y-77621556D01*
X179343542Y-77439928D01*
X179363504Y-77250000D01*
X179361466Y-77230607D01*
X179344232Y-77066635D01*
X179344232Y-77066633D01*
X179343542Y-77060072D01*
X179284527Y-76878444D01*
X179270047Y-76853363D01*
X179221209Y-76768774D01*
X179189040Y-76713056D01*
X179115863Y-76631785D01*
X179085147Y-76567779D01*
X179083500Y-76547476D01*
X179083500Y-73048102D01*
X179084027Y-73036919D01*
X179085702Y-73029426D01*
X179085420Y-73020434D01*
X179083562Y-72961349D01*
X179083500Y-72957390D01*
X179083500Y-72929479D01*
X179082995Y-72925479D01*
X179082062Y-72913636D01*
X179081634Y-72900000D01*
X179080673Y-72869445D01*
X179075022Y-72849993D01*
X179071014Y-72830641D01*
X179069467Y-72818398D01*
X179068474Y-72810538D01*
X179065556Y-72803167D01*
X179052200Y-72769432D01*
X179048355Y-72758205D01*
X179047721Y-72756022D01*
X179036018Y-72715742D01*
X179029182Y-72704182D01*
X179025707Y-72698307D01*
X179017012Y-72680559D01*
X179009552Y-72661718D01*
X178983564Y-72625948D01*
X178977048Y-72616028D01*
X178958580Y-72584800D01*
X178958578Y-72584797D01*
X178954542Y-72577973D01*
X178940221Y-72563652D01*
X178927380Y-72548618D01*
X178920131Y-72538641D01*
X178915472Y-72532228D01*
X178881395Y-72504037D01*
X178872616Y-72496047D01*
X177663922Y-71287352D01*
X182237275Y-71287352D01*
X182238580Y-71294829D01*
X182238580Y-71294830D01*
X182248261Y-71350299D01*
X182249223Y-71356821D01*
X182256898Y-71420242D01*
X182259581Y-71427343D01*
X182260222Y-71429952D01*
X182264685Y-71446262D01*
X182265450Y-71448798D01*
X182266757Y-71456284D01*
X182269811Y-71463241D01*
X182292442Y-71514795D01*
X182294933Y-71520899D01*
X182317513Y-71580656D01*
X182321817Y-71586919D01*
X182323054Y-71589285D01*
X182331299Y-71604097D01*
X182332632Y-71606351D01*
X182335685Y-71613305D01*
X182373608Y-71662725D01*
X182374579Y-71663991D01*
X182378459Y-71669332D01*
X182410339Y-71715720D01*
X182410344Y-71715725D01*
X182414643Y-71721981D01*
X182420313Y-71727032D01*
X182420314Y-71727034D01*
X182461170Y-71763435D01*
X182466446Y-71768416D01*
X183165335Y-72467305D01*
X183199361Y-72529617D01*
X183201550Y-72543228D01*
X183206458Y-72589928D01*
X183208498Y-72596205D01*
X183208498Y-72596207D01*
X183211438Y-72605254D01*
X183265473Y-72771556D01*
X183268775Y-72777275D01*
X183268777Y-72777279D01*
X183301936Y-72834712D01*
X183360960Y-72936944D01*
X183365378Y-72941851D01*
X183365379Y-72941852D01*
X183459520Y-73046406D01*
X183488747Y-73078866D01*
X183561885Y-73132004D01*
X183615747Y-73171137D01*
X183643248Y-73191118D01*
X183649276Y-73193802D01*
X183649278Y-73193803D01*
X183809799Y-73265271D01*
X183817712Y-73268794D01*
X183911113Y-73288647D01*
X183998056Y-73307128D01*
X183998061Y-73307128D01*
X184004513Y-73308500D01*
X184195487Y-73308500D01*
X184201939Y-73307128D01*
X184201944Y-73307128D01*
X184288887Y-73288647D01*
X184382288Y-73268794D01*
X184390201Y-73265271D01*
X184550722Y-73193803D01*
X184550724Y-73193802D01*
X184556752Y-73191118D01*
X184584254Y-73171137D01*
X184638115Y-73132004D01*
X184711253Y-73078866D01*
X184740480Y-73046406D01*
X184834621Y-72941852D01*
X184834622Y-72941851D01*
X184839040Y-72936944D01*
X184898064Y-72834712D01*
X184931223Y-72777279D01*
X184931225Y-72777275D01*
X184934527Y-72771556D01*
X184993542Y-72589928D01*
X184998933Y-72538641D01*
X185012814Y-72406565D01*
X185013504Y-72400000D01*
X185007559Y-72343435D01*
X184994232Y-72216635D01*
X184994232Y-72216633D01*
X184993542Y-72210072D01*
X184934527Y-72028444D01*
X184913990Y-71992872D01*
X184867950Y-71913129D01*
X184839040Y-71863056D01*
X184799169Y-71818774D01*
X184768137Y-71784310D01*
X184737419Y-71720303D01*
X184746184Y-71649849D01*
X184768137Y-71615690D01*
X184834621Y-71541852D01*
X184834622Y-71541851D01*
X184839040Y-71536944D01*
X184934527Y-71371556D01*
X184993542Y-71189928D01*
X184995484Y-71171456D01*
X185012814Y-71006565D01*
X185013504Y-71000000D01*
X184998892Y-70860970D01*
X184994232Y-70816635D01*
X184994232Y-70816633D01*
X184993542Y-70810072D01*
X184967240Y-70729123D01*
X184965212Y-70658156D01*
X184997978Y-70601092D01*
X185279871Y-70319199D01*
X185342183Y-70285173D01*
X185368966Y-70282294D01*
X185424859Y-70282294D01*
X185431311Y-70280922D01*
X185431316Y-70280922D01*
X185518260Y-70262441D01*
X185611660Y-70242588D01*
X185639902Y-70230014D01*
X185780094Y-70167597D01*
X185780096Y-70167596D01*
X185786124Y-70164912D01*
X185828115Y-70134404D01*
X185896486Y-70084729D01*
X185940625Y-70052660D01*
X185945047Y-70047749D01*
X186063993Y-69915646D01*
X186063994Y-69915645D01*
X186068412Y-69910738D01*
X186149013Y-69771134D01*
X186160595Y-69751073D01*
X186160596Y-69751072D01*
X186163899Y-69745350D01*
X186222914Y-69563722D01*
X186225106Y-69542872D01*
X186242186Y-69380359D01*
X186242876Y-69373794D01*
X186222914Y-69183866D01*
X186163899Y-69002238D01*
X186068412Y-68836850D01*
X185940625Y-68694928D01*
X185786124Y-68582676D01*
X185780096Y-68579992D01*
X185780094Y-68579991D01*
X185617691Y-68507685D01*
X185617690Y-68507685D01*
X185611660Y-68505000D01*
X185488319Y-68478783D01*
X185436184Y-68467701D01*
X185373710Y-68433972D01*
X185339389Y-68371823D01*
X185336381Y-68344454D01*
X185336381Y-67867779D01*
X185356383Y-67799658D01*
X185373286Y-67778684D01*
X186516534Y-66635437D01*
X186579432Y-66601285D01*
X186646899Y-66586944D01*
X186732288Y-66568794D01*
X186738319Y-66566109D01*
X186900722Y-66493803D01*
X186900724Y-66493802D01*
X186906752Y-66491118D01*
X187061253Y-66378866D01*
X187173788Y-66253883D01*
X187184621Y-66241852D01*
X187184622Y-66241851D01*
X187189040Y-66236944D01*
X187284527Y-66071556D01*
X187343542Y-65889928D01*
X187344371Y-65882047D01*
X187362814Y-65706565D01*
X187363504Y-65700000D01*
X187343542Y-65510072D01*
X187284527Y-65328444D01*
X187189040Y-65163056D01*
X187061253Y-65021134D01*
X186906752Y-64908882D01*
X186900724Y-64906198D01*
X186900722Y-64906197D01*
X186738319Y-64833891D01*
X186738318Y-64833891D01*
X186732288Y-64831206D01*
X186638888Y-64811353D01*
X186551944Y-64792872D01*
X186551939Y-64792872D01*
X186545487Y-64791500D01*
X186354513Y-64791500D01*
X186348061Y-64792872D01*
X186348056Y-64792872D01*
X186261112Y-64811353D01*
X186167712Y-64831206D01*
X186161682Y-64833891D01*
X186161681Y-64833891D01*
X185999278Y-64906197D01*
X185999276Y-64906198D01*
X185993248Y-64908882D01*
X185838747Y-65021134D01*
X185710960Y-65163056D01*
X185615473Y-65328444D01*
X185556458Y-65510072D01*
X185555768Y-65516635D01*
X185555768Y-65516637D01*
X185551550Y-65556770D01*
X185524537Y-65622427D01*
X185515335Y-65632695D01*
X184147361Y-67000669D01*
X184141096Y-67006523D01*
X184097496Y-67044558D01*
X184093129Y-67050772D01*
X184060753Y-67096838D01*
X184056820Y-67102133D01*
X184017405Y-67152401D01*
X184014282Y-67159317D01*
X184012898Y-67161603D01*
X184004524Y-67176284D01*
X184003259Y-67178644D01*
X183998891Y-67184858D01*
X183996131Y-67191937D01*
X183996130Y-67191939D01*
X183975679Y-67244394D01*
X183973128Y-67250463D01*
X183946836Y-67308692D01*
X183945452Y-67316159D01*
X183944651Y-67318714D01*
X183940022Y-67334967D01*
X183939359Y-67337547D01*
X183936599Y-67344628D01*
X183935608Y-67352159D01*
X183935607Y-67352161D01*
X183928260Y-67407971D01*
X183927229Y-67414478D01*
X183915585Y-67477305D01*
X183916022Y-67484885D01*
X183916022Y-67484886D01*
X183919172Y-67539511D01*
X183919381Y-67546765D01*
X183919381Y-68626459D01*
X183899379Y-68694580D01*
X183882476Y-68715554D01*
X182469480Y-70128550D01*
X182463215Y-70134404D01*
X182419615Y-70172439D01*
X182415248Y-70178653D01*
X182382872Y-70224719D01*
X182378939Y-70230014D01*
X182339524Y-70280282D01*
X182336401Y-70287198D01*
X182335017Y-70289484D01*
X182326643Y-70304165D01*
X182325378Y-70306525D01*
X182321010Y-70312739D01*
X182300452Y-70365469D01*
X182297798Y-70372275D01*
X182295247Y-70378344D01*
X182268955Y-70436573D01*
X182267571Y-70444040D01*
X182266770Y-70446595D01*
X182262141Y-70462848D01*
X182261478Y-70465428D01*
X182258718Y-70472509D01*
X182257727Y-70480040D01*
X182257726Y-70480042D01*
X182250379Y-70535852D01*
X182249348Y-70542359D01*
X182237704Y-70605186D01*
X182238141Y-70612766D01*
X182238141Y-70612767D01*
X182241291Y-70667392D01*
X182241500Y-70674646D01*
X182241500Y-71221088D01*
X182241208Y-71229658D01*
X182237275Y-71287352D01*
X177663922Y-71287352D01*
X177472122Y-71095552D01*
X177438096Y-71033240D01*
X177435907Y-71019627D01*
X177419232Y-70860970D01*
X177419232Y-70860968D01*
X177418542Y-70854407D01*
X177359527Y-70672779D01*
X177351085Y-70658156D01*
X177267341Y-70513109D01*
X177264040Y-70507391D01*
X177223934Y-70462848D01*
X177140675Y-70370380D01*
X177140674Y-70370379D01*
X177136253Y-70365469D01*
X177031669Y-70289484D01*
X176987094Y-70257098D01*
X176987093Y-70257097D01*
X176981752Y-70253217D01*
X176975724Y-70250533D01*
X176975722Y-70250532D01*
X176813319Y-70178226D01*
X176813318Y-70178226D01*
X176807288Y-70175541D01*
X176713887Y-70155688D01*
X176626944Y-70137207D01*
X176626939Y-70137207D01*
X176620487Y-70135835D01*
X176429513Y-70135835D01*
X176423061Y-70137207D01*
X176423056Y-70137207D01*
X176336113Y-70155688D01*
X176242712Y-70175541D01*
X176236682Y-70178226D01*
X176236681Y-70178226D01*
X176074278Y-70250532D01*
X176074276Y-70250533D01*
X176068248Y-70253217D01*
X176062907Y-70257097D01*
X176062906Y-70257098D01*
X176018331Y-70289484D01*
X175913747Y-70365469D01*
X175909326Y-70370379D01*
X175909325Y-70370380D01*
X175826067Y-70462848D01*
X175785960Y-70507391D01*
X175782659Y-70513109D01*
X175698916Y-70658156D01*
X175690473Y-70672779D01*
X175631458Y-70854407D01*
X175611496Y-71044335D01*
X170101569Y-71044335D01*
X171642247Y-69503657D01*
X171650537Y-69496113D01*
X171657018Y-69492000D01*
X171703659Y-69442332D01*
X171706413Y-69439491D01*
X171726134Y-69419770D01*
X171728612Y-69416575D01*
X171736318Y-69407553D01*
X171761158Y-69381101D01*
X171766586Y-69375321D01*
X171776346Y-69357568D01*
X171787199Y-69341045D01*
X171794753Y-69331306D01*
X171799613Y-69325041D01*
X171817176Y-69284457D01*
X171822383Y-69273827D01*
X171843695Y-69235060D01*
X171845666Y-69227383D01*
X171845668Y-69227378D01*
X171848732Y-69215442D01*
X171855138Y-69196730D01*
X171860034Y-69185417D01*
X171863181Y-69178145D01*
X171864666Y-69168774D01*
X171870097Y-69134481D01*
X171872504Y-69122860D01*
X171881528Y-69087711D01*
X171881528Y-69087710D01*
X171883500Y-69080030D01*
X171883500Y-69059769D01*
X171885051Y-69040058D01*
X171886979Y-69027885D01*
X171888219Y-69020057D01*
X171884059Y-68976046D01*
X171883500Y-68964189D01*
X171883500Y-65888612D01*
X176000509Y-65888612D01*
X176020471Y-66078540D01*
X176079486Y-66260168D01*
X176174973Y-66425556D01*
X176302760Y-66567478D01*
X176457261Y-66679730D01*
X176463289Y-66682414D01*
X176463291Y-66682415D01*
X176576335Y-66732745D01*
X176631725Y-66757406D01*
X176725126Y-66777259D01*
X176812069Y-66795740D01*
X176812074Y-66795740D01*
X176818526Y-66797112D01*
X177009500Y-66797112D01*
X177015952Y-66795740D01*
X177015957Y-66795740D01*
X177102900Y-66777259D01*
X177196301Y-66757406D01*
X177271434Y-66723955D01*
X177337831Y-66694393D01*
X177389080Y-66683500D01*
X180441800Y-66683500D01*
X180509921Y-66703502D01*
X180529147Y-66719843D01*
X180529420Y-66719540D01*
X180534332Y-66723963D01*
X180538747Y-66728866D01*
X180693248Y-66841118D01*
X180699276Y-66843802D01*
X180699278Y-66843803D01*
X180861681Y-66916109D01*
X180867712Y-66918794D01*
X180961112Y-66938647D01*
X181048056Y-66957128D01*
X181048061Y-66957128D01*
X181054513Y-66958500D01*
X181245487Y-66958500D01*
X181251939Y-66957128D01*
X181251944Y-66957128D01*
X181338888Y-66938647D01*
X181432288Y-66918794D01*
X181438319Y-66916109D01*
X181600722Y-66843803D01*
X181600724Y-66843802D01*
X181606752Y-66841118D01*
X181761253Y-66728866D01*
X181889040Y-66586944D01*
X181984527Y-66421556D01*
X182043542Y-66239928D01*
X182063504Y-66050000D01*
X182043542Y-65860072D01*
X181984527Y-65678444D01*
X181889040Y-65513056D01*
X181880701Y-65503794D01*
X181765675Y-65376045D01*
X181765674Y-65376044D01*
X181761253Y-65371134D01*
X181606752Y-65258882D01*
X181600724Y-65256198D01*
X181600722Y-65256197D01*
X181438319Y-65183891D01*
X181438318Y-65183891D01*
X181432288Y-65181206D01*
X181338887Y-65161353D01*
X181251944Y-65142872D01*
X181251939Y-65142872D01*
X181245487Y-65141500D01*
X181054513Y-65141500D01*
X181048061Y-65142872D01*
X181048056Y-65142872D01*
X180961113Y-65161353D01*
X180867712Y-65181206D01*
X180861682Y-65183891D01*
X180861681Y-65183891D01*
X180699278Y-65256197D01*
X180699276Y-65256198D01*
X180693248Y-65258882D01*
X180687907Y-65262762D01*
X180687906Y-65262763D01*
X180588854Y-65334729D01*
X180538747Y-65371134D01*
X180534332Y-65376037D01*
X180529420Y-65380460D01*
X180528295Y-65379211D01*
X180474986Y-65412051D01*
X180441800Y-65416500D01*
X177763230Y-65416500D01*
X177695109Y-65396498D01*
X177661814Y-65361584D01*
X177660237Y-65362730D01*
X177656354Y-65357386D01*
X177653053Y-65351668D01*
X177525266Y-65209746D01*
X177370765Y-65097494D01*
X177364737Y-65094810D01*
X177364735Y-65094809D01*
X177202332Y-65022503D01*
X177202331Y-65022503D01*
X177196301Y-65019818D01*
X177102901Y-64999965D01*
X177015957Y-64981484D01*
X177015952Y-64981484D01*
X177009500Y-64980112D01*
X176818526Y-64980112D01*
X176812074Y-64981484D01*
X176812069Y-64981484D01*
X176725125Y-64999965D01*
X176631725Y-65019818D01*
X176625695Y-65022503D01*
X176625694Y-65022503D01*
X176463291Y-65094809D01*
X176463289Y-65094810D01*
X176457261Y-65097494D01*
X176302760Y-65209746D01*
X176174973Y-65351668D01*
X176079486Y-65517056D01*
X176020471Y-65698684D01*
X176019781Y-65705245D01*
X176019781Y-65705247D01*
X176004168Y-65853794D01*
X176000509Y-65888612D01*
X171883500Y-65888612D01*
X171883500Y-64813361D01*
X171903502Y-64745240D01*
X171957158Y-64698747D01*
X172027432Y-64688643D01*
X172083560Y-64711424D01*
X172106784Y-64728298D01*
X172176385Y-64778866D01*
X172193248Y-64791118D01*
X172199276Y-64793802D01*
X172199278Y-64793803D01*
X172289318Y-64833891D01*
X172367712Y-64868794D01*
X172454479Y-64887237D01*
X172548056Y-64907128D01*
X172548061Y-64907128D01*
X172554513Y-64908500D01*
X172745487Y-64908500D01*
X172751939Y-64907128D01*
X172751944Y-64907128D01*
X172845521Y-64887237D01*
X172932288Y-64868794D01*
X173010682Y-64833891D01*
X173100722Y-64793803D01*
X173100724Y-64793802D01*
X173106752Y-64791118D01*
X173112093Y-64787237D01*
X173117811Y-64783936D01*
X173119308Y-64786528D01*
X173173846Y-64767000D01*
X173243016Y-64783002D01*
X173255238Y-64790847D01*
X173393248Y-64891118D01*
X173399276Y-64893802D01*
X173399278Y-64893803D01*
X173561681Y-64966109D01*
X173567712Y-64968794D01*
X173661113Y-64988647D01*
X173748056Y-65007128D01*
X173748061Y-65007128D01*
X173754513Y-65008500D01*
X173945487Y-65008500D01*
X173951939Y-65007128D01*
X173951944Y-65007128D01*
X174038887Y-64988647D01*
X174132288Y-64968794D01*
X174138319Y-64966109D01*
X174300722Y-64893803D01*
X174300724Y-64893802D01*
X174306752Y-64891118D01*
X174461253Y-64778866D01*
X174521977Y-64711425D01*
X174584621Y-64641852D01*
X174584622Y-64641851D01*
X174589040Y-64636944D01*
X174684527Y-64471556D01*
X174743542Y-64289928D01*
X174760907Y-64124706D01*
X174787920Y-64059050D01*
X174797122Y-64048782D01*
X175356758Y-63489146D01*
X175365048Y-63481602D01*
X175371529Y-63477489D01*
X175418170Y-63427821D01*
X175420924Y-63424980D01*
X175440646Y-63405258D01*
X175443123Y-63402065D01*
X175450828Y-63393044D01*
X175475670Y-63366589D01*
X175481097Y-63360810D01*
X175484918Y-63353860D01*
X175490857Y-63343057D01*
X175501713Y-63326530D01*
X175509268Y-63316791D01*
X175509269Y-63316789D01*
X175514125Y-63310529D01*
X175531685Y-63269949D01*
X175536902Y-63259301D01*
X175554386Y-63227498D01*
X175554387Y-63227496D01*
X175558206Y-63220549D01*
X175563244Y-63200926D01*
X175569648Y-63182223D01*
X175574544Y-63170909D01*
X175574544Y-63170908D01*
X175577692Y-63163634D01*
X175578931Y-63155811D01*
X175578934Y-63155801D01*
X175584610Y-63119965D01*
X175587016Y-63108345D01*
X175596039Y-63073200D01*
X175596039Y-63073199D01*
X175598011Y-63065519D01*
X175598011Y-63045265D01*
X175599562Y-63025554D01*
X175601491Y-63013375D01*
X175602731Y-63005546D01*
X175598570Y-62961527D01*
X175598011Y-62949670D01*
X175598011Y-62017399D01*
X187499712Y-62017399D01*
X187521194Y-62106537D01*
X187525083Y-62117832D01*
X187607629Y-62299382D01*
X187613576Y-62309724D01*
X187728968Y-62472397D01*
X187736761Y-62481425D01*
X187880831Y-62619342D01*
X187890196Y-62626738D01*
X188057741Y-62734921D01*
X188068345Y-62740417D01*
X188253312Y-62814961D01*
X188264770Y-62818355D01*
X188461928Y-62856857D01*
X188470791Y-62857934D01*
X188473500Y-62858000D01*
X188577885Y-62858000D01*
X188593124Y-62853525D01*
X188594329Y-62852135D01*
X188596000Y-62844452D01*
X188596000Y-62839885D01*
X189104000Y-62839885D01*
X189108475Y-62855124D01*
X189109865Y-62856329D01*
X189117548Y-62858000D01*
X189174832Y-62858000D01*
X189180808Y-62857715D01*
X189329494Y-62843529D01*
X189341228Y-62841270D01*
X189532599Y-62785128D01*
X189543675Y-62780698D01*
X189720978Y-62689381D01*
X189731024Y-62682931D01*
X189887857Y-62559738D01*
X189896506Y-62551501D01*
X190027212Y-62400877D01*
X190034147Y-62391153D01*
X190134010Y-62218533D01*
X190138984Y-62207669D01*
X190204407Y-62019273D01*
X190204648Y-62018284D01*
X190203180Y-62007992D01*
X190189615Y-62004000D01*
X189122115Y-62004000D01*
X189106876Y-62008475D01*
X189105671Y-62009865D01*
X189104000Y-62017548D01*
X189104000Y-62839885D01*
X188596000Y-62839885D01*
X188596000Y-62022115D01*
X188591525Y-62006876D01*
X188590135Y-62005671D01*
X188582452Y-62004000D01*
X187514598Y-62004000D01*
X187501067Y-62007973D01*
X187499712Y-62017399D01*
X175598011Y-62017399D01*
X175598011Y-59550000D01*
X176486496Y-59550000D01*
X176487186Y-59556565D01*
X176504958Y-59725652D01*
X176506458Y-59739928D01*
X176565473Y-59921556D01*
X176660960Y-60086944D01*
X176665378Y-60091851D01*
X176665379Y-60091852D01*
X176720272Y-60152817D01*
X176788747Y-60228866D01*
X176943248Y-60341118D01*
X176949276Y-60343802D01*
X176949278Y-60343803D01*
X177100388Y-60411081D01*
X177117712Y-60418794D01*
X177211112Y-60438647D01*
X177298056Y-60457128D01*
X177298061Y-60457128D01*
X177304513Y-60458500D01*
X177495487Y-60458500D01*
X177501939Y-60457128D01*
X177501944Y-60457128D01*
X177588888Y-60438647D01*
X177682288Y-60418794D01*
X177699612Y-60411081D01*
X177850722Y-60343803D01*
X177850724Y-60343802D01*
X177856752Y-60341118D01*
X177937344Y-60282564D01*
X178004211Y-60258706D01*
X178011405Y-60258500D01*
X179147283Y-60258500D01*
X179215404Y-60278502D01*
X179240918Y-60300189D01*
X179337269Y-60407198D01*
X179491770Y-60519450D01*
X179497798Y-60522134D01*
X179497800Y-60522135D01*
X179574752Y-60556396D01*
X179666234Y-60597126D01*
X179759634Y-60616979D01*
X179846578Y-60635460D01*
X179846583Y-60635460D01*
X179853035Y-60636832D01*
X180044009Y-60636832D01*
X180050461Y-60635460D01*
X180050466Y-60635460D01*
X180137410Y-60616979D01*
X180230810Y-60597126D01*
X180322292Y-60556396D01*
X180399244Y-60522135D01*
X180399246Y-60522134D01*
X180405274Y-60519450D01*
X180559775Y-60407198D01*
X180687562Y-60265276D01*
X180783049Y-60099888D01*
X180842064Y-59918260D01*
X180854032Y-59804396D01*
X180861336Y-59734897D01*
X180862026Y-59728332D01*
X180861201Y-59720479D01*
X180858587Y-59695604D01*
X187462787Y-59695604D01*
X187472567Y-59906899D01*
X187473971Y-59912724D01*
X187473971Y-59912725D01*
X187520457Y-60105611D01*
X187522125Y-60112534D01*
X187524607Y-60117992D01*
X187524608Y-60117996D01*
X187568053Y-60213546D01*
X187609674Y-60305087D01*
X187732054Y-60477611D01*
X187809618Y-60551862D01*
X187858335Y-60598498D01*
X187884850Y-60623881D01*
X187889881Y-60627130D01*
X187889888Y-60627135D01*
X187917607Y-60645033D01*
X187963984Y-60698789D01*
X187973937Y-60769085D01*
X187944304Y-60833602D01*
X187927091Y-60849970D01*
X187812143Y-60940262D01*
X187803494Y-60948499D01*
X187672788Y-61099123D01*
X187665853Y-61108847D01*
X187565990Y-61281467D01*
X187561016Y-61292331D01*
X187495593Y-61480727D01*
X187495352Y-61481716D01*
X187496820Y-61492008D01*
X187510385Y-61496000D01*
X190185402Y-61496000D01*
X190198933Y-61492027D01*
X190200288Y-61482601D01*
X190178806Y-61393463D01*
X190174917Y-61382168D01*
X190092371Y-61200618D01*
X190086424Y-61190276D01*
X189971032Y-61027603D01*
X189963239Y-61018575D01*
X189819169Y-60880658D01*
X189809800Y-60873259D01*
X189782423Y-60855582D01*
X189736045Y-60801828D01*
X189726091Y-60731532D01*
X189755722Y-60667015D01*
X189772937Y-60650644D01*
X189888202Y-60560102D01*
X189892920Y-60556396D01*
X189896852Y-60551865D01*
X189896855Y-60551862D01*
X190027621Y-60401167D01*
X190031552Y-60396637D01*
X190034552Y-60391451D01*
X190034555Y-60391447D01*
X190134467Y-60218742D01*
X190137473Y-60213546D01*
X190206861Y-60013729D01*
X190220226Y-59921556D01*
X190236352Y-59810336D01*
X190236352Y-59810333D01*
X190237213Y-59804396D01*
X190227433Y-59593101D01*
X190177875Y-59387466D01*
X190162566Y-59353794D01*
X190092806Y-59200368D01*
X190090326Y-59194913D01*
X189967946Y-59022389D01*
X189963619Y-59018247D01*
X189963614Y-59018241D01*
X189872683Y-58931194D01*
X189837306Y-58869639D01*
X189840825Y-58798730D01*
X189882121Y-58740979D01*
X189893504Y-58733035D01*
X189949348Y-58698478D01*
X190074305Y-58573303D01*
X190078146Y-58567072D01*
X190163275Y-58428968D01*
X190163276Y-58428966D01*
X190167115Y-58422738D01*
X190222797Y-58254861D01*
X190233500Y-58150400D01*
X190233500Y-57349600D01*
X190233163Y-57346350D01*
X190223238Y-57250692D01*
X190223237Y-57250688D01*
X190222526Y-57243834D01*
X190166550Y-57076054D01*
X190073478Y-56925652D01*
X189948303Y-56800695D01*
X189907301Y-56775421D01*
X189803968Y-56711725D01*
X189803966Y-56711724D01*
X189797738Y-56707885D01*
X189711505Y-56679283D01*
X189636389Y-56654368D01*
X189636387Y-56654368D01*
X189629861Y-56652203D01*
X189623025Y-56651503D01*
X189623022Y-56651502D01*
X189579969Y-56647091D01*
X189525400Y-56641500D01*
X188174600Y-56641500D01*
X188171354Y-56641837D01*
X188171350Y-56641837D01*
X188075692Y-56651762D01*
X188075688Y-56651763D01*
X188068834Y-56652474D01*
X188062298Y-56654655D01*
X188062296Y-56654655D01*
X187988478Y-56679283D01*
X187901054Y-56708450D01*
X187750652Y-56801522D01*
X187625695Y-56926697D01*
X187621855Y-56932927D01*
X187621854Y-56932928D01*
X187543437Y-57060144D01*
X187532885Y-57077262D01*
X187477203Y-57245139D01*
X187466500Y-57349600D01*
X187466500Y-58150400D01*
X187477474Y-58256166D01*
X187533450Y-58423946D01*
X187626522Y-58574348D01*
X187751697Y-58699305D01*
X187757927Y-58703145D01*
X187757928Y-58703146D01*
X187803236Y-58731074D01*
X187850729Y-58783846D01*
X187862153Y-58853918D01*
X187833879Y-58919042D01*
X187814955Y-58937418D01*
X187807080Y-58943604D01*
X187803148Y-58948135D01*
X187803145Y-58948138D01*
X187710956Y-59054377D01*
X187668448Y-59103363D01*
X187665448Y-59108549D01*
X187665445Y-59108553D01*
X187618312Y-59190026D01*
X187562527Y-59286454D01*
X187493139Y-59486271D01*
X187492278Y-59492206D01*
X187492278Y-59492208D01*
X187483899Y-59550000D01*
X187462787Y-59695604D01*
X180858587Y-59695604D01*
X180842754Y-59544967D01*
X180842754Y-59544965D01*
X180842064Y-59538404D01*
X180783049Y-59356776D01*
X180687562Y-59191388D01*
X180559775Y-59049466D01*
X180405274Y-58937214D01*
X180399246Y-58934530D01*
X180399244Y-58934529D01*
X180236841Y-58862223D01*
X180236840Y-58862223D01*
X180230810Y-58859538D01*
X180128090Y-58837704D01*
X180050466Y-58821204D01*
X180050461Y-58821204D01*
X180044009Y-58819832D01*
X179853035Y-58819832D01*
X179758935Y-58839834D01*
X179709775Y-58840477D01*
X179702281Y-58839088D01*
X179694814Y-58837704D01*
X179687234Y-58838141D01*
X179687233Y-58838141D01*
X179632608Y-58841291D01*
X179625354Y-58841500D01*
X178011405Y-58841500D01*
X177943284Y-58821498D01*
X177937344Y-58817436D01*
X177862094Y-58762763D01*
X177862093Y-58762762D01*
X177856752Y-58758882D01*
X177850724Y-58756198D01*
X177850722Y-58756197D01*
X177688319Y-58683891D01*
X177688318Y-58683891D01*
X177682288Y-58681206D01*
X177588887Y-58661353D01*
X177501944Y-58642872D01*
X177501939Y-58642872D01*
X177495487Y-58641500D01*
X177304513Y-58641500D01*
X177298061Y-58642872D01*
X177298056Y-58642872D01*
X177211113Y-58661353D01*
X177117712Y-58681206D01*
X177111682Y-58683891D01*
X177111681Y-58683891D01*
X176949278Y-58756197D01*
X176949276Y-58756198D01*
X176943248Y-58758882D01*
X176937907Y-58762762D01*
X176937906Y-58762763D01*
X176897507Y-58792115D01*
X176788747Y-58871134D01*
X176660960Y-59013056D01*
X176565473Y-59178444D01*
X176506458Y-59360072D01*
X176486496Y-59550000D01*
X175598011Y-59550000D01*
X175598011Y-56457725D01*
X175618013Y-56389604D01*
X175671669Y-56343111D01*
X175741943Y-56333007D01*
X175768961Y-56340015D01*
X175949692Y-56409030D01*
X175954760Y-56410061D01*
X175954763Y-56410062D01*
X176047164Y-56428861D01*
X176168597Y-56453567D01*
X176173772Y-56453757D01*
X176173774Y-56453757D01*
X176386673Y-56461564D01*
X176386677Y-56461564D01*
X176391837Y-56461753D01*
X176396957Y-56461097D01*
X176396959Y-56461097D01*
X176608288Y-56434025D01*
X176608289Y-56434025D01*
X176613416Y-56433368D01*
X176618369Y-56431882D01*
X176822429Y-56370661D01*
X176822434Y-56370659D01*
X176827384Y-56369174D01*
X177027994Y-56270896D01*
X177127387Y-56200000D01*
X182136496Y-56200000D01*
X182137186Y-56206565D01*
X182154038Y-56366899D01*
X182156458Y-56389928D01*
X182215473Y-56571556D01*
X182310960Y-56736944D01*
X182315378Y-56741851D01*
X182315379Y-56741852D01*
X182418367Y-56856232D01*
X182438747Y-56878866D01*
X182593248Y-56991118D01*
X182599276Y-56993802D01*
X182599278Y-56993803D01*
X182761681Y-57066109D01*
X182767712Y-57068794D01*
X182858271Y-57088043D01*
X182948056Y-57107128D01*
X182948061Y-57107128D01*
X182954513Y-57108500D01*
X183145487Y-57108500D01*
X183151939Y-57107128D01*
X183151944Y-57107128D01*
X183241729Y-57088043D01*
X183332288Y-57068794D01*
X183338319Y-57066109D01*
X183500722Y-56993803D01*
X183500724Y-56993802D01*
X183506752Y-56991118D01*
X183521148Y-56980659D01*
X183587344Y-56932564D01*
X183654211Y-56908706D01*
X183661405Y-56908500D01*
X186330356Y-56908500D01*
X186338926Y-56908792D01*
X186389044Y-56912209D01*
X186389048Y-56912209D01*
X186396620Y-56912725D01*
X186404097Y-56911420D01*
X186404098Y-56911420D01*
X186430576Y-56906799D01*
X186459571Y-56901738D01*
X186466089Y-56900777D01*
X186529510Y-56893102D01*
X186536611Y-56890419D01*
X186539220Y-56889778D01*
X186555530Y-56885315D01*
X186558066Y-56884550D01*
X186565552Y-56883243D01*
X186624068Y-56857556D01*
X186630172Y-56855065D01*
X186632933Y-56854022D01*
X186689924Y-56832487D01*
X186696187Y-56828183D01*
X186698553Y-56826946D01*
X186713365Y-56818701D01*
X186715619Y-56817368D01*
X186722573Y-56814315D01*
X186773270Y-56775413D01*
X186778600Y-56771541D01*
X186824988Y-56739661D01*
X186824993Y-56739656D01*
X186831249Y-56735357D01*
X186852305Y-56711725D01*
X186872703Y-56688830D01*
X186877684Y-56683554D01*
X188214940Y-55346298D01*
X188277838Y-55312146D01*
X188293996Y-55308711D01*
X188430695Y-55279655D01*
X188436726Y-55276970D01*
X188599129Y-55204664D01*
X188599131Y-55204663D01*
X188605159Y-55201979D01*
X188759660Y-55089727D01*
X188887447Y-54947805D01*
X188982934Y-54782417D01*
X189041949Y-54600789D01*
X189061911Y-54410861D01*
X189041949Y-54220933D01*
X188982934Y-54039305D01*
X188958135Y-53996351D01*
X188890748Y-53879635D01*
X188887447Y-53873917D01*
X188847792Y-53829875D01*
X188764082Y-53736906D01*
X188764081Y-53736905D01*
X188759660Y-53731995D01*
X188650014Y-53652332D01*
X188610501Y-53623624D01*
X188610500Y-53623623D01*
X188605159Y-53619743D01*
X188599131Y-53617059D01*
X188599129Y-53617058D01*
X188436726Y-53544752D01*
X188436725Y-53544752D01*
X188430695Y-53542067D01*
X188318034Y-53518120D01*
X188250351Y-53503733D01*
X188250346Y-53503733D01*
X188243894Y-53502361D01*
X188052920Y-53502361D01*
X188046468Y-53503733D01*
X188046463Y-53503733D01*
X187978780Y-53518120D01*
X187866119Y-53542067D01*
X187860089Y-53544752D01*
X187860088Y-53544752D01*
X187697685Y-53617058D01*
X187697683Y-53617059D01*
X187691655Y-53619743D01*
X187686314Y-53623623D01*
X187686313Y-53623624D01*
X187646800Y-53652332D01*
X187537154Y-53731995D01*
X187532733Y-53736905D01*
X187532732Y-53736906D01*
X187449023Y-53829875D01*
X187409367Y-53873917D01*
X187406066Y-53879635D01*
X187338680Y-53996351D01*
X187313880Y-54039305D01*
X187254865Y-54220933D01*
X187254175Y-54227496D01*
X187254175Y-54227498D01*
X187249957Y-54267630D01*
X187222944Y-54333287D01*
X187213742Y-54343555D01*
X186102703Y-55454595D01*
X186040391Y-55488620D01*
X186013608Y-55491500D01*
X183661405Y-55491500D01*
X183593284Y-55471498D01*
X183587344Y-55467436D01*
X183512094Y-55412763D01*
X183512093Y-55412762D01*
X183506752Y-55408882D01*
X183500724Y-55406198D01*
X183500722Y-55406197D01*
X183338319Y-55333891D01*
X183338318Y-55333891D01*
X183332288Y-55331206D01*
X183238888Y-55311353D01*
X183151944Y-55292872D01*
X183151939Y-55292872D01*
X183145487Y-55291500D01*
X182954513Y-55291500D01*
X182948061Y-55292872D01*
X182948056Y-55292872D01*
X182861112Y-55311353D01*
X182767712Y-55331206D01*
X182761682Y-55333891D01*
X182761681Y-55333891D01*
X182599278Y-55406197D01*
X182599276Y-55406198D01*
X182593248Y-55408882D01*
X182438747Y-55521134D01*
X182434326Y-55526044D01*
X182434325Y-55526045D01*
X182361926Y-55606453D01*
X182310960Y-55663056D01*
X182215473Y-55828444D01*
X182156458Y-56010072D01*
X182155768Y-56016633D01*
X182155768Y-56016635D01*
X182143062Y-56137529D01*
X182136496Y-56200000D01*
X177127387Y-56200000D01*
X177209860Y-56141173D01*
X177368096Y-55983489D01*
X177479507Y-55828444D01*
X177495435Y-55806277D01*
X177498453Y-55802077D01*
X177597430Y-55601811D01*
X177662370Y-55388069D01*
X177691529Y-55166590D01*
X177693156Y-55100000D01*
X177674852Y-54877361D01*
X177620431Y-54660702D01*
X177531354Y-54455840D01*
X177410014Y-54268277D01*
X177259670Y-54103051D01*
X177255619Y-54099852D01*
X177255615Y-54099848D01*
X177088414Y-53967800D01*
X177088410Y-53967798D01*
X177084359Y-53964598D01*
X177043053Y-53941796D01*
X176993084Y-53891364D01*
X176978312Y-53821921D01*
X177003428Y-53755516D01*
X177030780Y-53728909D01*
X177074603Y-53697650D01*
X177209860Y-53601173D01*
X177259584Y-53551623D01*
X177364435Y-53447137D01*
X177368096Y-53443489D01*
X177418068Y-53373946D01*
X177495435Y-53266277D01*
X177498453Y-53262077D01*
X177511995Y-53234678D01*
X177595136Y-53066453D01*
X177595137Y-53066451D01*
X177597430Y-53061811D01*
X177662370Y-52848069D01*
X177691529Y-52626590D01*
X177693156Y-52560000D01*
X177688872Y-52507890D01*
X179741500Y-52507890D01*
X179741725Y-52510539D01*
X179751288Y-52623240D01*
X179756080Y-52679720D01*
X179757418Y-52684875D01*
X179757419Y-52684881D01*
X179812657Y-52897703D01*
X179813999Y-52902872D01*
X179816191Y-52907738D01*
X179816192Y-52907741D01*
X179879230Y-53047680D01*
X179908688Y-53113075D01*
X180037441Y-53304319D01*
X180041120Y-53308176D01*
X180041122Y-53308178D01*
X180098857Y-53368699D01*
X180196576Y-53471135D01*
X180381542Y-53608754D01*
X180386293Y-53611170D01*
X180386297Y-53611172D01*
X180410789Y-53623624D01*
X180587051Y-53713240D01*
X180592145Y-53714822D01*
X180592148Y-53714823D01*
X180751767Y-53764386D01*
X180807227Y-53781607D01*
X180812516Y-53782308D01*
X181030489Y-53811198D01*
X181030494Y-53811198D01*
X181035774Y-53811898D01*
X181041103Y-53811698D01*
X181041105Y-53811698D01*
X181150966Y-53807574D01*
X181266158Y-53803249D01*
X181288802Y-53798498D01*
X181486572Y-53757002D01*
X181491791Y-53755907D01*
X181496750Y-53753949D01*
X181496752Y-53753948D01*
X181701256Y-53673185D01*
X181701258Y-53673184D01*
X181706221Y-53671224D01*
X181742343Y-53649305D01*
X181898757Y-53554390D01*
X181898756Y-53554390D01*
X181903317Y-53551623D01*
X181915151Y-53541354D01*
X182073412Y-53404023D01*
X182073414Y-53404021D01*
X182077445Y-53400523D01*
X182106670Y-53364880D01*
X182165329Y-53324886D01*
X182236299Y-53322954D01*
X182297048Y-53359698D01*
X182311248Y-53378468D01*
X182351485Y-53443489D01*
X182401522Y-53524348D01*
X182406704Y-53529521D01*
X182418558Y-53541354D01*
X182526697Y-53649305D01*
X182532927Y-53653145D01*
X182532928Y-53653146D01*
X182670090Y-53737694D01*
X182677262Y-53742115D01*
X182722145Y-53757002D01*
X182838611Y-53795632D01*
X182838613Y-53795632D01*
X182845139Y-53797797D01*
X182851975Y-53798497D01*
X182851978Y-53798498D01*
X182887663Y-53802154D01*
X182949600Y-53808500D01*
X184250400Y-53808500D01*
X184253646Y-53808163D01*
X184253650Y-53808163D01*
X184349308Y-53798238D01*
X184349312Y-53798237D01*
X184356166Y-53797526D01*
X184362702Y-53795345D01*
X184362704Y-53795345D01*
X184509634Y-53746325D01*
X184523946Y-53741550D01*
X184674348Y-53648478D01*
X184799305Y-53523303D01*
X184831462Y-53471135D01*
X184888275Y-53378968D01*
X184888276Y-53378966D01*
X184892115Y-53372738D01*
X184928504Y-53263028D01*
X184945632Y-53211389D01*
X184945632Y-53211387D01*
X184947797Y-53204861D01*
X184958500Y-53100400D01*
X184958500Y-51533995D01*
X184978502Y-51465874D01*
X185032158Y-51419381D01*
X185091239Y-51410226D01*
X185091337Y-51408228D01*
X185095357Y-51408425D01*
X185095374Y-51408425D01*
X185096899Y-51408500D01*
X185252846Y-51408500D01*
X185410566Y-51393452D01*
X185613534Y-51333908D01*
X185668212Y-51305747D01*
X185796249Y-51239804D01*
X185796252Y-51239802D01*
X185801580Y-51237058D01*
X185967920Y-51106396D01*
X185971852Y-51101865D01*
X185971855Y-51101862D01*
X186102621Y-50951167D01*
X186106552Y-50946637D01*
X186109552Y-50941451D01*
X186109555Y-50941447D01*
X186209467Y-50768742D01*
X186212473Y-50763546D01*
X186281861Y-50563729D01*
X186312213Y-50354396D01*
X186302433Y-50143101D01*
X186252875Y-49937466D01*
X186209525Y-49842122D01*
X186167806Y-49750368D01*
X186165326Y-49744913D01*
X186042946Y-49572389D01*
X185890150Y-49426119D01*
X185712452Y-49311380D01*
X185652354Y-49287160D01*
X185521832Y-49234558D01*
X185521829Y-49234557D01*
X185516263Y-49232314D01*
X185308663Y-49191772D01*
X185303101Y-49191500D01*
X185147154Y-49191500D01*
X184989434Y-49206548D01*
X184786466Y-49266092D01*
X184781139Y-49268836D01*
X184781138Y-49268836D01*
X184603751Y-49360196D01*
X184603748Y-49360198D01*
X184598420Y-49362942D01*
X184432080Y-49493604D01*
X184428148Y-49498135D01*
X184428145Y-49498138D01*
X184359474Y-49577275D01*
X184293448Y-49653363D01*
X184290448Y-49658549D01*
X184290445Y-49658553D01*
X184243312Y-49740026D01*
X184187527Y-49836454D01*
X184118139Y-50036271D01*
X184087787Y-50245604D01*
X184097567Y-50456899D01*
X184098971Y-50462724D01*
X184098971Y-50462725D01*
X184140725Y-50635979D01*
X184137240Y-50706890D01*
X184095970Y-50764660D01*
X184030020Y-50790947D01*
X184018232Y-50791500D01*
X182949600Y-50791500D01*
X182946354Y-50791837D01*
X182946350Y-50791837D01*
X182850692Y-50801762D01*
X182850688Y-50801763D01*
X182843834Y-50802474D01*
X182837298Y-50804655D01*
X182837296Y-50804655D01*
X182798220Y-50817692D01*
X182676054Y-50858450D01*
X182525652Y-50951522D01*
X182400695Y-51076697D01*
X182322348Y-51203800D01*
X182310920Y-51222339D01*
X182258148Y-51269832D01*
X182188076Y-51281256D01*
X182122952Y-51252982D01*
X182112490Y-51243195D01*
X182007103Y-51132722D01*
X182003424Y-51128865D01*
X181818458Y-50991246D01*
X181813707Y-50988830D01*
X181813703Y-50988828D01*
X181691731Y-50926815D01*
X181612949Y-50886760D01*
X181607855Y-50885178D01*
X181607852Y-50885177D01*
X181397871Y-50819976D01*
X181392773Y-50818393D01*
X181387484Y-50817692D01*
X181169511Y-50788802D01*
X181169506Y-50788802D01*
X181164226Y-50788102D01*
X181158897Y-50788302D01*
X181158895Y-50788302D01*
X181049034Y-50792427D01*
X180933842Y-50796751D01*
X180708209Y-50844093D01*
X180703250Y-50846051D01*
X180703248Y-50846052D01*
X180498744Y-50926815D01*
X180498742Y-50926816D01*
X180493779Y-50928776D01*
X180489220Y-50931543D01*
X180489217Y-50931544D01*
X180390832Y-50991246D01*
X180296683Y-51048377D01*
X180292653Y-51051874D01*
X180199484Y-51132722D01*
X180122555Y-51199477D01*
X180094926Y-51233173D01*
X179979760Y-51373627D01*
X179979756Y-51373633D01*
X179976376Y-51377755D01*
X179973737Y-51382391D01*
X179973735Y-51382394D01*
X179926216Y-51465874D01*
X179862325Y-51578114D01*
X179783663Y-51794825D01*
X179782714Y-51800074D01*
X179782713Y-51800077D01*
X179743377Y-52017608D01*
X179743376Y-52017615D01*
X179742639Y-52021692D01*
X179741500Y-52045844D01*
X179741500Y-52507890D01*
X177688872Y-52507890D01*
X177674852Y-52337361D01*
X177620431Y-52120702D01*
X177531354Y-51915840D01*
X177410014Y-51728277D01*
X177259670Y-51563051D01*
X177255619Y-51559852D01*
X177255615Y-51559848D01*
X177088414Y-51427800D01*
X177088410Y-51427798D01*
X177084359Y-51424598D01*
X177074909Y-51419381D01*
X177002100Y-51379189D01*
X176888789Y-51316638D01*
X176883920Y-51314914D01*
X176883916Y-51314912D01*
X176683087Y-51243795D01*
X176683083Y-51243794D01*
X176678212Y-51242069D01*
X176673119Y-51241162D01*
X176673116Y-51241161D01*
X176463373Y-51203800D01*
X176463367Y-51203799D01*
X176458284Y-51202894D01*
X176384452Y-51201992D01*
X176240081Y-51200228D01*
X176240079Y-51200228D01*
X176234911Y-51200165D01*
X176014091Y-51233955D01*
X175801756Y-51303357D01*
X175748339Y-51331164D01*
X175627952Y-51393834D01*
X175603607Y-51406507D01*
X175599474Y-51409610D01*
X175599471Y-51409612D01*
X175429100Y-51537530D01*
X175424965Y-51540635D01*
X175270629Y-51702138D01*
X175163201Y-51859621D01*
X175108293Y-51904621D01*
X175037768Y-51912792D01*
X174974021Y-51881538D01*
X174953324Y-51857054D01*
X174872822Y-51732617D01*
X174872820Y-51732614D01*
X174870014Y-51728277D01*
X174719670Y-51563051D01*
X174715619Y-51559852D01*
X174715615Y-51559848D01*
X174548414Y-51427800D01*
X174548410Y-51427798D01*
X174544359Y-51424598D01*
X174534909Y-51419381D01*
X174462100Y-51379189D01*
X174348789Y-51316638D01*
X174343920Y-51314914D01*
X174343916Y-51314912D01*
X174143087Y-51243795D01*
X174143083Y-51243794D01*
X174138212Y-51242069D01*
X174133119Y-51241162D01*
X174133116Y-51241161D01*
X173923373Y-51203800D01*
X173923367Y-51203799D01*
X173918284Y-51202894D01*
X173844452Y-51201992D01*
X173700081Y-51200228D01*
X173700079Y-51200228D01*
X173694911Y-51200165D01*
X173474091Y-51233955D01*
X173261756Y-51303357D01*
X173208339Y-51331164D01*
X173087952Y-51393834D01*
X173063607Y-51406507D01*
X173059474Y-51409610D01*
X173059471Y-51409612D01*
X172889100Y-51537530D01*
X172884965Y-51540635D01*
X172730629Y-51702138D01*
X172623201Y-51859621D01*
X172568293Y-51904621D01*
X172497768Y-51912792D01*
X172434021Y-51881538D01*
X172413324Y-51857054D01*
X172332822Y-51732617D01*
X172332820Y-51732614D01*
X172330014Y-51728277D01*
X172179670Y-51563051D01*
X172175619Y-51559852D01*
X172175615Y-51559848D01*
X172008414Y-51427800D01*
X172008410Y-51427798D01*
X172004359Y-51424598D01*
X171994909Y-51419381D01*
X171922100Y-51379189D01*
X171808789Y-51316638D01*
X171803920Y-51314914D01*
X171803916Y-51314912D01*
X171603087Y-51243795D01*
X171603083Y-51243794D01*
X171598212Y-51242069D01*
X171593119Y-51241162D01*
X171593116Y-51241161D01*
X171383373Y-51203800D01*
X171383367Y-51203799D01*
X171378284Y-51202894D01*
X171304452Y-51201992D01*
X171160081Y-51200228D01*
X171160079Y-51200228D01*
X171154911Y-51200165D01*
X170934091Y-51233955D01*
X170721756Y-51303357D01*
X170668339Y-51331164D01*
X170547952Y-51393834D01*
X170523607Y-51406507D01*
X170519474Y-51409610D01*
X170519471Y-51409612D01*
X170349100Y-51537530D01*
X170344965Y-51540635D01*
X170190629Y-51702138D01*
X170083201Y-51859621D01*
X170028293Y-51904621D01*
X169957768Y-51912792D01*
X169894021Y-51881538D01*
X169873324Y-51857054D01*
X169792822Y-51732617D01*
X169792820Y-51732614D01*
X169790014Y-51728277D01*
X169639670Y-51563051D01*
X169635619Y-51559852D01*
X169635615Y-51559848D01*
X169468414Y-51427800D01*
X169468410Y-51427798D01*
X169464359Y-51424598D01*
X169454909Y-51419381D01*
X169382100Y-51379189D01*
X169268789Y-51316638D01*
X169263920Y-51314914D01*
X169263916Y-51314912D01*
X169063087Y-51243795D01*
X169063083Y-51243794D01*
X169058212Y-51242069D01*
X169053119Y-51241162D01*
X169053116Y-51241161D01*
X168843373Y-51203800D01*
X168843367Y-51203799D01*
X168838284Y-51202894D01*
X168764452Y-51201992D01*
X168620081Y-51200228D01*
X168620079Y-51200228D01*
X168614911Y-51200165D01*
X168394091Y-51233955D01*
X168181756Y-51303357D01*
X168128339Y-51331164D01*
X168007952Y-51393834D01*
X167983607Y-51406507D01*
X167979474Y-51409610D01*
X167979471Y-51409612D01*
X167809100Y-51537530D01*
X167804965Y-51540635D01*
X167650629Y-51702138D01*
X167647720Y-51706403D01*
X167647714Y-51706411D01*
X167635404Y-51724457D01*
X167543204Y-51859618D01*
X167542898Y-51860066D01*
X167487987Y-51905069D01*
X167417462Y-51913240D01*
X167353715Y-51881986D01*
X167333018Y-51857502D01*
X167252426Y-51732926D01*
X167246136Y-51724757D01*
X167102806Y-51567240D01*
X167095273Y-51560215D01*
X166928139Y-51428222D01*
X166919552Y-51422517D01*
X166733117Y-51319599D01*
X166723705Y-51315369D01*
X166522959Y-51244280D01*
X166512988Y-51241646D01*
X166441837Y-51228972D01*
X166428540Y-51230432D01*
X166424000Y-51244989D01*
X166424000Y-56439884D01*
X166428475Y-56455123D01*
X166429865Y-56456328D01*
X166437548Y-56457999D01*
X167064669Y-56457999D01*
X167071490Y-56457629D01*
X167122352Y-56452105D01*
X167137604Y-56448479D01*
X167258054Y-56403324D01*
X167273649Y-56394786D01*
X167375724Y-56318285D01*
X167388285Y-56305724D01*
X167464786Y-56203649D01*
X167473324Y-56188054D01*
X167514225Y-56078952D01*
X167556867Y-56022188D01*
X167623428Y-55997488D01*
X167692777Y-56012696D01*
X167727444Y-56040684D01*
X167752865Y-56070031D01*
X167752869Y-56070035D01*
X167756250Y-56073938D01*
X167928126Y-56216632D01*
X168121000Y-56329338D01*
X168125825Y-56331180D01*
X168125826Y-56331181D01*
X168174480Y-56349760D01*
X168329692Y-56409030D01*
X168334760Y-56410061D01*
X168334763Y-56410062D01*
X168427164Y-56428861D01*
X168548597Y-56453567D01*
X168553772Y-56453757D01*
X168553774Y-56453757D01*
X168766673Y-56461564D01*
X168766677Y-56461564D01*
X168771837Y-56461753D01*
X168776957Y-56461097D01*
X168776959Y-56461097D01*
X168988288Y-56434025D01*
X168988289Y-56434025D01*
X168993416Y-56433368D01*
X168998369Y-56431882D01*
X169202429Y-56370661D01*
X169202434Y-56370659D01*
X169207384Y-56369174D01*
X169260559Y-56343124D01*
X169330531Y-56331118D01*
X169395888Y-56358848D01*
X169435878Y-56417511D01*
X169441989Y-56456276D01*
X169441989Y-68609917D01*
X169421987Y-68678038D01*
X169405084Y-68699012D01*
X166699500Y-71404595D01*
X166637188Y-71438621D01*
X166610405Y-71441500D01*
X166554513Y-71441500D01*
X166548061Y-71442872D01*
X166548056Y-71442872D01*
X166484960Y-71456284D01*
X166367712Y-71481206D01*
X166361682Y-71483891D01*
X166361681Y-71483891D01*
X166199278Y-71556197D01*
X166199276Y-71556198D01*
X166193248Y-71558882D01*
X166038747Y-71671134D01*
X166034326Y-71676044D01*
X166034325Y-71676045D01*
X165996288Y-71718290D01*
X165910960Y-71813056D01*
X165879240Y-71867996D01*
X165831051Y-71951463D01*
X165815473Y-71978444D01*
X165756458Y-72160072D01*
X165736496Y-72350000D01*
X165737186Y-72356565D01*
X165755649Y-72532228D01*
X165756458Y-72539928D01*
X165815473Y-72721556D01*
X165818776Y-72727278D01*
X165818777Y-72727279D01*
X165847642Y-72777275D01*
X165910960Y-72886944D01*
X165915380Y-72891852D01*
X165919259Y-72897192D01*
X165917920Y-72898165D01*
X165945050Y-72954696D01*
X165936287Y-73025149D01*
X165918750Y-73052438D01*
X165919259Y-73052808D01*
X165915380Y-73058148D01*
X165910960Y-73063056D01*
X165815473Y-73228444D01*
X165756458Y-73410072D01*
X165755768Y-73416633D01*
X165755768Y-73416635D01*
X165753348Y-73439664D01*
X165736496Y-73600000D01*
X165756458Y-73789928D01*
X165758497Y-73796202D01*
X165768362Y-73826563D01*
X165770390Y-73897531D01*
X165733728Y-73958329D01*
X165670016Y-73989654D01*
X165648529Y-73991500D01*
X163461405Y-73991500D01*
X163393284Y-73971498D01*
X163387344Y-73967436D01*
X163312094Y-73912763D01*
X163312093Y-73912762D01*
X163306752Y-73908882D01*
X163300724Y-73906198D01*
X163300722Y-73906197D01*
X163138319Y-73833891D01*
X163138318Y-73833891D01*
X163132288Y-73831206D01*
X163038887Y-73811353D01*
X162951944Y-73792872D01*
X162951939Y-73792872D01*
X162945487Y-73791500D01*
X162754513Y-73791500D01*
X162748061Y-73792872D01*
X162748056Y-73792872D01*
X162661113Y-73811353D01*
X162567712Y-73831206D01*
X162561682Y-73833891D01*
X162561681Y-73833891D01*
X162399278Y-73906197D01*
X162399276Y-73906198D01*
X162393248Y-73908882D01*
X162387907Y-73912762D01*
X162387906Y-73912763D01*
X162369625Y-73926045D01*
X162238747Y-74021134D01*
X162234326Y-74026044D01*
X162234325Y-74026045D01*
X162208176Y-74055087D01*
X162110960Y-74163056D01*
X162015473Y-74328444D01*
X161956458Y-74510072D01*
X161955768Y-74516633D01*
X161955768Y-74516635D01*
X161946113Y-74608500D01*
X161936496Y-74700000D01*
X159991605Y-74700000D01*
X159919169Y-74630658D01*
X159909800Y-74623259D01*
X159882423Y-74605582D01*
X159836045Y-74551828D01*
X159826091Y-74481532D01*
X159855722Y-74417015D01*
X159872937Y-74400644D01*
X159912285Y-74369736D01*
X159992920Y-74306396D01*
X159996852Y-74301865D01*
X159996855Y-74301862D01*
X160127621Y-74151167D01*
X160131552Y-74146637D01*
X160134552Y-74141451D01*
X160134555Y-74141447D01*
X160234467Y-73968742D01*
X160237473Y-73963546D01*
X160306861Y-73763729D01*
X160337213Y-73554396D01*
X160327433Y-73343101D01*
X160291452Y-73193803D01*
X160279281Y-73143299D01*
X160279280Y-73143297D01*
X160277875Y-73137466D01*
X160269377Y-73118774D01*
X160202248Y-72971134D01*
X160190326Y-72944913D01*
X160067946Y-72772389D01*
X159915150Y-72626119D01*
X159899522Y-72616028D01*
X159882837Y-72605254D01*
X159836460Y-72551499D01*
X159826507Y-72481203D01*
X159856139Y-72416686D01*
X159873353Y-72400317D01*
X159880446Y-72394746D01*
X159992920Y-72306396D01*
X159996852Y-72301865D01*
X159996855Y-72301862D01*
X160127621Y-72151167D01*
X160131552Y-72146637D01*
X160134552Y-72141451D01*
X160134555Y-72141447D01*
X160234467Y-71968742D01*
X160237473Y-71963546D01*
X160306861Y-71763729D01*
X160313158Y-71720303D01*
X160336352Y-71560336D01*
X160336352Y-71560333D01*
X160337213Y-71554396D01*
X160327433Y-71343101D01*
X160317078Y-71300135D01*
X160320563Y-71229226D01*
X160361832Y-71171456D01*
X160427782Y-71145168D01*
X160456015Y-71145693D01*
X160484731Y-71149473D01*
X160485861Y-71149622D01*
X160492377Y-71150654D01*
X160530770Y-71157770D01*
X160555186Y-71162295D01*
X160562766Y-71161858D01*
X160562767Y-71161858D01*
X160617380Y-71158709D01*
X160624633Y-71158500D01*
X162088595Y-71158500D01*
X162156716Y-71178502D01*
X162162656Y-71182564D01*
X162236577Y-71236271D01*
X162243248Y-71241118D01*
X162249276Y-71243802D01*
X162249278Y-71243803D01*
X162375807Y-71300137D01*
X162417712Y-71318794D01*
X162504658Y-71337275D01*
X162598056Y-71357128D01*
X162598061Y-71357128D01*
X162604513Y-71358500D01*
X162795487Y-71358500D01*
X162801939Y-71357128D01*
X162801944Y-71357128D01*
X162895342Y-71337275D01*
X162982288Y-71318794D01*
X163024193Y-71300137D01*
X163150722Y-71243803D01*
X163150724Y-71243802D01*
X163156752Y-71241118D01*
X163163424Y-71236271D01*
X163265242Y-71162295D01*
X163311253Y-71128866D01*
X163421373Y-71006565D01*
X163434621Y-70991852D01*
X163434622Y-70991851D01*
X163439040Y-70986944D01*
X163513167Y-70858553D01*
X163531223Y-70827279D01*
X163531224Y-70827278D01*
X163534527Y-70821556D01*
X163593542Y-70639928D01*
X163597194Y-70605186D01*
X163612814Y-70456565D01*
X163613504Y-70450000D01*
X163607385Y-70391785D01*
X163594232Y-70266635D01*
X163594232Y-70266633D01*
X163593542Y-70260072D01*
X163534527Y-70078444D01*
X163521883Y-70056543D01*
X163442341Y-69918774D01*
X163439040Y-69913056D01*
X163431805Y-69905020D01*
X163315675Y-69776045D01*
X163315674Y-69776044D01*
X163311253Y-69771134D01*
X163156752Y-69658882D01*
X163150724Y-69656198D01*
X163150722Y-69656197D01*
X162988319Y-69583891D01*
X162988318Y-69583891D01*
X162982288Y-69581206D01*
X162888888Y-69561353D01*
X162801944Y-69542872D01*
X162801939Y-69542872D01*
X162795487Y-69541500D01*
X162604513Y-69541500D01*
X162598061Y-69542872D01*
X162598056Y-69542872D01*
X162511112Y-69561353D01*
X162417712Y-69581206D01*
X162411682Y-69583891D01*
X162411681Y-69583891D01*
X162249278Y-69656197D01*
X162249276Y-69656198D01*
X162243248Y-69658882D01*
X162237907Y-69662762D01*
X162237906Y-69662763D01*
X162162656Y-69717436D01*
X162095789Y-69741294D01*
X162088595Y-69741500D01*
X160945660Y-69741500D01*
X160877539Y-69721498D01*
X160856565Y-69704595D01*
X160784665Y-69632695D01*
X160750639Y-69570383D01*
X160748450Y-69556770D01*
X160744232Y-69516637D01*
X160744232Y-69516635D01*
X160743542Y-69510072D01*
X160684527Y-69328444D01*
X160678362Y-69317765D01*
X160601950Y-69185417D01*
X160589040Y-69163056D01*
X160552848Y-69122860D01*
X160465675Y-69026045D01*
X160465674Y-69026044D01*
X160461253Y-69021134D01*
X160306752Y-68908882D01*
X160300724Y-68906198D01*
X160300722Y-68906197D01*
X160138319Y-68833891D01*
X160138318Y-68833891D01*
X160132288Y-68831206D01*
X160038888Y-68811353D01*
X159951944Y-68792872D01*
X159951939Y-68792872D01*
X159945487Y-68791500D01*
X159754513Y-68791500D01*
X159748061Y-68792872D01*
X159748056Y-68792872D01*
X159661112Y-68811353D01*
X159567712Y-68831206D01*
X159561682Y-68833891D01*
X159561681Y-68833891D01*
X159399278Y-68906197D01*
X159399276Y-68906198D01*
X159393248Y-68908882D01*
X159238747Y-69021134D01*
X159234326Y-69026044D01*
X159234325Y-69026045D01*
X159147153Y-69122860D01*
X159110960Y-69163056D01*
X159098050Y-69185417D01*
X159021639Y-69317765D01*
X159015473Y-69328444D01*
X158956458Y-69510072D01*
X158955768Y-69516633D01*
X158955768Y-69516635D01*
X158948699Y-69583891D01*
X158936496Y-69700000D01*
X158937186Y-69706565D01*
X158944489Y-69776045D01*
X158956458Y-69889928D01*
X159015473Y-70071556D01*
X159070923Y-70167597D01*
X159091074Y-70202500D01*
X159107812Y-70271495D01*
X159084592Y-70338587D01*
X159028785Y-70382474D01*
X158981955Y-70391500D01*
X158622154Y-70391500D01*
X158464434Y-70406548D01*
X158261466Y-70466092D01*
X158256139Y-70468836D01*
X158256138Y-70468836D01*
X158078751Y-70560196D01*
X158078748Y-70560198D01*
X158073420Y-70562942D01*
X157907080Y-70693604D01*
X157903148Y-70698135D01*
X157903145Y-70698138D01*
X157876258Y-70729123D01*
X157768448Y-70853363D01*
X157765448Y-70858549D01*
X157765445Y-70858553D01*
X157764047Y-70860970D01*
X157662527Y-71036454D01*
X157593139Y-71236271D01*
X157592278Y-71242206D01*
X157592278Y-71242208D01*
X157563920Y-71437793D01*
X157562787Y-71445604D01*
X157572567Y-71656899D01*
X157573971Y-71662724D01*
X157573971Y-71662725D01*
X157616246Y-71838138D01*
X157622125Y-71862534D01*
X157624607Y-71867992D01*
X157624608Y-71867996D01*
X157668053Y-71963546D01*
X157709674Y-72055087D01*
X157779692Y-72153794D01*
X157827460Y-72221134D01*
X157832054Y-72227611D01*
X157836381Y-72231753D01*
X157959904Y-72350000D01*
X157984850Y-72373881D01*
X157989888Y-72377134D01*
X158017163Y-72394746D01*
X158063540Y-72448501D01*
X158073493Y-72518797D01*
X158043861Y-72583314D01*
X158026649Y-72599681D01*
X157907080Y-72693604D01*
X157903148Y-72698135D01*
X157903145Y-72698138D01*
X157834474Y-72777275D01*
X157768448Y-72853363D01*
X157765448Y-72858549D01*
X157765445Y-72858553D01*
X157691735Y-72985966D01*
X157662527Y-73036454D01*
X157593139Y-73236271D01*
X157592278Y-73242206D01*
X157592278Y-73242208D01*
X157564043Y-73436944D01*
X157562787Y-73445604D01*
X153133500Y-73445604D01*
X153133500Y-73378763D01*
X153134027Y-73367579D01*
X153135701Y-73360091D01*
X153133562Y-73292032D01*
X153133500Y-73288075D01*
X153133500Y-73260144D01*
X153132994Y-73256138D01*
X153132061Y-73244292D01*
X153130922Y-73208037D01*
X153130673Y-73200110D01*
X153125022Y-73180658D01*
X153121014Y-73161306D01*
X153119468Y-73149068D01*
X153119467Y-73149066D01*
X153118474Y-73141203D01*
X153102194Y-73100086D01*
X153098359Y-73088885D01*
X153086018Y-73046406D01*
X153081985Y-73039587D01*
X153081983Y-73039582D01*
X153075707Y-73028971D01*
X153067010Y-73011221D01*
X153059552Y-72992383D01*
X153046923Y-72975000D01*
X153037004Y-72961349D01*
X153033571Y-72956623D01*
X153027053Y-72946701D01*
X153008578Y-72915460D01*
X153008574Y-72915455D01*
X153004542Y-72908637D01*
X152990218Y-72894313D01*
X152977376Y-72879278D01*
X152965472Y-72862893D01*
X152931406Y-72834711D01*
X152922627Y-72826722D01*
X152603652Y-72507747D01*
X152596112Y-72499461D01*
X152592000Y-72492982D01*
X152542348Y-72446356D01*
X152539507Y-72443602D01*
X152519770Y-72423865D01*
X152516573Y-72421385D01*
X152507551Y-72413680D01*
X152481100Y-72388841D01*
X152475321Y-72383414D01*
X152458445Y-72374136D01*
X152425512Y-72348032D01*
X152315675Y-72226045D01*
X152315674Y-72226044D01*
X152311253Y-72221134D01*
X152156752Y-72108882D01*
X152150724Y-72106198D01*
X152150722Y-72106197D01*
X151988319Y-72033891D01*
X151988318Y-72033891D01*
X151982288Y-72031206D01*
X151888888Y-72011353D01*
X151801944Y-71992872D01*
X151801939Y-71992872D01*
X151795487Y-71991500D01*
X151604513Y-71991500D01*
X151598061Y-71992872D01*
X151598056Y-71992872D01*
X151511112Y-72011353D01*
X151417712Y-72031206D01*
X151411682Y-72033891D01*
X151411681Y-72033891D01*
X151249278Y-72106197D01*
X151249276Y-72106198D01*
X151243248Y-72108882D01*
X151088747Y-72221134D01*
X151084326Y-72226044D01*
X151084325Y-72226045D01*
X150966805Y-72356565D01*
X150960960Y-72363056D01*
X150865473Y-72528444D01*
X150806458Y-72710072D01*
X150805768Y-72716633D01*
X150805768Y-72716635D01*
X150800343Y-72768255D01*
X150786496Y-72900000D01*
X150787186Y-72906565D01*
X150804235Y-73068774D01*
X150806458Y-73089928D01*
X150865473Y-73271556D01*
X150868776Y-73277278D01*
X150868777Y-73277279D01*
X150886803Y-73308500D01*
X150960960Y-73436944D01*
X150965378Y-73441851D01*
X150965379Y-73441852D01*
X151084325Y-73573955D01*
X151088747Y-73578866D01*
X151126871Y-73606565D01*
X151183989Y-73648064D01*
X151227343Y-73704287D01*
X151233418Y-73775023D01*
X151200286Y-73837815D01*
X151183989Y-73851936D01*
X151161885Y-73867996D01*
X151088747Y-73921134D01*
X151084326Y-73926044D01*
X151084325Y-73926045D01*
X151045881Y-73968742D01*
X150960960Y-74063056D01*
X150865473Y-74228444D01*
X150806458Y-74410072D01*
X150805768Y-74416633D01*
X150805768Y-74416635D01*
X150795948Y-74510072D01*
X150786496Y-74600000D01*
X150787186Y-74606565D01*
X150805163Y-74777603D01*
X150806458Y-74789928D01*
X150865473Y-74971556D01*
X150960960Y-75136944D01*
X151034137Y-75218215D01*
X151064853Y-75282221D01*
X151066500Y-75302524D01*
X151066500Y-81121233D01*
X151065973Y-81132416D01*
X151064298Y-81139909D01*
X151064547Y-81147835D01*
X151064547Y-81147836D01*
X151066438Y-81207986D01*
X151066500Y-81211945D01*
X151066500Y-81239856D01*
X151066997Y-81243790D01*
X151066997Y-81243791D01*
X151067005Y-81243856D01*
X151067938Y-81255693D01*
X151069327Y-81299889D01*
X151074660Y-81318246D01*
X151074978Y-81319339D01*
X151078987Y-81338700D01*
X151081526Y-81358797D01*
X151084445Y-81366168D01*
X151084445Y-81366170D01*
X151097804Y-81399912D01*
X151101649Y-81411142D01*
X151113982Y-81453593D01*
X151118015Y-81460412D01*
X151118017Y-81460417D01*
X151124293Y-81471028D01*
X151132988Y-81488776D01*
X151140448Y-81507617D01*
X151145110Y-81514033D01*
X151145110Y-81514034D01*
X151166436Y-81543387D01*
X151172952Y-81553307D01*
X151195458Y-81591362D01*
X151209779Y-81605683D01*
X151222619Y-81620716D01*
X151234528Y-81637107D01*
X151240634Y-81642158D01*
X151268605Y-81665298D01*
X151277384Y-81673288D01*
X151321399Y-81717303D01*
X151355425Y-81779615D01*
X151350360Y-81850430D01*
X151306365Y-81908334D01*
X151288747Y-81921134D01*
X151160960Y-82063056D01*
X151065473Y-82228444D01*
X151006458Y-82410072D01*
X151005768Y-82416633D01*
X151005768Y-82416635D01*
X150995036Y-82518742D01*
X150986496Y-82600000D01*
X151006458Y-82789928D01*
X151065473Y-82971556D01*
X151160960Y-83136944D01*
X151165378Y-83141851D01*
X151165379Y-83141852D01*
X151256338Y-83242872D01*
X151288747Y-83278866D01*
X151443248Y-83391118D01*
X151449276Y-83393802D01*
X151449278Y-83393803D01*
X151611681Y-83466109D01*
X151617712Y-83468794D01*
X151711112Y-83488647D01*
X151798056Y-83507128D01*
X151798061Y-83507128D01*
X151804513Y-83508500D01*
X151995487Y-83508500D01*
X152001940Y-83507128D01*
X152001953Y-83507127D01*
X152166511Y-83472148D01*
X152237301Y-83477549D01*
X152281803Y-83506299D01*
X154377399Y-85601895D01*
X154411425Y-85664207D01*
X154406360Y-85735022D01*
X154363813Y-85791858D01*
X154297293Y-85816669D01*
X154288304Y-85816990D01*
X152346489Y-85816990D01*
X152278368Y-85796988D01*
X152272428Y-85792926D01*
X152162094Y-85712763D01*
X152162093Y-85712762D01*
X152156752Y-85708882D01*
X152150724Y-85706198D01*
X152150722Y-85706197D01*
X151988319Y-85633891D01*
X151988318Y-85633891D01*
X151982288Y-85631206D01*
X151888887Y-85611353D01*
X151801944Y-85592872D01*
X151801939Y-85592872D01*
X151795487Y-85591500D01*
X151604513Y-85591500D01*
X151598061Y-85592872D01*
X151598056Y-85592872D01*
X151511113Y-85611353D01*
X151417712Y-85631206D01*
X151411682Y-85633891D01*
X151411681Y-85633891D01*
X151249278Y-85706197D01*
X151249276Y-85706198D01*
X151243248Y-85708882D01*
X151237907Y-85712762D01*
X151237906Y-85712763D01*
X151187843Y-85749136D01*
X151088747Y-85821134D01*
X150960960Y-85963056D01*
X150938706Y-86001601D01*
X150882820Y-86098399D01*
X150865473Y-86128444D01*
X150806458Y-86310072D01*
X150786496Y-86500000D01*
X150787186Y-86506565D01*
X150798055Y-86609974D01*
X150806458Y-86689928D01*
X150865473Y-86871556D01*
X150960960Y-87036944D01*
X150965378Y-87041851D01*
X150965379Y-87041852D01*
X151031640Y-87115442D01*
X151088747Y-87178866D01*
X151243248Y-87291118D01*
X151249276Y-87293802D01*
X151249278Y-87293803D01*
X151411681Y-87366109D01*
X151417712Y-87368794D01*
X151424167Y-87370166D01*
X151424176Y-87370169D01*
X151452639Y-87376219D01*
X151515112Y-87409947D01*
X151549433Y-87472097D01*
X151544705Y-87542936D01*
X151515538Y-87588558D01*
X150723593Y-88380502D01*
X150661283Y-88414526D01*
X150590467Y-88409461D01*
X150533632Y-88366914D01*
X150508821Y-88300394D01*
X150508500Y-88291405D01*
X150508500Y-62817399D01*
X152999712Y-62817399D01*
X153021194Y-62906537D01*
X153025083Y-62917832D01*
X153107629Y-63099382D01*
X153113576Y-63109724D01*
X153228968Y-63272397D01*
X153236761Y-63281425D01*
X153380831Y-63419342D01*
X153390196Y-63426738D01*
X153557741Y-63534921D01*
X153568345Y-63540417D01*
X153753312Y-63614961D01*
X153764770Y-63618355D01*
X153961928Y-63656857D01*
X153970791Y-63657934D01*
X153973500Y-63658000D01*
X154077885Y-63658000D01*
X154093124Y-63653525D01*
X154094329Y-63652135D01*
X154096000Y-63644452D01*
X154096000Y-63639885D01*
X154604000Y-63639885D01*
X154608475Y-63655124D01*
X154609865Y-63656329D01*
X154617548Y-63658000D01*
X154674832Y-63658000D01*
X154680808Y-63657715D01*
X154829494Y-63643529D01*
X154841228Y-63641270D01*
X155032599Y-63585128D01*
X155043675Y-63580698D01*
X155220978Y-63489381D01*
X155231024Y-63482931D01*
X155387857Y-63359738D01*
X155396506Y-63351501D01*
X155527212Y-63200877D01*
X155534147Y-63191153D01*
X155634010Y-63018533D01*
X155638984Y-63007669D01*
X155704407Y-62819273D01*
X155704648Y-62818284D01*
X155703180Y-62807992D01*
X155689615Y-62804000D01*
X154622115Y-62804000D01*
X154606876Y-62808475D01*
X154605671Y-62809865D01*
X154604000Y-62817548D01*
X154604000Y-63639885D01*
X154096000Y-63639885D01*
X154096000Y-62822115D01*
X154091525Y-62806876D01*
X154090135Y-62805671D01*
X154082452Y-62804000D01*
X153014598Y-62804000D01*
X153001067Y-62807973D01*
X152999712Y-62817399D01*
X150508500Y-62817399D01*
X150508500Y-60950400D01*
X152966500Y-60950400D01*
X152966837Y-60953646D01*
X152966837Y-60953650D01*
X152973574Y-61018575D01*
X152977474Y-61056166D01*
X152979655Y-61062702D01*
X152979655Y-61062704D01*
X152995050Y-61108847D01*
X153033450Y-61223946D01*
X153126522Y-61374348D01*
X153251697Y-61499305D01*
X153257929Y-61503147D01*
X153257931Y-61503148D01*
X153303690Y-61531355D01*
X153351183Y-61584127D01*
X153362605Y-61654199D01*
X153334331Y-61719323D01*
X153315403Y-61737702D01*
X153312144Y-61740262D01*
X153303494Y-61748499D01*
X153172788Y-61899123D01*
X153165853Y-61908847D01*
X153065990Y-62081467D01*
X153061016Y-62092331D01*
X152995593Y-62280727D01*
X152995352Y-62281716D01*
X152996820Y-62292008D01*
X153010385Y-62296000D01*
X155685402Y-62296000D01*
X155698933Y-62292027D01*
X155700288Y-62282601D01*
X155678806Y-62193463D01*
X155674917Y-62182168D01*
X155592371Y-62000618D01*
X155586424Y-61990276D01*
X155471032Y-61827603D01*
X155463239Y-61818575D01*
X155372243Y-61731465D01*
X155336867Y-61669910D01*
X155340386Y-61599000D01*
X155381683Y-61541250D01*
X155393053Y-61533315D01*
X155449348Y-61498478D01*
X155574305Y-61373303D01*
X155667115Y-61222738D01*
X155722797Y-61054861D01*
X155733500Y-60950400D01*
X155733500Y-60149600D01*
X155727690Y-60093603D01*
X155723238Y-60050692D01*
X155723237Y-60050688D01*
X155722526Y-60043834D01*
X155710502Y-60007792D01*
X155668868Y-59883002D01*
X155666550Y-59876054D01*
X155573478Y-59725652D01*
X155448303Y-59600695D01*
X155442072Y-59596854D01*
X155303968Y-59511725D01*
X155303966Y-59511724D01*
X155297738Y-59507885D01*
X155137254Y-59454655D01*
X155136389Y-59454368D01*
X155136387Y-59454368D01*
X155129861Y-59452203D01*
X155123025Y-59451503D01*
X155123022Y-59451502D01*
X155079969Y-59447091D01*
X155025400Y-59441500D01*
X153674600Y-59441500D01*
X153671354Y-59441837D01*
X153671350Y-59441837D01*
X153575692Y-59451762D01*
X153575688Y-59451763D01*
X153568834Y-59452474D01*
X153562298Y-59454655D01*
X153562296Y-59454655D01*
X153484509Y-59480607D01*
X153401054Y-59508450D01*
X153250652Y-59601522D01*
X153125695Y-59726697D01*
X153032885Y-59877262D01*
X153017204Y-59924538D01*
X152985743Y-60019393D01*
X152977203Y-60045139D01*
X152976503Y-60051975D01*
X152976502Y-60051978D01*
X152972920Y-60086944D01*
X152966500Y-60149600D01*
X152966500Y-60950400D01*
X150508500Y-60950400D01*
X150508500Y-55994669D01*
X164812001Y-55994669D01*
X164812371Y-56001490D01*
X164817895Y-56052352D01*
X164821521Y-56067604D01*
X164866676Y-56188054D01*
X164875214Y-56203649D01*
X164951715Y-56305724D01*
X164964276Y-56318285D01*
X165066351Y-56394786D01*
X165081946Y-56403324D01*
X165202394Y-56448478D01*
X165217649Y-56452105D01*
X165268514Y-56457631D01*
X165275328Y-56458000D01*
X165897885Y-56458000D01*
X165913124Y-56453525D01*
X165914329Y-56452135D01*
X165916000Y-56444452D01*
X165916000Y-55372115D01*
X165911525Y-55356876D01*
X165910135Y-55355671D01*
X165902452Y-55354000D01*
X164830116Y-55354000D01*
X164814877Y-55358475D01*
X164813672Y-55359865D01*
X164812001Y-55367548D01*
X164812001Y-55994669D01*
X150508500Y-55994669D01*
X150508500Y-54827885D01*
X164812000Y-54827885D01*
X164816475Y-54843124D01*
X164817865Y-54844329D01*
X164825548Y-54846000D01*
X165897885Y-54846000D01*
X165913124Y-54841525D01*
X165914329Y-54840135D01*
X165916000Y-54832452D01*
X165916000Y-52832115D01*
X165911525Y-52816876D01*
X165910135Y-52815671D01*
X165902452Y-52814000D01*
X164853225Y-52814000D01*
X164839694Y-52817973D01*
X164838257Y-52827966D01*
X164868565Y-52962446D01*
X164871645Y-52972275D01*
X164951770Y-53169603D01*
X164956413Y-53178794D01*
X165067694Y-53360388D01*
X165073777Y-53368699D01*
X165213213Y-53529667D01*
X165220578Y-53536881D01*
X165225966Y-53541354D01*
X165265599Y-53600258D01*
X165267095Y-53671239D01*
X165229978Y-53731761D01*
X165189707Y-53756278D01*
X165081948Y-53796675D01*
X165066351Y-53805214D01*
X164964276Y-53881715D01*
X164951715Y-53894276D01*
X164875214Y-53996351D01*
X164866676Y-54011946D01*
X164821522Y-54132394D01*
X164817895Y-54147649D01*
X164812369Y-54198514D01*
X164812000Y-54205328D01*
X164812000Y-54827885D01*
X150508500Y-54827885D01*
X150508500Y-52294183D01*
X164834389Y-52294183D01*
X164835912Y-52302607D01*
X164848292Y-52306000D01*
X165897885Y-52306000D01*
X165913124Y-52301525D01*
X165914329Y-52300135D01*
X165916000Y-52292452D01*
X165916000Y-51243102D01*
X165912082Y-51229758D01*
X165897806Y-51227771D01*
X165859324Y-51233660D01*
X165849288Y-51236051D01*
X165646868Y-51302212D01*
X165637359Y-51306209D01*
X165448463Y-51404542D01*
X165439738Y-51410036D01*
X165269433Y-51537905D01*
X165261726Y-51544748D01*
X165114590Y-51698717D01*
X165108104Y-51706727D01*
X164988098Y-51882649D01*
X164983000Y-51891623D01*
X164893338Y-52084783D01*
X164889775Y-52094470D01*
X164834389Y-52294183D01*
X150508500Y-52294183D01*
X150508500Y-48450000D01*
X164336496Y-48450000D01*
X164356458Y-48639928D01*
X164415473Y-48821556D01*
X164510960Y-48986944D01*
X164638747Y-49128866D01*
X164649062Y-49136360D01*
X164779548Y-49231164D01*
X164793248Y-49241118D01*
X164799276Y-49243802D01*
X164799278Y-49243803D01*
X164958366Y-49314633D01*
X164967712Y-49318794D01*
X165061112Y-49338647D01*
X165148056Y-49357128D01*
X165148061Y-49357128D01*
X165154513Y-49358500D01*
X165345487Y-49358500D01*
X165351939Y-49357128D01*
X165351944Y-49357128D01*
X165438888Y-49338647D01*
X165532288Y-49318794D01*
X165541634Y-49314633D01*
X165700722Y-49243803D01*
X165700724Y-49243802D01*
X165706752Y-49241118D01*
X165718870Y-49232314D01*
X165850939Y-49136360D01*
X165917807Y-49112501D01*
X165986958Y-49128582D01*
X165999061Y-49136360D01*
X166131130Y-49232314D01*
X166143248Y-49241118D01*
X166149276Y-49243802D01*
X166149278Y-49243803D01*
X166308366Y-49314633D01*
X166317712Y-49318794D01*
X166411112Y-49338647D01*
X166498056Y-49357128D01*
X166498061Y-49357128D01*
X166504513Y-49358500D01*
X166695487Y-49358500D01*
X166701939Y-49357128D01*
X166701944Y-49357128D01*
X166788888Y-49338647D01*
X166882288Y-49318794D01*
X166891634Y-49314633D01*
X167050722Y-49243803D01*
X167050724Y-49243802D01*
X167056752Y-49241118D01*
X167070453Y-49231164D01*
X167200938Y-49136360D01*
X167211253Y-49128866D01*
X167339040Y-48986944D01*
X167434527Y-48821556D01*
X167493542Y-48639928D01*
X167513504Y-48450000D01*
X167493542Y-48260072D01*
X167434527Y-48078444D01*
X167339040Y-47913056D01*
X167334621Y-47908148D01*
X167332564Y-47905317D01*
X167308705Y-47838449D01*
X167308500Y-47831256D01*
X167308500Y-45668744D01*
X167328502Y-45600623D01*
X167332564Y-45594683D01*
X167334621Y-45591852D01*
X167339040Y-45586944D01*
X167360831Y-45549201D01*
X167431223Y-45427279D01*
X167431224Y-45427278D01*
X167434527Y-45421556D01*
X167493542Y-45239928D01*
X167495518Y-45221134D01*
X167512814Y-45056565D01*
X167513504Y-45050000D01*
X167511529Y-45031206D01*
X167494232Y-44866635D01*
X167494232Y-44866633D01*
X167493542Y-44860072D01*
X167434527Y-44678444D01*
X167339040Y-44513056D01*
X167311771Y-44482770D01*
X167215675Y-44376045D01*
X167215674Y-44376044D01*
X167211253Y-44371134D01*
X167056752Y-44258882D01*
X167050724Y-44256198D01*
X167050722Y-44256197D01*
X166888319Y-44183891D01*
X166888318Y-44183891D01*
X166882288Y-44181206D01*
X166788887Y-44161353D01*
X166701944Y-44142872D01*
X166701939Y-44142872D01*
X166695487Y-44141500D01*
X166504513Y-44141500D01*
X166498061Y-44142872D01*
X166498056Y-44142872D01*
X166411113Y-44161353D01*
X166317712Y-44181206D01*
X166311682Y-44183891D01*
X166311681Y-44183891D01*
X166149278Y-44256197D01*
X166149276Y-44256198D01*
X166143248Y-44258882D01*
X165988747Y-44371134D01*
X165984326Y-44376044D01*
X165984325Y-44376045D01*
X165888230Y-44482770D01*
X165860960Y-44513056D01*
X165765473Y-44678444D01*
X165706458Y-44860072D01*
X165705768Y-44866633D01*
X165705768Y-44866635D01*
X165699504Y-44926235D01*
X165672491Y-44991892D01*
X165614269Y-45032521D01*
X165543324Y-45035224D01*
X165537609Y-45033575D01*
X165532288Y-45031206D01*
X165463262Y-45016534D01*
X165351944Y-44992872D01*
X165351939Y-44992872D01*
X165345487Y-44991500D01*
X165154513Y-44991500D01*
X165148061Y-44992872D01*
X165148056Y-44992872D01*
X165061112Y-45011353D01*
X164967712Y-45031206D01*
X164961682Y-45033891D01*
X164961681Y-45033891D01*
X164799278Y-45106197D01*
X164799276Y-45106198D01*
X164793248Y-45108882D01*
X164638747Y-45221134D01*
X164510960Y-45363056D01*
X164501099Y-45380136D01*
X164429913Y-45503434D01*
X164415473Y-45528444D01*
X164356458Y-45710072D01*
X164355768Y-45716633D01*
X164355768Y-45716635D01*
X164354807Y-45725782D01*
X164336496Y-45900000D01*
X164337186Y-45906565D01*
X164353996Y-46066500D01*
X164356458Y-46089928D01*
X164415473Y-46271556D01*
X164418776Y-46277278D01*
X164418777Y-46277279D01*
X164507658Y-46431225D01*
X164510960Y-46436944D01*
X164515379Y-46441852D01*
X164517436Y-46444683D01*
X164541295Y-46511551D01*
X164541500Y-46518744D01*
X164541500Y-47831256D01*
X164521498Y-47899377D01*
X164517436Y-47905317D01*
X164515379Y-47908148D01*
X164510960Y-47913056D01*
X164415473Y-48078444D01*
X164356458Y-48260072D01*
X164336496Y-48450000D01*
X150508500Y-48450000D01*
X150508500Y-40634500D01*
X150528502Y-40566379D01*
X150582158Y-40519886D01*
X150634500Y-40508500D01*
X152532606Y-40508500D01*
X152600727Y-40528502D01*
X152647220Y-40582158D01*
X152657324Y-40652432D01*
X152641725Y-40697500D01*
X152602201Y-40765958D01*
X152593202Y-40781544D01*
X152534187Y-40963172D01*
X152533497Y-40969733D01*
X152533497Y-40969735D01*
X152523521Y-41064651D01*
X152514225Y-41153100D01*
X152534187Y-41343028D01*
X152593202Y-41524656D01*
X152596505Y-41530378D01*
X152596506Y-41530379D01*
X152598534Y-41533891D01*
X152688689Y-41690044D01*
X152693107Y-41694951D01*
X152693108Y-41694952D01*
X152775938Y-41786944D01*
X152816476Y-41831966D01*
X152970977Y-41944218D01*
X152977005Y-41946902D01*
X152977007Y-41946903D01*
X153139410Y-42019209D01*
X153145441Y-42021894D01*
X153225989Y-42039015D01*
X153325785Y-42060228D01*
X153325790Y-42060228D01*
X153332242Y-42061600D01*
X153523216Y-42061600D01*
X153529669Y-42060228D01*
X153529673Y-42060228D01*
X153606427Y-42043913D01*
X153627030Y-42039534D01*
X153651584Y-42037343D01*
X153654092Y-42037740D01*
X153661984Y-42036994D01*
X153661985Y-42036994D01*
X153698110Y-42033579D01*
X153709968Y-42033020D01*
X154566510Y-42033020D01*
X154634631Y-42053022D01*
X154681124Y-42106678D01*
X154691820Y-42145849D01*
X154705364Y-42274712D01*
X154763818Y-42446421D01*
X154767512Y-42452425D01*
X154852105Y-42589928D01*
X154858862Y-42600912D01*
X154863793Y-42605947D01*
X154863795Y-42605950D01*
X154980843Y-42725475D01*
X154985771Y-42730507D01*
X155138238Y-42828765D01*
X155144858Y-42831174D01*
X155144861Y-42831176D01*
X155302066Y-42888394D01*
X155308685Y-42890803D01*
X155448769Y-42908500D01*
X155545610Y-42908500D01*
X155680255Y-42893397D01*
X155694622Y-42888394D01*
X155844894Y-42836064D01*
X155844897Y-42836062D01*
X155851552Y-42833745D01*
X155859522Y-42828765D01*
X155999402Y-42741359D01*
X156005376Y-42737626D01*
X156012545Y-42730507D01*
X156129085Y-42614778D01*
X156129088Y-42614774D01*
X156134082Y-42609815D01*
X156231273Y-42456666D01*
X156251451Y-42400000D01*
X156289757Y-42292425D01*
X156289758Y-42292420D01*
X156292119Y-42285790D01*
X156294275Y-42267712D01*
X156309015Y-42144101D01*
X156336943Y-42078827D01*
X156395726Y-42039015D01*
X156434129Y-42033020D01*
X158065979Y-42033020D01*
X158134100Y-42053022D01*
X158180593Y-42106678D01*
X158191979Y-42159020D01*
X158191979Y-43984157D01*
X158171977Y-44052278D01*
X158118321Y-44098771D01*
X158048047Y-44108875D01*
X158034644Y-44106198D01*
X158015439Y-44101267D01*
X157996734Y-44094863D01*
X157985420Y-44089967D01*
X157985419Y-44089967D01*
X157978145Y-44086819D01*
X157970322Y-44085580D01*
X157970312Y-44085577D01*
X157934476Y-44079901D01*
X157922856Y-44077495D01*
X157887711Y-44068472D01*
X157887710Y-44068472D01*
X157880030Y-44066500D01*
X157859776Y-44066500D01*
X157840065Y-44064949D01*
X157837534Y-44064548D01*
X157820057Y-44061780D01*
X157812165Y-44062526D01*
X157776039Y-44065941D01*
X157764181Y-44066500D01*
X157378763Y-44066500D01*
X157367579Y-44065973D01*
X157360091Y-44064299D01*
X157352168Y-44064548D01*
X157292033Y-44066438D01*
X157288075Y-44066500D01*
X157260144Y-44066500D01*
X157256229Y-44066995D01*
X157256225Y-44066995D01*
X157256167Y-44067003D01*
X157256138Y-44067006D01*
X157244296Y-44067939D01*
X157200110Y-44069327D01*
X157182744Y-44074372D01*
X157180658Y-44074978D01*
X157161306Y-44078986D01*
X157149068Y-44080532D01*
X157149066Y-44080533D01*
X157141203Y-44081526D01*
X157100086Y-44097806D01*
X157088885Y-44101641D01*
X157046406Y-44113982D01*
X157039587Y-44118015D01*
X157039582Y-44118017D01*
X157028971Y-44124293D01*
X157011221Y-44132990D01*
X156992383Y-44140448D01*
X156985967Y-44145109D01*
X156985966Y-44145110D01*
X156956625Y-44166428D01*
X156946701Y-44172947D01*
X156915460Y-44191422D01*
X156915455Y-44191426D01*
X156908637Y-44195458D01*
X156894313Y-44209782D01*
X156879281Y-44222621D01*
X156862893Y-44234528D01*
X156844967Y-44256197D01*
X156834712Y-44268593D01*
X156826722Y-44277373D01*
X156787075Y-44317020D01*
X156724763Y-44351046D01*
X156653948Y-44345981D01*
X156646759Y-44343043D01*
X156584077Y-44315136D01*
X156518241Y-44301142D01*
X156403733Y-44276802D01*
X156403728Y-44276802D01*
X156397276Y-44275430D01*
X156206302Y-44275430D01*
X156199850Y-44276802D01*
X156199845Y-44276802D01*
X156112901Y-44295283D01*
X156019501Y-44315136D01*
X156013471Y-44317821D01*
X156013470Y-44317821D01*
X155851067Y-44390127D01*
X155851065Y-44390128D01*
X155845037Y-44392812D01*
X155690536Y-44505064D01*
X155562749Y-44646986D01*
X155467262Y-44812374D01*
X155408247Y-44994002D01*
X155407557Y-45000563D01*
X155407557Y-45000565D01*
X155403914Y-45035224D01*
X155388285Y-45183930D01*
X155388975Y-45190495D01*
X155407112Y-45363056D01*
X155408247Y-45373858D01*
X155467262Y-45555486D01*
X155470565Y-45561208D01*
X155470566Y-45561209D01*
X155482122Y-45581225D01*
X155562749Y-45720874D01*
X155690536Y-45862796D01*
X155845037Y-45975048D01*
X155851065Y-45977732D01*
X155851067Y-45977733D01*
X156002882Y-46045325D01*
X156019501Y-46052724D01*
X156084312Y-46066500D01*
X156199845Y-46091058D01*
X156199850Y-46091058D01*
X156206302Y-46092430D01*
X156397276Y-46092430D01*
X156403728Y-46091058D01*
X156403733Y-46091058D01*
X156519266Y-46066500D01*
X156584077Y-46052724D01*
X156717730Y-45993218D01*
X156788097Y-45983784D01*
X156852394Y-46013890D01*
X156878097Y-46045323D01*
X156923661Y-46124243D01*
X157051448Y-46266165D01*
X157205949Y-46378417D01*
X157211977Y-46381101D01*
X157211979Y-46381102D01*
X157374382Y-46453408D01*
X157380413Y-46456093D01*
X157473814Y-46475946D01*
X157560757Y-46494427D01*
X157560762Y-46494427D01*
X157567214Y-46495799D01*
X157647705Y-46495799D01*
X157715826Y-46515801D01*
X157736800Y-46532704D01*
X158652878Y-47448782D01*
X158686904Y-47511094D01*
X158689092Y-47524703D01*
X158693871Y-47570166D01*
X158701193Y-47639830D01*
X158706458Y-47689928D01*
X158765473Y-47871556D01*
X158860960Y-48036944D01*
X158988747Y-48178866D01*
X159143248Y-48291118D01*
X159149276Y-48293802D01*
X159149278Y-48293803D01*
X159311681Y-48366109D01*
X159317712Y-48368794D01*
X159411113Y-48388647D01*
X159498056Y-48407128D01*
X159498061Y-48407128D01*
X159504513Y-48408500D01*
X159695487Y-48408500D01*
X159701939Y-48407128D01*
X159701944Y-48407128D01*
X159788887Y-48388647D01*
X159882288Y-48368794D01*
X159888319Y-48366109D01*
X160050722Y-48293803D01*
X160050724Y-48293802D01*
X160056752Y-48291118D01*
X160211253Y-48178866D01*
X160339040Y-48036944D01*
X160434527Y-47871556D01*
X160493542Y-47689928D01*
X160496391Y-47690854D01*
X160523998Y-47639830D01*
X160586180Y-47605566D01*
X160639628Y-47605336D01*
X160654513Y-47608500D01*
X160845487Y-47608500D01*
X160851939Y-47607128D01*
X160851944Y-47607128D01*
X160938888Y-47588647D01*
X161032288Y-47568794D01*
X161131310Y-47524707D01*
X161200722Y-47493803D01*
X161200724Y-47493802D01*
X161206752Y-47491118D01*
X161361253Y-47378866D01*
X161489040Y-47236944D01*
X161584527Y-47071556D01*
X161643542Y-46889928D01*
X161663504Y-46700000D01*
X161645921Y-46532704D01*
X161644232Y-46516635D01*
X161644232Y-46516633D01*
X161643542Y-46510072D01*
X161584527Y-46328444D01*
X161489040Y-46163056D01*
X161361253Y-46021134D01*
X161262157Y-45949136D01*
X161212094Y-45912763D01*
X161212093Y-45912762D01*
X161206752Y-45908882D01*
X161200724Y-45906198D01*
X161200722Y-45906197D01*
X161038319Y-45833891D01*
X161038318Y-45833891D01*
X161032288Y-45831206D01*
X160938888Y-45811353D01*
X160851944Y-45792872D01*
X160851939Y-45792872D01*
X160845487Y-45791500D01*
X160654513Y-45791500D01*
X160648061Y-45792872D01*
X160648056Y-45792872D01*
X160561112Y-45811353D01*
X160467712Y-45831206D01*
X160461682Y-45833891D01*
X160461681Y-45833891D01*
X160299278Y-45906197D01*
X160299276Y-45906198D01*
X160293248Y-45908882D01*
X160287907Y-45912762D01*
X160287906Y-45912763D01*
X160155315Y-46009096D01*
X160088447Y-46032955D01*
X160019296Y-46016874D01*
X159992159Y-45996255D01*
X159561650Y-45565746D01*
X159527624Y-45503434D01*
X159532689Y-45432619D01*
X159576684Y-45374715D01*
X159608549Y-45351564D01*
X159703414Y-45246206D01*
X159731917Y-45214550D01*
X159731918Y-45214549D01*
X159736336Y-45209642D01*
X159831823Y-45044254D01*
X159890838Y-44862626D01*
X159910800Y-44672698D01*
X159894021Y-44513056D01*
X159891528Y-44489333D01*
X159891528Y-44489331D01*
X159890838Y-44482770D01*
X159831823Y-44301142D01*
X159736336Y-44135754D01*
X159726017Y-44124293D01*
X159612971Y-43998743D01*
X159612970Y-43998742D01*
X159608549Y-43993832D01*
X159510918Y-43922899D01*
X159467564Y-43866677D01*
X159458979Y-43820963D01*
X159458979Y-43030874D01*
X159478981Y-42962753D01*
X159532637Y-42916260D01*
X159570931Y-42905660D01*
X159680255Y-42893397D01*
X159694622Y-42888394D01*
X159844894Y-42836064D01*
X159844897Y-42836062D01*
X159851552Y-42833745D01*
X159859522Y-42828765D01*
X159999402Y-42741359D01*
X160005376Y-42737626D01*
X160012545Y-42730507D01*
X160129085Y-42614778D01*
X160129088Y-42614774D01*
X160134082Y-42609815D01*
X160231273Y-42456666D01*
X160251451Y-42400000D01*
X160269255Y-42350000D01*
X176486496Y-42350000D01*
X176506458Y-42539928D01*
X176565473Y-42721556D01*
X176660960Y-42886944D01*
X176665378Y-42891851D01*
X176665379Y-42891852D01*
X176705980Y-42936944D01*
X176788747Y-43028866D01*
X176943248Y-43141118D01*
X176949276Y-43143802D01*
X176949278Y-43143803D01*
X177046833Y-43187237D01*
X177117712Y-43218794D01*
X177211113Y-43238647D01*
X177298056Y-43257128D01*
X177298061Y-43257128D01*
X177304513Y-43258500D01*
X177495487Y-43258500D01*
X177501939Y-43257128D01*
X177501944Y-43257128D01*
X177588888Y-43238647D01*
X177682288Y-43218794D01*
X177753167Y-43187237D01*
X177850722Y-43143803D01*
X177850724Y-43143802D01*
X177856752Y-43141118D01*
X177937344Y-43082564D01*
X178004211Y-43058706D01*
X178011405Y-43058500D01*
X189869776Y-43058500D01*
X189937897Y-43078502D01*
X189943834Y-43082562D01*
X190093248Y-43191118D01*
X190099276Y-43193802D01*
X190099278Y-43193803D01*
X190244591Y-43258500D01*
X190267712Y-43268794D01*
X190361113Y-43288647D01*
X190448056Y-43307128D01*
X190448061Y-43307128D01*
X190454513Y-43308500D01*
X190645487Y-43308500D01*
X190651939Y-43307128D01*
X190651944Y-43307128D01*
X190738887Y-43288647D01*
X190832288Y-43268794D01*
X190855409Y-43258500D01*
X191000722Y-43193803D01*
X191000724Y-43193802D01*
X191006752Y-43191118D01*
X191161253Y-43078866D01*
X191210695Y-43023955D01*
X191284621Y-42941852D01*
X191284622Y-42941851D01*
X191289040Y-42936944D01*
X191384527Y-42771556D01*
X191443542Y-42589928D01*
X191456923Y-42462620D01*
X191462814Y-42406565D01*
X191463504Y-42400000D01*
X191451036Y-42281376D01*
X191444232Y-42216635D01*
X191444232Y-42216633D01*
X191443542Y-42210072D01*
X191384527Y-42028444D01*
X191380746Y-42021894D01*
X191292341Y-41868774D01*
X191289040Y-41863056D01*
X191261047Y-41831966D01*
X191165675Y-41726045D01*
X191165674Y-41726044D01*
X191161253Y-41721134D01*
X191024196Y-41621556D01*
X191012094Y-41612763D01*
X191012093Y-41612762D01*
X191006752Y-41608882D01*
X191000724Y-41606198D01*
X191000722Y-41606197D01*
X190838319Y-41533891D01*
X190838318Y-41533891D01*
X190832288Y-41531206D01*
X190738888Y-41511353D01*
X190651944Y-41492872D01*
X190651939Y-41492872D01*
X190645487Y-41491500D01*
X190454513Y-41491500D01*
X190448061Y-41492872D01*
X190448056Y-41492872D01*
X190361112Y-41511353D01*
X190267712Y-41531206D01*
X190261682Y-41533891D01*
X190261681Y-41533891D01*
X190099278Y-41606197D01*
X190099276Y-41606198D01*
X190093248Y-41608882D01*
X190087909Y-41612761D01*
X190087902Y-41612765D01*
X190081472Y-41617437D01*
X190007413Y-41641500D01*
X178011405Y-41641500D01*
X177943284Y-41621498D01*
X177937344Y-41617436D01*
X177862094Y-41562763D01*
X177862093Y-41562762D01*
X177856752Y-41558882D01*
X177850724Y-41556198D01*
X177850722Y-41556197D01*
X177688319Y-41483891D01*
X177688318Y-41483891D01*
X177682288Y-41481206D01*
X177588888Y-41461353D01*
X177501944Y-41442872D01*
X177501939Y-41442872D01*
X177495487Y-41441500D01*
X177304513Y-41441500D01*
X177298061Y-41442872D01*
X177298056Y-41442872D01*
X177211113Y-41461353D01*
X177117712Y-41481206D01*
X177111682Y-41483891D01*
X177111681Y-41483891D01*
X176949278Y-41556197D01*
X176949276Y-41556198D01*
X176943248Y-41558882D01*
X176788747Y-41671134D01*
X176660960Y-41813056D01*
X176565473Y-41978444D01*
X176506458Y-42160072D01*
X176486496Y-42350000D01*
X160269255Y-42350000D01*
X160289757Y-42292425D01*
X160289758Y-42292420D01*
X160292119Y-42285790D01*
X160294275Y-42267712D01*
X160309015Y-42144101D01*
X160336943Y-42078827D01*
X160395726Y-42039015D01*
X160434129Y-42033020D01*
X163498277Y-42033020D01*
X163549525Y-42043913D01*
X163717712Y-42118794D01*
X163811113Y-42138647D01*
X163898056Y-42157128D01*
X163898061Y-42157128D01*
X163904513Y-42158500D01*
X164095487Y-42158500D01*
X164101939Y-42157128D01*
X164101944Y-42157128D01*
X164188887Y-42138647D01*
X164282288Y-42118794D01*
X164288319Y-42116109D01*
X164450722Y-42043803D01*
X164450724Y-42043802D01*
X164456752Y-42041118D01*
X164463728Y-42036050D01*
X164586427Y-41946903D01*
X164611253Y-41928866D01*
X164739040Y-41786944D01*
X164834527Y-41621556D01*
X164893542Y-41439928D01*
X164903727Y-41343028D01*
X164912814Y-41256565D01*
X164913504Y-41250000D01*
X164902630Y-41146535D01*
X164894232Y-41066635D01*
X164894232Y-41066633D01*
X164893542Y-41060072D01*
X164834527Y-40878444D01*
X164775278Y-40775821D01*
X164742342Y-40718775D01*
X164742341Y-40718774D01*
X164739040Y-40713056D01*
X164734874Y-40708429D01*
X164711062Y-40641693D01*
X164727143Y-40572541D01*
X164778057Y-40523061D01*
X164836857Y-40508500D01*
X179991377Y-40508500D01*
X179992148Y-40508502D01*
X180069721Y-40508976D01*
X180098152Y-40500850D01*
X180114915Y-40497272D01*
X180115753Y-40497152D01*
X180144187Y-40493080D01*
X180167564Y-40482451D01*
X180185087Y-40476004D01*
X180209771Y-40468949D01*
X180217365Y-40464157D01*
X180217368Y-40464156D01*
X180234780Y-40453170D01*
X180249865Y-40445030D01*
X180276782Y-40432792D01*
X180296235Y-40416030D01*
X180311239Y-40404927D01*
X180332958Y-40391224D01*
X180338897Y-40384499D01*
X180338901Y-40384496D01*
X180352532Y-40369062D01*
X180364724Y-40357018D01*
X180380327Y-40343573D01*
X180380329Y-40343570D01*
X180387127Y-40337713D01*
X180401094Y-40316165D01*
X180412385Y-40301291D01*
X180423431Y-40288783D01*
X180423432Y-40288782D01*
X180429378Y-40282049D01*
X180441943Y-40255287D01*
X180450263Y-40240309D01*
X180461471Y-40223017D01*
X180461473Y-40223012D01*
X180466352Y-40215485D01*
X180468922Y-40206892D01*
X180468924Y-40206887D01*
X180473711Y-40190880D01*
X180480372Y-40173436D01*
X180487467Y-40158324D01*
X180487468Y-40158322D01*
X180491281Y-40150200D01*
X180495830Y-40120983D01*
X180499613Y-40104268D01*
X180505515Y-40084534D01*
X180505516Y-40084528D01*
X180508086Y-40075934D01*
X180508296Y-40041494D01*
X180508329Y-40040711D01*
X180508500Y-40039614D01*
X180508500Y-40008623D01*
X180508502Y-40007853D01*
X180508952Y-39934215D01*
X180508952Y-39934214D01*
X180508976Y-39930279D01*
X180508592Y-39928935D01*
X180508500Y-39927590D01*
X180508500Y-39134500D01*
X180528502Y-39066379D01*
X180582158Y-39019886D01*
X180634500Y-39008500D01*
X183597877Y-39008500D01*
X183665998Y-39028502D01*
G37*
%TD.AperFunction*%
%TA.AperFunction,Conductor*%
G36*
X159277241Y-39028502D02*
G01*
X159323734Y-39082158D01*
X159333838Y-39152432D01*
X159329222Y-39172598D01*
X159311548Y-39228314D01*
X159308998Y-39240309D01*
X159292393Y-39388350D01*
X159292000Y-39395374D01*
X159292000Y-39727885D01*
X159296475Y-39743124D01*
X159297865Y-39744329D01*
X159305548Y-39746000D01*
X160453000Y-39746000D01*
X160521121Y-39766002D01*
X160567614Y-39819658D01*
X160579000Y-39872000D01*
X160579000Y-40128000D01*
X160558998Y-40196121D01*
X160505342Y-40242614D01*
X160453000Y-40254000D01*
X159310115Y-40254000D01*
X159294876Y-40258475D01*
X159293671Y-40259865D01*
X159292000Y-40267548D01*
X159292000Y-40597890D01*
X159292300Y-40604038D01*
X159294623Y-40627725D01*
X159281363Y-40697472D01*
X159232501Y-40748979D01*
X159169224Y-40766020D01*
X158978287Y-40766020D01*
X158967104Y-40765493D01*
X158959611Y-40763818D01*
X158951685Y-40764067D01*
X158951684Y-40764067D01*
X158891521Y-40765958D01*
X158887563Y-40766020D01*
X155831216Y-40766020D01*
X155763095Y-40746018D01*
X155716602Y-40692362D01*
X155706001Y-40625978D01*
X155707607Y-40611658D01*
X155708000Y-40604626D01*
X155708000Y-40272115D01*
X155703525Y-40256876D01*
X155702135Y-40255671D01*
X155694452Y-40254000D01*
X154547000Y-40254000D01*
X154478879Y-40233998D01*
X154432386Y-40180342D01*
X154421000Y-40128000D01*
X154421000Y-39872000D01*
X154441002Y-39803879D01*
X154494658Y-39757386D01*
X154547000Y-39746000D01*
X155689885Y-39746000D01*
X155705124Y-39741525D01*
X155706329Y-39740135D01*
X155708000Y-39732452D01*
X155708000Y-39402110D01*
X155707700Y-39395965D01*
X155693830Y-39254519D01*
X155691448Y-39242488D01*
X155669840Y-39170917D01*
X155669300Y-39099923D01*
X155707228Y-39039906D01*
X155771583Y-39009923D01*
X155790463Y-39008500D01*
X159209120Y-39008500D01*
X159277241Y-39028502D01*
G37*
%TD.AperFunction*%
%TD*%
M02*
