%TF.GenerationSoftware,KiCad,Pcbnew,6.0.5+dfsg-1*%
%TF.CreationDate,2022-06-12T19:51:07+08:00*%
%TF.ProjectId,pbf-mainpcb,7062662d-6d61-4696-9e70-63622e6b6963,rev?*%
%TF.SameCoordinates,Original*%
%TF.FileFunction,Copper,L1,Top*%
%TF.FilePolarity,Positive*%
%FSLAX46Y46*%
G04 Gerber Fmt 4.6, Leading zero omitted, Abs format (unit mm)*
G04 Created by KiCad (PCBNEW 6.0.5+dfsg-1) date 2022-06-12 19:51:07*
%MOMM*%
%LPD*%
G01*
G04 APERTURE LIST*
G04 Aperture macros list*
%AMRoundRect*
0 Rectangle with rounded corners*
0 $1 Rounding radius*
0 $2 $3 $4 $5 $6 $7 $8 $9 X,Y pos of 4 corners*
0 Add a 4 corners polygon primitive as box body*
4,1,4,$2,$3,$4,$5,$6,$7,$8,$9,$2,$3,0*
0 Add four circle primitives for the rounded corners*
1,1,$1+$1,$2,$3*
1,1,$1+$1,$4,$5*
1,1,$1+$1,$6,$7*
1,1,$1+$1,$8,$9*
0 Add four rect primitives between the rounded corners*
20,1,$1+$1,$2,$3,$4,$5,0*
20,1,$1+$1,$4,$5,$6,$7,0*
20,1,$1+$1,$6,$7,$8,$9,0*
20,1,$1+$1,$8,$9,$2,$3,0*%
%AMFreePoly0*
4,1,9,3.862500,-0.866500,0.737500,-0.866500,0.737500,-0.450000,-0.737500,-0.450000,-0.737500,0.450000,0.737500,0.450000,0.737500,0.866500,3.862500,0.866500,3.862500,-0.866500,3.862500,-0.866500,$1*%
G04 Aperture macros list end*
%TA.AperFunction,SMDPad,CuDef*%
%ADD10RoundRect,0.200000X0.275000X-0.200000X0.275000X0.200000X-0.275000X0.200000X-0.275000X-0.200000X0*%
%TD*%
%TA.AperFunction,SMDPad,CuDef*%
%ADD11RoundRect,0.200000X-0.275000X0.200000X-0.275000X-0.200000X0.275000X-0.200000X0.275000X0.200000X0*%
%TD*%
%TA.AperFunction,SMDPad,CuDef*%
%ADD12RoundRect,0.200000X-0.200000X-0.275000X0.200000X-0.275000X0.200000X0.275000X-0.200000X0.275000X0*%
%TD*%
%TA.AperFunction,SMDPad,CuDef*%
%ADD13RoundRect,0.218750X0.256250X-0.218750X0.256250X0.218750X-0.256250X0.218750X-0.256250X-0.218750X0*%
%TD*%
%TA.AperFunction,SMDPad,CuDef*%
%ADD14RoundRect,0.150000X0.150000X-0.587500X0.150000X0.587500X-0.150000X0.587500X-0.150000X-0.587500X0*%
%TD*%
%TA.AperFunction,SMDPad,CuDef*%
%ADD15RoundRect,0.150000X-0.150000X0.675000X-0.150000X-0.675000X0.150000X-0.675000X0.150000X0.675000X0*%
%TD*%
%TA.AperFunction,SMDPad,CuDef*%
%ADD16RoundRect,0.250000X-0.250000X-0.475000X0.250000X-0.475000X0.250000X0.475000X-0.250000X0.475000X0*%
%TD*%
%TA.AperFunction,SMDPad,CuDef*%
%ADD17RoundRect,0.225000X0.225000X0.250000X-0.225000X0.250000X-0.225000X-0.250000X0.225000X-0.250000X0*%
%TD*%
%TA.AperFunction,ComponentPad*%
%ADD18RoundRect,0.250000X0.625000X-0.350000X0.625000X0.350000X-0.625000X0.350000X-0.625000X-0.350000X0*%
%TD*%
%TA.AperFunction,ComponentPad*%
%ADD19O,1.750000X1.200000*%
%TD*%
%TA.AperFunction,ComponentPad*%
%ADD20RoundRect,0.250000X-0.625000X0.350000X-0.625000X-0.350000X0.625000X-0.350000X0.625000X0.350000X0*%
%TD*%
%TA.AperFunction,SMDPad,CuDef*%
%ADD21RoundRect,0.250000X-0.475000X0.250000X-0.475000X-0.250000X0.475000X-0.250000X0.475000X0.250000X0*%
%TD*%
%TA.AperFunction,SMDPad,CuDef*%
%ADD22RoundRect,0.225000X0.250000X-0.225000X0.250000X0.225000X-0.250000X0.225000X-0.250000X-0.225000X0*%
%TD*%
%TA.AperFunction,SMDPad,CuDef*%
%ADD23R,1.000000X0.800000*%
%TD*%
%TA.AperFunction,SMDPad,CuDef*%
%ADD24R,0.700000X1.500000*%
%TD*%
%TA.AperFunction,SMDPad,CuDef*%
%ADD25RoundRect,0.250000X0.250000X0.475000X-0.250000X0.475000X-0.250000X-0.475000X0.250000X-0.475000X0*%
%TD*%
%TA.AperFunction,SMDPad,CuDef*%
%ADD26RoundRect,0.150000X-0.512500X-0.150000X0.512500X-0.150000X0.512500X0.150000X-0.512500X0.150000X0*%
%TD*%
%TA.AperFunction,SMDPad,CuDef*%
%ADD27RoundRect,0.250000X0.475000X-0.250000X0.475000X0.250000X-0.475000X0.250000X-0.475000X-0.250000X0*%
%TD*%
%TA.AperFunction,SMDPad,CuDef*%
%ADD28R,0.900000X1.200000*%
%TD*%
%TA.AperFunction,SMDPad,CuDef*%
%ADD29R,1.000000X1.000000*%
%TD*%
%TA.AperFunction,SMDPad,CuDef*%
%ADD30RoundRect,0.150000X0.512500X0.150000X-0.512500X0.150000X-0.512500X-0.150000X0.512500X-0.150000X0*%
%TD*%
%TA.AperFunction,SMDPad,CuDef*%
%ADD31RoundRect,0.225000X-0.225000X-0.250000X0.225000X-0.250000X0.225000X0.250000X-0.225000X0.250000X0*%
%TD*%
%TA.AperFunction,ComponentPad*%
%ADD32RoundRect,0.250000X0.600000X0.750000X-0.600000X0.750000X-0.600000X-0.750000X0.600000X-0.750000X0*%
%TD*%
%TA.AperFunction,ComponentPad*%
%ADD33O,1.700000X2.000000*%
%TD*%
%TA.AperFunction,ComponentPad*%
%ADD34R,1.700000X1.700000*%
%TD*%
%TA.AperFunction,ComponentPad*%
%ADD35O,1.700000X1.700000*%
%TD*%
%TA.AperFunction,SMDPad,CuDef*%
%ADD36R,1.500000X0.900000*%
%TD*%
%TA.AperFunction,SMDPad,CuDef*%
%ADD37R,0.900000X1.500000*%
%TD*%
%TA.AperFunction,SMDPad,CuDef*%
%ADD38R,0.900000X0.900000*%
%TD*%
%TA.AperFunction,SMDPad,CuDef*%
%ADD39R,0.400000X2.100000*%
%TD*%
%TA.AperFunction,SMDPad,CuDef*%
%ADD40R,1.900000X1.900000*%
%TD*%
%TA.AperFunction,SMDPad,CuDef*%
%ADD41R,1.500000X1.000000*%
%TD*%
%TA.AperFunction,ComponentPad*%
%ADD42O,1.050000X2.150000*%
%TD*%
%TA.AperFunction,SMDPad,CuDef*%
%ADD43RoundRect,0.225000X-0.250000X0.225000X-0.250000X-0.225000X0.250000X-0.225000X0.250000X0.225000X0*%
%TD*%
%TA.AperFunction,SMDPad,CuDef*%
%ADD44R,1.200000X0.900000*%
%TD*%
%TA.AperFunction,SMDPad,CuDef*%
%ADD45R,0.900000X1.300000*%
%TD*%
%TA.AperFunction,SMDPad,CuDef*%
%ADD46FreePoly0,90.000000*%
%TD*%
%TA.AperFunction,SMDPad,CuDef*%
%ADD47R,0.300000X1.100000*%
%TD*%
%TA.AperFunction,SMDPad,CuDef*%
%ADD48R,2.300000X3.100000*%
%TD*%
%TA.AperFunction,SMDPad,CuDef*%
%ADD49RoundRect,0.150000X0.150000X-0.675000X0.150000X0.675000X-0.150000X0.675000X-0.150000X-0.675000X0*%
%TD*%
%TA.AperFunction,SMDPad,CuDef*%
%ADD50RoundRect,0.075000X-0.350000X-0.075000X0.350000X-0.075000X0.350000X0.075000X-0.350000X0.075000X0*%
%TD*%
%TA.AperFunction,SMDPad,CuDef*%
%ADD51RoundRect,0.075000X0.075000X-0.350000X0.075000X0.350000X-0.075000X0.350000X-0.075000X-0.350000X0*%
%TD*%
%TA.AperFunction,SMDPad,CuDef*%
%ADD52RoundRect,0.250000X-0.375000X-0.850000X0.375000X-0.850000X0.375000X0.850000X-0.375000X0.850000X0*%
%TD*%
%TA.AperFunction,SMDPad,CuDef*%
%ADD53RoundRect,0.150000X0.150000X-0.825000X0.150000X0.825000X-0.150000X0.825000X-0.150000X-0.825000X0*%
%TD*%
%TA.AperFunction,SMDPad,CuDef*%
%ADD54R,3.000000X2.290000*%
%TD*%
%TA.AperFunction,SMDPad,CuDef*%
%ADD55RoundRect,0.100000X-0.100000X0.637500X-0.100000X-0.637500X0.100000X-0.637500X0.100000X0.637500X0*%
%TD*%
%TA.AperFunction,ViaPad*%
%ADD56C,0.800000*%
%TD*%
%TA.AperFunction,Conductor*%
%ADD57C,0.250000*%
%TD*%
%TA.AperFunction,Conductor*%
%ADD58C,0.400000*%
%TD*%
G04 APERTURE END LIST*
D10*
%TO.P,R6,1*%
%TO.N,+3V3*%
X157650000Y-63275000D03*
%TO.P,R6,2*%
%TO.N,Net-(C10-Pad1)*%
X157650000Y-61625000D03*
%TD*%
%TO.P,R2,1*%
%TO.N,Net-(C3-Pad1)*%
X190750000Y-76725000D03*
%TO.P,R2,2*%
%TO.N,Net-(R2-Pad2)*%
X190750000Y-75075000D03*
%TD*%
D11*
%TO.P,R7,1*%
%TO.N,Net-(C10-Pad2)*%
X159350000Y-61575000D03*
%TO.P,R7,2*%
%TO.N,GND*%
X159350000Y-63225000D03*
%TD*%
%TO.P,R3,1*%
%TO.N,Net-(D1-Pad1)*%
X162500000Y-44175000D03*
%TO.P,R3,2*%
%TO.N,Net-(R3-Pad2)*%
X162500000Y-45825000D03*
%TD*%
D12*
%TO.P,R5,1*%
%TO.N,Net-(R5-Pad1)*%
X155175000Y-55725000D03*
%TO.P,R5,2*%
%TO.N,GND*%
X156825000Y-55725000D03*
%TD*%
D13*
%TO.P,D2,1,K*%
%TO.N,Net-(D2-Pad1)*%
X152000000Y-42500000D03*
%TO.P,D2,2,A*%
%TO.N,Net-(C1-Pad1)*%
X152000000Y-40925000D03*
%TD*%
D10*
%TO.P,R17,1*%
%TO.N,+3V3*%
X153650000Y-105875000D03*
%TO.P,R17,2*%
%TO.N,SW_FLIPR*%
X153650000Y-104225000D03*
%TD*%
D14*
%TO.P,Q1,1,G*%
%TO.N,Net-(C1-Pad1)*%
X182750000Y-46637500D03*
%TO.P,Q1,2,S*%
%TO.N,Net-(D3-Pad1)*%
X184650000Y-46637500D03*
%TO.P,Q1,3,D*%
%TO.N,Net-(C8-Pad1)*%
X183700000Y-44762500D03*
%TD*%
D11*
%TO.P,R4,1*%
%TO.N,Net-(D2-Pad1)*%
X152000000Y-44175000D03*
%TO.P,R4,2*%
%TO.N,Net-(R4-Pad2)*%
X152000000Y-45825000D03*
%TD*%
D15*
%TO.P,U7,1,OUT1*%
%TO.N,Net-(J5-Pad5)*%
X155605000Y-71275000D03*
%TO.P,U7,2,VCC*%
%TO.N,VBAT*%
X154335000Y-71275000D03*
%TO.P,U7,3,VCC*%
X153065000Y-71275000D03*
%TO.P,U7,4,FIN*%
%TO.N,FIN_H*%
X151795000Y-71275000D03*
%TO.P,U7,5,RIN*%
%TO.N,RIN_H*%
X151795000Y-76525000D03*
%TO.P,U7,6,VREF*%
%TO.N,VBAT*%
X153065000Y-76525000D03*
%TO.P,U7,7,OUT2*%
%TO.N,Net-(J5-Pad4)*%
X154335000Y-76525000D03*
%TO.P,U7,8,GND*%
%TO.N,GND*%
X155605000Y-76525000D03*
%TD*%
D10*
%TO.P,R1,1*%
%TO.N,Net-(C1-Pad1)*%
X152100000Y-53800000D03*
%TO.P,R1,2*%
%TO.N,GND*%
X152100000Y-52150000D03*
%TD*%
D12*
%TO.P,R9,1*%
%TO.N,Net-(R8-Pad2)*%
X161375000Y-61650000D03*
%TO.P,R9,2*%
%TO.N,GND*%
X163025000Y-61650000D03*
%TD*%
D16*
%TO.P,C15,1*%
%TO.N,VBAT*%
X153450000Y-86900000D03*
%TO.P,C15,2*%
%TO.N,GND*%
X155350000Y-86900000D03*
%TD*%
D17*
%TO.P,C12,1*%
%TO.N,PLUNGER_ANA*%
X163375000Y-52525000D03*
%TO.P,C12,2*%
%TO.N,GND*%
X161825000Y-52525000D03*
%TD*%
D18*
%TO.P,J5,1,Pin_1*%
%TO.N,Net-(J5-Pad1)*%
X158950000Y-79500000D03*
D19*
%TO.P,J5,2,Pin_2*%
%TO.N,Net-(J5-Pad2)*%
X158950000Y-77500000D03*
%TO.P,J5,3,Pin_3*%
%TO.N,GND*%
X158950000Y-75500000D03*
%TO.P,J5,4,Pin_4*%
%TO.N,Net-(J5-Pad4)*%
X158950000Y-73500000D03*
%TO.P,J5,5,Pin_5*%
%TO.N,Net-(J5-Pad5)*%
X158950000Y-71500000D03*
%TD*%
D20*
%TO.P,J4,1,Pin_1*%
%TO.N,Net-(C8-Pad1)*%
X188850000Y-57750000D03*
D19*
%TO.P,J4,2,Pin_2*%
%TO.N,unconnected-(J4-Pad2)*%
X188850000Y-59750000D03*
%TO.P,J4,3,Pin_3*%
%TO.N,GND*%
X188850000Y-61750000D03*
%TD*%
D21*
%TO.P,C1,1*%
%TO.N,Net-(C1-Pad1)*%
X152100000Y-48175000D03*
%TO.P,C1,2*%
%TO.N,GND*%
X152100000Y-50075000D03*
%TD*%
D11*
%TO.P,R13,1*%
%TO.N,+3V3*%
X184325000Y-86800000D03*
%TO.P,R13,2*%
%TO.N,LCD_HSYNC*%
X184325000Y-88450000D03*
%TD*%
D22*
%TO.P,C21,1*%
%TO.N,+3V3*%
X158050000Y-100975000D03*
%TO.P,C21,2*%
%TO.N,GND*%
X158050000Y-99425000D03*
%TD*%
D23*
%TO.P,SW1,*%
%TO.N,*%
X189150000Y-39045000D03*
X181850000Y-41255000D03*
X189150000Y-41255000D03*
X181850000Y-39045000D03*
D24*
%TO.P,SW1,1,A*%
%TO.N,VBAT*%
X187750000Y-41905000D03*
%TO.P,SW1,2,B*%
%TO.N,Net-(D3-Pad1)*%
X184750000Y-41905000D03*
%TO.P,SW1,3,C*%
%TO.N,unconnected-(SW1-Pad3)*%
X183250000Y-41905000D03*
%TD*%
D25*
%TO.P,C5,1*%
%TO.N,+3V3*%
X190650000Y-51550000D03*
%TO.P,C5,2*%
%TO.N,GND*%
X188750000Y-51550000D03*
%TD*%
D11*
%TO.P,R15,1*%
%TO.N,+3V3*%
X184700000Y-61375000D03*
%TO.P,R15,2*%
%TO.N,I2C_SCL*%
X184700000Y-63025000D03*
%TD*%
D26*
%TO.P,U6,1*%
%TO.N,Net-(D4-Pad2)*%
X157762500Y-58100000D03*
%TO.P,U6,2,V-*%
%TO.N,GND*%
X157762500Y-59050000D03*
%TO.P,U6,3,+*%
%TO.N,Net-(C10-Pad2)*%
X157762500Y-60000000D03*
%TO.P,U6,4,-*%
%TO.N,Net-(R8-Pad2)*%
X160037500Y-60000000D03*
%TO.P,U6,5,V+*%
%TO.N,+3V3*%
X160037500Y-58100000D03*
%TD*%
D27*
%TO.P,C17,1*%
%TO.N,VBAT*%
X155050000Y-91550000D03*
%TO.P,C17,2*%
%TO.N,GND*%
X155050000Y-89650000D03*
%TD*%
D20*
%TO.P,J3,1,Pin_1*%
%TO.N,Net-(C10-Pad1)*%
X154350000Y-60550000D03*
D19*
%TO.P,J3,2,Pin_2*%
%TO.N,GND*%
X154350000Y-62550000D03*
%TD*%
D17*
%TO.P,C9,1*%
%TO.N,Net-(C9-Pad1)*%
X188575000Y-111250000D03*
%TO.P,C9,2*%
%TO.N,GND*%
X187025000Y-111250000D03*
%TD*%
D15*
%TO.P,U8,1,OUT1*%
%TO.N,Net-(J5-Pad2)*%
X155605000Y-79275000D03*
%TO.P,U8,2,VCC*%
%TO.N,VBAT*%
X154335000Y-79275000D03*
%TO.P,U8,3,VCC*%
X153065000Y-79275000D03*
%TO.P,U8,4,FIN*%
%TO.N,FIN_V*%
X151795000Y-79275000D03*
%TO.P,U8,5,RIN*%
%TO.N,RIN_V*%
X151795000Y-84525000D03*
%TO.P,U8,6,VREF*%
%TO.N,VBAT*%
X153065000Y-84525000D03*
%TO.P,U8,7,OUT2*%
%TO.N,Net-(J5-Pad1)*%
X154335000Y-84525000D03*
%TO.P,U8,8,GND*%
%TO.N,GND*%
X155605000Y-84525000D03*
%TD*%
D17*
%TO.P,C6,1*%
%TO.N,Net-(C6-Pad1)*%
X189275000Y-75200000D03*
%TO.P,C6,2*%
%TO.N,GND*%
X187725000Y-75200000D03*
%TD*%
D20*
%TO.P,J6,1,Pin_1*%
%TO.N,GND*%
X188950000Y-80050000D03*
D19*
%TO.P,J6,2,Pin_2*%
%TO.N,SW_START*%
X188950000Y-82050000D03*
%TO.P,J6,3,Pin_3*%
%TO.N,SW_FLIPR*%
X188950000Y-84050000D03*
%TO.P,J6,4,Pin_4*%
%TO.N,SW_FLIPL*%
X188950000Y-86050000D03*
%TD*%
D28*
%TO.P,D4,1,K*%
%TO.N,PLUNGER_ANA*%
X162750000Y-56075000D03*
%TO.P,D4,2,A*%
%TO.N,Net-(D4-Pad2)*%
X159450000Y-56075000D03*
%TD*%
D29*
%TO.P,TP1,1,1*%
%TO.N,Net-(TP1-Pad1)*%
X190600000Y-110550000D03*
%TD*%
D21*
%TO.P,C19,1*%
%TO.N,MLCD_A*%
X159900000Y-99350000D03*
%TO.P,C19,2*%
%TO.N,GND*%
X159900000Y-101250000D03*
%TD*%
D30*
%TO.P,U10,1,SW*%
%TO.N,Net-(D6-Pad2)*%
X159487500Y-89100000D03*
%TO.P,U10,2,GND*%
%TO.N,GND*%
X159487500Y-88150000D03*
%TO.P,U10,3,FB*%
%TO.N,MLCD_K*%
X159487500Y-87200000D03*
%TO.P,U10,4,EN*%
%TO.N,VBAT*%
X157212500Y-87200000D03*
%TO.P,U10,5,IN*%
X157212500Y-89100000D03*
%TD*%
D31*
%TO.P,C10,1*%
%TO.N,Net-(C10-Pad1)*%
X152075000Y-56175000D03*
%TO.P,C10,2*%
%TO.N,Net-(C10-Pad2)*%
X153625000Y-56175000D03*
%TD*%
%TO.P,C7,1*%
%TO.N,+3V3*%
X187025000Y-113150000D03*
%TO.P,C7,2*%
%TO.N,GND*%
X188575000Y-113150000D03*
%TD*%
D32*
%TO.P,J2,1,Pin_1*%
%TO.N,Net-(J2-Pad1)*%
X183600000Y-52300000D03*
D33*
%TO.P,J2,2,Pin_2*%
%TO.N,Net-(J2-Pad2)*%
X181100000Y-52300000D03*
%TD*%
D34*
%TO.P,J7,1,Pin_1*%
%TO.N,GND*%
X166170000Y-55100000D03*
D35*
%TO.P,J7,2,Pin_2*%
X166170000Y-52560000D03*
%TO.P,J7,3,Pin_3*%
%TO.N,LCD_RESET*%
X168710000Y-55100000D03*
%TO.P,J7,4,Pin_4*%
%TO.N,VBAT*%
X168710000Y-52560000D03*
%TO.P,J7,5,Pin_5*%
%TO.N,SPI_DC*%
X171250000Y-55100000D03*
%TO.P,J7,6,Pin_6*%
%TO.N,SPI_CS_LCD0*%
X171250000Y-52560000D03*
%TO.P,J7,7,Pin_7*%
%TO.N,SPI_SCK*%
X173790000Y-55100000D03*
%TO.P,J7,8,Pin_8*%
%TO.N,SPI_MOSI*%
X173790000Y-52560000D03*
%TO.P,J7,9,Pin_9*%
%TO.N,+3V3*%
X176330000Y-55100000D03*
%TO.P,J7,10,Pin_10*%
X176330000Y-52560000D03*
%TD*%
D36*
%TO.P,U9,1,GND1*%
%TO.N,GND*%
X165250000Y-64740000D03*
%TO.P,U9,2,3V3*%
%TO.N,+3V3*%
X165250000Y-66010000D03*
%TO.P,U9,3,EN*%
%TO.N,Net-(C13-Pad1)*%
X165250000Y-67280000D03*
%TO.P,U9,4,GPIO4*%
%TO.N,SPI_MOSI*%
X165250000Y-68550000D03*
%TO.P,U9,5,GPIO5*%
%TO.N,SPI_SCK*%
X165250000Y-69820000D03*
%TO.P,U9,6,GPIO6*%
%TO.N,SPI_CS_LCD1*%
X165250000Y-71090000D03*
%TO.P,U9,7,GPIO7*%
%TO.N,SPI_CS_LCD0*%
X165250000Y-72360000D03*
%TO.P,U9,8,GPIO15*%
%TO.N,SPI_DC*%
X165250000Y-73630000D03*
%TO.P,U9,9,GPIO16*%
%TO.N,LCD_D17*%
X165250000Y-74900000D03*
%TO.P,U9,10,GPIO17*%
%TO.N,LCD_D16*%
X165250000Y-76170000D03*
%TO.P,U9,11,GPIO18*%
%TO.N,LCD_D15*%
X165250000Y-77440000D03*
%TO.P,U9,12,GPIO8*%
%TO.N,LCD_D14*%
X165250000Y-78710000D03*
%TO.P,U9,13,GPIO19*%
%TO.N,USB_DM*%
X165250000Y-79980000D03*
%TO.P,U9,14,GPIO20*%
%TO.N,USB_DP*%
X165250000Y-81250000D03*
D37*
%TO.P,U9,15,GPIO3*%
%TO.N,LCD_D13*%
X167015000Y-82500000D03*
%TO.P,U9,16,GPIO46*%
%TO.N,LCD_D11*%
X168285000Y-82500000D03*
%TO.P,U9,17,GPIO9*%
%TO.N,LCD_D10*%
X169555000Y-82500000D03*
%TO.P,U9,18,GPIO10*%
%TO.N,LCD_D9*%
X170825000Y-82500000D03*
%TO.P,U9,19,GPIO11*%
%TO.N,LCD_D8*%
X172095000Y-82500000D03*
%TO.P,U9,20,GPIO12*%
%TO.N,LCD_D7*%
X173365000Y-82500000D03*
%TO.P,U9,21,GPIO13*%
%TO.N,LCD_D6*%
X174635000Y-82500000D03*
%TO.P,U9,22,GPIO14*%
%TO.N,LCD_D5*%
X175905000Y-82500000D03*
%TO.P,U9,23,GPIO21*%
%TO.N,LCD_D4*%
X177175000Y-82500000D03*
%TO.P,U9,24,GPIO47*%
%TO.N,LCD_D3*%
X178445000Y-82500000D03*
%TO.P,U9,25,GPIO48*%
%TO.N,LCD_D2*%
X179715000Y-82500000D03*
%TO.P,U9,26,GPIO45*%
%TO.N,LCD_D1*%
X180985000Y-82500000D03*
D36*
%TO.P,U9,27,GPIO0*%
%TO.N,LCD_HSYNC*%
X182750000Y-81250000D03*
%TO.P,U9,28,GPIO35*%
%TO.N,LCD_VSYNC*%
X182750000Y-79980000D03*
%TO.P,U9,29,GPIO36*%
%TO.N,LCD_DE*%
X182750000Y-78710000D03*
%TO.P,U9,30,GPIO37*%
%TO.N,LCD_PCLK*%
X182750000Y-77440000D03*
%TO.P,U9,31,GPIO38*%
%TO.N,RIN_V*%
X182750000Y-76170000D03*
%TO.P,U9,32,GPIO39*%
%TO.N,FIN_V*%
X182750000Y-74900000D03*
%TO.P,U9,33,GPIO40*%
%TO.N,RIN_H*%
X182750000Y-73630000D03*
%TO.P,U9,34,GPIO41*%
%TO.N,FIN_H*%
X182750000Y-72360000D03*
%TO.P,U9,35,GPIO42*%
%TO.N,AUDIO*%
X182750000Y-71090000D03*
%TO.P,U9,36,RX0*%
%TO.N,I2C_SDA*%
X182750000Y-69820000D03*
%TO.P,U9,37,TX0*%
%TO.N,unconnected-(U9-Pad37)*%
X182750000Y-68550000D03*
%TO.P,U9,38,IO2*%
%TO.N,PLUNGER_ANA*%
X182750000Y-67280000D03*
%TO.P,U9,39,IO1*%
%TO.N,I2C_SCL*%
X182750000Y-66010000D03*
%TO.P,U9,40,GND2*%
%TO.N,GND*%
X182750000Y-64740000D03*
D38*
%TO.P,U9,41,EPAD*%
X172500000Y-73860000D03*
X172500000Y-72460000D03*
X171100000Y-72460000D03*
X173900000Y-72460000D03*
X171100000Y-73860000D03*
X172500000Y-71060000D03*
X171100000Y-71060000D03*
X173900000Y-73860000D03*
X173900000Y-71060000D03*
%TD*%
D39*
%TO.P,J1,1,VBUS*%
%TO.N,Net-(C1-Pad1)*%
X158775000Y-43050000D03*
%TO.P,J1,2,D-*%
%TO.N,USB_DM*%
X158125000Y-43050000D03*
%TO.P,J1,3,D+*%
%TO.N,USB_DP*%
X157475000Y-43050000D03*
%TO.P,J1,4,ID*%
%TO.N,unconnected-(J1-Pad4)*%
X156825000Y-43050000D03*
%TO.P,J1,5,GND*%
%TO.N,GND*%
X156175000Y-43050000D03*
D40*
%TO.P,J1,6,Shield*%
X157500000Y-40000000D03*
D41*
X160700000Y-42250000D03*
D42*
X160325000Y-40000000D03*
X154675000Y-40000000D03*
D41*
X154300000Y-42240000D03*
%TD*%
D22*
%TO.P,C11,1*%
%TO.N,Net-(C11-Pad1)*%
X190750000Y-100475000D03*
%TO.P,C11,2*%
%TO.N,GND*%
X190750000Y-98925000D03*
%TD*%
D43*
%TO.P,C3,1*%
%TO.N,Net-(C3-Pad1)*%
X185300000Y-66625000D03*
%TO.P,C3,2*%
%TO.N,AUDIO*%
X185300000Y-68175000D03*
%TD*%
D17*
%TO.P,C4,1*%
%TO.N,VBAT*%
X189674520Y-65035951D03*
%TO.P,C4,2*%
%TO.N,GND*%
X188124520Y-65035951D03*
%TD*%
D44*
%TO.P,D3,1,K*%
%TO.N,Net-(D3-Pad1)*%
X180500000Y-43850000D03*
%TO.P,D3,2,A*%
%TO.N,Net-(C1-Pad1)*%
X180500000Y-47150000D03*
%TD*%
D45*
%TO.P,U2,1,GND*%
%TO.N,GND*%
X187350000Y-47350000D03*
D46*
%TO.P,U2,2,VIN*%
%TO.N,VBAT*%
X188850000Y-47262500D03*
D45*
%TO.P,U2,3,VOUT*%
%TO.N,+3V3*%
X190350000Y-47350000D03*
%TD*%
D10*
%TO.P,R14,1*%
%TO.N,+3V3*%
X184700000Y-59725000D03*
%TO.P,R14,2*%
%TO.N,I2C_SDA*%
X184700000Y-58075000D03*
%TD*%
D13*
%TO.P,D1,1,K*%
%TO.N,Net-(D1-Pad1)*%
X162500000Y-42537500D03*
%TO.P,D1,2,A*%
%TO.N,Net-(C1-Pad1)*%
X162500000Y-40962500D03*
%TD*%
D11*
%TO.P,R11,1*%
%TO.N,MLCD_K*%
X158450000Y-83375000D03*
%TO.P,R11,2*%
%TO.N,GND*%
X158450000Y-85025000D03*
%TD*%
D27*
%TO.P,C14,1*%
%TO.N,VBAT*%
X153300000Y-69000000D03*
%TO.P,C14,2*%
%TO.N,GND*%
X153300000Y-67100000D03*
%TD*%
D47*
%TO.P,U12,1,LED_A*%
%TO.N,MLCD_A*%
X185400000Y-91675000D03*
%TO.P,U12,2,LED_K*%
%TO.N,MLCD_K*%
X184900000Y-91675000D03*
%TO.P,U12,3,LED_K*%
X184400000Y-91675000D03*
%TO.P,U12,4,GND*%
%TO.N,GND*%
X183900000Y-91675000D03*
%TO.P,U12,5,VCC*%
%TO.N,+3V3*%
X183400000Y-91675000D03*
%TO.P,U12,6,~RESET~*%
%TO.N,LCD_RESET*%
X182900000Y-91675000D03*
%TO.P,U12,7,NC*%
%TO.N,unconnected-(U12-Pad7)*%
X182400000Y-91675000D03*
%TO.P,U12,8,NC*%
%TO.N,unconnected-(U12-Pad8)*%
X181900000Y-91675000D03*
%TO.P,U12,9,SDA*%
%TO.N,SPI_MOSI*%
X181400000Y-91675000D03*
%TO.P,U12,10,SCK*%
%TO.N,SPI_SCK*%
X180900000Y-91675000D03*
%TO.P,U12,11,CS*%
%TO.N,SPI_CS_LCD1*%
X180400000Y-91675000D03*
%TO.P,U12,12,PCLK*%
%TO.N,LCD_PCLK*%
X179900000Y-91675000D03*
%TO.P,U12,13,DE*%
%TO.N,LCD_DE*%
X179400000Y-91675000D03*
%TO.P,U12,14,VSYNC*%
%TO.N,LCD_VSYNC*%
X178900000Y-91675000D03*
%TO.P,U12,15,HSYNC*%
%TO.N,LCD_HSYNC*%
X178400000Y-91675000D03*
%TO.P,U12,16,DB0*%
%TO.N,GND*%
X177900000Y-91675000D03*
%TO.P,U12,17,DB1*%
%TO.N,LCD_D1*%
X177400000Y-91675000D03*
%TO.P,U12,18,DB2*%
%TO.N,LCD_D2*%
X176900000Y-91675000D03*
%TO.P,U12,19,DB3*%
%TO.N,LCD_D3*%
X176400000Y-91675000D03*
%TO.P,U12,20,DB4*%
%TO.N,LCD_D4*%
X175900000Y-91675000D03*
%TO.P,U12,21,DB5*%
%TO.N,LCD_D5*%
X175400000Y-91675000D03*
%TO.P,U12,22,DB6*%
%TO.N,LCD_D6*%
X174900000Y-91675000D03*
%TO.P,U12,23,DB7*%
%TO.N,LCD_D7*%
X174400000Y-91675000D03*
%TO.P,U12,24,DB8*%
%TO.N,LCD_D8*%
X173900000Y-91675000D03*
%TO.P,U12,25,DB9*%
%TO.N,LCD_D9*%
X173400000Y-91675000D03*
%TO.P,U12,26,DB10*%
%TO.N,LCD_D10*%
X172900000Y-91675000D03*
%TO.P,U12,27,DB11*%
%TO.N,LCD_D11*%
X172400000Y-91675000D03*
%TO.P,U12,28,DB12*%
%TO.N,GND*%
X171900000Y-91675000D03*
%TO.P,U12,29,DB13*%
%TO.N,LCD_D13*%
X171400000Y-91675000D03*
%TO.P,U12,30,DB14*%
%TO.N,LCD_D14*%
X170900000Y-91675000D03*
%TO.P,U12,31,DB15*%
%TO.N,LCD_D15*%
X170400000Y-91675000D03*
%TO.P,U12,32,DB16*%
%TO.N,LCD_D16*%
X169900000Y-91675000D03*
%TO.P,U12,33,DB17*%
%TO.N,LCD_D17*%
X169400000Y-91675000D03*
%TO.P,U12,34,GND*%
%TO.N,GND*%
X168900000Y-91675000D03*
%TO.P,U12,35,TP_INT*%
%TO.N,unconnected-(U12-Pad35)*%
X168400000Y-91675000D03*
%TO.P,U12,36,TP_SDA*%
%TO.N,unconnected-(U12-Pad36)*%
X167900000Y-91675000D03*
%TO.P,U12,37,TP_SCL*%
%TO.N,unconnected-(U12-Pad37)*%
X167400000Y-91675000D03*
%TO.P,U12,38,TP_RESET*%
%TO.N,unconnected-(U12-Pad38)*%
X166900000Y-91675000D03*
%TO.P,U12,39,TP_VCC*%
%TO.N,unconnected-(U12-Pad39)*%
X166400000Y-91675000D03*
%TO.P,U12,40,GND*%
%TO.N,GND*%
X165900000Y-91675000D03*
D48*
%TO.P,U12,MP*%
%TO.N,N/C*%
X164230000Y-93375000D03*
X187070000Y-93375000D03*
%TD*%
D10*
%TO.P,R10,1*%
%TO.N,Net-(C13-Pad1)*%
X160500000Y-66325000D03*
%TO.P,R10,2*%
%TO.N,+3V3*%
X160500000Y-64675000D03*
%TD*%
D49*
%TO.P,U3,1,SD*%
%TO.N,GND*%
X186895000Y-73225000D03*
%TO.P,U3,2,BYP*%
%TO.N,Net-(C6-Pad1)*%
X188165000Y-73225000D03*
%TO.P,U3,3,+IN*%
X189435000Y-73225000D03*
%TO.P,U3,4,-IN*%
%TO.N,Net-(R2-Pad2)*%
X190705000Y-73225000D03*
%TO.P,U3,5,VO1*%
%TO.N,Net-(J2-Pad1)*%
X190705000Y-67975000D03*
%TO.P,U3,6,VDD*%
%TO.N,VBAT*%
X189435000Y-67975000D03*
%TO.P,U3,7,GND*%
%TO.N,GND*%
X188165000Y-67975000D03*
%TO.P,U3,8,VO2*%
%TO.N,Net-(J2-Pad2)*%
X186895000Y-67975000D03*
%TD*%
D10*
%TO.P,R16,1*%
%TO.N,+3V3*%
X155350000Y-105425000D03*
%TO.P,R16,2*%
%TO.N,SW_FLIPL*%
X155350000Y-103775000D03*
%TD*%
D44*
%TO.P,D6,1,K*%
%TO.N,MLCD_A*%
X159650000Y-97700000D03*
%TO.P,D6,2,A*%
%TO.N,Net-(D6-Pad2)*%
X159650000Y-94400000D03*
%TD*%
D27*
%TO.P,C16,1*%
%TO.N,+3V3*%
X162750000Y-65700000D03*
%TO.P,C16,2*%
%TO.N,GND*%
X162750000Y-63800000D03*
%TD*%
D29*
%TO.P,TP2,1,1*%
%TO.N,Net-(TP2-Pad1)*%
X181900000Y-105750000D03*
%TD*%
D17*
%TO.P,C13,1*%
%TO.N,Net-(C13-Pad1)*%
X160525000Y-67750000D03*
%TO.P,C13,2*%
%TO.N,GND*%
X158975000Y-67750000D03*
%TD*%
D11*
%TO.P,R8,1*%
%TO.N,PLUNGER_ANA*%
X162800000Y-58175000D03*
%TO.P,R8,2*%
%TO.N,Net-(R8-Pad2)*%
X162800000Y-59825000D03*
%TD*%
D21*
%TO.P,C8,1*%
%TO.N,Net-(C8-Pad1)*%
X160500000Y-48775000D03*
%TO.P,C8,2*%
%TO.N,GND*%
X160500000Y-50675000D03*
%TD*%
D50*
%TO.P,U5,1,CLKIN*%
%TO.N,GND*%
X186850000Y-103400000D03*
%TO.P,U5,2*%
%TO.N,N/C*%
X186850000Y-103900000D03*
%TO.P,U5,3*%
X186850000Y-104400000D03*
%TO.P,U5,4*%
X186850000Y-104900000D03*
%TO.P,U5,5*%
X186850000Y-105400000D03*
%TO.P,U5,6,AUX_SDA*%
%TO.N,Net-(TP2-Pad1)*%
X186850000Y-105900000D03*
D51*
%TO.P,U5,7,AUX_SCL*%
%TO.N,Net-(TP3-Pad1)*%
X187550000Y-106600000D03*
%TO.P,U5,8,VDDIO*%
%TO.N,+3V3*%
X188050000Y-106600000D03*
%TO.P,U5,9,AD0*%
%TO.N,GND*%
X188550000Y-106600000D03*
%TO.P,U5,10,REGOUT*%
%TO.N,Net-(C9-Pad1)*%
X189050000Y-106600000D03*
%TO.P,U5,11,FSYNC*%
%TO.N,GND*%
X189550000Y-106600000D03*
%TO.P,U5,12,INT*%
%TO.N,Net-(TP1-Pad1)*%
X190050000Y-106600000D03*
D50*
%TO.P,U5,13,VDD*%
%TO.N,+3V3*%
X190750000Y-105900000D03*
%TO.P,U5,14*%
%TO.N,N/C*%
X190750000Y-105400000D03*
%TO.P,U5,15*%
X190750000Y-104900000D03*
%TO.P,U5,16*%
X190750000Y-104400000D03*
%TO.P,U5,17*%
X190750000Y-103900000D03*
%TO.P,U5,18,GND*%
%TO.N,GND*%
X190750000Y-103400000D03*
D51*
%TO.P,U5,19*%
%TO.N,N/C*%
X190050000Y-102700000D03*
%TO.P,U5,20,CPOUT*%
%TO.N,Net-(C11-Pad1)*%
X189550000Y-102700000D03*
%TO.P,U5,21*%
%TO.N,N/C*%
X189050000Y-102700000D03*
%TO.P,U5,22*%
X188550000Y-102700000D03*
%TO.P,U5,23,SCL*%
%TO.N,I2C_SCL*%
X188050000Y-102700000D03*
%TO.P,U5,24,SDA*%
%TO.N,I2C_SDA*%
X187550000Y-102700000D03*
%TD*%
D52*
%TO.P,L1,1,1*%
%TO.N,VBAT*%
X157200000Y-91900000D03*
%TO.P,L1,2,2*%
%TO.N,Net-(D6-Pad2)*%
X159350000Y-91900000D03*
%TD*%
D10*
%TO.P,R12,2*%
%TO.N,SW_START*%
X151900000Y-104225000D03*
%TO.P,R12,1*%
%TO.N,+3V3*%
X151900000Y-105875000D03*
%TD*%
D53*
%TO.P,U4,1,TEMP*%
%TO.N,GND*%
X154095000Y-53450000D03*
%TO.P,U4,2,PROG*%
%TO.N,Net-(R5-Pad1)*%
X155365000Y-53450000D03*
%TO.P,U4,3,GND*%
%TO.N,GND*%
X156635000Y-53450000D03*
%TO.P,U4,4,Vcc*%
%TO.N,Net-(C1-Pad1)*%
X157905000Y-53450000D03*
%TO.P,U4,5,BAT*%
%TO.N,Net-(C8-Pad1)*%
X157905000Y-48500000D03*
%TO.P,U4,6,nSTDBY*%
%TO.N,Net-(R3-Pad2)*%
X156635000Y-48500000D03*
%TO.P,U4,7,nCHRG*%
%TO.N,Net-(R4-Pad2)*%
X155365000Y-48500000D03*
%TO.P,U4,8,CE*%
%TO.N,Net-(C1-Pad1)*%
X154095000Y-48500000D03*
D54*
%TO.P,U4,9,EP*%
%TO.N,GND*%
X156000000Y-50975000D03*
%TD*%
D25*
%TO.P,C2,1*%
%TO.N,VBAT*%
X189800000Y-49300000D03*
%TO.P,C2,2*%
%TO.N,GND*%
X187900000Y-49300000D03*
%TD*%
D55*
%TO.P,U1,1,A0*%
%TO.N,GND*%
X156675000Y-95087500D03*
%TO.P,U1,2,A1*%
X156025000Y-95087500D03*
%TO.P,U1,3,A2*%
X155375000Y-95087500D03*
%TO.P,U1,4,P0*%
%TO.N,unconnected-(U1-Pad4)*%
X154725000Y-95087500D03*
%TO.P,U1,5,P1*%
%TO.N,unconnected-(U1-Pad5)*%
X154075000Y-95087500D03*
%TO.P,U1,6,P2*%
%TO.N,unconnected-(U1-Pad6)*%
X153425000Y-95087500D03*
%TO.P,U1,7,P3*%
%TO.N,unconnected-(U1-Pad7)*%
X152775000Y-95087500D03*
%TO.P,U1,8,GND*%
%TO.N,GND*%
X152125000Y-95087500D03*
%TO.P,U1,9,P4*%
%TO.N,LCD_RESET*%
X152125000Y-100812500D03*
%TO.P,U1,10,P5*%
%TO.N,SW_START*%
X152775000Y-100812500D03*
%TO.P,U1,11,P6*%
%TO.N,SW_FLIPR*%
X153425000Y-100812500D03*
%TO.P,U1,12,P7*%
%TO.N,SW_FLIPL*%
X154075000Y-100812500D03*
%TO.P,U1,13,~{INT}*%
%TO.N,unconnected-(U1-Pad13)*%
X154725000Y-100812500D03*
%TO.P,U1,14,SCL*%
%TO.N,I2C_SCL*%
X155375000Y-100812500D03*
%TO.P,U1,15,SDA*%
%TO.N,I2C_SDA*%
X156025000Y-100812500D03*
%TO.P,U1,16,VDD*%
%TO.N,+3V3*%
X156675000Y-100812500D03*
%TD*%
D22*
%TO.P,C22,1*%
%TO.N,+3V3*%
X160100000Y-54000000D03*
%TO.P,C22,2*%
%TO.N,GND*%
X160100000Y-52450000D03*
%TD*%
D29*
%TO.P,TP3,1,1*%
%TO.N,Net-(TP3-Pad1)*%
X184200000Y-108350000D03*
%TD*%
D56*
%TO.N,Net-(C1-Pad1)*%
X164000000Y-41250000D03*
X158997296Y-44672698D03*
X153427729Y-41153100D03*
%TO.N,GND*%
X190800000Y-97800000D03*
X168900000Y-93350000D03*
X152050000Y-51075000D03*
X190050000Y-112800000D03*
X153350000Y-43450000D03*
X160850000Y-43750000D03*
X155850000Y-58050000D03*
X159000000Y-66500000D03*
X161050000Y-88650000D03*
X161900000Y-51275000D03*
X171900000Y-93350000D03*
X166400000Y-93350000D03*
X155150000Y-51500000D03*
X153600000Y-88700000D03*
X155150000Y-50400000D03*
X177000000Y-93450000D03*
X161871159Y-100563985D03*
X156750000Y-50400000D03*
X181250000Y-64425000D03*
X156750000Y-51500000D03*
X186924500Y-72320032D03*
X160550000Y-63200000D03*
X164250000Y-63500000D03*
X188149520Y-66285951D03*
X172512299Y-69762299D03*
X156715112Y-84190514D03*
X155300000Y-74700000D03*
X186200000Y-45900000D03*
X153400000Y-65900000D03*
X157600000Y-98150000D03*
X189900000Y-108750000D03*
X188200000Y-108850000D03*
X184200000Y-89900000D03*
X185300000Y-103050000D03*
X152200000Y-97050000D03*
X191005247Y-102264094D03*
%TO.N,VBAT*%
X159850000Y-69700000D03*
X162700000Y-70450000D03*
X166600000Y-48450000D03*
X162850000Y-74700000D03*
X177400000Y-42350000D03*
X190550000Y-42400000D03*
X166600000Y-45050000D03*
X167950000Y-73650000D03*
%TO.N,AUDIO*%
X185329372Y-69373794D03*
X184100000Y-71000000D03*
%TO.N,+3V3*%
X186700000Y-109200000D03*
X177400000Y-59550000D03*
X188148407Y-54410861D03*
X191000000Y-107050000D03*
X184100000Y-72400000D03*
X179948522Y-59728332D03*
X172625500Y-59550000D03*
X178700000Y-98650000D03*
X183050000Y-56200000D03*
X172550000Y-62650000D03*
X186450000Y-65700000D03*
X178725000Y-94625000D03*
%TO.N,Net-(C8-Pad1)*%
X165250000Y-45900000D03*
X165250000Y-48450000D03*
%TO.N,PLUNGER_ANA*%
X181150000Y-66050000D03*
X176914013Y-65888612D03*
%TO.N,MLCD_A*%
X185150000Y-94350000D03*
X163552776Y-99839485D03*
%TO.N,USB_DM*%
X159600000Y-47500000D03*
X157662701Y-45587299D03*
%TO.N,USB_DP*%
X160750000Y-46700000D03*
X156301789Y-45183930D03*
%TO.N,LCD_RESET*%
X163200000Y-98300000D03*
X178450000Y-77250000D03*
X182384481Y-93077366D03*
X176525000Y-71044335D03*
X152100000Y-99300000D03*
X170950000Y-80800000D03*
X162750000Y-87450000D03*
%TO.N,SPI_CS_LCD0*%
X166650000Y-72350000D03*
%TO.N,SPI_DC*%
X166650000Y-73600000D03*
%TO.N,SPI_SCK*%
X165587701Y-97862299D03*
X180400000Y-93600000D03*
X173850000Y-64100000D03*
%TO.N,SPI_MOSI*%
X164680926Y-98282732D03*
X181400000Y-93250000D03*
X172650000Y-64000000D03*
%TO.N,MLCD_K*%
X184174010Y-95200000D03*
X162175898Y-98383836D03*
%TO.N,RIN_V*%
X151700000Y-86500000D03*
X169586554Y-80425998D03*
%TO.N,I2C_SDA*%
X180050000Y-98550000D03*
X179784407Y-95424500D03*
%TO.N,I2C_SCL*%
X181300000Y-98650000D03*
X181150000Y-96050000D03*
%TO.N,SW_START*%
X157000000Y-105400000D03*
X152587500Y-103537500D03*
%TO.N,FIN_H*%
X151700000Y-72900000D03*
X169500000Y-77300000D03*
%TO.N,RIN_H*%
X169500000Y-78400000D03*
X151700000Y-74600000D03*
%TO.N,FIN_V*%
X151900000Y-82600000D03*
X169482109Y-79431967D03*
%TO.N,SPI_CS_LCD1*%
X165150000Y-96400000D03*
X179450000Y-93100000D03*
%TO.N,LCD_HSYNC*%
X182700000Y-88200000D03*
X182750000Y-84150000D03*
%TD*%
D57*
%TO.N,I2C_SCL*%
X184075000Y-69144022D02*
X184075000Y-66050000D01*
X184075000Y-66050000D02*
X184075000Y-63650000D01*
X184035000Y-66010000D02*
X184075000Y-66050000D01*
X182750000Y-66010000D02*
X184035000Y-66010000D01*
X185300000Y-70369022D02*
X184075000Y-69144022D01*
X184075000Y-63650000D02*
X184700000Y-63025000D01*
%TO.N,GND*%
X181250000Y-64425000D02*
X182435000Y-64425000D01*
X182435000Y-64425000D02*
X182750000Y-64740000D01*
D58*
%TO.N,+3V3*%
X185625000Y-78525000D02*
X185625000Y-87000000D01*
X185625000Y-87000000D02*
X185625000Y-87300000D01*
D57*
X184325000Y-86800000D02*
X185425000Y-86800000D01*
X185425000Y-86800000D02*
X185625000Y-87000000D01*
%TO.N,LCD_HSYNC*%
X182700000Y-88200000D02*
X184075000Y-88200000D01*
X184075000Y-88200000D02*
X184325000Y-88450000D01*
%TO.N,Net-(C1-Pad1)*%
X152100000Y-53875000D02*
X153450000Y-55225000D01*
X157600000Y-56725000D02*
X158100000Y-56225000D01*
X153250000Y-48175000D02*
X153770000Y-48175000D01*
X163675000Y-40925000D02*
X164000000Y-41250000D01*
X152190600Y-41153100D02*
X152000000Y-40962500D01*
X151100000Y-41250000D02*
X151100000Y-47175000D01*
X180500000Y-47150000D02*
X182237500Y-47150000D01*
X152100000Y-53800000D02*
X153250000Y-52650000D01*
X177750000Y-41250000D02*
X178800000Y-42300000D01*
X153927138Y-55225000D02*
X154450480Y-55748342D01*
X178800000Y-45450000D02*
X180500000Y-47150000D01*
X158100000Y-53645000D02*
X157905000Y-53450000D01*
X151425000Y-40925000D02*
X151100000Y-41250000D01*
X164000000Y-41250000D02*
X177750000Y-41250000D01*
X153450000Y-55225000D02*
X153927138Y-55225000D01*
X152000000Y-40925000D02*
X151425000Y-40925000D01*
X182237500Y-47150000D02*
X182750000Y-46637500D01*
X158775000Y-43050000D02*
X158775000Y-44450402D01*
X153250000Y-52650000D02*
X153250000Y-48175000D01*
X152100000Y-48175000D02*
X153250000Y-48175000D01*
X162500000Y-40925000D02*
X163675000Y-40925000D01*
X158100000Y-56225000D02*
X158100000Y-53645000D01*
X154450480Y-56217263D02*
X154958217Y-56725000D01*
X154450480Y-55748342D02*
X154450480Y-56217263D01*
X154958217Y-56725000D02*
X157600000Y-56725000D01*
X178800000Y-42300000D02*
X178800000Y-45450000D01*
X152100000Y-53800000D02*
X152100000Y-53875000D01*
X153427729Y-41153100D02*
X152190600Y-41153100D01*
X151100000Y-47175000D02*
X152100000Y-48175000D01*
X158775000Y-44450402D02*
X158997296Y-44672698D01*
D58*
%TO.N,GND*%
X188149520Y-67959520D02*
X188165000Y-67975000D01*
D57*
X165900000Y-92850000D02*
X166400000Y-93350000D01*
X183900000Y-90200000D02*
X184200000Y-89900000D01*
X171100000Y-72460000D02*
X171100000Y-71060000D01*
D58*
X188149520Y-66285951D02*
X188149520Y-67959520D01*
D57*
X159650000Y-101250000D02*
X161185144Y-101250000D01*
X188550000Y-108500000D02*
X188200000Y-108850000D01*
X165900000Y-91675000D02*
X165900000Y-92850000D01*
X160100000Y-52450000D02*
X161750000Y-52450000D01*
X156125000Y-96775000D02*
X155850000Y-97050000D01*
D58*
X187350000Y-48750000D02*
X187900000Y-49300000D01*
D57*
X154095000Y-53450000D02*
X154095000Y-52880000D01*
X188550000Y-106400000D02*
X188550000Y-108500000D01*
X156850000Y-59050000D02*
X155850000Y-58050000D01*
X156635000Y-53450000D02*
X156750000Y-51500000D01*
X190800000Y-98875000D02*
X190800000Y-97800000D01*
X161150000Y-87050000D02*
X161150000Y-87700000D01*
X185650000Y-103400000D02*
X185300000Y-103050000D01*
X156175000Y-43050000D02*
X155110000Y-43050000D01*
X152100000Y-51025000D02*
X152050000Y-51075000D01*
X168900000Y-91675000D02*
X168900000Y-93350000D01*
X173900000Y-71060000D02*
X173900000Y-72460000D01*
X156025000Y-95087500D02*
X156025000Y-96675000D01*
X160700000Y-42250000D02*
X160700000Y-40375000D01*
D58*
X187350000Y-47050000D02*
X186200000Y-45900000D01*
D57*
X154095000Y-52880000D02*
X155150000Y-51500000D01*
X154550000Y-89650000D02*
X153600000Y-88700000D01*
D58*
X187900000Y-50700000D02*
X188750000Y-51550000D01*
D57*
X156675000Y-95087500D02*
X156675000Y-96225000D01*
X171100000Y-73860000D02*
X171100000Y-72460000D01*
X161750000Y-52450000D02*
X161825000Y-52525000D01*
X172500000Y-69774598D02*
X172512299Y-69762299D01*
X190750000Y-102519341D02*
X191005247Y-102264094D01*
D58*
X154300000Y-42240000D02*
X154300000Y-42500000D01*
D57*
X190750000Y-98925000D02*
X190800000Y-98875000D01*
D58*
X160700000Y-43600000D02*
X160850000Y-43750000D01*
D57*
X163990000Y-63760000D02*
X164250000Y-63500000D01*
X155505000Y-76525000D02*
X155505000Y-74905000D01*
X188200000Y-108850000D02*
X188200000Y-110075000D01*
X156825000Y-53640000D02*
X156635000Y-53450000D01*
X155150000Y-51500000D02*
X156000000Y-50975000D01*
X152100000Y-51125000D02*
X152050000Y-51075000D01*
X163990000Y-64740000D02*
X163690000Y-64740000D01*
D58*
X187900000Y-49300000D02*
X187900000Y-50700000D01*
D57*
X156675000Y-96225000D02*
X156125000Y-96775000D01*
X155375000Y-95087500D02*
X155375000Y-96975000D01*
X154675000Y-40000000D02*
X154675000Y-41865000D01*
X160700000Y-88300000D02*
X161050000Y-88650000D01*
X188200000Y-110075000D02*
X187025000Y-111250000D01*
X155850000Y-97050000D02*
X155300000Y-97050000D01*
X161825000Y-51350000D02*
X161900000Y-51275000D01*
X160700000Y-88150000D02*
X160700000Y-88300000D01*
X155505000Y-84525000D02*
X155505000Y-86745000D01*
X189700000Y-113150000D02*
X190050000Y-112800000D01*
X190750000Y-103400000D02*
X190750000Y-102519341D01*
X155505000Y-74905000D02*
X155300000Y-74700000D01*
X153300000Y-66000000D02*
X153400000Y-65900000D01*
X189550000Y-106400000D02*
X189550000Y-108400000D01*
X156825000Y-55725000D02*
X156825000Y-53640000D01*
X162750000Y-63800000D02*
X162750000Y-61925000D01*
X186924500Y-74116276D02*
X186924500Y-72320032D01*
X157500000Y-40000000D02*
X160325000Y-40000000D01*
X153300000Y-67100000D02*
X153300000Y-66000000D01*
X155050000Y-89650000D02*
X154550000Y-89650000D01*
X155300000Y-97050000D02*
X152200000Y-97050000D01*
X152100000Y-52150000D02*
X152100000Y-51125000D01*
X159487500Y-88150000D02*
X160700000Y-88150000D01*
X173900000Y-72460000D02*
X173900000Y-73860000D01*
X161300000Y-50675000D02*
X161900000Y-51275000D01*
X163690000Y-64740000D02*
X162750000Y-63800000D01*
X159350000Y-63225000D02*
X160525000Y-63225000D01*
X171100000Y-72460000D02*
X172500000Y-72460000D01*
X187925000Y-75116776D02*
X186924500Y-74116276D01*
X171900000Y-91675000D02*
X171900000Y-93350000D01*
X172500000Y-71060000D02*
X172500000Y-69774598D01*
X155505000Y-86745000D02*
X155350000Y-86900000D01*
X158975000Y-66525000D02*
X159000000Y-66500000D01*
X156635000Y-51610000D02*
X156000000Y-50975000D01*
X158975000Y-67750000D02*
X158975000Y-66525000D01*
X159125000Y-85025000D02*
X161150000Y-87050000D01*
D58*
X154300000Y-42500000D02*
X153350000Y-43450000D01*
D57*
X163990000Y-64740000D02*
X163990000Y-63760000D01*
X186850000Y-103400000D02*
X185650000Y-103400000D01*
D58*
X187350000Y-47350000D02*
X187350000Y-48750000D01*
D57*
X183900000Y-91675000D02*
X183900000Y-90200000D01*
X156750000Y-51500000D02*
X156635000Y-51610000D01*
X156025000Y-96675000D02*
X156125000Y-96775000D01*
X158050000Y-98600000D02*
X157600000Y-98150000D01*
X158450000Y-85025000D02*
X159125000Y-85025000D01*
X155375000Y-96975000D02*
X155300000Y-97050000D01*
X155110000Y-43050000D02*
X154300000Y-42240000D01*
X160500000Y-50675000D02*
X161300000Y-50675000D01*
X161185144Y-101250000D02*
X161871159Y-100563985D01*
X172500000Y-72460000D02*
X173900000Y-72460000D01*
X188575000Y-113150000D02*
X189700000Y-113150000D01*
X152125000Y-95087500D02*
X152125000Y-96975000D01*
X177900000Y-92550000D02*
X177000000Y-93450000D01*
X158050000Y-99425000D02*
X158050000Y-98600000D01*
X172500000Y-71060000D02*
X172500000Y-72460000D01*
X172500000Y-73860000D02*
X172500000Y-72460000D01*
X155505000Y-84525000D02*
X156380626Y-84525000D01*
X152100000Y-50075000D02*
X152100000Y-51025000D01*
X161825000Y-52525000D02*
X161825000Y-51350000D01*
D58*
X188124520Y-65035951D02*
X188124520Y-66260951D01*
X160700000Y-42250000D02*
X160700000Y-43600000D01*
D57*
X162750000Y-61925000D02*
X163025000Y-61650000D01*
X152125000Y-96975000D02*
X152200000Y-97050000D01*
X160700000Y-40375000D02*
X160325000Y-40000000D01*
X156380626Y-84525000D02*
X156715112Y-84190514D01*
D58*
X187350000Y-47350000D02*
X187350000Y-47050000D01*
D57*
X154675000Y-40000000D02*
X157500000Y-40000000D01*
X177900000Y-91675000D02*
X177900000Y-92550000D01*
X160700000Y-88150000D02*
X161150000Y-87700000D01*
X157762500Y-59050000D02*
X156850000Y-59050000D01*
X165250000Y-64740000D02*
X163990000Y-64740000D01*
X189550000Y-108400000D02*
X189900000Y-108750000D01*
X154675000Y-41865000D02*
X154300000Y-42240000D01*
%TO.N,VBAT*%
X157212500Y-88287500D02*
X157212500Y-87200000D01*
D58*
X175200000Y-69500000D02*
X175200000Y-71450000D01*
X171300000Y-67550000D02*
X173250000Y-67550000D01*
D57*
X152965000Y-86415000D02*
X153450000Y-86900000D01*
D58*
X189400000Y-52950000D02*
X187950000Y-52950000D01*
X175200000Y-71450000D02*
X175800000Y-72050000D01*
X189800000Y-49300000D02*
X189750480Y-49349520D01*
X188050000Y-55700000D02*
X190750000Y-55700000D01*
X178474511Y-70225489D02*
X178474511Y-61782741D01*
X173250000Y-67550000D02*
X175200000Y-69500000D01*
X188850000Y-43005000D02*
X188850000Y-47262500D01*
D57*
X152965000Y-69335000D02*
X153300000Y-69000000D01*
X153450000Y-86900000D02*
X153450000Y-87100000D01*
D58*
X190550000Y-42400000D02*
X188850000Y-44100000D01*
X190750000Y-55700000D02*
X191549520Y-56499520D01*
X191549520Y-63160951D02*
X189674520Y-65035951D01*
X187950000Y-52950000D02*
X187250000Y-53650000D01*
D57*
X152965000Y-76525000D02*
X152965000Y-79275000D01*
X153450000Y-87100000D02*
X154637500Y-88287500D01*
X152965000Y-84525000D02*
X152965000Y-86415000D01*
X152965000Y-71275000D02*
X154235000Y-71275000D01*
D58*
X189674520Y-65035951D02*
X189435000Y-65275471D01*
X175800000Y-72050000D02*
X176650000Y-72050000D01*
X167950000Y-73650000D02*
X167950000Y-70900000D01*
X187750000Y-41905000D02*
X188850000Y-43005000D01*
D57*
X152965000Y-79275000D02*
X154235000Y-79275000D01*
D58*
X178200000Y-52250000D02*
X177110000Y-51160000D01*
X162850000Y-74700000D02*
X162700000Y-74550000D01*
X189750480Y-49349520D02*
X189750480Y-52599520D01*
X189435000Y-65275471D02*
X189435000Y-67975000D01*
D57*
X157212500Y-89100000D02*
X157212500Y-88287500D01*
D58*
X187250000Y-53650000D02*
X187250000Y-54900000D01*
X167950000Y-70900000D02*
X171300000Y-67550000D01*
X166600000Y-48450000D02*
X168710000Y-50560000D01*
X168710000Y-50560000D02*
X168710000Y-51160000D01*
D57*
X154637500Y-88287500D02*
X157212500Y-88287500D01*
D58*
X178424511Y-61732741D02*
X178424511Y-60882741D01*
X191549520Y-56499520D02*
X191549520Y-63160951D01*
X187250000Y-54900000D02*
X188050000Y-55700000D01*
X188850000Y-48350000D02*
X189800000Y-49300000D01*
X154000000Y-69700000D02*
X153300000Y-69000000D01*
D57*
X152965000Y-71275000D02*
X152965000Y-69335000D01*
D58*
X177400000Y-42350000D02*
X174700000Y-45050000D01*
D57*
X152965000Y-71275000D02*
X152965000Y-76525000D01*
D58*
X178424511Y-60882741D02*
X178200000Y-60658230D01*
D57*
X152965000Y-79275000D02*
X152965000Y-84525000D01*
X157200000Y-89112500D02*
X157212500Y-89100000D01*
D58*
X174700000Y-45050000D02*
X166600000Y-45050000D01*
D57*
X156850000Y-91550000D02*
X157200000Y-91900000D01*
D58*
X188850000Y-44100000D02*
X188850000Y-47262500D01*
X178200000Y-60658230D02*
X178200000Y-52250000D01*
X176650000Y-72050000D02*
X178474511Y-70225489D01*
D57*
X155050000Y-91550000D02*
X156850000Y-91550000D01*
D58*
X162700000Y-74550000D02*
X162700000Y-70450000D01*
X177110000Y-51160000D02*
X168710000Y-51160000D01*
D57*
X157200000Y-91900000D02*
X157200000Y-89112500D01*
D58*
X188850000Y-47262500D02*
X188850000Y-48350000D01*
X189750480Y-52599520D02*
X189400000Y-52950000D01*
X159850000Y-69700000D02*
X154000000Y-69700000D01*
X178474511Y-61782741D02*
X178424511Y-61732741D01*
X168710000Y-51160000D02*
X168710000Y-52560000D01*
D57*
%TO.N,Net-(C3-Pad1)*%
X185750000Y-74600000D02*
X187875000Y-76725000D01*
X185750000Y-70750000D02*
X185750000Y-74600000D01*
X185300000Y-66625000D02*
X185425000Y-66625000D01*
X187875000Y-76725000D02*
X190750000Y-76725000D01*
X186099520Y-67299520D02*
X186099520Y-70400480D01*
X186099520Y-70400480D02*
X185750000Y-70750000D01*
X185425000Y-66625000D02*
X186099520Y-67299520D01*
%TO.N,AUDIO*%
X185329372Y-68204372D02*
X185329372Y-69373794D01*
X182750000Y-71090000D02*
X184010000Y-71090000D01*
X184010000Y-71090000D02*
X184100000Y-71000000D01*
X185300000Y-68175000D02*
X185329372Y-68204372D01*
D58*
%TO.N,+3V3*%
X156675000Y-100812500D02*
X156675000Y-101225000D01*
D57*
X188050000Y-106400000D02*
X188050000Y-107800000D01*
D58*
X190650000Y-53300000D02*
X190650000Y-51550000D01*
D57*
X160037500Y-58100000D02*
X160224511Y-57912989D01*
D58*
X187900000Y-96200000D02*
X189550000Y-94550000D01*
X185700000Y-61500000D02*
X185700000Y-64950000D01*
X189539139Y-54410861D02*
X190650000Y-53300000D01*
X191050000Y-51150000D02*
X190650000Y-51550000D01*
D57*
X153650000Y-105875000D02*
X154900000Y-105875000D01*
D58*
X185700000Y-57300000D02*
X185700000Y-59600000D01*
X184100000Y-72400000D02*
X184100000Y-75900000D01*
D57*
X158900000Y-59237500D02*
X158900000Y-60300000D01*
X160224511Y-54124511D02*
X160100000Y-54000000D01*
X160500000Y-64675000D02*
X161725000Y-64675000D01*
D58*
X184600000Y-56200000D02*
X185700000Y-57300000D01*
D57*
X161700480Y-64650480D02*
X161725000Y-64675000D01*
D58*
X178700000Y-98650000D02*
X178700000Y-106700000D01*
X176330000Y-52560000D02*
X176330000Y-55100000D01*
D57*
X151799901Y-98575499D02*
X151100480Y-99274920D01*
X160450000Y-62150000D02*
X160750000Y-62450000D01*
X155475499Y-98575499D02*
X151799901Y-98575499D01*
D58*
X184100000Y-75900000D02*
X185625000Y-77425000D01*
D57*
X160224511Y-57912989D02*
X160224511Y-54124511D01*
X151100480Y-99274920D02*
X151100480Y-105075480D01*
X185350000Y-110550000D02*
X186700000Y-109200000D01*
X158050000Y-100975000D02*
X158050000Y-102250000D01*
D58*
X187625489Y-89625489D02*
X186675489Y-89625489D01*
D57*
X161250000Y-62450000D02*
X161250480Y-62449520D01*
X190750000Y-106800000D02*
X191000000Y-107050000D01*
X160500000Y-64675000D02*
X159050000Y-64675000D01*
X183400000Y-91675000D02*
X183400000Y-93250000D01*
X163060000Y-66010000D02*
X162750000Y-65700000D01*
D58*
X185700000Y-64950000D02*
X186450000Y-65700000D01*
X184700000Y-61375000D02*
X185575000Y-61375000D01*
X178700000Y-106700000D02*
X182550000Y-110550000D01*
D57*
X151900000Y-105875000D02*
X153650000Y-105875000D01*
D58*
X186675489Y-89625489D02*
X185625000Y-88575000D01*
X188148407Y-54410861D02*
X189539139Y-54410861D01*
D57*
X159950480Y-60850480D02*
X160450000Y-61350000D01*
X158900000Y-60300000D02*
X159450480Y-60850480D01*
D58*
X169190000Y-66010000D02*
X172550000Y-62650000D01*
X177400000Y-59550000D02*
X172625500Y-59550000D01*
D57*
X187025000Y-113150000D02*
X186550000Y-113150000D01*
D58*
X185575000Y-61375000D02*
X185700000Y-61500000D01*
X183050000Y-56626854D02*
X183050000Y-56200000D01*
D57*
X161725000Y-64675000D02*
X162750000Y-65700000D01*
X158050000Y-102250000D02*
X158100000Y-102300000D01*
D58*
X183050000Y-56200000D02*
X184600000Y-56200000D01*
X169875000Y-94875000D02*
X170125000Y-94625000D01*
X165250000Y-66010000D02*
X169040000Y-66010000D01*
D57*
X159050000Y-64675000D02*
X157650000Y-63275000D01*
X160450000Y-61350000D02*
X160450000Y-62150000D01*
D58*
X162450000Y-102300000D02*
X169875000Y-94875000D01*
D57*
X186550000Y-113150000D02*
X185350000Y-111950000D01*
D58*
X185625000Y-77425000D02*
X185625000Y-78525000D01*
D57*
X158900000Y-59237500D02*
X160037500Y-58100000D01*
D58*
X185575000Y-59725000D02*
X185700000Y-59600000D01*
D57*
X186700000Y-109200000D02*
X187600000Y-108300000D01*
X185350000Y-111950000D02*
X185350000Y-110550000D01*
D58*
X169040000Y-66010000D02*
X169190000Y-66010000D01*
D57*
X160750000Y-62450000D02*
X161250000Y-62450000D01*
X188050000Y-107800000D02*
X187600000Y-108250000D01*
D58*
X176330000Y-55100000D02*
X176330000Y-58480000D01*
D57*
X165250000Y-66010000D02*
X163060000Y-66010000D01*
D58*
X179948522Y-59728332D02*
X183050000Y-56626854D01*
X185625000Y-88575000D02*
X185625000Y-87200000D01*
D57*
X159450480Y-60850480D02*
X159950480Y-60850480D01*
X187600000Y-108300000D02*
X187600000Y-108250000D01*
D58*
X182550000Y-110550000D02*
X185350000Y-110550000D01*
X178725000Y-94625000D02*
X170125000Y-94625000D01*
D57*
X154900000Y-105875000D02*
X155350000Y-105425000D01*
D58*
X189550000Y-94550000D02*
X189550000Y-91550000D01*
D57*
X156675000Y-99775000D02*
X155475499Y-98575499D01*
X183400000Y-93250000D02*
X182025000Y-94625000D01*
D58*
X191050000Y-48050000D02*
X191050000Y-51150000D01*
X190350000Y-47350000D02*
X191050000Y-48050000D01*
D57*
X151100480Y-105075480D02*
X151900000Y-105875000D01*
D58*
X158100000Y-102300000D02*
X162450000Y-102300000D01*
X184700000Y-59725000D02*
X185575000Y-59725000D01*
X185700000Y-59600000D02*
X185700000Y-61500000D01*
X156675000Y-101225000D02*
X157750000Y-102300000D01*
X157750000Y-102300000D02*
X158100000Y-102300000D01*
X183600000Y-96200000D02*
X187900000Y-96200000D01*
D57*
X190750000Y-105900000D02*
X190750000Y-106800000D01*
X161250480Y-62449520D02*
X161700480Y-62899520D01*
D58*
X176330000Y-58480000D02*
X177400000Y-59550000D01*
X178725000Y-94625000D02*
X182025000Y-94625000D01*
D57*
X156675000Y-100812500D02*
X156675000Y-99775000D01*
X161700480Y-62899520D02*
X161700480Y-64650480D01*
D58*
X189550000Y-91550000D02*
X187625489Y-89625489D01*
X182025000Y-94625000D02*
X183600000Y-96200000D01*
D57*
%TO.N,Net-(C6-Pad1)*%
X189435000Y-75040000D02*
X189275000Y-75200000D01*
X189435000Y-73225000D02*
X189435000Y-75040000D01*
X188465000Y-73225000D02*
X189630969Y-73225000D01*
D58*
%TO.N,Net-(C8-Pad1)*%
X186000000Y-48500000D02*
X183700000Y-48500000D01*
D57*
X157905000Y-48500000D02*
X160225000Y-48500000D01*
D58*
X172650000Y-48500000D02*
X172500000Y-48500000D01*
X183700000Y-48500000D02*
X172650000Y-48500000D01*
X186650489Y-49150489D02*
X186000000Y-48500000D01*
X183700000Y-48500000D02*
X183700000Y-44762500D01*
X165250000Y-48450000D02*
X160825000Y-48450000D01*
X172500000Y-48500000D02*
X170050000Y-46050000D01*
X188850000Y-57750000D02*
X186650489Y-55550489D01*
X160825000Y-48450000D02*
X160500000Y-48775000D01*
X169900000Y-45900000D02*
X165250000Y-45900000D01*
X186650489Y-55550489D02*
X186650489Y-49150489D01*
D57*
X160225000Y-48500000D02*
X160500000Y-48775000D01*
D58*
X170050000Y-46050000D02*
X169900000Y-45900000D01*
D57*
%TO.N,Net-(C9-Pad1)*%
X189050000Y-110775000D02*
X188575000Y-111250000D01*
X189050000Y-106400000D02*
X189050000Y-110775000D01*
%TO.N,Net-(C10-Pad1)*%
X152075000Y-56175000D02*
X152075000Y-59375000D01*
X152075000Y-59375000D02*
X153300000Y-60600000D01*
X153300000Y-60600000D02*
X156625000Y-60600000D01*
X156625000Y-60600000D02*
X157650000Y-61625000D01*
%TO.N,Net-(C10-Pad2)*%
X159337500Y-61575000D02*
X157762500Y-60000000D01*
X156425000Y-60000000D02*
X157762500Y-60000000D01*
X153625000Y-57200000D02*
X153625000Y-56175000D01*
X156425000Y-60000000D02*
X153625000Y-57200000D01*
X159350000Y-61575000D02*
X159337500Y-61575000D01*
%TO.N,Net-(C11-Pad1)*%
X189550000Y-102500000D02*
X189550000Y-101675000D01*
X189550000Y-101675000D02*
X190800000Y-100425000D01*
%TO.N,PLUNGER_ANA*%
X162800000Y-57150000D02*
X162750000Y-57100000D01*
X162800000Y-58175000D02*
X162800000Y-57150000D01*
X162750000Y-56075000D02*
X162750000Y-53150000D01*
X181150000Y-66600000D02*
X181830000Y-67280000D01*
X162800000Y-58175000D02*
X169475000Y-58175000D01*
X181830000Y-67280000D02*
X182750000Y-67280000D01*
X176914013Y-65614013D02*
X176914013Y-65888612D01*
X181150000Y-66050000D02*
X181150000Y-66600000D01*
X162750000Y-53150000D02*
X163375000Y-52525000D01*
X169475000Y-58175000D02*
X176914013Y-65614013D01*
X162750000Y-57100000D02*
X162750000Y-56075000D01*
%TO.N,Net-(C13-Pad1)*%
X160525000Y-67750000D02*
X160525000Y-67725000D01*
X161212500Y-67037500D02*
X160500000Y-66325000D01*
X160525000Y-67725000D02*
X161212500Y-67037500D01*
X161455000Y-67280000D02*
X161212500Y-67037500D01*
X165250000Y-67280000D02*
X161455000Y-67280000D01*
%TO.N,MLCD_A*%
X161789485Y-99839485D02*
X163552776Y-99839485D01*
X159650000Y-97700000D02*
X161789485Y-99839485D01*
X185150000Y-94350000D02*
X185400000Y-94100000D01*
X159650000Y-97700000D02*
X159650000Y-99350000D01*
X185400000Y-94100000D02*
X185400000Y-91675000D01*
%TO.N,Net-(D1-Pad1)*%
X162500000Y-42500000D02*
X162500000Y-44175000D01*
%TO.N,Net-(D2-Pad1)*%
X152000000Y-42537500D02*
X152000000Y-44175000D01*
D58*
%TO.N,Net-(D3-Pad1)*%
X184750000Y-46537500D02*
X184650000Y-46637500D01*
X180500000Y-43850000D02*
X180900000Y-43450000D01*
X180900000Y-43450000D02*
X184750000Y-43450000D01*
X184750000Y-43450000D02*
X184750000Y-41905000D01*
X184750000Y-43450000D02*
X184750000Y-46537500D01*
D57*
%TO.N,Net-(D4-Pad2)*%
X157762500Y-57762500D02*
X159450000Y-56075000D01*
X157762500Y-58100000D02*
X157762500Y-57762500D01*
%TO.N,Net-(D6-Pad2)*%
X159650000Y-92200000D02*
X159650000Y-94400000D01*
X159350000Y-91900000D02*
X159650000Y-92200000D01*
X159350000Y-91900000D02*
X159350000Y-89237500D01*
X159350000Y-89237500D02*
X159487500Y-89100000D01*
%TO.N,USB_DM*%
X169750000Y-47500000D02*
X172875489Y-50625489D01*
X178949022Y-60665482D02*
X178949022Y-61515482D01*
X178749022Y-60465482D02*
X178949022Y-60665482D01*
X174291770Y-75250000D02*
X169000000Y-75250000D01*
X166250000Y-79980000D02*
X165250000Y-79980000D01*
X158125000Y-45125000D02*
X157662701Y-45587299D01*
X177767259Y-50625489D02*
X178749022Y-51607252D01*
X178999022Y-70542748D02*
X174291770Y-75250000D01*
X172875489Y-50625489D02*
X177767259Y-50625489D01*
X159600000Y-47500000D02*
X169750000Y-47500000D01*
X158125000Y-43050000D02*
X158125000Y-45125000D01*
X169000000Y-75250000D02*
X167900000Y-76350000D01*
X167900000Y-76350000D02*
X167900000Y-78330000D01*
X178749022Y-51607252D02*
X178749022Y-60465482D01*
X167900000Y-78330000D02*
X166250000Y-79980000D01*
X178999022Y-61565482D02*
X178999022Y-70542748D01*
X178949022Y-61515482D02*
X178999022Y-61565482D01*
%TO.N,USB_DP*%
X179448532Y-61379288D02*
X179398532Y-61329288D01*
X172850000Y-49900000D02*
X169650000Y-46700000D01*
X177677474Y-49900000D02*
X172850000Y-49900000D01*
X169150000Y-76050000D02*
X174127474Y-76050000D01*
X179398532Y-60479288D02*
X179224020Y-60304776D01*
X157475000Y-43050000D02*
X157475000Y-44350000D01*
X157400489Y-44424511D02*
X157061208Y-44424511D01*
X179224020Y-51446546D02*
X177677474Y-49900000D01*
X157475000Y-44350000D02*
X157400489Y-44424511D01*
X165250000Y-81250000D02*
X166385704Y-81250000D01*
X157061208Y-44424511D02*
X156301789Y-45183930D01*
X174127474Y-76050000D02*
X179448533Y-70728941D01*
X179398532Y-61329288D02*
X179398532Y-60479288D01*
X168349510Y-79286194D02*
X168349510Y-76850490D01*
X166385704Y-81250000D02*
X168349510Y-79286194D01*
X169650000Y-46700000D02*
X160750000Y-46700000D01*
X168349510Y-76850490D02*
X169150000Y-76050000D01*
X179448533Y-70728941D02*
X179448532Y-61379288D01*
X179224020Y-60304776D02*
X179224020Y-51446546D01*
%TO.N,Net-(J2-Pad1)*%
X186950000Y-62000000D02*
X186950000Y-56600000D01*
X188900000Y-63950000D02*
X186950000Y-62000000D01*
X186950000Y-56600000D02*
X183600000Y-53250000D01*
X188900000Y-66829040D02*
X188900000Y-63950000D01*
X188789520Y-66939520D02*
X188900000Y-66829040D01*
X190300000Y-69900000D02*
X189350000Y-69900000D01*
X189350000Y-69900000D02*
X188789520Y-69339520D01*
X190705000Y-69495000D02*
X190300000Y-69900000D01*
X188789520Y-69339520D02*
X188789520Y-66939520D01*
X190705000Y-67975000D02*
X190705000Y-69495000D01*
X183600000Y-53250000D02*
X183600000Y-52300000D01*
%TO.N,Net-(J2-Pad2)*%
X187195000Y-64946770D02*
X187195000Y-67675000D01*
X184875489Y-55675489D02*
X186500489Y-57300489D01*
X186500489Y-57300489D02*
X186500489Y-64252259D01*
X186500489Y-64252259D02*
X187195000Y-64946770D01*
X184675489Y-55675489D02*
X184875489Y-55675489D01*
X181300000Y-52300000D02*
X184675489Y-55675489D01*
X187195000Y-67675000D02*
X186895000Y-67975000D01*
%TO.N,LCD_RESET*%
X182900000Y-91675000D02*
X182900000Y-92561847D01*
X161001470Y-90412826D02*
X161001470Y-92458582D01*
X152100000Y-99300000D02*
X152100000Y-100787500D01*
X168710000Y-56660000D02*
X168710000Y-55100000D01*
X162750000Y-87450000D02*
X162750000Y-88664296D01*
X178450000Y-77250000D02*
X174900000Y-80800000D01*
X182900000Y-92561847D02*
X182384481Y-93077366D01*
X176525000Y-71044335D02*
X177900000Y-69669335D01*
X152100000Y-100787500D02*
X152125000Y-100812500D01*
X161024024Y-96159728D02*
X163164296Y-98300000D01*
X163164296Y-98300000D02*
X163200000Y-98300000D01*
X161001470Y-92458582D02*
X161024021Y-92481133D01*
X161024021Y-92481133D02*
X161024024Y-96159728D01*
X177900000Y-65850000D02*
X168710000Y-56660000D01*
X177900000Y-69669335D02*
X177900000Y-65850000D01*
X174900000Y-80800000D02*
X170950000Y-80800000D01*
X162750000Y-88664296D02*
X161001470Y-90412826D01*
%TO.N,SPI_CS_LCD0*%
X166640000Y-72360000D02*
X166650000Y-72350000D01*
X165250000Y-72360000D02*
X166640000Y-72360000D01*
%TO.N,SPI_DC*%
X166620000Y-73630000D02*
X166650000Y-73600000D01*
X165250000Y-73630000D02*
X166620000Y-73630000D01*
%TO.N,SPI_SCK*%
X163730304Y-69820000D02*
X163186293Y-69275989D01*
X164625402Y-96900000D02*
X165587701Y-97862299D01*
X161000000Y-70389696D02*
X161000000Y-83750000D01*
X165250000Y-69820000D02*
X168130000Y-69820000D01*
X163186293Y-69275989D02*
X162113708Y-69275988D01*
X162113708Y-69275988D02*
X161000000Y-70389696D01*
X180900000Y-92659726D02*
X180900000Y-91675000D01*
X161000000Y-83750000D02*
X163950489Y-86700489D01*
X163950489Y-88763807D02*
X161923043Y-90791253D01*
X161923043Y-95773043D02*
X163050000Y-96900000D01*
X180400000Y-93159726D02*
X180900000Y-92659726D01*
X161923043Y-90791253D02*
X161923043Y-95773043D01*
X180400000Y-93600000D02*
X180400000Y-93159726D01*
X163050000Y-96900000D02*
X164625402Y-96900000D01*
X163950489Y-86700489D02*
X163950489Y-88763807D01*
X168130000Y-69820000D02*
X173850000Y-64100000D01*
X165250000Y-69820000D02*
X163730304Y-69820000D01*
%TO.N,SPI_MOSI*%
X162200000Y-68550000D02*
X160500000Y-70250000D01*
X162849511Y-97349511D02*
X163747705Y-97349511D01*
X161473534Y-90576466D02*
X161473534Y-95973534D01*
X163747705Y-97349511D02*
X164680926Y-98282732D01*
X161473534Y-95973534D02*
X162849511Y-97349511D01*
X168100000Y-68550000D02*
X172650000Y-64000000D01*
X165250000Y-68550000D02*
X168100000Y-68550000D01*
X163500978Y-86925380D02*
X163500978Y-88549022D01*
X163500978Y-88549022D02*
X161473534Y-90576466D01*
X181400000Y-91675000D02*
X181400000Y-93250000D01*
X165250000Y-68550000D02*
X162200000Y-68550000D01*
X160500000Y-70250000D02*
X160500000Y-83924402D01*
X160500000Y-83924402D02*
X163500978Y-86925380D01*
%TO.N,Net-(R2-Pad2)*%
X190705000Y-73225000D02*
X190705000Y-75030000D01*
X190705000Y-75030000D02*
X190750000Y-75075000D01*
%TO.N,Net-(R3-Pad2)*%
X160399901Y-46025499D02*
X160600400Y-45825000D01*
X160600400Y-45825000D02*
X162500000Y-45825000D01*
X158249101Y-46025499D02*
X160399901Y-46025499D01*
X156635000Y-47639600D02*
X158249101Y-46025499D01*
X156635000Y-48500000D02*
X156635000Y-47639600D01*
%TO.N,Net-(R4-Pad2)*%
X155365000Y-48500000D02*
X155365000Y-47340400D01*
X153800099Y-45775499D02*
X152049501Y-45775499D01*
X152049501Y-45775499D02*
X152000000Y-45825000D01*
X155365000Y-47340400D02*
X153800099Y-45775499D01*
%TO.N,Net-(R5-Pad1)*%
X155365000Y-55535000D02*
X155175000Y-55725000D01*
X155365000Y-53450000D02*
X155365000Y-55535000D01*
%TO.N,Net-(R8-Pad2)*%
X161375000Y-61650000D02*
X161375000Y-60025000D01*
X162625000Y-60000000D02*
X162800000Y-59825000D01*
X160037500Y-60000000D02*
X161400000Y-60000000D01*
X161375000Y-60025000D02*
X161400000Y-60000000D01*
X161400000Y-60000000D02*
X162625000Y-60000000D01*
%TO.N,MLCD_K*%
X159250000Y-87200000D02*
X157550000Y-85500000D01*
X157550000Y-85500000D02*
X157550000Y-84275000D01*
X160551960Y-90226632D02*
X160551960Y-92644776D01*
X184400000Y-93700000D02*
X184400000Y-94974010D01*
X160574514Y-96782452D02*
X162175898Y-98383836D01*
X160574510Y-92667327D02*
X160574514Y-96782452D01*
X162000000Y-88778592D02*
X160551960Y-90226632D01*
X184400000Y-91675000D02*
X184400000Y-93700000D01*
X184900000Y-91675000D02*
X184900000Y-93200000D01*
X184900000Y-93200000D02*
X184400000Y-93700000D01*
X157550000Y-84275000D02*
X158450000Y-83375000D01*
X162000000Y-86925000D02*
X162000000Y-88778592D01*
X160551960Y-92644776D02*
X160574510Y-92667327D01*
X184400000Y-94974010D02*
X184174010Y-95200000D01*
X158450000Y-83375000D02*
X162000000Y-86925000D01*
%TO.N,RIN_V*%
X176601408Y-76170000D02*
X172721408Y-80050000D01*
X169962552Y-80050000D02*
X169586554Y-80425998D01*
X172721408Y-80050000D02*
X169962552Y-80050000D01*
X151700000Y-86500000D02*
X151700000Y-84530000D01*
X182750000Y-76170000D02*
X176601408Y-76170000D01*
%TO.N,I2C_SDA*%
X156025000Y-100812500D02*
X156025000Y-102075000D01*
X156800000Y-102850000D02*
X162750000Y-102850000D01*
X183300000Y-96850000D02*
X181775499Y-95325499D01*
X180048041Y-66993093D02*
X179975989Y-66921041D01*
X187550000Y-101300000D02*
X187550000Y-102700000D01*
X187000978Y-88565186D02*
X187536770Y-89100978D01*
X181047063Y-99547063D02*
X185797063Y-99547063D01*
X190074511Y-94825489D02*
X188050000Y-96850000D01*
X179975989Y-62799011D02*
X184700000Y-58075000D01*
X185797063Y-99547063D02*
X187550000Y-101300000D01*
X181370000Y-69820000D02*
X180048041Y-68498041D01*
X179975989Y-66921041D02*
X179975989Y-62799011D01*
X181775499Y-95325499D02*
X179883408Y-95325499D01*
X182750000Y-69820000D02*
X181370000Y-69820000D01*
X187592749Y-89100979D02*
X187842749Y-89100979D01*
X182750000Y-69820000D02*
X184115274Y-69820000D01*
X184115274Y-69820000D02*
X184824501Y-70529227D01*
X179883408Y-95325499D02*
X179784407Y-95424500D01*
X162750000Y-102850000D02*
X170100000Y-95500000D01*
X156025000Y-102075000D02*
X156800000Y-102850000D01*
X184824501Y-75149140D02*
X187000978Y-77325617D01*
X190074511Y-91332741D02*
X190074511Y-94825489D01*
X179708907Y-95500000D02*
X179784407Y-95424500D01*
X170100000Y-95500000D02*
X179708907Y-95500000D01*
X187536770Y-89100978D02*
X187592749Y-89100979D01*
X180048041Y-68498041D02*
X180048041Y-66993093D01*
X187842749Y-89100979D02*
X190074511Y-91332741D01*
X184824501Y-70529227D02*
X184824501Y-75149140D01*
X188050000Y-96850000D02*
X183300000Y-96850000D01*
X180050000Y-98550000D02*
X181047063Y-99547063D01*
X187000978Y-77325617D02*
X187000978Y-88565186D01*
%TO.N,I2C_SCL*%
X181300000Y-98650000D02*
X181747553Y-99097553D01*
X155375000Y-102125000D02*
X155375000Y-100812500D01*
X190524021Y-91146547D02*
X188028942Y-88651468D01*
X181150000Y-96050000D02*
X181050999Y-96149001D01*
X188028942Y-88651468D02*
X187878942Y-88651468D01*
X156550000Y-103300000D02*
X155375000Y-102125000D01*
X181150000Y-96050000D02*
X181864296Y-96050000D01*
X181864296Y-96050000D02*
X183113807Y-97299511D01*
X170150999Y-96149001D02*
X163000000Y-103300000D01*
X190524022Y-95011682D02*
X190524021Y-91146547D01*
X188050000Y-100978521D02*
X188050000Y-102700000D01*
X163000000Y-103300000D02*
X156550000Y-103300000D01*
X188236194Y-97299510D02*
X190524022Y-95011682D01*
X185300000Y-74974639D02*
X185300000Y-70369022D01*
X187450490Y-88223016D02*
X187450490Y-77125129D01*
X181747553Y-99097553D02*
X186169032Y-99097553D01*
X181050999Y-96149001D02*
X170150999Y-96149001D01*
X187878942Y-88651468D02*
X187450490Y-88223016D01*
X183113807Y-97299511D02*
X188236194Y-97299510D01*
X187450490Y-77125129D02*
X185300000Y-74974639D01*
X186169032Y-99097553D02*
X188050000Y-100978521D01*
%TO.N,Net-(TP1-Pad1)*%
X190800000Y-110350000D02*
X190600000Y-110550000D01*
X190050000Y-107400000D02*
X190800000Y-108150000D01*
X190800000Y-108150000D02*
X190800000Y-110350000D01*
X190050000Y-106400000D02*
X190050000Y-107400000D01*
%TO.N,Net-(TP2-Pad1)*%
X182050000Y-105900000D02*
X181900000Y-105750000D01*
X186850000Y-105900000D02*
X182050000Y-105900000D01*
%TO.N,Net-(TP3-Pad1)*%
X187550000Y-107400000D02*
X186600000Y-108350000D01*
X186600000Y-108350000D02*
X184200000Y-108350000D01*
X187550000Y-106400000D02*
X187550000Y-107400000D01*
%TO.N,SW_START*%
X162900000Y-105400000D02*
X170501958Y-97798042D01*
X188794774Y-98648042D02*
X191872553Y-95570263D01*
X152775000Y-100812500D02*
X152775000Y-103350000D01*
X182555226Y-98648042D02*
X188794774Y-98648042D01*
X157000000Y-105400000D02*
X162900000Y-105400000D01*
X152587500Y-103537500D02*
X151900000Y-104225000D01*
X188950000Y-82325000D02*
X188950000Y-82050000D01*
X191872553Y-95570263D02*
X191872554Y-85247554D01*
X170501958Y-97798042D02*
X181705226Y-97798042D01*
X152775000Y-103350000D02*
X152587500Y-103537500D01*
X191872554Y-85247554D02*
X188950000Y-82325000D01*
X181705226Y-97798042D02*
X182555226Y-98648042D01*
%TO.N,FIN_H*%
X173563178Y-77300000D02*
X169500000Y-77300000D01*
X182750000Y-72360000D02*
X178503178Y-72360000D01*
X151700000Y-72900000D02*
X151700000Y-71280000D01*
X178503178Y-72360000D02*
X173563178Y-77300000D01*
%TO.N,RIN_H*%
X151700000Y-76430000D02*
X151795000Y-76525000D01*
X182750000Y-73630000D02*
X177870000Y-73630000D01*
X151700000Y-74600000D02*
X151700000Y-76430000D01*
X173100000Y-78400000D02*
X169500000Y-78400000D01*
X177870000Y-73630000D02*
X173100000Y-78400000D01*
%TO.N,FIN_V*%
X182750000Y-74900000D02*
X177235704Y-74900000D01*
X177235704Y-74900000D02*
X172685564Y-79450140D01*
X172685564Y-79450140D02*
X169500282Y-79450140D01*
X169500282Y-79450140D02*
X169482109Y-79431967D01*
X151900000Y-82600000D02*
X151900000Y-79480000D01*
X151900000Y-79480000D02*
X151695000Y-79275000D01*
%TO.N,SPI_CS_LCD1*%
X162372554Y-90977446D02*
X164400000Y-88950000D01*
X163000099Y-69725499D02*
X164364600Y-71090000D01*
X180400000Y-92524022D02*
X179824022Y-93100000D01*
X163250000Y-96400000D02*
X162372554Y-95522554D01*
X161500000Y-70525400D02*
X162299901Y-69725499D01*
X162299901Y-69725499D02*
X163000099Y-69725499D01*
X164364600Y-71090000D02*
X165250000Y-71090000D01*
X179824022Y-93100000D02*
X179450000Y-93100000D01*
X164400000Y-88950000D02*
X164400000Y-86150000D01*
X165150000Y-96400000D02*
X163250000Y-96400000D01*
X162372554Y-95522554D02*
X162372554Y-90977446D01*
X164400000Y-86150000D02*
X161500000Y-83250000D01*
X180400000Y-91675000D02*
X180400000Y-92524022D01*
X161500000Y-83250000D02*
X161500000Y-70525400D01*
%TO.N,LCD_PCLK*%
X185075489Y-78325489D02*
X184190000Y-77440000D01*
X185075489Y-84174511D02*
X185075489Y-78325489D01*
X184190000Y-77440000D02*
X182750000Y-77440000D01*
X179900000Y-91675000D02*
X179900000Y-89350000D01*
X179900000Y-89350000D02*
X185075489Y-84174511D01*
%TO.N,LCD_DE*%
X184625978Y-78875978D02*
X184460000Y-78710000D01*
X184625978Y-83988318D02*
X184625978Y-78875978D01*
X184460000Y-78710000D02*
X182750000Y-78710000D01*
X179400000Y-91675000D02*
X179400000Y-89214296D01*
X179400000Y-89214296D02*
X184625978Y-83988318D01*
%TO.N,LCD_VSYNC*%
X178900000Y-91675000D02*
X178900000Y-89078592D01*
X184176467Y-80406467D02*
X183750000Y-79980000D01*
X184176467Y-83802125D02*
X184176467Y-80406467D01*
X183750000Y-79980000D02*
X182750000Y-79980000D01*
X178900000Y-89078592D02*
X184176467Y-83802125D01*
%TO.N,LCD_HSYNC*%
X178400000Y-88942888D02*
X182750000Y-84592888D01*
X182750000Y-84592888D02*
X182750000Y-84150000D01*
X178400000Y-91675000D02*
X178400000Y-88942888D01*
X182750000Y-84150000D02*
X182750000Y-81250000D01*
%TO.N,LCD_D1*%
X180985000Y-82500000D02*
X180985000Y-85722184D01*
X177400000Y-89307184D02*
X177400000Y-91675000D01*
X180985000Y-85722184D02*
X177400000Y-89307184D01*
%TO.N,LCD_D2*%
X176900000Y-88200000D02*
X179715000Y-85385000D01*
X176900000Y-91675000D02*
X176900000Y-88200000D01*
X179715000Y-85385000D02*
X179715000Y-82500000D01*
%TO.N,LCD_D3*%
X178445000Y-85755000D02*
X178445000Y-82500000D01*
X176400000Y-87800000D02*
X178445000Y-85755000D01*
X176400000Y-91675000D02*
X176400000Y-87800000D01*
%TO.N,LCD_D4*%
X175900000Y-91675000D02*
X175900000Y-87250000D01*
X175900000Y-87250000D02*
X177175000Y-85975000D01*
X177175000Y-85975000D02*
X177175000Y-82500000D01*
%TO.N,LCD_D5*%
X175905000Y-82500000D02*
X175905000Y-86045000D01*
X175400000Y-86550000D02*
X175400000Y-91675000D01*
X175905000Y-86045000D02*
X175400000Y-86550000D01*
%TO.N,LCD_D6*%
X174635000Y-82500000D02*
X174635000Y-84885000D01*
X174635000Y-84885000D02*
X174900000Y-85150000D01*
X174900000Y-85150000D02*
X174900000Y-91675000D01*
%TO.N,LCD_D7*%
X173365000Y-84615000D02*
X174400000Y-85650000D01*
X174400000Y-85650000D02*
X174400000Y-91675000D01*
X173365000Y-82500000D02*
X173365000Y-84615000D01*
%TO.N,LCD_D8*%
X172095000Y-84709296D02*
X173900000Y-86514296D01*
X172095000Y-82500000D02*
X172095000Y-84709296D01*
X173900000Y-86514296D02*
X173900000Y-91675000D01*
%TO.N,LCD_D9*%
X170825000Y-84625000D02*
X173400000Y-87200000D01*
X173400000Y-87200000D02*
X173400000Y-91675000D01*
X170825000Y-82500000D02*
X170825000Y-84625000D01*
%TO.N,LCD_D10*%
X169555000Y-82500000D02*
X169555000Y-84305000D01*
X169555000Y-84305000D02*
X172900000Y-87650000D01*
X172900000Y-87650000D02*
X172900000Y-91675000D01*
%TO.N,LCD_D11*%
X168285000Y-83835000D02*
X172400000Y-87950000D01*
X172400000Y-87950000D02*
X172400000Y-91675000D01*
X168285000Y-82500000D02*
X168285000Y-83835000D01*
%TO.N,LCD_D13*%
X171400000Y-91675000D02*
X171400000Y-87885000D01*
X171400000Y-87885000D02*
X167015000Y-83500000D01*
X167015000Y-83500000D02*
X167015000Y-82500000D01*
%TO.N,LCD_D14*%
X170900000Y-88061177D02*
X166767257Y-83928434D01*
X165128434Y-83928434D02*
X163500000Y-82300000D01*
X163500000Y-79460000D02*
X164250000Y-78710000D01*
X170900000Y-91675000D02*
X170900000Y-88061177D01*
X166767257Y-83928434D02*
X165128434Y-83928434D01*
X163500000Y-82300000D02*
X163500000Y-79460000D01*
X164250000Y-78710000D02*
X165250000Y-78710000D01*
%TO.N,LCD_D15*%
X170400000Y-91675000D02*
X170400000Y-88196880D01*
X163000000Y-82478592D02*
X163000000Y-78690000D01*
X170400000Y-88196880D02*
X167205565Y-85002445D01*
X163000000Y-78690000D02*
X164250000Y-77440000D01*
X164949352Y-84427944D02*
X163000000Y-82478592D01*
X164250000Y-77440000D02*
X165250000Y-77440000D01*
X166631060Y-84427944D02*
X164949352Y-84427944D01*
X167205565Y-85002445D02*
X166631060Y-84427944D01*
%TO.N,LCD_D16*%
X164080000Y-76170000D02*
X165250000Y-76170000D01*
X169900000Y-88332583D02*
X167019373Y-85451956D01*
X164763159Y-84877455D02*
X162500000Y-82614296D01*
X162500000Y-82614296D02*
X162500000Y-77750000D01*
X166444869Y-84877455D02*
X164763159Y-84877455D01*
X162500000Y-77750000D02*
X164080000Y-76170000D01*
X169900000Y-91675000D02*
X169900000Y-88332583D01*
X167019373Y-85451956D02*
X166444869Y-84877455D01*
%TO.N,LCD_D17*%
X163850000Y-74900000D02*
X165250000Y-74900000D01*
X169400000Y-91675000D02*
X169400000Y-88468289D01*
X165208677Y-85326968D02*
X165208675Y-85326966D01*
X162000000Y-82750000D02*
X162000000Y-76750000D01*
X166258677Y-85326966D02*
X165208677Y-85326968D01*
X169400000Y-88468289D02*
X166258677Y-85326966D01*
X162000000Y-76750000D02*
X163850000Y-74900000D01*
X164576966Y-85326966D02*
X162000000Y-82750000D01*
X165208675Y-85326966D02*
X164576966Y-85326966D01*
%TO.N,SW_FLIPL*%
X188950000Y-86050000D02*
X188950000Y-86325000D01*
X190973532Y-95197876D02*
X188422387Y-97749021D01*
X188950000Y-86325000D02*
X190973532Y-88348532D01*
X188422387Y-97749021D02*
X182927613Y-97749021D01*
X154075000Y-103125000D02*
X154075000Y-100812500D01*
X190973532Y-88348532D02*
X190973532Y-95197876D01*
X182029081Y-96850489D02*
X170099511Y-96850489D01*
X163200000Y-103750000D02*
X154700000Y-103750000D01*
X154700000Y-103750000D02*
X154075000Y-103125000D01*
X170099511Y-96850489D02*
X163200000Y-103750000D01*
X182927613Y-97749021D02*
X182029081Y-96850489D01*
%TO.N,SW_FLIPR*%
X191423042Y-95384070D02*
X188608580Y-98198532D01*
X170350000Y-97300000D02*
X163150000Y-104500000D01*
X188950000Y-84325000D02*
X191423043Y-86798043D01*
X181842888Y-97300000D02*
X170350000Y-97300000D01*
X153650000Y-104225000D02*
X153425000Y-104000000D01*
X188608580Y-98198532D02*
X182741419Y-98198531D01*
X188950000Y-84050000D02*
X188950000Y-84325000D01*
X182741419Y-98198531D02*
X181842888Y-97300000D01*
X153925000Y-104500000D02*
X153650000Y-104225000D01*
X153425000Y-104000000D02*
X153425000Y-100812500D01*
X163150000Y-104500000D02*
X153925000Y-104500000D01*
X191423043Y-86798043D02*
X191423042Y-95384070D01*
%TO.N,Net-(J5-Pad1)*%
X157300000Y-79500000D02*
X158950000Y-79500000D01*
X154235000Y-84525000D02*
X154235000Y-82565000D01*
X154235000Y-82565000D02*
X157300000Y-79500000D01*
%TO.N,Net-(J5-Pad2)*%
X157280000Y-77500000D02*
X158950000Y-77500000D01*
X155505000Y-79275000D02*
X157280000Y-77500000D01*
%TO.N,Net-(J5-Pad4)*%
X157475499Y-73500000D02*
X158950000Y-73500000D01*
X155425400Y-73550000D02*
X157425499Y-73550000D01*
X154235000Y-76525000D02*
X154235000Y-74740400D01*
X157425499Y-73550000D02*
X157475499Y-73500000D01*
X154235000Y-74740400D02*
X155425400Y-73550000D01*
%TO.N,Net-(J5-Pad5)*%
X155605000Y-71275000D02*
X155830000Y-71500000D01*
X155830000Y-71500000D02*
X158950000Y-71500000D01*
%TD*%
M02*
