%FSLAX45Y45*%
G04 Gerber Fmt 4.5, Leading zero omitted, Abs format (unit mm)*
G04 Created by KiCad (PCBNEW 6.0.5+dfsg-1) date 2022-06-12 19:50:50*
%MOMM*%
%LPD*%
G01*
G04 APERTURE LIST*
%TA.AperFunction,Profile*%
%ADD10C,0.100000*%
%TD*%
%ADD11C,0.200000*%
%ADD12C,0.040000*%
%ADD13C,0.045000*%
%ADD14C,0.075000*%
%ADD15C,0.100000*%
G04 APERTURE END LIST*
D10*
X18000000Y-3850000D02*
X19075000Y-3850000D01*
X18000000Y-3850000D02*
X18000000Y-4000000D01*
X15300000Y-4000000D02*
X15300000Y-3850000D01*
X19075000Y-4000000D02*
X19075000Y-3850000D01*
X15000000Y-4000000D02*
X15000000Y-11450000D01*
X19250000Y-4000000D02*
X19075000Y-4000000D01*
X15300000Y-3850000D02*
X16200000Y-3850000D01*
X15000000Y-4000000D02*
X15300000Y-4000000D01*
X15000000Y-11450000D02*
X19250000Y-11450000D01*
X16200000Y-4000000D02*
X18000000Y-4000000D01*
X19250000Y-11450000D02*
X19250000Y-4000000D01*
X16200000Y-3850000D02*
X16200000Y-4000000D01*
D11*
D12*
X15150000Y-7270000D02*
X15190000Y-7310000D01*
X15190000Y-7270000D02*
X15150000Y-7310000D01*
X15150000Y-7440000D02*
X15190000Y-7480000D01*
X15190000Y-7440000D02*
X15150000Y-7480000D01*
X15150000Y-8630000D02*
X15190000Y-8670000D01*
X15190000Y-8630000D02*
X15150000Y-8670000D01*
X15170000Y-8240000D02*
X15210000Y-8280000D01*
X15210000Y-8240000D02*
X15170000Y-8280000D01*
X15185000Y-5087500D02*
X15225000Y-5127500D01*
X15225000Y-5087500D02*
X15185000Y-5127500D01*
X15190000Y-9910000D02*
X15230000Y-9950000D01*
X15230000Y-9910000D02*
X15190000Y-9950000D01*
X15200000Y-9685000D02*
X15240000Y-9725000D01*
X15240000Y-9685000D02*
X15200000Y-9725000D01*
X15238750Y-10333750D02*
X15278750Y-10373750D01*
X15278750Y-10333750D02*
X15238750Y-10373750D01*
X15315000Y-4325000D02*
X15355000Y-4365000D01*
X15355000Y-4325000D02*
X15315000Y-4365000D01*
X15320000Y-6570000D02*
X15360000Y-6610000D01*
X15360000Y-6570000D02*
X15320000Y-6610000D01*
X15322773Y-4095310D02*
X15362773Y-4135310D01*
X15362773Y-4095310D02*
X15322773Y-4135310D01*
X15340000Y-8850000D02*
X15380000Y-8890000D01*
X15380000Y-8850000D02*
X15340000Y-8890000D01*
X15495000Y-5020000D02*
X15535000Y-5060000D01*
X15535000Y-5020000D02*
X15495000Y-5060000D01*
X15495000Y-5130000D02*
X15535000Y-5170000D01*
X15535000Y-5130000D02*
X15495000Y-5170000D01*
X15510000Y-7450000D02*
X15550000Y-7490000D01*
X15550000Y-7450000D02*
X15510000Y-7490000D01*
X15565000Y-5785000D02*
X15605000Y-5825000D01*
X15605000Y-5785000D02*
X15565000Y-5825000D01*
X15610179Y-4498393D02*
X15650179Y-4538393D01*
X15650179Y-4498393D02*
X15610179Y-4538393D01*
X15651511Y-8399051D02*
X15691511Y-8439051D01*
X15691511Y-8399051D02*
X15651511Y-8439051D01*
X15655000Y-5020000D02*
X15695000Y-5060000D01*
X15695000Y-5020000D02*
X15655000Y-5060000D01*
X15655000Y-5130000D02*
X15695000Y-5170000D01*
X15695000Y-5130000D02*
X15655000Y-5170000D01*
X15680000Y-10520000D02*
X15720000Y-10560000D01*
X15720000Y-10520000D02*
X15680000Y-10560000D01*
X15740000Y-9795000D02*
X15780000Y-9835000D01*
X15780000Y-9795000D02*
X15740000Y-9835000D01*
X15746270Y-4538730D02*
X15786270Y-4578730D01*
X15786270Y-4538730D02*
X15746270Y-4578730D01*
X15879730Y-4447270D02*
X15919730Y-4487270D01*
X15919730Y-4447270D02*
X15879730Y-4487270D01*
X15880000Y-6630000D02*
X15920000Y-6670000D01*
X15920000Y-6630000D02*
X15880000Y-6670000D01*
X15940000Y-4730000D02*
X15980000Y-4770000D01*
X15980000Y-4730000D02*
X15940000Y-4770000D01*
X15965000Y-6950000D02*
X16005000Y-6990000D01*
X16005000Y-6950000D02*
X15965000Y-6990000D01*
X16035000Y-6300000D02*
X16075000Y-6340000D01*
X16075000Y-6300000D02*
X16035000Y-6340000D01*
X16055000Y-4650000D02*
X16095000Y-4690000D01*
X16095000Y-4650000D02*
X16055000Y-4690000D01*
X16065000Y-4355000D02*
X16105000Y-4395000D01*
X16105000Y-4355000D02*
X16065000Y-4395000D01*
X16085000Y-8845000D02*
X16125000Y-8885000D01*
X16125000Y-8845000D02*
X16085000Y-8885000D01*
X16167116Y-10036399D02*
X16207116Y-10076399D01*
X16207116Y-10036399D02*
X16167116Y-10076399D01*
X16170000Y-5107500D02*
X16210000Y-5147500D01*
X16210000Y-5107500D02*
X16170000Y-5147500D01*
X16197590Y-9818384D02*
X16237590Y-9858384D01*
X16237590Y-9818384D02*
X16197590Y-9858384D01*
X16250000Y-7025000D02*
X16290000Y-7065000D01*
X16290000Y-7025000D02*
X16250000Y-7065000D01*
X16255000Y-8725000D02*
X16295000Y-8765000D01*
X16295000Y-8725000D02*
X16255000Y-8765000D01*
X16265000Y-7450000D02*
X16305000Y-7490000D01*
X16305000Y-7450000D02*
X16265000Y-7490000D01*
X16300000Y-9810000D02*
X16340000Y-9850000D01*
X16340000Y-9810000D02*
X16300000Y-9850000D01*
X16335278Y-9963949D02*
X16375278Y-10003949D01*
X16375278Y-9963949D02*
X16335278Y-10003949D01*
X16380000Y-4105000D02*
X16420000Y-4145000D01*
X16420000Y-4105000D02*
X16380000Y-4145000D01*
X16405000Y-6330000D02*
X16445000Y-6370000D01*
X16445000Y-6330000D02*
X16405000Y-6370000D01*
X16448093Y-9808273D02*
X16488093Y-9848273D01*
X16488093Y-9808273D02*
X16448093Y-9848273D01*
X16495000Y-9620000D02*
X16535000Y-9660000D01*
X16535000Y-9620000D02*
X16495000Y-9660000D01*
X16505000Y-4570000D02*
X16545000Y-4610000D01*
X16545000Y-4570000D02*
X16505000Y-4610000D01*
X16505000Y-4825000D02*
X16545000Y-4865000D01*
X16545000Y-4825000D02*
X16505000Y-4865000D01*
X16538770Y-9766230D02*
X16578770Y-9806230D01*
X16578770Y-9766230D02*
X16538770Y-9806230D01*
X16620000Y-9315000D02*
X16660000Y-9355000D01*
X16660000Y-9315000D02*
X16620000Y-9355000D01*
X16640000Y-4485000D02*
X16680000Y-4525000D01*
X16680000Y-4485000D02*
X16640000Y-4525000D01*
X16640000Y-4825000D02*
X16680000Y-4865000D01*
X16680000Y-4825000D02*
X16640000Y-4865000D01*
X16645000Y-7215000D02*
X16685000Y-7255000D01*
X16685000Y-7215000D02*
X16645000Y-7255000D01*
X16645000Y-7340000D02*
X16685000Y-7380000D01*
X16685000Y-7340000D02*
X16645000Y-7380000D01*
X16775000Y-7345000D02*
X16815000Y-7385000D01*
X16815000Y-7345000D02*
X16775000Y-7385000D01*
X16870000Y-9315000D02*
X16910000Y-9355000D01*
X16910000Y-9315000D02*
X16870000Y-9355000D01*
X16928211Y-7923197D02*
X16968211Y-7963197D01*
X16968211Y-7923197D02*
X16928211Y-7963197D01*
X16930000Y-7710000D02*
X16970000Y-7750000D01*
X16970000Y-7710000D02*
X16930000Y-7750000D01*
X16930000Y-7820000D02*
X16970000Y-7860000D01*
X16970000Y-7820000D02*
X16930000Y-7860000D01*
X16938655Y-8022600D02*
X16978655Y-8062600D01*
X16978655Y-8022600D02*
X16938655Y-8062600D01*
X17075000Y-8060000D02*
X17115000Y-8100000D01*
X17115000Y-8060000D02*
X17075000Y-8100000D01*
X17170000Y-9315000D02*
X17210000Y-9355000D01*
X17210000Y-9315000D02*
X17170000Y-9355000D01*
X17231230Y-6956230D02*
X17271230Y-6996230D01*
X17271230Y-6956230D02*
X17231230Y-6996230D01*
X17235000Y-6245000D02*
X17275000Y-6285000D01*
X17275000Y-6245000D02*
X17235000Y-6285000D01*
X17242550Y-5935000D02*
X17282550Y-5975000D01*
X17282550Y-5935000D02*
X17242550Y-5975000D01*
X17245000Y-6380000D02*
X17285000Y-6420000D01*
X17285000Y-6380000D02*
X17245000Y-6420000D01*
X17365000Y-6390000D02*
X17405000Y-6430000D01*
X17405000Y-6390000D02*
X17365000Y-6430000D01*
X17632500Y-7084433D02*
X17672500Y-7124433D01*
X17672500Y-7084433D02*
X17632500Y-7124433D01*
X17671401Y-6568861D02*
X17711401Y-6608861D01*
X17711401Y-6568861D02*
X17671401Y-6608861D01*
X17680000Y-9325000D02*
X17720000Y-9365000D01*
X17720000Y-9325000D02*
X17680000Y-9365000D01*
X17720000Y-4215000D02*
X17760000Y-4255000D01*
X17760000Y-4215000D02*
X17720000Y-4255000D01*
X17720000Y-5935000D02*
X17760000Y-5975000D01*
X17760000Y-5935000D02*
X17720000Y-5975000D01*
X17825000Y-7705000D02*
X17865000Y-7745000D01*
X17865000Y-7705000D02*
X17825000Y-7745000D01*
X17850000Y-9845000D02*
X17890000Y-9885000D01*
X17890000Y-9845000D02*
X17850000Y-9885000D01*
X17852500Y-9442500D02*
X17892500Y-9482500D01*
X17892500Y-9442500D02*
X17852500Y-9482500D01*
X17925000Y-9290000D02*
X17965000Y-9330000D01*
X17965000Y-9290000D02*
X17925000Y-9330000D01*
X17958441Y-9522450D02*
X17998441Y-9562450D01*
X17998441Y-9522450D02*
X17958441Y-9562450D01*
X17974852Y-5952833D02*
X18014852Y-5992833D01*
X18014852Y-5952833D02*
X17974852Y-5992833D01*
X17985000Y-9835000D02*
X18025000Y-9875000D01*
X18025000Y-9835000D02*
X17985000Y-9875000D01*
X18020000Y-9340000D02*
X18060000Y-9380000D01*
X18060000Y-9340000D02*
X18020000Y-9380000D01*
X18095000Y-6585000D02*
X18135000Y-6625000D01*
X18135000Y-6585000D02*
X18095000Y-6625000D01*
X18095000Y-9585000D02*
X18135000Y-9625000D01*
X18135000Y-9585000D02*
X18095000Y-9625000D01*
X18105000Y-6422500D02*
X18145000Y-6462500D01*
X18145000Y-6422500D02*
X18105000Y-6462500D01*
X18110000Y-9845000D02*
X18150000Y-9885000D01*
X18150000Y-9845000D02*
X18110000Y-9885000D01*
X18120000Y-9305000D02*
X18160000Y-9345000D01*
X18160000Y-9305000D02*
X18120000Y-9345000D01*
X18218448Y-9287737D02*
X18258448Y-9327737D01*
X18258448Y-9287737D02*
X18218448Y-9327737D01*
X18250000Y-8800000D02*
X18290000Y-8840000D01*
X18290000Y-8800000D02*
X18250000Y-8840000D01*
X18255000Y-8395000D02*
X18295000Y-8435000D01*
X18295000Y-8395000D02*
X18255000Y-8435000D01*
X18285000Y-5600000D02*
X18325000Y-5640000D01*
X18325000Y-5600000D02*
X18285000Y-5640000D01*
X18390000Y-7080000D02*
X18430000Y-7120000D01*
X18430000Y-7080000D02*
X18390000Y-7120000D01*
X18390000Y-7220000D02*
X18430000Y-7260000D01*
X18430000Y-7220000D02*
X18390000Y-7260000D01*
X18397401Y-9500000D02*
X18437401Y-9540000D01*
X18437401Y-9500000D02*
X18397401Y-9540000D01*
X18400000Y-8970000D02*
X18440000Y-9010000D01*
X18440000Y-8970000D02*
X18400000Y-9010000D01*
X18495000Y-9415000D02*
X18535000Y-9455000D01*
X18535000Y-9415000D02*
X18495000Y-9455000D01*
X18510000Y-10285000D02*
X18550000Y-10325000D01*
X18550000Y-10285000D02*
X18510000Y-10325000D01*
X18512937Y-6917379D02*
X18552937Y-6957379D01*
X18552937Y-6917379D02*
X18512937Y-6957379D01*
X18600000Y-4570000D02*
X18640000Y-4610000D01*
X18640000Y-4570000D02*
X18600000Y-4610000D01*
X18625000Y-6550000D02*
X18665000Y-6590000D01*
X18665000Y-6550000D02*
X18625000Y-6590000D01*
X18650000Y-10900000D02*
X18690000Y-10940000D01*
X18690000Y-10900000D02*
X18650000Y-10940000D01*
X18672450Y-7212003D02*
X18712450Y-7252003D01*
X18712450Y-7212003D02*
X18672450Y-7252003D01*
X18794841Y-5421086D02*
X18834841Y-5461086D01*
X18834841Y-5421086D02*
X18794841Y-5461086D01*
X18794952Y-6608595D02*
X18834952Y-6648595D01*
X18834952Y-6608595D02*
X18794952Y-6648595D01*
X18800000Y-10865000D02*
X18840000Y-10905000D01*
X18840000Y-10865000D02*
X18800000Y-10905000D01*
X18970000Y-10855000D02*
X19010000Y-10895000D01*
X19010000Y-10855000D02*
X18970000Y-10895000D01*
X18985000Y-11260000D02*
X19025000Y-11300000D01*
X19025000Y-11260000D02*
X18985000Y-11300000D01*
X19035000Y-4220000D02*
X19075000Y-4260000D01*
X19075000Y-4220000D02*
X19035000Y-4260000D01*
X19060000Y-9760000D02*
X19100000Y-9800000D01*
X19100000Y-9760000D02*
X19060000Y-9800000D01*
X19080000Y-10685000D02*
X19120000Y-10725000D01*
X19120000Y-10685000D02*
X19080000Y-10725000D01*
X19080525Y-10206409D02*
X19120525Y-10246409D01*
X19120525Y-10206409D02*
X19080525Y-10246409D01*
D13*
X15490000Y-4000000D02*
G75*
G03*
X15490000Y-4000000I-22500J0D01*
G01*
D11*
X15455000Y-3945000D02*
X15455000Y-4055000D01*
X15480000Y-3945000D02*
X15480000Y-4055000D01*
X15455000Y-4055000D02*
G75*
G03*
X15480000Y-4055000I12500J0D01*
G01*
X15480000Y-3945000D02*
G75*
G03*
X15455000Y-3945000I-12500J0D01*
G01*
D13*
X16055000Y-4000000D02*
G75*
G03*
X16055000Y-4000000I-22500J0D01*
G01*
D11*
X16020000Y-3945000D02*
X16020000Y-4055000D01*
X16045000Y-3945000D02*
X16045000Y-4055000D01*
X16020000Y-4055000D02*
G75*
G03*
X16045000Y-4055000I12500J0D01*
G01*
X16045000Y-3945000D02*
G75*
G03*
X16020000Y-3945000I-12500J0D01*
G01*
D14*
X15435000Y-6017500D02*
X15435000Y-6092500D01*
X15397500Y-6055000D02*
X15472500Y-6055000D01*
X15435000Y-6217500D02*
X15435000Y-6292500D01*
X15397500Y-6255000D02*
X15472500Y-6255000D01*
X15895000Y-7112500D02*
X15895000Y-7187500D01*
X15857500Y-7150000D02*
X15932500Y-7150000D01*
X15895000Y-7312500D02*
X15895000Y-7387500D01*
X15857500Y-7350000D02*
X15932500Y-7350000D01*
X15895000Y-7512500D02*
X15895000Y-7587500D01*
X15857500Y-7550000D02*
X15932500Y-7550000D01*
X15895000Y-7712500D02*
X15895000Y-7787500D01*
X15857500Y-7750000D02*
X15932500Y-7750000D01*
X15895000Y-7912500D02*
X15895000Y-7987500D01*
X15857500Y-7950000D02*
X15932500Y-7950000D01*
X18885000Y-5737500D02*
X18885000Y-5812500D01*
X18847500Y-5775000D02*
X18922500Y-5775000D01*
X18885000Y-5937500D02*
X18885000Y-6012500D01*
X18847500Y-5975000D02*
X18922500Y-5975000D01*
X18885000Y-6137500D02*
X18885000Y-6212500D01*
X18847500Y-6175000D02*
X18922500Y-6175000D01*
X18895000Y-7967500D02*
X18895000Y-8042500D01*
X18857500Y-8005000D02*
X18932500Y-8005000D01*
X18895000Y-8167500D02*
X18895000Y-8242500D01*
X18857500Y-8205000D02*
X18932500Y-8205000D01*
X18895000Y-8367500D02*
X18895000Y-8442500D01*
X18857500Y-8405000D02*
X18932500Y-8405000D01*
X18895000Y-8567500D02*
X18895000Y-8642500D01*
X18857500Y-8605000D02*
X18932500Y-8605000D01*
D15*
X16652356Y-5291356D02*
X16652356Y-5220644D01*
X16581644Y-5220644D01*
X16581644Y-5291356D01*
X16652356Y-5291356D01*
X16652356Y-5545356D02*
X16652356Y-5474644D01*
X16581644Y-5474644D01*
X16581644Y-5545356D01*
X16652356Y-5545356D01*
X16906356Y-5291356D02*
X16906356Y-5220644D01*
X16835644Y-5220644D01*
X16835644Y-5291356D01*
X16906356Y-5291356D01*
X16906356Y-5545356D02*
X16906356Y-5474644D01*
X16835644Y-5474644D01*
X16835644Y-5545356D01*
X16906356Y-5545356D01*
X17160356Y-5291356D02*
X17160356Y-5220644D01*
X17089644Y-5220644D01*
X17089644Y-5291356D01*
X17160356Y-5291356D01*
X17160356Y-5545356D02*
X17160356Y-5474644D01*
X17089644Y-5474644D01*
X17089644Y-5545356D01*
X17160356Y-5545356D01*
X17414356Y-5291356D02*
X17414356Y-5220644D01*
X17343644Y-5220644D01*
X17343644Y-5291356D01*
X17414356Y-5291356D01*
X17414356Y-5545356D02*
X17414356Y-5474644D01*
X17343644Y-5474644D01*
X17343644Y-5545356D01*
X17414356Y-5545356D01*
X17668356Y-5291356D02*
X17668356Y-5220644D01*
X17597644Y-5220644D01*
X17597644Y-5291356D01*
X17668356Y-5291356D01*
X17668356Y-5545356D02*
X17668356Y-5474644D01*
X17597644Y-5474644D01*
X17597644Y-5545356D01*
X17668356Y-5545356D01*
X18145356Y-5265356D02*
X18145356Y-5194644D01*
X18074644Y-5194644D01*
X18074644Y-5265356D01*
X18145356Y-5265356D01*
X18395356Y-5265356D02*
X18395356Y-5194644D01*
X18324644Y-5194644D01*
X18324644Y-5265356D01*
X18395356Y-5265356D01*
D11*
X15252619Y-11765476D02*
X15252619Y-11565476D01*
X15300238Y-11565476D01*
X15328809Y-11575000D01*
X15347857Y-11594048D01*
X15357381Y-11613095D01*
X15366905Y-11651190D01*
X15366905Y-11679762D01*
X15357381Y-11717857D01*
X15347857Y-11736905D01*
X15328809Y-11755952D01*
X15300238Y-11765476D01*
X15252619Y-11765476D01*
X15452619Y-11765476D02*
X15452619Y-11632143D01*
X15452619Y-11670238D02*
X15462143Y-11651190D01*
X15471667Y-11641667D01*
X15490714Y-11632143D01*
X15509762Y-11632143D01*
X15576428Y-11765476D02*
X15576428Y-11632143D01*
X15576428Y-11565476D02*
X15566905Y-11575000D01*
X15576428Y-11584524D01*
X15585952Y-11575000D01*
X15576428Y-11565476D01*
X15576428Y-11584524D01*
X15700238Y-11765476D02*
X15681190Y-11755952D01*
X15671667Y-11736905D01*
X15671667Y-11565476D01*
X15805000Y-11765476D02*
X15785952Y-11755952D01*
X15776428Y-11736905D01*
X15776428Y-11565476D01*
X16033571Y-11765476D02*
X16033571Y-11565476D01*
X16100238Y-11708333D01*
X16166905Y-11565476D01*
X16166905Y-11765476D01*
X16347857Y-11765476D02*
X16347857Y-11660714D01*
X16338333Y-11641667D01*
X16319286Y-11632143D01*
X16281190Y-11632143D01*
X16262143Y-11641667D01*
X16347857Y-11755952D02*
X16328809Y-11765476D01*
X16281190Y-11765476D01*
X16262143Y-11755952D01*
X16252619Y-11736905D01*
X16252619Y-11717857D01*
X16262143Y-11698809D01*
X16281190Y-11689286D01*
X16328809Y-11689286D01*
X16347857Y-11679762D01*
X16443095Y-11632143D02*
X16443095Y-11832143D01*
X16443095Y-11641667D02*
X16462143Y-11632143D01*
X16500238Y-11632143D01*
X16519286Y-11641667D01*
X16528809Y-11651190D01*
X16538333Y-11670238D01*
X16538333Y-11727381D01*
X16528809Y-11746428D01*
X16519286Y-11755952D01*
X16500238Y-11765476D01*
X16462143Y-11765476D01*
X16443095Y-11755952D01*
X16624048Y-11746428D02*
X16633571Y-11755952D01*
X16624048Y-11765476D01*
X16614524Y-11755952D01*
X16624048Y-11746428D01*
X16624048Y-11765476D01*
X16624048Y-11641667D02*
X16633571Y-11651190D01*
X16624048Y-11660714D01*
X16614524Y-11651190D01*
X16624048Y-11641667D01*
X16624048Y-11660714D01*
D12*
X14955000Y-12075000D02*
X14995000Y-12115000D01*
X14995000Y-12075000D02*
X14955000Y-12115000D01*
D11*
X15290714Y-11985476D02*
X15309762Y-11985476D01*
X15328809Y-11995000D01*
X15338333Y-12004524D01*
X15347857Y-12023571D01*
X15357381Y-12061667D01*
X15357381Y-12109286D01*
X15347857Y-12147381D01*
X15338333Y-12166428D01*
X15328809Y-12175952D01*
X15309762Y-12185476D01*
X15290714Y-12185476D01*
X15271667Y-12175952D01*
X15262143Y-12166428D01*
X15252619Y-12147381D01*
X15243095Y-12109286D01*
X15243095Y-12061667D01*
X15252619Y-12023571D01*
X15262143Y-12004524D01*
X15271667Y-11995000D01*
X15290714Y-11985476D01*
X15443095Y-12166428D02*
X15452619Y-12175952D01*
X15443095Y-12185476D01*
X15433571Y-12175952D01*
X15443095Y-12166428D01*
X15443095Y-12185476D01*
X15624048Y-12052143D02*
X15624048Y-12185476D01*
X15576428Y-11975952D02*
X15528809Y-12118809D01*
X15652619Y-12118809D01*
X15766905Y-11985476D02*
X15785952Y-11985476D01*
X15805000Y-11995000D01*
X15814524Y-12004524D01*
X15824048Y-12023571D01*
X15833571Y-12061667D01*
X15833571Y-12109286D01*
X15824048Y-12147381D01*
X15814524Y-12166428D01*
X15805000Y-12175952D01*
X15785952Y-12185476D01*
X15766905Y-12185476D01*
X15747857Y-12175952D01*
X15738333Y-12166428D01*
X15728809Y-12147381D01*
X15719286Y-12109286D01*
X15719286Y-12061667D01*
X15728809Y-12023571D01*
X15738333Y-12004524D01*
X15747857Y-11995000D01*
X15766905Y-11985476D01*
X15957381Y-11985476D02*
X15976428Y-11985476D01*
X15995476Y-11995000D01*
X16005000Y-12004524D01*
X16014524Y-12023571D01*
X16024048Y-12061667D01*
X16024048Y-12109286D01*
X16014524Y-12147381D01*
X16005000Y-12166428D01*
X15995476Y-12175952D01*
X15976428Y-12185476D01*
X15957381Y-12185476D01*
X15938333Y-12175952D01*
X15928809Y-12166428D01*
X15919286Y-12147381D01*
X15909762Y-12109286D01*
X15909762Y-12061667D01*
X15919286Y-12023571D01*
X15928809Y-12004524D01*
X15938333Y-11995000D01*
X15957381Y-11985476D01*
X16109762Y-12185476D02*
X16109762Y-12052143D01*
X16109762Y-12071190D02*
X16119286Y-12061667D01*
X16138333Y-12052143D01*
X16166905Y-12052143D01*
X16185952Y-12061667D01*
X16195476Y-12080714D01*
X16195476Y-12185476D01*
X16195476Y-12080714D02*
X16205000Y-12061667D01*
X16224048Y-12052143D01*
X16252619Y-12052143D01*
X16271667Y-12061667D01*
X16281190Y-12080714D01*
X16281190Y-12185476D01*
X16376428Y-12185476D02*
X16376428Y-12052143D01*
X16376428Y-12071190D02*
X16385952Y-12061667D01*
X16405000Y-12052143D01*
X16433571Y-12052143D01*
X16452619Y-12061667D01*
X16462143Y-12080714D01*
X16462143Y-12185476D01*
X16462143Y-12080714D02*
X16471667Y-12061667D01*
X16490714Y-12052143D01*
X16519286Y-12052143D01*
X16538333Y-12061667D01*
X16547857Y-12080714D01*
X16547857Y-12185476D01*
X16938333Y-11975952D02*
X16766905Y-12233095D01*
X17195476Y-11985476D02*
X17214524Y-11985476D01*
X17233571Y-11995000D01*
X17243095Y-12004524D01*
X17252619Y-12023571D01*
X17262143Y-12061667D01*
X17262143Y-12109286D01*
X17252619Y-12147381D01*
X17243095Y-12166428D01*
X17233571Y-12175952D01*
X17214524Y-12185476D01*
X17195476Y-12185476D01*
X17176429Y-12175952D01*
X17166905Y-12166428D01*
X17157381Y-12147381D01*
X17147857Y-12109286D01*
X17147857Y-12061667D01*
X17157381Y-12023571D01*
X17166905Y-12004524D01*
X17176429Y-11995000D01*
X17195476Y-11985476D01*
X17347857Y-12166428D02*
X17357381Y-12175952D01*
X17347857Y-12185476D01*
X17338333Y-12175952D01*
X17347857Y-12166428D01*
X17347857Y-12185476D01*
X17481190Y-11985476D02*
X17500238Y-11985476D01*
X17519286Y-11995000D01*
X17528810Y-12004524D01*
X17538333Y-12023571D01*
X17547857Y-12061667D01*
X17547857Y-12109286D01*
X17538333Y-12147381D01*
X17528810Y-12166428D01*
X17519286Y-12175952D01*
X17500238Y-12185476D01*
X17481190Y-12185476D01*
X17462143Y-12175952D01*
X17452619Y-12166428D01*
X17443095Y-12147381D01*
X17433571Y-12109286D01*
X17433571Y-12061667D01*
X17443095Y-12023571D01*
X17452619Y-12004524D01*
X17462143Y-11995000D01*
X17481190Y-11985476D01*
X17738333Y-12185476D02*
X17624048Y-12185476D01*
X17681190Y-12185476D02*
X17681190Y-11985476D01*
X17662143Y-12014048D01*
X17643095Y-12033095D01*
X17624048Y-12042619D01*
X17919286Y-11985476D02*
X17824048Y-11985476D01*
X17814524Y-12080714D01*
X17824048Y-12071190D01*
X17843095Y-12061667D01*
X17890714Y-12061667D01*
X17909762Y-12071190D01*
X17919286Y-12080714D01*
X17928810Y-12099762D01*
X17928810Y-12147381D01*
X17919286Y-12166428D01*
X17909762Y-12175952D01*
X17890714Y-12185476D01*
X17843095Y-12185476D01*
X17824048Y-12175952D01*
X17814524Y-12166428D01*
X17995476Y-11985476D02*
X18128810Y-11985476D01*
X18043095Y-12185476D01*
X18195476Y-11985476D02*
X18195476Y-12023571D01*
X18271667Y-11985476D02*
X18271667Y-12023571D01*
X18566905Y-12261667D02*
X18557381Y-12252143D01*
X18538333Y-12223571D01*
X18528810Y-12204524D01*
X18519286Y-12175952D01*
X18509762Y-12128333D01*
X18509762Y-12090238D01*
X18519286Y-12042619D01*
X18528810Y-12014048D01*
X18538333Y-11995000D01*
X18557381Y-11966428D01*
X18566905Y-11956905D01*
X18747857Y-12185476D02*
X18633571Y-12185476D01*
X18690714Y-12185476D02*
X18690714Y-11985476D01*
X18671667Y-12014048D01*
X18652619Y-12033095D01*
X18633571Y-12042619D01*
X18871667Y-11985476D02*
X18890714Y-11985476D01*
X18909762Y-11995000D01*
X18919286Y-12004524D01*
X18928810Y-12023571D01*
X18938333Y-12061667D01*
X18938333Y-12109286D01*
X18928810Y-12147381D01*
X18919286Y-12166428D01*
X18909762Y-12175952D01*
X18890714Y-12185476D01*
X18871667Y-12185476D01*
X18852619Y-12175952D01*
X18843095Y-12166428D01*
X18833571Y-12147381D01*
X18824048Y-12109286D01*
X18824048Y-12061667D01*
X18833571Y-12023571D01*
X18843095Y-12004524D01*
X18852619Y-11995000D01*
X18871667Y-11985476D01*
X19109762Y-11985476D02*
X19071667Y-11985476D01*
X19052619Y-11995000D01*
X19043095Y-12004524D01*
X19024048Y-12033095D01*
X19014524Y-12071190D01*
X19014524Y-12147381D01*
X19024048Y-12166428D01*
X19033571Y-12175952D01*
X19052619Y-12185476D01*
X19090714Y-12185476D01*
X19109762Y-12175952D01*
X19119286Y-12166428D01*
X19128810Y-12147381D01*
X19128810Y-12099762D01*
X19119286Y-12080714D01*
X19109762Y-12071190D01*
X19090714Y-12061667D01*
X19052619Y-12061667D01*
X19033571Y-12071190D01*
X19024048Y-12080714D01*
X19014524Y-12099762D01*
X19366905Y-12185476D02*
X19366905Y-11985476D01*
X19452619Y-12185476D02*
X19452619Y-12080714D01*
X19443095Y-12061667D01*
X19424048Y-12052143D01*
X19395476Y-12052143D01*
X19376429Y-12061667D01*
X19366905Y-12071190D01*
X19576429Y-12185476D02*
X19557381Y-12175952D01*
X19547857Y-12166428D01*
X19538333Y-12147381D01*
X19538333Y-12090238D01*
X19547857Y-12071190D01*
X19557381Y-12061667D01*
X19576429Y-12052143D01*
X19605000Y-12052143D01*
X19624048Y-12061667D01*
X19633571Y-12071190D01*
X19643095Y-12090238D01*
X19643095Y-12147381D01*
X19633571Y-12166428D01*
X19624048Y-12175952D01*
X19605000Y-12185476D01*
X19576429Y-12185476D01*
X19757381Y-12185476D02*
X19738333Y-12175952D01*
X19728810Y-12156905D01*
X19728810Y-11985476D01*
X19909762Y-12175952D02*
X19890714Y-12185476D01*
X19852619Y-12185476D01*
X19833571Y-12175952D01*
X19824048Y-12156905D01*
X19824048Y-12080714D01*
X19833571Y-12061667D01*
X19852619Y-12052143D01*
X19890714Y-12052143D01*
X19909762Y-12061667D01*
X19919286Y-12080714D01*
X19919286Y-12099762D01*
X19824048Y-12118809D01*
X19995476Y-12175952D02*
X20014524Y-12185476D01*
X20052619Y-12185476D01*
X20071667Y-12175952D01*
X20081190Y-12156905D01*
X20081190Y-12147381D01*
X20071667Y-12128333D01*
X20052619Y-12118809D01*
X20024048Y-12118809D01*
X20005000Y-12109286D01*
X19995476Y-12090238D01*
X19995476Y-12080714D01*
X20005000Y-12061667D01*
X20024048Y-12052143D01*
X20052619Y-12052143D01*
X20071667Y-12061667D01*
X20147857Y-12261667D02*
X20157381Y-12252143D01*
X20176429Y-12223571D01*
X20185952Y-12204524D01*
X20195476Y-12175952D01*
X20205000Y-12128333D01*
X20205000Y-12090238D01*
X20195476Y-12042619D01*
X20185952Y-12014048D01*
X20176429Y-11995000D01*
X20157381Y-11966428D01*
X20147857Y-11956905D01*
D13*
X14995000Y-12359000D02*
G75*
G03*
X14995000Y-12359000I-22500J0D01*
G01*
D11*
X15290714Y-12249476D02*
X15309762Y-12249476D01*
X15328809Y-12259000D01*
X15338333Y-12268524D01*
X15347857Y-12287571D01*
X15357381Y-12325667D01*
X15357381Y-12373286D01*
X15347857Y-12411381D01*
X15338333Y-12430428D01*
X15328809Y-12439952D01*
X15309762Y-12449476D01*
X15290714Y-12449476D01*
X15271667Y-12439952D01*
X15262143Y-12430428D01*
X15252619Y-12411381D01*
X15243095Y-12373286D01*
X15243095Y-12325667D01*
X15252619Y-12287571D01*
X15262143Y-12268524D01*
X15271667Y-12259000D01*
X15290714Y-12249476D01*
X15443095Y-12430428D02*
X15452619Y-12439952D01*
X15443095Y-12449476D01*
X15433571Y-12439952D01*
X15443095Y-12430428D01*
X15443095Y-12449476D01*
X15624048Y-12316143D02*
X15624048Y-12449476D01*
X15576428Y-12239952D02*
X15528809Y-12382809D01*
X15652619Y-12382809D01*
X15824048Y-12249476D02*
X15728809Y-12249476D01*
X15719286Y-12344714D01*
X15728809Y-12335190D01*
X15747857Y-12325667D01*
X15795476Y-12325667D01*
X15814524Y-12335190D01*
X15824048Y-12344714D01*
X15833571Y-12363762D01*
X15833571Y-12411381D01*
X15824048Y-12430428D01*
X15814524Y-12439952D01*
X15795476Y-12449476D01*
X15747857Y-12449476D01*
X15728809Y-12439952D01*
X15719286Y-12430428D01*
X15957381Y-12249476D02*
X15976428Y-12249476D01*
X15995476Y-12259000D01*
X16005000Y-12268524D01*
X16014524Y-12287571D01*
X16024048Y-12325667D01*
X16024048Y-12373286D01*
X16014524Y-12411381D01*
X16005000Y-12430428D01*
X15995476Y-12439952D01*
X15976428Y-12449476D01*
X15957381Y-12449476D01*
X15938333Y-12439952D01*
X15928809Y-12430428D01*
X15919286Y-12411381D01*
X15909762Y-12373286D01*
X15909762Y-12325667D01*
X15919286Y-12287571D01*
X15928809Y-12268524D01*
X15938333Y-12259000D01*
X15957381Y-12249476D01*
X16109762Y-12449476D02*
X16109762Y-12316143D01*
X16109762Y-12335190D02*
X16119286Y-12325667D01*
X16138333Y-12316143D01*
X16166905Y-12316143D01*
X16185952Y-12325667D01*
X16195476Y-12344714D01*
X16195476Y-12449476D01*
X16195476Y-12344714D02*
X16205000Y-12325667D01*
X16224048Y-12316143D01*
X16252619Y-12316143D01*
X16271667Y-12325667D01*
X16281190Y-12344714D01*
X16281190Y-12449476D01*
X16376428Y-12449476D02*
X16376428Y-12316143D01*
X16376428Y-12335190D02*
X16385952Y-12325667D01*
X16405000Y-12316143D01*
X16433571Y-12316143D01*
X16452619Y-12325667D01*
X16462143Y-12344714D01*
X16462143Y-12449476D01*
X16462143Y-12344714D02*
X16471667Y-12325667D01*
X16490714Y-12316143D01*
X16519286Y-12316143D01*
X16538333Y-12325667D01*
X16547857Y-12344714D01*
X16547857Y-12449476D01*
X16938333Y-12239952D02*
X16766905Y-12497095D01*
X17195476Y-12249476D02*
X17214524Y-12249476D01*
X17233571Y-12259000D01*
X17243095Y-12268524D01*
X17252619Y-12287571D01*
X17262143Y-12325667D01*
X17262143Y-12373286D01*
X17252619Y-12411381D01*
X17243095Y-12430428D01*
X17233571Y-12439952D01*
X17214524Y-12449476D01*
X17195476Y-12449476D01*
X17176429Y-12439952D01*
X17166905Y-12430428D01*
X17157381Y-12411381D01*
X17147857Y-12373286D01*
X17147857Y-12325667D01*
X17157381Y-12287571D01*
X17166905Y-12268524D01*
X17176429Y-12259000D01*
X17195476Y-12249476D01*
X17347857Y-12430428D02*
X17357381Y-12439952D01*
X17347857Y-12449476D01*
X17338333Y-12439952D01*
X17347857Y-12430428D01*
X17347857Y-12449476D01*
X17481190Y-12249476D02*
X17500238Y-12249476D01*
X17519286Y-12259000D01*
X17528810Y-12268524D01*
X17538333Y-12287571D01*
X17547857Y-12325667D01*
X17547857Y-12373286D01*
X17538333Y-12411381D01*
X17528810Y-12430428D01*
X17519286Y-12439952D01*
X17500238Y-12449476D01*
X17481190Y-12449476D01*
X17462143Y-12439952D01*
X17452619Y-12430428D01*
X17443095Y-12411381D01*
X17433571Y-12373286D01*
X17433571Y-12325667D01*
X17443095Y-12287571D01*
X17452619Y-12268524D01*
X17462143Y-12259000D01*
X17481190Y-12249476D01*
X17738333Y-12449476D02*
X17624048Y-12449476D01*
X17681190Y-12449476D02*
X17681190Y-12249476D01*
X17662143Y-12278048D01*
X17643095Y-12297095D01*
X17624048Y-12306619D01*
X17805000Y-12249476D02*
X17938333Y-12249476D01*
X17852619Y-12449476D01*
X17995476Y-12249476D02*
X18128810Y-12249476D01*
X18043095Y-12449476D01*
X18195476Y-12249476D02*
X18195476Y-12287571D01*
X18271667Y-12249476D02*
X18271667Y-12287571D01*
X18566905Y-12525667D02*
X18557381Y-12516143D01*
X18538333Y-12487571D01*
X18528810Y-12468524D01*
X18519286Y-12439952D01*
X18509762Y-12392333D01*
X18509762Y-12354238D01*
X18519286Y-12306619D01*
X18528810Y-12278048D01*
X18538333Y-12259000D01*
X18557381Y-12230428D01*
X18566905Y-12220905D01*
X18681190Y-12249476D02*
X18700238Y-12249476D01*
X18719286Y-12259000D01*
X18728810Y-12268524D01*
X18738333Y-12287571D01*
X18747857Y-12325667D01*
X18747857Y-12373286D01*
X18738333Y-12411381D01*
X18728810Y-12430428D01*
X18719286Y-12439952D01*
X18700238Y-12449476D01*
X18681190Y-12449476D01*
X18662143Y-12439952D01*
X18652619Y-12430428D01*
X18643095Y-12411381D01*
X18633571Y-12373286D01*
X18633571Y-12325667D01*
X18643095Y-12287571D01*
X18652619Y-12268524D01*
X18662143Y-12259000D01*
X18681190Y-12249476D01*
X18985952Y-12449476D02*
X18985952Y-12249476D01*
X19071667Y-12449476D02*
X19071667Y-12344714D01*
X19062143Y-12325667D01*
X19043095Y-12316143D01*
X19014524Y-12316143D01*
X18995476Y-12325667D01*
X18985952Y-12335190D01*
X19195476Y-12449476D02*
X19176429Y-12439952D01*
X19166905Y-12430428D01*
X19157381Y-12411381D01*
X19157381Y-12354238D01*
X19166905Y-12335190D01*
X19176429Y-12325667D01*
X19195476Y-12316143D01*
X19224048Y-12316143D01*
X19243095Y-12325667D01*
X19252619Y-12335190D01*
X19262143Y-12354238D01*
X19262143Y-12411381D01*
X19252619Y-12430428D01*
X19243095Y-12439952D01*
X19224048Y-12449476D01*
X19195476Y-12449476D01*
X19376429Y-12449476D02*
X19357381Y-12439952D01*
X19347857Y-12420905D01*
X19347857Y-12249476D01*
X19528810Y-12439952D02*
X19509762Y-12449476D01*
X19471667Y-12449476D01*
X19452619Y-12439952D01*
X19443095Y-12420905D01*
X19443095Y-12344714D01*
X19452619Y-12325667D01*
X19471667Y-12316143D01*
X19509762Y-12316143D01*
X19528810Y-12325667D01*
X19538333Y-12344714D01*
X19538333Y-12363762D01*
X19443095Y-12382809D01*
X19614524Y-12439952D02*
X19633571Y-12449476D01*
X19671667Y-12449476D01*
X19690714Y-12439952D01*
X19700238Y-12420905D01*
X19700238Y-12411381D01*
X19690714Y-12392333D01*
X19671667Y-12382809D01*
X19643095Y-12382809D01*
X19624048Y-12373286D01*
X19614524Y-12354238D01*
X19614524Y-12344714D01*
X19624048Y-12325667D01*
X19643095Y-12316143D01*
X19671667Y-12316143D01*
X19690714Y-12325667D01*
X19938333Y-12373286D02*
X20090714Y-12373286D01*
X20014524Y-12449476D02*
X20014524Y-12297095D01*
X20328810Y-12268524D02*
X20338333Y-12259000D01*
X20357381Y-12249476D01*
X20405000Y-12249476D01*
X20424048Y-12259000D01*
X20433571Y-12268524D01*
X20443095Y-12287571D01*
X20443095Y-12306619D01*
X20433571Y-12335190D01*
X20319286Y-12449476D01*
X20443095Y-12449476D01*
X20671667Y-12439952D02*
X20690714Y-12449476D01*
X20728810Y-12449476D01*
X20747857Y-12439952D01*
X20757381Y-12420905D01*
X20757381Y-12411381D01*
X20747857Y-12392333D01*
X20728810Y-12382809D01*
X20700238Y-12382809D01*
X20681190Y-12373286D01*
X20671667Y-12354238D01*
X20671667Y-12344714D01*
X20681190Y-12325667D01*
X20700238Y-12316143D01*
X20728810Y-12316143D01*
X20747857Y-12325667D01*
X20871667Y-12449476D02*
X20852619Y-12439952D01*
X20843095Y-12420905D01*
X20843095Y-12249476D01*
X20976429Y-12449476D02*
X20957381Y-12439952D01*
X20947857Y-12430428D01*
X20938333Y-12411381D01*
X20938333Y-12354238D01*
X20947857Y-12335190D01*
X20957381Y-12325667D01*
X20976429Y-12316143D01*
X21005000Y-12316143D01*
X21024048Y-12325667D01*
X21033571Y-12335190D01*
X21043095Y-12354238D01*
X21043095Y-12411381D01*
X21033571Y-12430428D01*
X21024048Y-12439952D01*
X21005000Y-12449476D01*
X20976429Y-12449476D01*
X21100238Y-12316143D02*
X21176429Y-12316143D01*
X21128810Y-12249476D02*
X21128810Y-12420905D01*
X21138333Y-12439952D01*
X21157381Y-12449476D01*
X21176429Y-12449476D01*
X21233571Y-12439952D02*
X21252619Y-12449476D01*
X21290714Y-12449476D01*
X21309762Y-12439952D01*
X21319286Y-12420905D01*
X21319286Y-12411381D01*
X21309762Y-12392333D01*
X21290714Y-12382809D01*
X21262143Y-12382809D01*
X21243095Y-12373286D01*
X21233571Y-12354238D01*
X21233571Y-12344714D01*
X21243095Y-12325667D01*
X21262143Y-12316143D01*
X21290714Y-12316143D01*
X21309762Y-12325667D01*
X21385952Y-12525667D02*
X21395476Y-12516143D01*
X21414524Y-12487571D01*
X21424048Y-12468524D01*
X21433571Y-12439952D01*
X21443095Y-12392333D01*
X21443095Y-12354238D01*
X21433571Y-12306619D01*
X21424048Y-12278048D01*
X21414524Y-12259000D01*
X21395476Y-12230428D01*
X21385952Y-12220905D01*
D14*
X14957500Y-12585500D02*
X14957500Y-12660500D01*
X14920000Y-12623000D02*
X14995000Y-12623000D01*
D11*
X15290714Y-12513476D02*
X15309762Y-12513476D01*
X15328809Y-12523000D01*
X15338333Y-12532524D01*
X15347857Y-12551571D01*
X15357381Y-12589667D01*
X15357381Y-12637286D01*
X15347857Y-12675381D01*
X15338333Y-12694428D01*
X15328809Y-12703952D01*
X15309762Y-12713476D01*
X15290714Y-12713476D01*
X15271667Y-12703952D01*
X15262143Y-12694428D01*
X15252619Y-12675381D01*
X15243095Y-12637286D01*
X15243095Y-12589667D01*
X15252619Y-12551571D01*
X15262143Y-12532524D01*
X15271667Y-12523000D01*
X15290714Y-12513476D01*
X15443095Y-12694428D02*
X15452619Y-12703952D01*
X15443095Y-12713476D01*
X15433571Y-12703952D01*
X15443095Y-12694428D01*
X15443095Y-12713476D01*
X15519286Y-12513476D02*
X15652619Y-12513476D01*
X15566905Y-12713476D01*
X15824048Y-12513476D02*
X15728809Y-12513476D01*
X15719286Y-12608714D01*
X15728809Y-12599190D01*
X15747857Y-12589667D01*
X15795476Y-12589667D01*
X15814524Y-12599190D01*
X15824048Y-12608714D01*
X15833571Y-12627762D01*
X15833571Y-12675381D01*
X15824048Y-12694428D01*
X15814524Y-12703952D01*
X15795476Y-12713476D01*
X15747857Y-12713476D01*
X15728809Y-12703952D01*
X15719286Y-12694428D01*
X15957381Y-12513476D02*
X15976428Y-12513476D01*
X15995476Y-12523000D01*
X16005000Y-12532524D01*
X16014524Y-12551571D01*
X16024048Y-12589667D01*
X16024048Y-12637286D01*
X16014524Y-12675381D01*
X16005000Y-12694428D01*
X15995476Y-12703952D01*
X15976428Y-12713476D01*
X15957381Y-12713476D01*
X15938333Y-12703952D01*
X15928809Y-12694428D01*
X15919286Y-12675381D01*
X15909762Y-12637286D01*
X15909762Y-12589667D01*
X15919286Y-12551571D01*
X15928809Y-12532524D01*
X15938333Y-12523000D01*
X15957381Y-12513476D01*
X16109762Y-12713476D02*
X16109762Y-12580143D01*
X16109762Y-12599190D02*
X16119286Y-12589667D01*
X16138333Y-12580143D01*
X16166905Y-12580143D01*
X16185952Y-12589667D01*
X16195476Y-12608714D01*
X16195476Y-12713476D01*
X16195476Y-12608714D02*
X16205000Y-12589667D01*
X16224048Y-12580143D01*
X16252619Y-12580143D01*
X16271667Y-12589667D01*
X16281190Y-12608714D01*
X16281190Y-12713476D01*
X16376428Y-12713476D02*
X16376428Y-12580143D01*
X16376428Y-12599190D02*
X16385952Y-12589667D01*
X16405000Y-12580143D01*
X16433571Y-12580143D01*
X16452619Y-12589667D01*
X16462143Y-12608714D01*
X16462143Y-12713476D01*
X16462143Y-12608714D02*
X16471667Y-12589667D01*
X16490714Y-12580143D01*
X16519286Y-12580143D01*
X16538333Y-12589667D01*
X16547857Y-12608714D01*
X16547857Y-12713476D01*
X16938333Y-12503952D02*
X16766905Y-12761095D01*
X17195476Y-12513476D02*
X17214524Y-12513476D01*
X17233571Y-12523000D01*
X17243095Y-12532524D01*
X17252619Y-12551571D01*
X17262143Y-12589667D01*
X17262143Y-12637286D01*
X17252619Y-12675381D01*
X17243095Y-12694428D01*
X17233571Y-12703952D01*
X17214524Y-12713476D01*
X17195476Y-12713476D01*
X17176429Y-12703952D01*
X17166905Y-12694428D01*
X17157381Y-12675381D01*
X17147857Y-12637286D01*
X17147857Y-12589667D01*
X17157381Y-12551571D01*
X17166905Y-12532524D01*
X17176429Y-12523000D01*
X17195476Y-12513476D01*
X17347857Y-12694428D02*
X17357381Y-12703952D01*
X17347857Y-12713476D01*
X17338333Y-12703952D01*
X17347857Y-12694428D01*
X17347857Y-12713476D01*
X17481190Y-12513476D02*
X17500238Y-12513476D01*
X17519286Y-12523000D01*
X17528810Y-12532524D01*
X17538333Y-12551571D01*
X17547857Y-12589667D01*
X17547857Y-12637286D01*
X17538333Y-12675381D01*
X17528810Y-12694428D01*
X17519286Y-12703952D01*
X17500238Y-12713476D01*
X17481190Y-12713476D01*
X17462143Y-12703952D01*
X17452619Y-12694428D01*
X17443095Y-12675381D01*
X17433571Y-12637286D01*
X17433571Y-12589667D01*
X17443095Y-12551571D01*
X17452619Y-12532524D01*
X17462143Y-12523000D01*
X17481190Y-12513476D01*
X17624048Y-12532524D02*
X17633571Y-12523000D01*
X17652619Y-12513476D01*
X17700238Y-12513476D01*
X17719286Y-12523000D01*
X17728810Y-12532524D01*
X17738333Y-12551571D01*
X17738333Y-12570619D01*
X17728810Y-12599190D01*
X17614524Y-12713476D01*
X17738333Y-12713476D01*
X17833571Y-12713476D02*
X17871667Y-12713476D01*
X17890714Y-12703952D01*
X17900238Y-12694428D01*
X17919286Y-12665857D01*
X17928810Y-12627762D01*
X17928810Y-12551571D01*
X17919286Y-12532524D01*
X17909762Y-12523000D01*
X17890714Y-12513476D01*
X17852619Y-12513476D01*
X17833571Y-12523000D01*
X17824048Y-12532524D01*
X17814524Y-12551571D01*
X17814524Y-12599190D01*
X17824048Y-12618238D01*
X17833571Y-12627762D01*
X17852619Y-12637286D01*
X17890714Y-12637286D01*
X17909762Y-12627762D01*
X17919286Y-12618238D01*
X17928810Y-12599190D01*
X18109762Y-12513476D02*
X18014524Y-12513476D01*
X18005000Y-12608714D01*
X18014524Y-12599190D01*
X18033571Y-12589667D01*
X18081190Y-12589667D01*
X18100238Y-12599190D01*
X18109762Y-12608714D01*
X18119286Y-12627762D01*
X18119286Y-12675381D01*
X18109762Y-12694428D01*
X18100238Y-12703952D01*
X18081190Y-12713476D01*
X18033571Y-12713476D01*
X18014524Y-12703952D01*
X18005000Y-12694428D01*
X18195476Y-12513476D02*
X18195476Y-12551571D01*
X18271667Y-12513476D02*
X18271667Y-12551571D01*
X18566905Y-12789667D02*
X18557381Y-12780143D01*
X18538333Y-12751571D01*
X18528810Y-12732524D01*
X18519286Y-12703952D01*
X18509762Y-12656333D01*
X18509762Y-12618238D01*
X18519286Y-12570619D01*
X18528810Y-12542048D01*
X18538333Y-12523000D01*
X18557381Y-12494428D01*
X18566905Y-12484905D01*
X18747857Y-12713476D02*
X18633571Y-12713476D01*
X18690714Y-12713476D02*
X18690714Y-12513476D01*
X18671667Y-12542048D01*
X18652619Y-12561095D01*
X18633571Y-12570619D01*
X18919286Y-12580143D02*
X18919286Y-12713476D01*
X18871667Y-12503952D02*
X18824048Y-12646809D01*
X18947857Y-12646809D01*
X19176429Y-12713476D02*
X19176429Y-12513476D01*
X19262143Y-12713476D02*
X19262143Y-12608714D01*
X19252619Y-12589667D01*
X19233571Y-12580143D01*
X19205000Y-12580143D01*
X19185952Y-12589667D01*
X19176429Y-12599190D01*
X19385952Y-12713476D02*
X19366905Y-12703952D01*
X19357381Y-12694428D01*
X19347857Y-12675381D01*
X19347857Y-12618238D01*
X19357381Y-12599190D01*
X19366905Y-12589667D01*
X19385952Y-12580143D01*
X19414524Y-12580143D01*
X19433571Y-12589667D01*
X19443095Y-12599190D01*
X19452619Y-12618238D01*
X19452619Y-12675381D01*
X19443095Y-12694428D01*
X19433571Y-12703952D01*
X19414524Y-12713476D01*
X19385952Y-12713476D01*
X19566905Y-12713476D02*
X19547857Y-12703952D01*
X19538333Y-12684905D01*
X19538333Y-12513476D01*
X19719286Y-12703952D02*
X19700238Y-12713476D01*
X19662143Y-12713476D01*
X19643095Y-12703952D01*
X19633571Y-12684905D01*
X19633571Y-12608714D01*
X19643095Y-12589667D01*
X19662143Y-12580143D01*
X19700238Y-12580143D01*
X19719286Y-12589667D01*
X19728810Y-12608714D01*
X19728810Y-12627762D01*
X19633571Y-12646809D01*
X19805000Y-12703952D02*
X19824048Y-12713476D01*
X19862143Y-12713476D01*
X19881190Y-12703952D01*
X19890714Y-12684905D01*
X19890714Y-12675381D01*
X19881190Y-12656333D01*
X19862143Y-12646809D01*
X19833571Y-12646809D01*
X19814524Y-12637286D01*
X19805000Y-12618238D01*
X19805000Y-12608714D01*
X19814524Y-12589667D01*
X19833571Y-12580143D01*
X19862143Y-12580143D01*
X19881190Y-12589667D01*
X19957381Y-12789667D02*
X19966905Y-12780143D01*
X19985952Y-12751571D01*
X19995476Y-12732524D01*
X20005000Y-12703952D01*
X20014524Y-12656333D01*
X20014524Y-12618238D01*
X20005000Y-12570619D01*
X19995476Y-12542048D01*
X19985952Y-12523000D01*
X19966905Y-12494428D01*
X19957381Y-12484905D01*
D15*
X14980356Y-12922356D02*
X14980356Y-12851644D01*
X14909644Y-12851644D01*
X14909644Y-12922356D01*
X14980356Y-12922356D01*
D11*
X15357381Y-12977476D02*
X15243095Y-12977476D01*
X15300238Y-12977476D02*
X15300238Y-12777476D01*
X15281190Y-12806048D01*
X15262143Y-12825095D01*
X15243095Y-12834619D01*
X15443095Y-12958428D02*
X15452619Y-12967952D01*
X15443095Y-12977476D01*
X15433571Y-12967952D01*
X15443095Y-12958428D01*
X15443095Y-12977476D01*
X15576428Y-12777476D02*
X15595476Y-12777476D01*
X15614524Y-12787000D01*
X15624048Y-12796524D01*
X15633571Y-12815571D01*
X15643095Y-12853667D01*
X15643095Y-12901286D01*
X15633571Y-12939381D01*
X15624048Y-12958428D01*
X15614524Y-12967952D01*
X15595476Y-12977476D01*
X15576428Y-12977476D01*
X15557381Y-12967952D01*
X15547857Y-12958428D01*
X15538333Y-12939381D01*
X15528809Y-12901286D01*
X15528809Y-12853667D01*
X15538333Y-12815571D01*
X15547857Y-12796524D01*
X15557381Y-12787000D01*
X15576428Y-12777476D01*
X15766905Y-12777476D02*
X15785952Y-12777476D01*
X15805000Y-12787000D01*
X15814524Y-12796524D01*
X15824048Y-12815571D01*
X15833571Y-12853667D01*
X15833571Y-12901286D01*
X15824048Y-12939381D01*
X15814524Y-12958428D01*
X15805000Y-12967952D01*
X15785952Y-12977476D01*
X15766905Y-12977476D01*
X15747857Y-12967952D01*
X15738333Y-12958428D01*
X15728809Y-12939381D01*
X15719286Y-12901286D01*
X15719286Y-12853667D01*
X15728809Y-12815571D01*
X15738333Y-12796524D01*
X15747857Y-12787000D01*
X15766905Y-12777476D01*
X15957381Y-12777476D02*
X15976428Y-12777476D01*
X15995476Y-12787000D01*
X16005000Y-12796524D01*
X16014524Y-12815571D01*
X16024048Y-12853667D01*
X16024048Y-12901286D01*
X16014524Y-12939381D01*
X16005000Y-12958428D01*
X15995476Y-12967952D01*
X15976428Y-12977476D01*
X15957381Y-12977476D01*
X15938333Y-12967952D01*
X15928809Y-12958428D01*
X15919286Y-12939381D01*
X15909762Y-12901286D01*
X15909762Y-12853667D01*
X15919286Y-12815571D01*
X15928809Y-12796524D01*
X15938333Y-12787000D01*
X15957381Y-12777476D01*
X16109762Y-12977476D02*
X16109762Y-12844143D01*
X16109762Y-12863190D02*
X16119286Y-12853667D01*
X16138333Y-12844143D01*
X16166905Y-12844143D01*
X16185952Y-12853667D01*
X16195476Y-12872714D01*
X16195476Y-12977476D01*
X16195476Y-12872714D02*
X16205000Y-12853667D01*
X16224048Y-12844143D01*
X16252619Y-12844143D01*
X16271667Y-12853667D01*
X16281190Y-12872714D01*
X16281190Y-12977476D01*
X16376428Y-12977476D02*
X16376428Y-12844143D01*
X16376428Y-12863190D02*
X16385952Y-12853667D01*
X16405000Y-12844143D01*
X16433571Y-12844143D01*
X16452619Y-12853667D01*
X16462143Y-12872714D01*
X16462143Y-12977476D01*
X16462143Y-12872714D02*
X16471667Y-12853667D01*
X16490714Y-12844143D01*
X16519286Y-12844143D01*
X16538333Y-12853667D01*
X16547857Y-12872714D01*
X16547857Y-12977476D01*
X16938333Y-12767952D02*
X16766905Y-13025095D01*
X17195476Y-12777476D02*
X17214524Y-12777476D01*
X17233571Y-12787000D01*
X17243095Y-12796524D01*
X17252619Y-12815571D01*
X17262143Y-12853667D01*
X17262143Y-12901286D01*
X17252619Y-12939381D01*
X17243095Y-12958428D01*
X17233571Y-12967952D01*
X17214524Y-12977476D01*
X17195476Y-12977476D01*
X17176429Y-12967952D01*
X17166905Y-12958428D01*
X17157381Y-12939381D01*
X17147857Y-12901286D01*
X17147857Y-12853667D01*
X17157381Y-12815571D01*
X17166905Y-12796524D01*
X17176429Y-12787000D01*
X17195476Y-12777476D01*
X17347857Y-12958428D02*
X17357381Y-12967952D01*
X17347857Y-12977476D01*
X17338333Y-12967952D01*
X17347857Y-12958428D01*
X17347857Y-12977476D01*
X17481190Y-12777476D02*
X17500238Y-12777476D01*
X17519286Y-12787000D01*
X17528810Y-12796524D01*
X17538333Y-12815571D01*
X17547857Y-12853667D01*
X17547857Y-12901286D01*
X17538333Y-12939381D01*
X17528810Y-12958428D01*
X17519286Y-12967952D01*
X17500238Y-12977476D01*
X17481190Y-12977476D01*
X17462143Y-12967952D01*
X17452619Y-12958428D01*
X17443095Y-12939381D01*
X17433571Y-12901286D01*
X17433571Y-12853667D01*
X17443095Y-12815571D01*
X17452619Y-12796524D01*
X17462143Y-12787000D01*
X17481190Y-12777476D01*
X17614524Y-12777476D02*
X17738333Y-12777476D01*
X17671667Y-12853667D01*
X17700238Y-12853667D01*
X17719286Y-12863190D01*
X17728810Y-12872714D01*
X17738333Y-12891762D01*
X17738333Y-12939381D01*
X17728810Y-12958428D01*
X17719286Y-12967952D01*
X17700238Y-12977476D01*
X17643095Y-12977476D01*
X17624048Y-12967952D01*
X17614524Y-12958428D01*
X17833571Y-12977476D02*
X17871667Y-12977476D01*
X17890714Y-12967952D01*
X17900238Y-12958428D01*
X17919286Y-12929857D01*
X17928810Y-12891762D01*
X17928810Y-12815571D01*
X17919286Y-12796524D01*
X17909762Y-12787000D01*
X17890714Y-12777476D01*
X17852619Y-12777476D01*
X17833571Y-12787000D01*
X17824048Y-12796524D01*
X17814524Y-12815571D01*
X17814524Y-12863190D01*
X17824048Y-12882238D01*
X17833571Y-12891762D01*
X17852619Y-12901286D01*
X17890714Y-12901286D01*
X17909762Y-12891762D01*
X17919286Y-12882238D01*
X17928810Y-12863190D01*
X18100238Y-12844143D02*
X18100238Y-12977476D01*
X18052619Y-12767952D02*
X18005000Y-12910809D01*
X18128810Y-12910809D01*
X18195476Y-12777476D02*
X18195476Y-12815571D01*
X18271667Y-12777476D02*
X18271667Y-12815571D01*
X18566905Y-13053667D02*
X18557381Y-13044143D01*
X18538333Y-13015571D01*
X18528810Y-12996524D01*
X18519286Y-12967952D01*
X18509762Y-12920333D01*
X18509762Y-12882238D01*
X18519286Y-12834619D01*
X18528810Y-12806048D01*
X18538333Y-12787000D01*
X18557381Y-12758428D01*
X18566905Y-12748905D01*
X18747857Y-12977476D02*
X18633571Y-12977476D01*
X18690714Y-12977476D02*
X18690714Y-12777476D01*
X18671667Y-12806048D01*
X18652619Y-12825095D01*
X18633571Y-12834619D01*
X18824048Y-12796524D02*
X18833571Y-12787000D01*
X18852619Y-12777476D01*
X18900238Y-12777476D01*
X18919286Y-12787000D01*
X18928810Y-12796524D01*
X18938333Y-12815571D01*
X18938333Y-12834619D01*
X18928810Y-12863190D01*
X18814524Y-12977476D01*
X18938333Y-12977476D01*
X19176429Y-12977476D02*
X19176429Y-12777476D01*
X19262143Y-12977476D02*
X19262143Y-12872714D01*
X19252619Y-12853667D01*
X19233571Y-12844143D01*
X19205000Y-12844143D01*
X19185952Y-12853667D01*
X19176429Y-12863190D01*
X19385952Y-12977476D02*
X19366905Y-12967952D01*
X19357381Y-12958428D01*
X19347857Y-12939381D01*
X19347857Y-12882238D01*
X19357381Y-12863190D01*
X19366905Y-12853667D01*
X19385952Y-12844143D01*
X19414524Y-12844143D01*
X19433571Y-12853667D01*
X19443095Y-12863190D01*
X19452619Y-12882238D01*
X19452619Y-12939381D01*
X19443095Y-12958428D01*
X19433571Y-12967952D01*
X19414524Y-12977476D01*
X19385952Y-12977476D01*
X19566905Y-12977476D02*
X19547857Y-12967952D01*
X19538333Y-12948905D01*
X19538333Y-12777476D01*
X19719286Y-12967952D02*
X19700238Y-12977476D01*
X19662143Y-12977476D01*
X19643095Y-12967952D01*
X19633571Y-12948905D01*
X19633571Y-12872714D01*
X19643095Y-12853667D01*
X19662143Y-12844143D01*
X19700238Y-12844143D01*
X19719286Y-12853667D01*
X19728810Y-12872714D01*
X19728810Y-12891762D01*
X19633571Y-12910809D01*
X19805000Y-12967952D02*
X19824048Y-12977476D01*
X19862143Y-12977476D01*
X19881190Y-12967952D01*
X19890714Y-12948905D01*
X19890714Y-12939381D01*
X19881190Y-12920333D01*
X19862143Y-12910809D01*
X19833571Y-12910809D01*
X19814524Y-12901286D01*
X19805000Y-12882238D01*
X19805000Y-12872714D01*
X19814524Y-12853667D01*
X19833571Y-12844143D01*
X19862143Y-12844143D01*
X19881190Y-12853667D01*
X19957381Y-13053667D02*
X19966905Y-13044143D01*
X19985952Y-13015571D01*
X19995476Y-12996524D01*
X20005000Y-12967952D01*
X20014524Y-12920333D01*
X20014524Y-12882238D01*
X20005000Y-12834619D01*
X19995476Y-12806048D01*
X19985952Y-12787000D01*
X19966905Y-12758428D01*
X19957381Y-12748905D01*
M02*
