M48
; DRILL file {KiCad 6.0.5+dfsg-1} date Sun 12 Jun 2022 07:50:49 PM CST
; FORMAT={-:-/ absolute / inch / decimal}
; #@! TF.CreationDate,2022-06-12T19:50:49+08:00
; #@! TF.GenerationSoftware,Kicad,Pcbnew,6.0.5+dfsg-1
; #@! TF.FileFunction,Plated,1,2,PTH
FMAT,2
INCH
; #@! TA.AperFunction,Plated,PTH,ViaDrill
T1C0.0157
; #@! TA.AperFunction,Plated,PTH,ComponentDrill
T2C0.0177
; #@! TA.AperFunction,Plated,PTH,ComponentDrill
T3C0.0295
; #@! TA.AperFunction,Plated,PTH,ComponentDrill
T4C0.0394
%
G90
G05
T1
X5.9724Y-2.8701
X5.9724Y-2.937
X5.9724Y-3.4055
X5.9803Y-3.252
X5.9862Y-2.0108
X5.9882Y-3.9094
X5.9921Y-3.8209
X6.0074Y-4.0763
X6.0374Y-1.7106
X6.0394Y-2.5945
X6.0405Y-1.6202
X6.0472Y-3.4921
X6.1083Y-1.9843
X6.1083Y-2.0276
X6.1142Y-2.9409
X6.1358Y-2.2854
X6.1536Y-1.7789
X6.1699Y-3.3146
X6.1713Y-1.9843
X6.1713Y-2.0276
X6.1811Y-4.1496
X6.2047Y-3.8642
X6.2072Y-1.7948
X6.2597Y-1.7588
X6.2598Y-2.6181
X6.2835Y-1.8701
X6.2933Y-2.7441
X6.3209Y-2.4882
X6.3287Y-1.8386
X6.3327Y-1.7224
X6.3406Y-3.4902
X6.3729Y-3.9592
X6.374Y-2.0187
X6.3849Y-3.8734
X6.4055Y-2.7736
X6.4075Y-3.4429
X6.4114Y-2.9409
X6.4252Y-3.8701
X6.4391Y-3.9307
X6.4567Y-1.624
X6.4665Y-2.5
X6.4835Y-3.8694
X6.502Y-3.7953
X6.5059Y-1.8071
X6.5059Y-1.9075
X6.5192Y-3.8528
X6.5512Y-3.6752
X6.5591Y-1.7736
X6.5591Y-1.9075
X6.561Y-2.8484
X6.561Y-2.8976
X6.6122Y-2.8996
X6.6496Y-3.6752
X6.6725Y-3.1272
X6.6732Y-3.0433
X6.6732Y-3.0866
X6.6766Y-3.1664
X6.7303Y-3.1811
X6.7677Y-3.6752
X6.7918Y-2.7465
X6.7933Y-2.4665
X6.7963Y-2.3445
X6.7972Y-2.5197
X6.8445Y-2.5236
X6.9498Y-2.797
X6.9651Y-2.594
X6.9685Y-3.6791
X6.9843Y-1.6673
X6.9843Y-2.3445
X7.0256Y-3.0413
X7.0354Y-3.8839
X7.0364Y-3.7254
X7.065Y-3.6654
X7.0781Y-3.7569
X7.0846Y-2.3515
X7.0886Y-3.8799
X7.1024Y-3.685
X7.1319Y-2.6004
X7.1319Y-3.7815
X7.1358Y-2.5364
X7.1378Y-3.8839
X7.1417Y-3.6713
X7.1805Y-3.6645
X7.1929Y-3.4724
X7.1949Y-3.313
X7.2067Y-2.2126
X7.248Y-2.7953
X7.248Y-2.8504
X7.2509Y-3.748
X7.252Y-3.5394
X7.2894Y-3.7146
X7.2953Y-4.0571
X7.2964Y-2.7313
X7.3307Y-1.8071
X7.3406Y-2.5866
X7.3504Y-4.2992
X7.3592Y-2.8472
X7.4074Y-2.1422
X7.4075Y-2.6097
X7.4094Y-4.2854
X7.4764Y-4.2815
X7.4823Y-4.4409
X7.502Y-1.6693
X7.5118Y-3.8504
X7.5197Y-4.2146
X7.5199Y-4.0261
T3
X6.0768Y-2.3839
X6.0768Y-2.4626
X6.2579Y-2.815
X6.2579Y-2.8937
X6.2579Y-2.9724
X6.2579Y-3.0512
X6.2579Y-3.1299
X7.435Y-2.2736
X7.435Y-2.3524
X7.435Y-2.4311
X7.439Y-3.1516
X7.439Y-3.2303
X7.439Y-3.3091
X7.439Y-3.3878
T4
X6.5421Y-2.0693
X6.5421Y-2.1693
X6.6421Y-2.0693
X6.6421Y-2.1693
X6.7421Y-2.0693
X6.7421Y-2.1693
X6.8421Y-2.0693
X6.8421Y-2.1693
X6.9421Y-2.0693
X6.9421Y-2.1693
X7.1299Y-2.0591
X7.2283Y-2.0591
T2
G00X6.0896Y-1.5531
M15
G01X6.0896Y-1.5965
M16
G05
G00X6.312Y-1.5531
M15
G01X6.312Y-1.5965
M16
G05
T0
M30
